%TF.GenerationSoftware,KiCad,Pcbnew,9.0.0*%
%TF.CreationDate,2026-06-09T21:50:51-04:00*%
%TF.ProjectId,MagnetronController,4d61676e-6574-4726-9f6e-436f6e74726f,rev?*%
%TF.SameCoordinates,Original*%
%TF.FileFunction,Soldermask,Top*%
%TF.FilePolarity,Negative*%
%FSLAX46Y46*%
G04 Gerber Fmt 4.6, Leading zero omitted, Abs format (unit mm)*
G04 Created by KiCad (PCBNEW 9.0.0) date 2026-06-09 21:50:51*
%MOMM*%
%LPD*%
G01*
G04 APERTURE LIST*
G04 Aperture macros list*
%AMRoundRect*
0 Rectangle with rounded corners*
0 $1 Rounding radius*
0 $2 $3 $4 $5 $6 $7 $8 $9 X,Y pos of 4 corners*
0 Add a 4 corners polygon primitive as box body*
4,1,4,$2,$3,$4,$5,$6,$7,$8,$9,$2,$3,0*
0 Add four circle primitives for the rounded corners*
1,1,$1+$1,$2,$3*
1,1,$1+$1,$4,$5*
1,1,$1+$1,$6,$7*
1,1,$1+$1,$8,$9*
0 Add four rect primitives between the rounded corners*
20,1,$1+$1,$2,$3,$4,$5,0*
20,1,$1+$1,$4,$5,$6,$7,0*
20,1,$1+$1,$6,$7,$8,$9,0*
20,1,$1+$1,$8,$9,$2,$3,0*%
G04 Aperture macros list end*
%ADD10R,1.700000X1.700000*%
%ADD11O,1.700000X1.700000*%
%ADD12RoundRect,0.250000X0.475000X-0.337500X0.475000X0.337500X-0.475000X0.337500X-0.475000X-0.337500X0*%
%ADD13C,3.600000*%
%ADD14C,5.700000*%
%ADD15R,1.600000X1.600000*%
%ADD16O,1.600000X1.600000*%
%ADD17C,1.600000*%
%ADD18RoundRect,0.250000X0.350000X0.450000X-0.350000X0.450000X-0.350000X-0.450000X0.350000X-0.450000X0*%
%ADD19C,2.500000*%
%ADD20C,2.000000*%
%ADD21RoundRect,0.250000X-0.600000X0.600000X-0.600000X-0.600000X0.600000X-0.600000X0.600000X0.600000X0*%
%ADD22C,1.700000*%
%ADD23RoundRect,0.250000X0.450000X-0.350000X0.450000X0.350000X-0.450000X0.350000X-0.450000X-0.350000X0*%
%ADD24R,1.300000X1.300000*%
%ADD25C,1.300000*%
%ADD26RoundRect,0.225000X0.225000X0.375000X-0.225000X0.375000X-0.225000X-0.375000X0.225000X-0.375000X0*%
%ADD27RoundRect,0.250000X-0.350000X-0.450000X0.350000X-0.450000X0.350000X0.450000X-0.350000X0.450000X0*%
%ADD28RoundRect,0.250000X0.600000X0.600000X-0.600000X0.600000X-0.600000X-0.600000X0.600000X-0.600000X0*%
%ADD29RoundRect,0.250000X-0.550000X-0.550000X0.550000X-0.550000X0.550000X0.550000X-0.550000X0.550000X0*%
%ADD30R,2.600000X2.600000*%
%ADD31C,2.600000*%
G04 APERTURE END LIST*
D10*
%TO.C,J1*%
X53757500Y-88900000D03*
D11*
X53757500Y-91440000D03*
X53757500Y-93980000D03*
X53757500Y-96520000D03*
%TD*%
D10*
%TO.C,pwr sw*%
X103632000Y-77216000D03*
D11*
X103632000Y-79756000D03*
%TD*%
D12*
%TO.C,C9*%
X92583000Y-88773500D03*
X92583000Y-86698500D03*
%TD*%
D13*
%TO.C,H4*%
X126238000Y-138938000D03*
D14*
X126238000Y-138938000D03*
%TD*%
D13*
%TO.C,H3*%
X55372000Y-138938000D03*
D14*
X55372000Y-138938000D03*
%TD*%
D13*
%TO.C,H2*%
X126238000Y-68072000D03*
D14*
X126238000Y-68072000D03*
%TD*%
D15*
%TO.C,A1*%
X58928000Y-98292000D03*
D16*
X61468000Y-98292000D03*
X64008000Y-98292000D03*
X66548000Y-98292000D03*
X69088000Y-98292000D03*
X71628000Y-98292000D03*
X74168000Y-98292000D03*
X76708000Y-98292000D03*
X76708000Y-85592000D03*
X74168000Y-85592000D03*
X71628000Y-85592000D03*
X69088000Y-85592000D03*
X66548000Y-85592000D03*
X64008000Y-85592000D03*
X61468000Y-85592000D03*
X58928000Y-85592000D03*
%TD*%
D15*
%TO.C,C1*%
X82042000Y-99100000D03*
D17*
X82042000Y-101600000D03*
%TD*%
D18*
%TO.C,R3*%
X76417500Y-81038500D03*
X74417500Y-81038500D03*
%TD*%
D19*
%TO.C,J2*%
X94699500Y-66377500D03*
X90199500Y-66377500D03*
X85699500Y-66377500D03*
D20*
X90199500Y-78377500D03*
X94699500Y-78377500D03*
X85699500Y-78377500D03*
%TD*%
D21*
%TO.C,J8*%
X105840000Y-129620000D03*
D22*
X105840000Y-132160000D03*
X103300000Y-129620000D03*
X103300000Y-132160000D03*
X100760000Y-129620000D03*
X100760000Y-132160000D03*
X98220000Y-129620000D03*
X98220000Y-132160000D03*
X95680000Y-129620000D03*
X95680000Y-132160000D03*
X93140000Y-129620000D03*
X93140000Y-132160000D03*
X90600000Y-129620000D03*
X90600000Y-132160000D03*
X88060000Y-129620000D03*
X88060000Y-132160000D03*
X85520000Y-129620000D03*
X85520000Y-132160000D03*
X82980000Y-129620000D03*
X82980000Y-132160000D03*
X80440000Y-129620000D03*
X80440000Y-132160000D03*
X77900000Y-129620000D03*
X77900000Y-132160000D03*
X75360000Y-129620000D03*
X75360000Y-132160000D03*
%TD*%
D19*
%TO.C,J3*%
X75517500Y-66200500D03*
X71017500Y-66200500D03*
X66517500Y-66200500D03*
D20*
X71017500Y-78200500D03*
X75517500Y-78200500D03*
X66517500Y-78200500D03*
%TD*%
D23*
%TO.C,R4*%
X92583000Y-95666000D03*
X92583000Y-93666000D03*
%TD*%
D15*
%TO.C,U10*%
X61426500Y-121347500D03*
D17*
X63966500Y-121347500D03*
X66506500Y-121347500D03*
X69046500Y-121347500D03*
X71586500Y-121347500D03*
X74126500Y-121347500D03*
X76666500Y-121347500D03*
X79206500Y-121347500D03*
X81746500Y-121347500D03*
X84286500Y-121347500D03*
X86826500Y-121347500D03*
X89366500Y-121347500D03*
X91906500Y-121347500D03*
X94446500Y-121347500D03*
X96986500Y-121347500D03*
X99526500Y-121347500D03*
X102066500Y-121347500D03*
X104606500Y-121347500D03*
X107146500Y-121347500D03*
X109686500Y-121347500D03*
X112226500Y-121347500D03*
X114766500Y-121347500D03*
X117306500Y-121347500D03*
X119846500Y-121347500D03*
X119846500Y-106107500D03*
X117306500Y-106107500D03*
X114766500Y-106107500D03*
X112226500Y-106107500D03*
X109686500Y-106107500D03*
X107146500Y-106107500D03*
X104606500Y-106107500D03*
X102066500Y-106107500D03*
X99526500Y-106107500D03*
X96986500Y-106107500D03*
X94446500Y-106107500D03*
X91906500Y-106107500D03*
X89366500Y-106107500D03*
X86826500Y-106107500D03*
X84286500Y-106107500D03*
X81746500Y-106107500D03*
X79206500Y-106107500D03*
X76666500Y-106107500D03*
X74126500Y-106107500D03*
X71586500Y-106107500D03*
X69046500Y-106107500D03*
X66506500Y-106107500D03*
X63966500Y-106107500D03*
X61426500Y-106107500D03*
X63966500Y-108647500D03*
X107146500Y-118807500D03*
X107146500Y-116267500D03*
X107146500Y-113727500D03*
X107146500Y-111187500D03*
X107146500Y-108647500D03*
D15*
X67725700Y-118296700D03*
D17*
X70265700Y-118296700D03*
X72805700Y-118296700D03*
X75345700Y-118296700D03*
X77885700Y-118296700D03*
D24*
X74396500Y-108545900D03*
D25*
X74396500Y-110545900D03*
X74396500Y-112545900D03*
X76396500Y-112545900D03*
X76396500Y-110545900D03*
X76396500Y-108545900D03*
X62156500Y-112457500D03*
X62156500Y-114997500D03*
%TD*%
D26*
%TO.C,D1*%
X68767500Y-81038500D03*
X65467500Y-81038500D03*
%TD*%
D27*
%TO.C,R1*%
X84799500Y-81215500D03*
X86799500Y-81215500D03*
%TD*%
D28*
%TO.C,J7*%
X125684000Y-96265000D03*
D22*
X123144000Y-96265000D03*
X125684000Y-93725000D03*
X123144000Y-93725000D03*
X125684000Y-91185000D03*
X123144000Y-91185000D03*
X125684000Y-88645000D03*
X123144000Y-88645000D03*
X125684000Y-86105000D03*
X123144000Y-86105000D03*
%TD*%
D29*
%TO.C,U12*%
X82550000Y-87376000D03*
D17*
X82550000Y-89916000D03*
X82550000Y-92456000D03*
X82550000Y-94996000D03*
X90170000Y-94996000D03*
X90170000Y-92456000D03*
X90170000Y-89916000D03*
X90170000Y-87376000D03*
%TD*%
D13*
%TO.C,H1*%
X55372000Y-68072000D03*
D14*
X55372000Y-68072000D03*
%TD*%
D18*
%TO.C,R2*%
X95599500Y-81215500D03*
X93599500Y-81215500D03*
%TD*%
D30*
%TO.C,J4*%
X115316000Y-77882000D03*
D31*
X115316000Y-71882000D03*
X110616000Y-74882000D03*
%TD*%
M02*
