%TF.GenerationSoftware,KiCad,Pcbnew,9.0.0*%
%TF.CreationDate,2026-06-09T22:05:58-04:00*%
%TF.ProjectId,MagnetronSensorArm,4d61676e-6574-4726-9f6e-53656e736f72,rev?*%
%TF.SameCoordinates,Original*%
%TF.FileFunction,Copper,L4,Bot*%
%TF.FilePolarity,Positive*%
%FSLAX46Y46*%
G04 Gerber Fmt 4.6, Leading zero omitted, Abs format (unit mm)*
G04 Created by KiCad (PCBNEW 9.0.0) date 2026-06-09 22:05:58*
%MOMM*%
%LPD*%
G01*
G04 APERTURE LIST*
G04 Aperture macros list*
%AMRoundRect*
0 Rectangle with rounded corners*
0 $1 Rounding radius*
0 $2 $3 $4 $5 $6 $7 $8 $9 X,Y pos of 4 corners*
0 Add a 4 corners polygon primitive as box body*
4,1,4,$2,$3,$4,$5,$6,$7,$8,$9,$2,$3,0*
0 Add four circle primitives for the rounded corners*
1,1,$1+$1,$2,$3*
1,1,$1+$1,$4,$5*
1,1,$1+$1,$6,$7*
1,1,$1+$1,$8,$9*
0 Add four rect primitives between the rounded corners*
20,1,$1+$1,$2,$3,$4,$5,0*
20,1,$1+$1,$4,$5,$6,$7,0*
20,1,$1+$1,$6,$7,$8,$9,0*
20,1,$1+$1,$8,$9,$2,$3,0*%
G04 Aperture macros list end*
%TA.AperFunction,ComponentPad*%
%ADD10C,3.600000*%
%TD*%
%TA.AperFunction,ConnectorPad*%
%ADD11C,5.700000*%
%TD*%
%TA.AperFunction,ComponentPad*%
%ADD12RoundRect,0.250000X-0.600000X0.600000X-0.600000X-0.600000X0.600000X-0.600000X0.600000X0.600000X0*%
%TD*%
%TA.AperFunction,ComponentPad*%
%ADD13C,1.700000*%
%TD*%
%TA.AperFunction,SMDPad,CuDef*%
%ADD14RoundRect,0.250000X0.450000X-0.350000X0.450000X0.350000X-0.450000X0.350000X-0.450000X-0.350000X0*%
%TD*%
%TA.AperFunction,SMDPad,CuDef*%
%ADD15RoundRect,0.250000X0.475000X-0.337500X0.475000X0.337500X-0.475000X0.337500X-0.475000X-0.337500X0*%
%TD*%
%TA.AperFunction,ViaPad*%
%ADD16C,0.600000*%
%TD*%
%TA.AperFunction,Conductor*%
%ADD17C,0.250000*%
%TD*%
G04 APERTURE END LIST*
D10*
%TO.P,H1,1,1*%
%TO.N,GND*%
X87122000Y-99822000D03*
D11*
X87122000Y-99822000D03*
%TD*%
D12*
%TO.P,J1,1,Pin_1*%
%TO.N,+5V*%
X205408000Y-101355500D03*
D13*
%TO.P,J1,2,Pin_2*%
%TO.N,GND*%
X205408000Y-103895500D03*
%TO.P,J1,3,Pin_3*%
%TO.N,/hall1*%
X202868000Y-101355500D03*
%TO.P,J1,4,Pin_4*%
%TO.N,/hall8*%
X202868000Y-103895500D03*
%TO.P,J1,5,Pin_5*%
%TO.N,/hall2*%
X200328000Y-101355500D03*
%TO.P,J1,6,Pin_6*%
%TO.N,/hall7*%
X200328000Y-103895500D03*
%TO.P,J1,7,Pin_7*%
%TO.N,/hall3*%
X197788000Y-101355500D03*
%TO.P,J1,8,Pin_8*%
%TO.N,/hall6*%
X197788000Y-103895500D03*
%TO.P,J1,9,Pin_9*%
%TO.N,/hall4*%
X195248000Y-101355500D03*
%TO.P,J1,10,Pin_10*%
%TO.N,/hall5*%
X195248000Y-103895500D03*
%TD*%
D14*
%TO.P,R10,1*%
%TO.N,Net-(U5-VOUT)*%
X137170000Y-106440000D03*
%TO.P,R10,2*%
%TO.N,/hall5*%
X137170000Y-104440000D03*
%TD*%
%TO.P,R16,1*%
%TO.N,Net-(U8-VOUT)*%
X171370000Y-106440000D03*
%TO.P,R16,2*%
%TO.N,/hall8*%
X171370000Y-104440000D03*
%TD*%
%TO.P,R5,1*%
%TO.N,GND*%
X116970000Y-106440000D03*
%TO.P,R5,2*%
%TO.N,/hall3*%
X116970000Y-104440000D03*
%TD*%
%TO.P,R13,1*%
%TO.N,GND*%
X162570000Y-106440000D03*
%TO.P,R13,2*%
%TO.N,/hall7*%
X162570000Y-104440000D03*
%TD*%
%TO.P,R9,1*%
%TO.N,GND*%
X139770000Y-106440000D03*
%TO.P,R9,2*%
%TO.N,/hall5*%
X139770000Y-104440000D03*
%TD*%
%TO.P,R7,1*%
%TO.N,GND*%
X128370000Y-106440000D03*
%TO.P,R7,2*%
%TO.N,/hall4*%
X128370000Y-104440000D03*
%TD*%
%TO.P,R3,1*%
%TO.N,GND*%
X105570000Y-106440000D03*
%TO.P,R3,2*%
%TO.N,/hall2*%
X105570000Y-104440000D03*
%TD*%
D15*
%TO.P,C8,1*%
%TO.N,+5V*%
X166825000Y-106447500D03*
%TO.P,C8,2*%
%TO.N,GND*%
X166825000Y-104372500D03*
%TD*%
%TO.P,C3,1*%
%TO.N,+5V*%
X109825000Y-106447500D03*
%TO.P,C3,2*%
%TO.N,GND*%
X109825000Y-104372500D03*
%TD*%
D14*
%TO.P,R8,1*%
%TO.N,Net-(U4-VOUT)*%
X125770000Y-106440000D03*
%TO.P,R8,2*%
%TO.N,/hall4*%
X125770000Y-104440000D03*
%TD*%
D15*
%TO.P,C2,1*%
%TO.N,+5V*%
X98425000Y-106447500D03*
%TO.P,C2,2*%
%TO.N,GND*%
X98425000Y-104372500D03*
%TD*%
%TO.P,C1,1*%
%TO.N,+5V*%
X87115000Y-106447500D03*
%TO.P,C1,2*%
%TO.N,GND*%
X87115000Y-104372500D03*
%TD*%
D14*
%TO.P,R2,1*%
%TO.N,Net-(U1-VOUT)*%
X91660000Y-106440000D03*
%TO.P,R2,2*%
%TO.N,/hall1*%
X91660000Y-104440000D03*
%TD*%
%TO.P,R15,1*%
%TO.N,GND*%
X173970000Y-106440000D03*
%TO.P,R15,2*%
%TO.N,/hall8*%
X173970000Y-104440000D03*
%TD*%
%TO.P,R6,1*%
%TO.N,Net-(U3-VOUT)*%
X114370000Y-106440000D03*
%TO.P,R6,2*%
%TO.N,/hall3*%
X114370000Y-104440000D03*
%TD*%
D15*
%TO.P,C4,1*%
%TO.N,+5V*%
X121225000Y-106447500D03*
%TO.P,C4,2*%
%TO.N,GND*%
X121225000Y-104372500D03*
%TD*%
D14*
%TO.P,R11,1*%
%TO.N,GND*%
X151170000Y-106440000D03*
%TO.P,R11,2*%
%TO.N,/hall6*%
X151170000Y-104440000D03*
%TD*%
D15*
%TO.P,C5,1*%
%TO.N,+5V*%
X132625000Y-106447500D03*
%TO.P,C5,2*%
%TO.N,GND*%
X132625000Y-104372500D03*
%TD*%
%TO.P,C6,1*%
%TO.N,+5V*%
X144025000Y-106447500D03*
%TO.P,C6,2*%
%TO.N,GND*%
X144025000Y-104372500D03*
%TD*%
D14*
%TO.P,R4,1*%
%TO.N,Net-(U2-VOUT)*%
X102970000Y-106440000D03*
%TO.P,R4,2*%
%TO.N,/hall2*%
X102970000Y-104440000D03*
%TD*%
D15*
%TO.P,C7,1*%
%TO.N,+5V*%
X155425000Y-106447500D03*
%TO.P,C7,2*%
%TO.N,GND*%
X155425000Y-104372500D03*
%TD*%
D14*
%TO.P,R12,1*%
%TO.N,Net-(U6-VOUT)*%
X148570000Y-106440000D03*
%TO.P,R12,2*%
%TO.N,/hall6*%
X148570000Y-104440000D03*
%TD*%
%TO.P,R14,1*%
%TO.N,Net-(U7-VOUT)*%
X159970000Y-106440000D03*
%TO.P,R14,2*%
%TO.N,/hall7*%
X159970000Y-104440000D03*
%TD*%
%TO.P,R1,1*%
%TO.N,GND*%
X94260000Y-106440000D03*
%TO.P,R1,2*%
%TO.N,/hall1*%
X94260000Y-104440000D03*
%TD*%
D16*
%TO.N,GND*%
X141210000Y-106920000D03*
X107174000Y-106920000D03*
X132666000Y-103378000D03*
X98376000Y-103378000D03*
X155526000Y-103378000D03*
X192786000Y-102616000D03*
X164070000Y-106920000D03*
X129780000Y-106920000D03*
X175500000Y-106920000D03*
X109806000Y-103378000D03*
X166956000Y-103378000D03*
X152640000Y-106920000D03*
X87122000Y-103378000D03*
X118350000Y-106920000D03*
X121236000Y-103378000D03*
X95758000Y-106934000D03*
X144096000Y-103378000D03*
%TO.N,+5V*%
X85852000Y-106949000D03*
X108712000Y-106949000D03*
X142748000Y-106949000D03*
X120142000Y-106949000D03*
X154178000Y-106949000D03*
X97282000Y-106949000D03*
X165608000Y-106949000D03*
X131318000Y-106949000D03*
%TO.N,Net-(U1-VOUT)*%
X90136000Y-107014999D03*
%TO.N,Net-(U2-VOUT)*%
X101570000Y-107014999D03*
%TO.N,Net-(U3-VOUT)*%
X112970000Y-107014999D03*
%TO.N,Net-(U4-VOUT)*%
X124370000Y-107014999D03*
%TO.N,Net-(U5-VOUT)*%
X135770000Y-107014999D03*
%TO.N,Net-(U6-VOUT)*%
X147170000Y-107014999D03*
%TO.N,Net-(U7-VOUT)*%
X158570000Y-107014999D03*
%TO.N,Net-(U8-VOUT)*%
X169970000Y-107014999D03*
%TD*%
D17*
%TO.N,/hall6*%
X160354253Y-101605000D02*
X155350000Y-101605000D01*
X196224000Y-105459500D02*
X189884310Y-105459500D01*
X186030977Y-101606167D02*
X160355420Y-101606167D01*
X155350000Y-101605000D02*
X152515000Y-104440000D01*
X197788000Y-103895500D02*
X196224000Y-105459500D01*
X160355420Y-101606167D02*
X160354253Y-101605000D01*
X148570000Y-104440000D02*
X151170000Y-104440000D01*
X189884310Y-105459500D02*
X186030977Y-101606167D01*
X152515000Y-104440000D02*
X151170000Y-104440000D01*
%TO.N,GND*%
X128282000Y-106426000D02*
X129286000Y-106426000D01*
X174002000Y-106426000D02*
X175006000Y-106426000D01*
X144089000Y-104372500D02*
X144089000Y-103385000D01*
X140716000Y-106426000D02*
X141210000Y-106920000D01*
X152146000Y-106426000D02*
X152640000Y-106920000D01*
X155519000Y-104372500D02*
X155519000Y-103385000D01*
X151142000Y-106426000D02*
X152146000Y-106426000D01*
X116852000Y-106426000D02*
X117856000Y-106426000D01*
X106680000Y-106426000D02*
X107174000Y-106920000D01*
X109799000Y-104372500D02*
X109799000Y-103385000D01*
X129286000Y-106426000D02*
X129780000Y-106920000D01*
X87115000Y-104372500D02*
X87115000Y-103385000D01*
X117856000Y-106426000D02*
X118350000Y-106920000D01*
X163576000Y-106426000D02*
X164070000Y-106920000D01*
X162572000Y-106426000D02*
X163576000Y-106426000D01*
X166949000Y-104372500D02*
X166949000Y-103385000D01*
X121229000Y-104372500D02*
X121229000Y-103385000D01*
X94260000Y-106440000D02*
X95264000Y-106440000D01*
X98425000Y-104372500D02*
X98425000Y-103427000D01*
X98425000Y-103427000D02*
X98376000Y-103378000D01*
X105676000Y-106426000D02*
X106680000Y-106426000D01*
X175006000Y-106426000D02*
X175500000Y-106920000D01*
X139712000Y-106426000D02*
X140716000Y-106426000D01*
X132659000Y-104372500D02*
X132659000Y-103385000D01*
X95264000Y-106440000D02*
X95758000Y-106934000D01*
%TO.N,/hall3*%
X118174200Y-104440000D02*
X116970000Y-104440000D01*
X116970000Y-104440000D02*
X114370000Y-104440000D01*
X196612000Y-100179500D02*
X122434700Y-100179500D01*
X197788000Y-101355500D02*
X196612000Y-100179500D01*
X122434700Y-100179500D02*
X118174200Y-104440000D01*
%TO.N,/hall4*%
X187055930Y-101355500D02*
X186368763Y-100668333D01*
X129718500Y-104440000D02*
X128370000Y-104440000D01*
X125770000Y-104440000D02*
X128370000Y-104440000D01*
X186368763Y-100668333D02*
X133490167Y-100668333D01*
X195248000Y-101355500D02*
X187055930Y-101355500D01*
X133490167Y-100668333D02*
X129718500Y-104440000D01*
%TO.N,/hall2*%
X199451116Y-101355500D02*
X197663616Y-99568000D01*
X107333000Y-104440000D02*
X105570000Y-104440000D01*
X112205000Y-99568000D02*
X107333000Y-104440000D01*
X197663616Y-99568000D02*
X112205000Y-99568000D01*
X200328000Y-101355500D02*
X199451116Y-101355500D01*
X102970000Y-104440000D02*
X105570000Y-104440000D01*
%TO.N,+5V*%
X108712000Y-106949000D02*
X109323500Y-106949000D01*
X120142000Y-106949000D02*
X120723500Y-106949000D01*
X165608000Y-106949000D02*
X166323500Y-106949000D01*
X166323500Y-106949000D02*
X166825000Y-106447500D01*
X97923500Y-106949000D02*
X98425000Y-106447500D01*
X109323500Y-106949000D02*
X109825000Y-106447500D01*
X143523500Y-106949000D02*
X144025000Y-106447500D01*
X86613500Y-106949000D02*
X87115000Y-106447500D01*
X154178000Y-106949000D02*
X154923500Y-106949000D01*
X154923500Y-106949000D02*
X155425000Y-106447500D01*
X120723500Y-106949000D02*
X121225000Y-106447500D01*
X142748000Y-106949000D02*
X143523500Y-106949000D01*
X132123500Y-106949000D02*
X132625000Y-106447500D01*
X85852000Y-106949000D02*
X86613500Y-106949000D01*
X97282000Y-106949000D02*
X97923500Y-106949000D01*
X131318000Y-106949000D02*
X132123500Y-106949000D01*
%TO.N,/hall1*%
X202868000Y-101355500D02*
X200629500Y-99117000D01*
X96023000Y-104440000D02*
X101346000Y-99117000D01*
X94260000Y-104440000D02*
X96023000Y-104440000D01*
X200629500Y-99117000D02*
X101346000Y-99117000D01*
X94260000Y-104440000D02*
X91660000Y-104440000D01*
%TO.N,/hall5*%
X186181953Y-101119333D02*
X144956000Y-101119333D01*
X195248000Y-103895500D02*
X188958120Y-103895500D01*
X141635333Y-104440000D02*
X139770000Y-104440000D01*
X144956000Y-101119333D02*
X141635333Y-104440000D01*
X139770000Y-104440000D02*
X137170000Y-104440000D01*
X188958120Y-103895500D02*
X186181953Y-101119333D01*
%TO.N,/hall8*%
X202868000Y-103895500D02*
X200402000Y-106361500D01*
X175255000Y-104440000D02*
X173970000Y-104440000D01*
X171370000Y-104440000D02*
X173970000Y-104440000D01*
X177176500Y-106361500D02*
X175255000Y-104440000D01*
X200402000Y-106361500D02*
X177176500Y-106361500D01*
%TO.N,/hall7*%
X185880000Y-102093000D02*
X166680000Y-102093000D01*
X164333000Y-104440000D02*
X162570000Y-104440000D01*
X200328000Y-103895500D02*
X198313000Y-105910500D01*
X189697500Y-105910500D02*
X185880000Y-102093000D01*
X166680000Y-102093000D02*
X164333000Y-104440000D01*
X162570000Y-104440000D02*
X159970000Y-104440000D01*
X198313000Y-105910500D02*
X189697500Y-105910500D01*
%TO.N,Net-(U1-VOUT)*%
X90136000Y-107014999D02*
X91085001Y-107014999D01*
X91085001Y-107014999D02*
X91660000Y-106440000D01*
%TO.N,Net-(U2-VOUT)*%
X101570000Y-107014999D02*
X102395001Y-107014999D01*
X102395001Y-107014999D02*
X102970000Y-106440000D01*
%TO.N,Net-(U3-VOUT)*%
X112970000Y-107014999D02*
X113795001Y-107014999D01*
X113795001Y-107014999D02*
X114370000Y-106440000D01*
%TO.N,Net-(U4-VOUT)*%
X124370000Y-107014999D02*
X125195001Y-107014999D01*
X125195001Y-107014999D02*
X125770000Y-106440000D01*
%TO.N,Net-(U5-VOUT)*%
X136595001Y-107014999D02*
X137170000Y-106440000D01*
X135770000Y-107014999D02*
X136595001Y-107014999D01*
%TO.N,Net-(U6-VOUT)*%
X147170000Y-107014999D02*
X147995001Y-107014999D01*
X147995001Y-107014999D02*
X148570000Y-106440000D01*
%TO.N,Net-(U7-VOUT)*%
X159395001Y-107014999D02*
X159970000Y-106440000D01*
X158570000Y-107014999D02*
X159395001Y-107014999D01*
%TO.N,Net-(U8-VOUT)*%
X170795001Y-107014999D02*
X171370000Y-106440000D01*
X169970000Y-107014999D02*
X170795001Y-107014999D01*
%TD*%
%TA.AperFunction,Conductor*%
%TO.N,GND*%
G36*
X213212539Y-97040185D02*
G01*
X213258294Y-97092989D01*
X213269500Y-97144500D01*
X213269500Y-107295500D01*
X213249815Y-107362539D01*
X213197011Y-107408294D01*
X213145500Y-107419500D01*
X175135090Y-107419500D01*
X175068051Y-107399815D01*
X175022296Y-107347011D01*
X175012352Y-107277853D01*
X175029551Y-107230403D01*
X175104356Y-107109124D01*
X175104358Y-107109119D01*
X175159505Y-106942697D01*
X175159506Y-106942690D01*
X175169999Y-106839986D01*
X175170000Y-106839973D01*
X175170000Y-106690000D01*
X174094000Y-106690000D01*
X174026961Y-106670315D01*
X173981206Y-106617511D01*
X173970000Y-106566000D01*
X173970000Y-106314000D01*
X173989685Y-106246961D01*
X174042489Y-106201206D01*
X174094000Y-106190000D01*
X175169999Y-106190000D01*
X175169999Y-106040028D01*
X175169998Y-106040013D01*
X175159505Y-105937302D01*
X175104358Y-105770880D01*
X175104356Y-105770875D01*
X175012315Y-105621654D01*
X174918695Y-105528034D01*
X174914356Y-105520088D01*
X174907109Y-105514663D01*
X174897874Y-105489903D01*
X174885210Y-105466711D01*
X174885855Y-105457681D01*
X174882692Y-105449199D01*
X174888308Y-105423378D01*
X174890194Y-105397019D01*
X174896012Y-105387965D01*
X174897544Y-105380926D01*
X174918692Y-105352675D01*
X175012712Y-105258656D01*
X175012713Y-105258653D01*
X175013207Y-105258160D01*
X175074530Y-105224675D01*
X175144222Y-105229659D01*
X175188569Y-105258160D01*
X175887609Y-105957200D01*
X176690641Y-106760232D01*
X176690642Y-106760233D01*
X176765418Y-106835009D01*
X176777768Y-106847359D01*
X176880207Y-106915807D01*
X176880213Y-106915810D01*
X176880214Y-106915811D01*
X176994048Y-106962963D01*
X177054471Y-106974981D01*
X177114893Y-106987000D01*
X200463607Y-106987000D01*
X200524029Y-106974981D01*
X200584452Y-106962963D01*
X200645208Y-106937797D01*
X200698286Y-106915812D01*
X200766610Y-106870158D01*
X200800733Y-106847358D01*
X200887858Y-106760233D01*
X200887858Y-106760231D01*
X200898066Y-106750024D01*
X200898067Y-106750021D01*
X202410163Y-105237926D01*
X202471484Y-105204443D01*
X202536159Y-105207678D01*
X202551757Y-105212746D01*
X202761713Y-105246000D01*
X202761714Y-105246000D01*
X202974286Y-105246000D01*
X202974287Y-105246000D01*
X203184243Y-105212746D01*
X203386412Y-105147057D01*
X203575816Y-105050551D01*
X203653223Y-104994312D01*
X203747786Y-104925609D01*
X203747788Y-104925606D01*
X203747792Y-104925604D01*
X203898104Y-104775292D01*
X203898106Y-104775288D01*
X203898109Y-104775286D01*
X203983890Y-104657217D01*
X204023051Y-104603316D01*
X204027793Y-104594008D01*
X204075763Y-104543211D01*
X204143583Y-104526411D01*
X204209719Y-104548945D01*
X204248763Y-104594000D01*
X204253373Y-104603047D01*
X204292728Y-104657216D01*
X204925037Y-104024908D01*
X204942075Y-104088493D01*
X205007901Y-104202507D01*
X205100993Y-104295599D01*
X205215007Y-104361425D01*
X205278590Y-104378462D01*
X204646282Y-105010769D01*
X204646282Y-105010770D01*
X204700449Y-105050124D01*
X204889782Y-105146595D01*
X205091870Y-105212257D01*
X205301754Y-105245500D01*
X205514246Y-105245500D01*
X205724127Y-105212257D01*
X205724130Y-105212257D01*
X205926217Y-105146595D01*
X206115554Y-105050122D01*
X206169716Y-105010770D01*
X206169717Y-105010770D01*
X205537408Y-104378462D01*
X205600993Y-104361425D01*
X205715007Y-104295599D01*
X205808099Y-104202507D01*
X205873925Y-104088493D01*
X205890962Y-104024908D01*
X206523270Y-104657217D01*
X206523270Y-104657216D01*
X206562622Y-104603054D01*
X206659095Y-104413717D01*
X206724757Y-104211630D01*
X206724757Y-104211627D01*
X206758000Y-104001746D01*
X206758000Y-103789253D01*
X206724757Y-103579372D01*
X206724757Y-103579369D01*
X206659095Y-103377282D01*
X206562624Y-103187949D01*
X206523270Y-103133782D01*
X206523269Y-103133782D01*
X205890962Y-103766090D01*
X205873925Y-103702507D01*
X205808099Y-103588493D01*
X205715007Y-103495401D01*
X205600993Y-103429575D01*
X205537409Y-103412537D01*
X206173889Y-102776055D01*
X206184977Y-102723268D01*
X206234027Y-102673510D01*
X206255222Y-102664209D01*
X206327334Y-102640314D01*
X206476656Y-102548212D01*
X206600712Y-102424156D01*
X206692814Y-102274834D01*
X206747999Y-102108297D01*
X206758500Y-102005509D01*
X206758499Y-100705492D01*
X206751498Y-100636961D01*
X206747999Y-100602703D01*
X206747998Y-100602700D01*
X206692814Y-100436166D01*
X206600712Y-100286844D01*
X206476656Y-100162788D01*
X206327334Y-100070686D01*
X206160797Y-100015501D01*
X206160795Y-100015500D01*
X206058010Y-100005000D01*
X204757998Y-100005000D01*
X204757981Y-100005001D01*
X204655203Y-100015500D01*
X204655200Y-100015501D01*
X204488668Y-100070685D01*
X204488663Y-100070687D01*
X204339342Y-100162789D01*
X204215289Y-100286842D01*
X204123187Y-100436163D01*
X204123183Y-100436173D01*
X204119685Y-100446729D01*
X204079910Y-100504172D01*
X204015393Y-100530993D01*
X203946618Y-100518674D01*
X203901663Y-100480606D01*
X203898105Y-100475709D01*
X203747786Y-100325390D01*
X203575820Y-100200451D01*
X203386414Y-100103944D01*
X203386413Y-100103943D01*
X203386412Y-100103943D01*
X203184243Y-100038254D01*
X203184241Y-100038253D01*
X203184240Y-100038253D01*
X203022957Y-100012708D01*
X202974287Y-100005000D01*
X202761713Y-100005000D01*
X202733006Y-100009546D01*
X202551757Y-100038253D01*
X202536158Y-100043322D01*
X202466317Y-100045316D01*
X202410161Y-100013071D01*
X201122650Y-98725560D01*
X201115360Y-98718270D01*
X201115358Y-98718267D01*
X201028233Y-98631142D01*
X200977009Y-98596915D01*
X200925786Y-98562688D01*
X200925783Y-98562686D01*
X200925780Y-98562685D01*
X200852103Y-98532168D01*
X200852101Y-98532167D01*
X200845292Y-98529347D01*
X200811952Y-98515537D01*
X200751529Y-98503518D01*
X200746806Y-98502578D01*
X200746804Y-98502578D01*
X200691110Y-98491500D01*
X200691107Y-98491500D01*
X200691106Y-98491500D01*
X101407607Y-98491500D01*
X101284393Y-98491500D01*
X101284389Y-98491500D01*
X101233535Y-98501615D01*
X101233530Y-98501616D01*
X101223971Y-98503518D01*
X101163548Y-98515537D01*
X101116397Y-98535067D01*
X101049715Y-98562688D01*
X101049714Y-98562689D01*
X101027347Y-98577633D01*
X101027344Y-98577635D01*
X100947268Y-98631140D01*
X100903705Y-98674703D01*
X100860142Y-98718267D01*
X100860139Y-98718270D01*
X98322366Y-101256044D01*
X95800229Y-103778181D01*
X95773301Y-103792884D01*
X95747483Y-103809477D01*
X95741282Y-103810368D01*
X95738906Y-103811666D01*
X95712548Y-103814500D01*
X95491058Y-103814500D01*
X95424019Y-103794815D01*
X95385519Y-103755597D01*
X95377022Y-103741821D01*
X95302712Y-103621344D01*
X95178656Y-103497288D01*
X95029334Y-103405186D01*
X94862797Y-103350001D01*
X94862795Y-103350000D01*
X94760010Y-103339500D01*
X93759998Y-103339500D01*
X93759980Y-103339501D01*
X93657203Y-103350000D01*
X93657200Y-103350001D01*
X93490668Y-103405185D01*
X93490663Y-103405187D01*
X93341342Y-103497289D01*
X93217289Y-103621342D01*
X93134481Y-103755597D01*
X93126893Y-103762421D01*
X93122655Y-103771703D01*
X93101355Y-103785391D01*
X93082533Y-103802321D01*
X93070897Y-103804965D01*
X93063877Y-103809477D01*
X93028942Y-103814500D01*
X92891058Y-103814500D01*
X92824019Y-103794815D01*
X92785519Y-103755597D01*
X92777022Y-103741821D01*
X92702712Y-103621344D01*
X92578656Y-103497288D01*
X92429334Y-103405186D01*
X92262797Y-103350001D01*
X92262795Y-103350000D01*
X92160010Y-103339500D01*
X91159998Y-103339500D01*
X91159980Y-103339501D01*
X91057203Y-103350000D01*
X91057200Y-103350001D01*
X90890668Y-103405185D01*
X90890663Y-103405187D01*
X90741342Y-103497289D01*
X90617289Y-103621342D01*
X90525187Y-103770663D01*
X90525185Y-103770668D01*
X90508128Y-103822144D01*
X90470001Y-103937203D01*
X90470001Y-103937204D01*
X90470000Y-103937204D01*
X90459500Y-104039983D01*
X90459500Y-104840001D01*
X90459501Y-104840019D01*
X90470000Y-104942796D01*
X90470001Y-104942799D01*
X90525185Y-105109331D01*
X90525187Y-105109336D01*
X90548169Y-105146595D01*
X90609173Y-105245500D01*
X90617289Y-105258657D01*
X90710951Y-105352319D01*
X90744436Y-105413642D01*
X90739452Y-105483334D01*
X90710951Y-105527681D01*
X90617289Y-105621342D01*
X90525187Y-105770663D01*
X90525185Y-105770668D01*
X90518558Y-105790668D01*
X90470001Y-105937203D01*
X90470001Y-105937204D01*
X90470000Y-105937204D01*
X90459500Y-106039983D01*
X90459500Y-106112070D01*
X90439815Y-106179109D01*
X90387011Y-106224864D01*
X90317853Y-106234808D01*
X90311309Y-106233687D01*
X90214845Y-106214499D01*
X90214842Y-106214499D01*
X90057158Y-106214499D01*
X90057155Y-106214499D01*
X89902510Y-106245260D01*
X89902498Y-106245263D01*
X89756827Y-106305601D01*
X89756814Y-106305608D01*
X89625711Y-106393209D01*
X89625707Y-106393212D01*
X89514213Y-106504706D01*
X89514210Y-106504710D01*
X89426609Y-106635813D01*
X89426602Y-106635826D01*
X89366264Y-106781497D01*
X89366261Y-106781509D01*
X89335500Y-106936152D01*
X89335500Y-107093845D01*
X89366261Y-107248488D01*
X89368031Y-107254323D01*
X89366793Y-107254698D01*
X89373545Y-107317521D01*
X89342268Y-107379999D01*
X89282178Y-107415649D01*
X89251516Y-107419500D01*
X88302593Y-107419500D01*
X88235554Y-107399815D01*
X88189799Y-107347011D01*
X88179855Y-107277853D01*
X88197054Y-107230404D01*
X88271733Y-107109329D01*
X88274814Y-107104334D01*
X88329999Y-106937797D01*
X88340500Y-106835009D01*
X88340499Y-106059992D01*
X88340493Y-106059937D01*
X88329999Y-105957203D01*
X88329998Y-105957200D01*
X88315930Y-105914745D01*
X88274814Y-105790666D01*
X88182712Y-105641344D01*
X88058656Y-105517288D01*
X88055342Y-105515243D01*
X88053546Y-105513248D01*
X88052989Y-105512807D01*
X88053064Y-105512711D01*
X88008618Y-105463297D01*
X87997397Y-105394334D01*
X88025240Y-105330252D01*
X88055348Y-105304165D01*
X88058342Y-105302318D01*
X88182315Y-105178345D01*
X88274356Y-105029124D01*
X88274358Y-105029119D01*
X88329505Y-104862697D01*
X88329506Y-104862690D01*
X88339999Y-104759986D01*
X88340000Y-104759973D01*
X88340000Y-104622500D01*
X85890001Y-104622500D01*
X85890001Y-104759986D01*
X85900494Y-104862697D01*
X85955641Y-105029119D01*
X85955643Y-105029124D01*
X86047684Y-105178345D01*
X86171655Y-105302316D01*
X86171659Y-105302319D01*
X86174656Y-105304168D01*
X86176279Y-105305972D01*
X86177323Y-105306798D01*
X86177181Y-105306976D01*
X86221381Y-105356116D01*
X86232602Y-105425079D01*
X86204759Y-105489161D01*
X86174661Y-105515241D01*
X86171349Y-105517283D01*
X86171343Y-105517288D01*
X86047289Y-105641342D01*
X85955187Y-105790663D01*
X85955186Y-105790666D01*
X85906629Y-105937203D01*
X85900001Y-105957204D01*
X85900000Y-105957205D01*
X85891838Y-106037103D01*
X85865442Y-106101795D01*
X85808261Y-106141946D01*
X85779104Y-106146749D01*
X85779218Y-106147903D01*
X85773153Y-106148500D01*
X85618510Y-106179261D01*
X85618498Y-106179264D01*
X85472827Y-106239602D01*
X85472814Y-106239609D01*
X85341711Y-106327210D01*
X85341707Y-106327213D01*
X85230213Y-106438707D01*
X85230210Y-106438711D01*
X85142609Y-106569814D01*
X85142602Y-106569827D01*
X85082264Y-106715498D01*
X85082261Y-106715510D01*
X85051500Y-106870153D01*
X85051500Y-107027846D01*
X85082261Y-107182489D01*
X85082263Y-107182497D01*
X85109415Y-107248048D01*
X85116884Y-107317516D01*
X85085609Y-107379996D01*
X85025520Y-107415648D01*
X84994854Y-107419500D01*
X84394500Y-107419500D01*
X84327461Y-107399815D01*
X84281706Y-107347011D01*
X84270500Y-107295500D01*
X84270500Y-101974629D01*
X84290185Y-101907590D01*
X84342989Y-101861835D01*
X84412147Y-101851891D01*
X84475703Y-101880916D01*
X84490354Y-101895965D01*
X84582364Y-102008081D01*
X84582365Y-102008081D01*
X85827748Y-100762698D01*
X85901588Y-100864330D01*
X86079670Y-101042412D01*
X86181300Y-101116251D01*
X84935917Y-102361633D01*
X84935917Y-102361634D01*
X85124000Y-102515989D01*
X85124004Y-102515992D01*
X85397672Y-102698851D01*
X85397690Y-102698862D01*
X85687955Y-102854012D01*
X85687960Y-102854014D01*
X85992053Y-102979974D01*
X86307031Y-103075522D01*
X86373931Y-103088829D01*
X86435842Y-103121214D01*
X86470416Y-103181930D01*
X86466677Y-103251699D01*
X86425811Y-103308372D01*
X86388745Y-103328153D01*
X86320878Y-103350642D01*
X86320875Y-103350643D01*
X86171654Y-103442684D01*
X86047684Y-103566654D01*
X85955643Y-103715875D01*
X85955641Y-103715880D01*
X85900494Y-103882302D01*
X85900493Y-103882309D01*
X85890000Y-103985013D01*
X85890000Y-104122500D01*
X88339999Y-104122500D01*
X88339999Y-103985028D01*
X88339998Y-103985013D01*
X88329505Y-103882302D01*
X88274358Y-103715880D01*
X88274356Y-103715875D01*
X88182315Y-103566654D01*
X88058345Y-103442684D01*
X87909124Y-103350643D01*
X87909121Y-103350642D01*
X87846505Y-103329893D01*
X87789061Y-103290120D01*
X87762238Y-103225604D01*
X87774553Y-103156828D01*
X87822097Y-103105628D01*
X87861320Y-103090569D01*
X87936967Y-103075522D01*
X88251946Y-102979974D01*
X88556039Y-102854014D01*
X88556044Y-102854012D01*
X88846309Y-102698862D01*
X88846327Y-102698851D01*
X89120004Y-102515986D01*
X89308081Y-102361635D01*
X89308082Y-102361634D01*
X88062698Y-101116251D01*
X88164330Y-101042412D01*
X88342412Y-100864330D01*
X88416251Y-100762699D01*
X89661634Y-102008082D01*
X89661635Y-102008081D01*
X89815986Y-101820004D01*
X89998851Y-101546327D01*
X89998862Y-101546309D01*
X90154012Y-101256044D01*
X90154014Y-101256039D01*
X90279974Y-100951946D01*
X90375524Y-100636961D01*
X90375525Y-100636956D01*
X90439738Y-100314139D01*
X90472000Y-99986571D01*
X90472000Y-99657428D01*
X90439738Y-99329860D01*
X90375525Y-99007043D01*
X90375524Y-99007038D01*
X90279974Y-98692053D01*
X90154014Y-98387960D01*
X90154012Y-98387955D01*
X89998862Y-98097690D01*
X89998851Y-98097672D01*
X89815992Y-97824004D01*
X89815989Y-97824000D01*
X89661634Y-97635917D01*
X89661633Y-97635917D01*
X88416250Y-98881300D01*
X88342412Y-98779670D01*
X88164330Y-98601588D01*
X88062697Y-98527747D01*
X89308081Y-97282365D01*
X89308081Y-97282363D01*
X89256891Y-97240353D01*
X89217557Y-97182608D01*
X89215686Y-97112763D01*
X89251873Y-97052995D01*
X89314629Y-97022279D01*
X89335556Y-97020500D01*
X213145500Y-97020500D01*
X213212539Y-97040185D01*
G37*
%TD.AperFunction*%
%TA.AperFunction,Conductor*%
G36*
X110913586Y-99762185D02*
G01*
X110959341Y-99814989D01*
X110969285Y-99884147D01*
X110940260Y-99947703D01*
X110934228Y-99954181D01*
X107110229Y-103778181D01*
X107048906Y-103811666D01*
X107022548Y-103814500D01*
X106801058Y-103814500D01*
X106734019Y-103794815D01*
X106695519Y-103755597D01*
X106687022Y-103741821D01*
X106612712Y-103621344D01*
X106488656Y-103497288D01*
X106339334Y-103405186D01*
X106172797Y-103350001D01*
X106172795Y-103350000D01*
X106070010Y-103339500D01*
X105069998Y-103339500D01*
X105069980Y-103339501D01*
X104967203Y-103350000D01*
X104967200Y-103350001D01*
X104800668Y-103405185D01*
X104800663Y-103405187D01*
X104651342Y-103497289D01*
X104527289Y-103621342D01*
X104444481Y-103755597D01*
X104436893Y-103762421D01*
X104432655Y-103771703D01*
X104411355Y-103785391D01*
X104392533Y-103802321D01*
X104380897Y-103804965D01*
X104373877Y-103809477D01*
X104338942Y-103814500D01*
X104201058Y-103814500D01*
X104134019Y-103794815D01*
X104095519Y-103755597D01*
X104087022Y-103741821D01*
X104012712Y-103621344D01*
X103888656Y-103497288D01*
X103739334Y-103405186D01*
X103572797Y-103350001D01*
X103572795Y-103350000D01*
X103470010Y-103339500D01*
X102469998Y-103339500D01*
X102469980Y-103339501D01*
X102367203Y-103350000D01*
X102367200Y-103350001D01*
X102200668Y-103405185D01*
X102200663Y-103405187D01*
X102051342Y-103497289D01*
X101927289Y-103621342D01*
X101835187Y-103770663D01*
X101835185Y-103770668D01*
X101818128Y-103822144D01*
X101780001Y-103937203D01*
X101780001Y-103937204D01*
X101780000Y-103937204D01*
X101769500Y-104039983D01*
X101769500Y-104840001D01*
X101769501Y-104840019D01*
X101780000Y-104942796D01*
X101780001Y-104942799D01*
X101835185Y-105109331D01*
X101835187Y-105109336D01*
X101858169Y-105146595D01*
X101919173Y-105245500D01*
X101927289Y-105258657D01*
X102020951Y-105352319D01*
X102054436Y-105413642D01*
X102049452Y-105483334D01*
X102020951Y-105527681D01*
X101927289Y-105621342D01*
X101835187Y-105770663D01*
X101835185Y-105770668D01*
X101828558Y-105790668D01*
X101780001Y-105937203D01*
X101780001Y-105937204D01*
X101780000Y-105937204D01*
X101769500Y-106039983D01*
X101769500Y-106090499D01*
X101749815Y-106157538D01*
X101697011Y-106203293D01*
X101645500Y-106214499D01*
X101491155Y-106214499D01*
X101336510Y-106245260D01*
X101336498Y-106245263D01*
X101190827Y-106305601D01*
X101190814Y-106305608D01*
X101059711Y-106393209D01*
X101059707Y-106393212D01*
X100948213Y-106504706D01*
X100948210Y-106504710D01*
X100860609Y-106635813D01*
X100860602Y-106635826D01*
X100800264Y-106781497D01*
X100800261Y-106781509D01*
X100769500Y-106936152D01*
X100769500Y-107093845D01*
X100800261Y-107248488D01*
X100802031Y-107254323D01*
X100800793Y-107254698D01*
X100807545Y-107317521D01*
X100776268Y-107379999D01*
X100716178Y-107415649D01*
X100685516Y-107419500D01*
X99612593Y-107419500D01*
X99545554Y-107399815D01*
X99499799Y-107347011D01*
X99489855Y-107277853D01*
X99507054Y-107230404D01*
X99581733Y-107109329D01*
X99584814Y-107104334D01*
X99639999Y-106937797D01*
X99650500Y-106835009D01*
X99650499Y-106059992D01*
X99650493Y-106059937D01*
X99639999Y-105957203D01*
X99639998Y-105957200D01*
X99625930Y-105914745D01*
X99584814Y-105790666D01*
X99492712Y-105641344D01*
X99368656Y-105517288D01*
X99365342Y-105515243D01*
X99363546Y-105513248D01*
X99362989Y-105512807D01*
X99363064Y-105512711D01*
X99318618Y-105463297D01*
X99307397Y-105394334D01*
X99335240Y-105330252D01*
X99365348Y-105304165D01*
X99368342Y-105302318D01*
X99492315Y-105178345D01*
X99584356Y-105029124D01*
X99584358Y-105029119D01*
X99639505Y-104862697D01*
X99639506Y-104862690D01*
X99649999Y-104759986D01*
X99650000Y-104759973D01*
X99650000Y-104622500D01*
X97200001Y-104622500D01*
X97200001Y-104759986D01*
X97210494Y-104862697D01*
X97265641Y-105029119D01*
X97265643Y-105029124D01*
X97357684Y-105178345D01*
X97481655Y-105302316D01*
X97481659Y-105302319D01*
X97484656Y-105304168D01*
X97486279Y-105305972D01*
X97487323Y-105306798D01*
X97487181Y-105306976D01*
X97531381Y-105356116D01*
X97542602Y-105425079D01*
X97514759Y-105489161D01*
X97484661Y-105515241D01*
X97481349Y-105517283D01*
X97481343Y-105517288D01*
X97357289Y-105641342D01*
X97265187Y-105790663D01*
X97265186Y-105790666D01*
X97216629Y-105937203D01*
X97210001Y-105957204D01*
X97210000Y-105957205D01*
X97199505Y-106059937D01*
X97173108Y-106124629D01*
X97115928Y-106164780D01*
X97100340Y-106168951D01*
X97048507Y-106179261D01*
X97048498Y-106179264D01*
X96902827Y-106239602D01*
X96902814Y-106239609D01*
X96771711Y-106327210D01*
X96771707Y-106327213D01*
X96660213Y-106438707D01*
X96660210Y-106438711D01*
X96572609Y-106569814D01*
X96572602Y-106569827D01*
X96512264Y-106715498D01*
X96512261Y-106715510D01*
X96481500Y-106870153D01*
X96481500Y-107027846D01*
X96512261Y-107182489D01*
X96512263Y-107182497D01*
X96539415Y-107248048D01*
X96546884Y-107317516D01*
X96515609Y-107379996D01*
X96455520Y-107415648D01*
X96424854Y-107419500D01*
X95425090Y-107419500D01*
X95358051Y-107399815D01*
X95312296Y-107347011D01*
X95302352Y-107277853D01*
X95319551Y-107230403D01*
X95394356Y-107109124D01*
X95394358Y-107109119D01*
X95449505Y-106942697D01*
X95449506Y-106942690D01*
X95459999Y-106839986D01*
X95460000Y-106839973D01*
X95460000Y-106690000D01*
X94384000Y-106690000D01*
X94316961Y-106670315D01*
X94271206Y-106617511D01*
X94260000Y-106566000D01*
X94260000Y-106314000D01*
X94279685Y-106246961D01*
X94332489Y-106201206D01*
X94384000Y-106190000D01*
X95459999Y-106190000D01*
X95459999Y-106040028D01*
X95459998Y-106040013D01*
X95449505Y-105937302D01*
X95394358Y-105770880D01*
X95394356Y-105770875D01*
X95302315Y-105621654D01*
X95208695Y-105528034D01*
X95175210Y-105466711D01*
X95180194Y-105397019D01*
X95208691Y-105352676D01*
X95302712Y-105258656D01*
X95385519Y-105124402D01*
X95437467Y-105077679D01*
X95491058Y-105065500D01*
X96084608Y-105065500D01*
X96084608Y-105065499D01*
X96159762Y-105050551D01*
X96205452Y-105041463D01*
X96238792Y-105027652D01*
X96319286Y-104994312D01*
X96370509Y-104960084D01*
X96421733Y-104925858D01*
X96508858Y-104838733D01*
X96508860Y-104838730D01*
X96515925Y-104831665D01*
X96515927Y-104831661D01*
X97188770Y-104158818D01*
X97250093Y-104125334D01*
X97276451Y-104122500D01*
X98175000Y-104122500D01*
X98675000Y-104122500D01*
X99649999Y-104122500D01*
X99649999Y-103985028D01*
X99649998Y-103985013D01*
X99639505Y-103882302D01*
X99584358Y-103715880D01*
X99584356Y-103715875D01*
X99492315Y-103566654D01*
X99368345Y-103442684D01*
X99219124Y-103350643D01*
X99219119Y-103350641D01*
X99052697Y-103295494D01*
X99052690Y-103295493D01*
X98949986Y-103285000D01*
X98675000Y-103285000D01*
X98675000Y-104122500D01*
X98175000Y-104122500D01*
X98175000Y-103258833D01*
X98172990Y-103255152D01*
X98177974Y-103185460D01*
X98206472Y-103141116D01*
X101568771Y-99778819D01*
X101630094Y-99745334D01*
X101656452Y-99742500D01*
X110846547Y-99742500D01*
X110913586Y-99762185D01*
G37*
%TD.AperFunction*%
%TA.AperFunction,Conductor*%
G36*
X121303787Y-100213185D02*
G01*
X121349542Y-100265989D01*
X121359486Y-100335147D01*
X121330461Y-100398703D01*
X121324429Y-100405181D01*
X118148169Y-103581439D01*
X118086846Y-103614924D01*
X118017154Y-103609940D01*
X117972807Y-103581439D01*
X117888657Y-103497289D01*
X117888656Y-103497288D01*
X117739334Y-103405186D01*
X117572797Y-103350001D01*
X117572795Y-103350000D01*
X117470010Y-103339500D01*
X116469998Y-103339500D01*
X116469980Y-103339501D01*
X116367203Y-103350000D01*
X116367200Y-103350001D01*
X116200668Y-103405185D01*
X116200663Y-103405187D01*
X116051342Y-103497289D01*
X115927289Y-103621342D01*
X115844481Y-103755597D01*
X115836893Y-103762421D01*
X115832655Y-103771703D01*
X115811355Y-103785391D01*
X115792533Y-103802321D01*
X115780897Y-103804965D01*
X115773877Y-103809477D01*
X115738942Y-103814500D01*
X115601058Y-103814500D01*
X115534019Y-103794815D01*
X115495519Y-103755597D01*
X115487022Y-103741821D01*
X115412712Y-103621344D01*
X115288656Y-103497288D01*
X115139334Y-103405186D01*
X114972797Y-103350001D01*
X114972795Y-103350000D01*
X114870010Y-103339500D01*
X113869998Y-103339500D01*
X113869980Y-103339501D01*
X113767203Y-103350000D01*
X113767200Y-103350001D01*
X113600668Y-103405185D01*
X113600663Y-103405187D01*
X113451342Y-103497289D01*
X113327289Y-103621342D01*
X113235187Y-103770663D01*
X113235185Y-103770668D01*
X113218128Y-103822144D01*
X113180001Y-103937203D01*
X113180001Y-103937204D01*
X113180000Y-103937204D01*
X113169500Y-104039983D01*
X113169500Y-104840001D01*
X113169501Y-104840019D01*
X113180000Y-104942796D01*
X113180001Y-104942799D01*
X113235185Y-105109331D01*
X113235187Y-105109336D01*
X113258169Y-105146595D01*
X113319173Y-105245500D01*
X113327289Y-105258657D01*
X113420951Y-105352319D01*
X113454436Y-105413642D01*
X113449452Y-105483334D01*
X113420951Y-105527681D01*
X113327289Y-105621342D01*
X113235187Y-105770663D01*
X113235185Y-105770668D01*
X113228558Y-105790668D01*
X113180001Y-105937203D01*
X113180001Y-105937204D01*
X113180000Y-105937204D01*
X113169500Y-106039983D01*
X113169500Y-106090499D01*
X113149815Y-106157538D01*
X113097011Y-106203293D01*
X113045500Y-106214499D01*
X112891155Y-106214499D01*
X112736510Y-106245260D01*
X112736498Y-106245263D01*
X112590827Y-106305601D01*
X112590814Y-106305608D01*
X112459711Y-106393209D01*
X112459707Y-106393212D01*
X112348213Y-106504706D01*
X112348210Y-106504710D01*
X112260609Y-106635813D01*
X112260602Y-106635826D01*
X112200264Y-106781497D01*
X112200261Y-106781509D01*
X112169500Y-106936152D01*
X112169500Y-107093845D01*
X112200261Y-107248488D01*
X112202031Y-107254323D01*
X112200793Y-107254698D01*
X112207545Y-107317521D01*
X112176268Y-107379999D01*
X112116178Y-107415649D01*
X112085516Y-107419500D01*
X111012593Y-107419500D01*
X110945554Y-107399815D01*
X110899799Y-107347011D01*
X110889855Y-107277853D01*
X110907054Y-107230404D01*
X110981733Y-107109329D01*
X110984814Y-107104334D01*
X111039999Y-106937797D01*
X111050500Y-106835009D01*
X111050499Y-106059992D01*
X111050493Y-106059937D01*
X111039999Y-105957203D01*
X111039998Y-105957200D01*
X111025930Y-105914745D01*
X110984814Y-105790666D01*
X110892712Y-105641344D01*
X110768656Y-105517288D01*
X110765342Y-105515243D01*
X110763546Y-105513248D01*
X110762989Y-105512807D01*
X110763064Y-105512711D01*
X110718618Y-105463297D01*
X110707397Y-105394334D01*
X110735240Y-105330252D01*
X110765348Y-105304165D01*
X110768342Y-105302318D01*
X110892315Y-105178345D01*
X110984356Y-105029124D01*
X110984358Y-105029119D01*
X111039505Y-104862697D01*
X111039506Y-104862690D01*
X111049999Y-104759986D01*
X111050000Y-104759973D01*
X111050000Y-104622500D01*
X108600001Y-104622500D01*
X108600001Y-104759986D01*
X108610494Y-104862697D01*
X108665641Y-105029119D01*
X108665643Y-105029124D01*
X108757684Y-105178345D01*
X108881655Y-105302316D01*
X108881659Y-105302319D01*
X108884656Y-105304168D01*
X108886279Y-105305972D01*
X108887323Y-105306798D01*
X108887181Y-105306976D01*
X108931381Y-105356116D01*
X108942602Y-105425079D01*
X108914759Y-105489161D01*
X108884661Y-105515241D01*
X108881349Y-105517283D01*
X108881343Y-105517288D01*
X108757289Y-105641342D01*
X108665187Y-105790663D01*
X108665186Y-105790666D01*
X108610001Y-105957203D01*
X108610001Y-105957204D01*
X108610000Y-105957204D01*
X108599179Y-106063132D01*
X108598345Y-106063046D01*
X108576446Y-106125654D01*
X108521383Y-106168664D01*
X108499867Y-106175013D01*
X108478508Y-106179261D01*
X108478498Y-106179264D01*
X108332827Y-106239602D01*
X108332814Y-106239609D01*
X108201711Y-106327210D01*
X108201707Y-106327213D01*
X108090213Y-106438707D01*
X108090210Y-106438711D01*
X108002609Y-106569814D01*
X108002602Y-106569827D01*
X107942264Y-106715498D01*
X107942261Y-106715510D01*
X107911500Y-106870153D01*
X107911500Y-107027846D01*
X107942261Y-107182489D01*
X107942263Y-107182497D01*
X107969415Y-107248048D01*
X107976884Y-107317516D01*
X107945609Y-107379996D01*
X107885520Y-107415648D01*
X107854854Y-107419500D01*
X106735090Y-107419500D01*
X106668051Y-107399815D01*
X106622296Y-107347011D01*
X106612352Y-107277853D01*
X106629551Y-107230403D01*
X106704356Y-107109124D01*
X106704358Y-107109119D01*
X106759505Y-106942697D01*
X106759506Y-106942690D01*
X106769999Y-106839986D01*
X106770000Y-106839973D01*
X106770000Y-106690000D01*
X105694000Y-106690000D01*
X105626961Y-106670315D01*
X105581206Y-106617511D01*
X105570000Y-106566000D01*
X105570000Y-106314000D01*
X105589685Y-106246961D01*
X105642489Y-106201206D01*
X105694000Y-106190000D01*
X106769999Y-106190000D01*
X106769999Y-106040028D01*
X106769998Y-106040013D01*
X106759505Y-105937302D01*
X106704358Y-105770880D01*
X106704356Y-105770875D01*
X106612315Y-105621654D01*
X106518695Y-105528034D01*
X106485210Y-105466711D01*
X106490194Y-105397019D01*
X106518691Y-105352676D01*
X106612712Y-105258656D01*
X106695519Y-105124402D01*
X106747467Y-105077679D01*
X106801058Y-105065500D01*
X107394608Y-105065500D01*
X107394608Y-105065499D01*
X107469762Y-105050551D01*
X107515452Y-105041463D01*
X107548792Y-105027652D01*
X107629286Y-104994312D01*
X107680509Y-104960084D01*
X107731733Y-104925858D01*
X107818858Y-104838733D01*
X107818858Y-104838731D01*
X107829066Y-104828524D01*
X107829067Y-104828521D01*
X108498770Y-104158818D01*
X108560093Y-104125334D01*
X108586451Y-104122500D01*
X109575000Y-104122500D01*
X110075000Y-104122500D01*
X111049999Y-104122500D01*
X111049999Y-103985028D01*
X111049998Y-103985013D01*
X111039505Y-103882302D01*
X110984358Y-103715880D01*
X110984356Y-103715875D01*
X110892315Y-103566654D01*
X110768345Y-103442684D01*
X110619124Y-103350643D01*
X110619119Y-103350641D01*
X110452697Y-103295494D01*
X110452690Y-103295493D01*
X110349986Y-103285000D01*
X110075000Y-103285000D01*
X110075000Y-104122500D01*
X109575000Y-104122500D01*
X109575000Y-103285000D01*
X109561475Y-103271475D01*
X109527990Y-103210152D01*
X109532974Y-103140460D01*
X109561471Y-103096117D01*
X112427772Y-100229819D01*
X112489095Y-100196334D01*
X112515453Y-100193500D01*
X121236748Y-100193500D01*
X121303787Y-100213185D01*
G37*
%TD.AperFunction*%
%TA.AperFunction,Conductor*%
G36*
X132236586Y-100824685D02*
G01*
X132282341Y-100877489D01*
X132292285Y-100946647D01*
X132263260Y-101010203D01*
X132257228Y-101016681D01*
X129615106Y-103658802D01*
X129553783Y-103692287D01*
X129484091Y-103687303D01*
X129428158Y-103645431D01*
X129421887Y-103636218D01*
X129412714Y-103621347D01*
X129412713Y-103621345D01*
X129412712Y-103621344D01*
X129288656Y-103497288D01*
X129139334Y-103405186D01*
X128972797Y-103350001D01*
X128972795Y-103350000D01*
X128870010Y-103339500D01*
X127869998Y-103339500D01*
X127869980Y-103339501D01*
X127767203Y-103350000D01*
X127767200Y-103350001D01*
X127600668Y-103405185D01*
X127600663Y-103405187D01*
X127451342Y-103497289D01*
X127327289Y-103621342D01*
X127244481Y-103755597D01*
X127236893Y-103762421D01*
X127232655Y-103771703D01*
X127211355Y-103785391D01*
X127192533Y-103802321D01*
X127180897Y-103804965D01*
X127173877Y-103809477D01*
X127138942Y-103814500D01*
X127001058Y-103814500D01*
X126934019Y-103794815D01*
X126895519Y-103755597D01*
X126887022Y-103741821D01*
X126812712Y-103621344D01*
X126688656Y-103497288D01*
X126539334Y-103405186D01*
X126372797Y-103350001D01*
X126372795Y-103350000D01*
X126270010Y-103339500D01*
X125269998Y-103339500D01*
X125269980Y-103339501D01*
X125167203Y-103350000D01*
X125167200Y-103350001D01*
X125000668Y-103405185D01*
X125000663Y-103405187D01*
X124851342Y-103497289D01*
X124727289Y-103621342D01*
X124635187Y-103770663D01*
X124635185Y-103770668D01*
X124618128Y-103822144D01*
X124580001Y-103937203D01*
X124580001Y-103937204D01*
X124580000Y-103937204D01*
X124569500Y-104039983D01*
X124569500Y-104840001D01*
X124569501Y-104840019D01*
X124580000Y-104942796D01*
X124580001Y-104942799D01*
X124635185Y-105109331D01*
X124635187Y-105109336D01*
X124658169Y-105146595D01*
X124719173Y-105245500D01*
X124727289Y-105258657D01*
X124820951Y-105352319D01*
X124854436Y-105413642D01*
X124849452Y-105483334D01*
X124820951Y-105527681D01*
X124727289Y-105621342D01*
X124635187Y-105770663D01*
X124635185Y-105770668D01*
X124628558Y-105790668D01*
X124580001Y-105937203D01*
X124580001Y-105937204D01*
X124580000Y-105937204D01*
X124569500Y-106039983D01*
X124569500Y-106090499D01*
X124549815Y-106157538D01*
X124497011Y-106203293D01*
X124445500Y-106214499D01*
X124291155Y-106214499D01*
X124136510Y-106245260D01*
X124136498Y-106245263D01*
X123990827Y-106305601D01*
X123990814Y-106305608D01*
X123859711Y-106393209D01*
X123859707Y-106393212D01*
X123748213Y-106504706D01*
X123748210Y-106504710D01*
X123660609Y-106635813D01*
X123660602Y-106635826D01*
X123600264Y-106781497D01*
X123600261Y-106781509D01*
X123569500Y-106936152D01*
X123569500Y-107093845D01*
X123600261Y-107248488D01*
X123602031Y-107254323D01*
X123600793Y-107254698D01*
X123607545Y-107317521D01*
X123576268Y-107379999D01*
X123516178Y-107415649D01*
X123485516Y-107419500D01*
X122412593Y-107419500D01*
X122345554Y-107399815D01*
X122299799Y-107347011D01*
X122289855Y-107277853D01*
X122307054Y-107230404D01*
X122381733Y-107109329D01*
X122384814Y-107104334D01*
X122439999Y-106937797D01*
X122450500Y-106835009D01*
X122450499Y-106059992D01*
X122450493Y-106059937D01*
X122439999Y-105957203D01*
X122439998Y-105957200D01*
X122425930Y-105914745D01*
X122384814Y-105790666D01*
X122292712Y-105641344D01*
X122168656Y-105517288D01*
X122165342Y-105515243D01*
X122163546Y-105513248D01*
X122162989Y-105512807D01*
X122163064Y-105512711D01*
X122118618Y-105463297D01*
X122107397Y-105394334D01*
X122135240Y-105330252D01*
X122165348Y-105304165D01*
X122168342Y-105302318D01*
X122292315Y-105178345D01*
X122384356Y-105029124D01*
X122384358Y-105029119D01*
X122439505Y-104862697D01*
X122439506Y-104862690D01*
X122449999Y-104759986D01*
X122450000Y-104759973D01*
X122450000Y-104622500D01*
X120000001Y-104622500D01*
X120000001Y-104759986D01*
X120010494Y-104862697D01*
X120065641Y-105029119D01*
X120065643Y-105029124D01*
X120157684Y-105178345D01*
X120281655Y-105302316D01*
X120281659Y-105302319D01*
X120284656Y-105304168D01*
X120286279Y-105305972D01*
X120287323Y-105306798D01*
X120287181Y-105306976D01*
X120331381Y-105356116D01*
X120342602Y-105425079D01*
X120314759Y-105489161D01*
X120284661Y-105515241D01*
X120281349Y-105517283D01*
X120281343Y-105517288D01*
X120157289Y-105641342D01*
X120065187Y-105790663D01*
X120065186Y-105790666D01*
X120010001Y-105957203D01*
X120010001Y-105957204D01*
X120010000Y-105957204D01*
X119999500Y-106059983D01*
X119999340Y-106063139D01*
X119999179Y-106063130D01*
X119999179Y-106063132D01*
X119999155Y-106063129D01*
X119998500Y-106063096D01*
X119979815Y-106126733D01*
X119927011Y-106172488D01*
X119911506Y-106178351D01*
X119908507Y-106179260D01*
X119762827Y-106239602D01*
X119762814Y-106239609D01*
X119631711Y-106327210D01*
X119631707Y-106327213D01*
X119520213Y-106438707D01*
X119520210Y-106438711D01*
X119432609Y-106569814D01*
X119432602Y-106569827D01*
X119372264Y-106715498D01*
X119372261Y-106715510D01*
X119341500Y-106870153D01*
X119341500Y-107027846D01*
X119372261Y-107182489D01*
X119372263Y-107182497D01*
X119399415Y-107248048D01*
X119406884Y-107317516D01*
X119375609Y-107379996D01*
X119315520Y-107415648D01*
X119284854Y-107419500D01*
X118135090Y-107419500D01*
X118068051Y-107399815D01*
X118022296Y-107347011D01*
X118012352Y-107277853D01*
X118029551Y-107230403D01*
X118104356Y-107109124D01*
X118104358Y-107109119D01*
X118159505Y-106942697D01*
X118159506Y-106942690D01*
X118169999Y-106839986D01*
X118170000Y-106839973D01*
X118170000Y-106690000D01*
X117094000Y-106690000D01*
X117026961Y-106670315D01*
X116981206Y-106617511D01*
X116970000Y-106566000D01*
X116970000Y-106314000D01*
X116989685Y-106246961D01*
X117042489Y-106201206D01*
X117094000Y-106190000D01*
X118169999Y-106190000D01*
X118169999Y-106040028D01*
X118169998Y-106040013D01*
X118159505Y-105937302D01*
X118104358Y-105770880D01*
X118104356Y-105770875D01*
X118012315Y-105621654D01*
X117918695Y-105528034D01*
X117885210Y-105466711D01*
X117890194Y-105397019D01*
X117918691Y-105352676D01*
X118012712Y-105258656D01*
X118095519Y-105124402D01*
X118097086Y-105122993D01*
X118097709Y-105120980D01*
X118122938Y-105099741D01*
X118147467Y-105077679D01*
X118150055Y-105076913D01*
X118151160Y-105075983D01*
X118158184Y-105074507D01*
X118185163Y-105066523D01*
X118193078Y-105065500D01*
X118235807Y-105065500D01*
X118310962Y-105050551D01*
X118315100Y-105049727D01*
X118315107Y-105049727D01*
X118337755Y-105045221D01*
X118356652Y-105041463D01*
X118389992Y-105027652D01*
X118470486Y-104994312D01*
X118521709Y-104960084D01*
X118572933Y-104925858D01*
X118660058Y-104838733D01*
X118660060Y-104838730D01*
X118667125Y-104831665D01*
X118667127Y-104831661D01*
X119835804Y-103662984D01*
X119897125Y-103629501D01*
X119966817Y-103634485D01*
X120022750Y-103676357D01*
X120047167Y-103741821D01*
X120041189Y-103789670D01*
X120010495Y-103882298D01*
X120010493Y-103882309D01*
X120000000Y-103985013D01*
X120000000Y-104122500D01*
X120975000Y-104122500D01*
X121475000Y-104122500D01*
X122449999Y-104122500D01*
X122449999Y-103985028D01*
X122449998Y-103985013D01*
X122439505Y-103882302D01*
X122384358Y-103715880D01*
X122384356Y-103715875D01*
X122292315Y-103566654D01*
X122168345Y-103442684D01*
X122019124Y-103350643D01*
X122019119Y-103350641D01*
X121852697Y-103295494D01*
X121852690Y-103295493D01*
X121749986Y-103285000D01*
X121475000Y-103285000D01*
X121475000Y-104122500D01*
X120975000Y-104122500D01*
X120975000Y-103285000D01*
X120700029Y-103285000D01*
X120700012Y-103285001D01*
X120597302Y-103295494D01*
X120504672Y-103326189D01*
X120434844Y-103328591D01*
X120374802Y-103292859D01*
X120343609Y-103230339D01*
X120351170Y-103160879D01*
X120377987Y-103120802D01*
X120719647Y-102779143D01*
X122657471Y-100841319D01*
X122718794Y-100807834D01*
X122745152Y-100805000D01*
X132169547Y-100805000D01*
X132236586Y-100824685D01*
G37*
%TD.AperFunction*%
%TA.AperFunction,Conductor*%
G36*
X143664587Y-101313518D02*
G01*
X143710342Y-101366322D01*
X143720286Y-101435480D01*
X143691261Y-101499036D01*
X143685229Y-101505514D01*
X141412562Y-103778181D01*
X141351239Y-103811666D01*
X141324881Y-103814500D01*
X141001058Y-103814500D01*
X140934019Y-103794815D01*
X140895519Y-103755597D01*
X140887022Y-103741821D01*
X140812712Y-103621344D01*
X140688656Y-103497288D01*
X140539334Y-103405186D01*
X140372797Y-103350001D01*
X140372795Y-103350000D01*
X140270010Y-103339500D01*
X139269998Y-103339500D01*
X139269980Y-103339501D01*
X139167203Y-103350000D01*
X139167200Y-103350001D01*
X139000668Y-103405185D01*
X139000663Y-103405187D01*
X138851342Y-103497289D01*
X138727289Y-103621342D01*
X138644481Y-103755597D01*
X138636893Y-103762421D01*
X138632655Y-103771703D01*
X138611355Y-103785391D01*
X138592533Y-103802321D01*
X138580897Y-103804965D01*
X138573877Y-103809477D01*
X138538942Y-103814500D01*
X138401058Y-103814500D01*
X138334019Y-103794815D01*
X138295519Y-103755597D01*
X138287022Y-103741821D01*
X138212712Y-103621344D01*
X138088656Y-103497288D01*
X137939334Y-103405186D01*
X137772797Y-103350001D01*
X137772795Y-103350000D01*
X137670010Y-103339500D01*
X136669998Y-103339500D01*
X136669980Y-103339501D01*
X136567203Y-103350000D01*
X136567200Y-103350001D01*
X136400668Y-103405185D01*
X136400663Y-103405187D01*
X136251342Y-103497289D01*
X136127289Y-103621342D01*
X136035187Y-103770663D01*
X136035185Y-103770668D01*
X136018128Y-103822144D01*
X135980001Y-103937203D01*
X135980001Y-103937204D01*
X135980000Y-103937204D01*
X135969500Y-104039983D01*
X135969500Y-104840001D01*
X135969501Y-104840019D01*
X135980000Y-104942796D01*
X135980001Y-104942799D01*
X136035185Y-105109331D01*
X136035187Y-105109336D01*
X136058169Y-105146595D01*
X136119173Y-105245500D01*
X136127289Y-105258657D01*
X136220951Y-105352319D01*
X136254436Y-105413642D01*
X136249452Y-105483334D01*
X136220951Y-105527681D01*
X136127289Y-105621342D01*
X136035187Y-105770663D01*
X136035185Y-105770668D01*
X136028558Y-105790668D01*
X135980001Y-105937203D01*
X135980001Y-105937204D01*
X135980000Y-105937204D01*
X135969500Y-106039983D01*
X135969500Y-106090499D01*
X135949815Y-106157538D01*
X135897011Y-106203293D01*
X135845500Y-106214499D01*
X135691155Y-106214499D01*
X135536510Y-106245260D01*
X135536498Y-106245263D01*
X135390827Y-106305601D01*
X135390814Y-106305608D01*
X135259711Y-106393209D01*
X135259707Y-106393212D01*
X135148213Y-106504706D01*
X135148210Y-106504710D01*
X135060609Y-106635813D01*
X135060602Y-106635826D01*
X135000264Y-106781497D01*
X135000261Y-106781509D01*
X134969500Y-106936152D01*
X134969500Y-107093845D01*
X135000261Y-107248488D01*
X135002031Y-107254323D01*
X135000793Y-107254698D01*
X135007545Y-107317521D01*
X134976268Y-107379999D01*
X134916178Y-107415649D01*
X134885516Y-107419500D01*
X133812593Y-107419500D01*
X133745554Y-107399815D01*
X133699799Y-107347011D01*
X133689855Y-107277853D01*
X133707054Y-107230404D01*
X133781733Y-107109329D01*
X133784814Y-107104334D01*
X133839999Y-106937797D01*
X133850500Y-106835009D01*
X133850499Y-106059992D01*
X133850493Y-106059937D01*
X133839999Y-105957203D01*
X133839998Y-105957200D01*
X133825930Y-105914745D01*
X133784814Y-105790666D01*
X133692712Y-105641344D01*
X133568656Y-105517288D01*
X133565342Y-105515243D01*
X133563546Y-105513248D01*
X133562989Y-105512807D01*
X133563064Y-105512711D01*
X133518618Y-105463297D01*
X133507397Y-105394334D01*
X133535240Y-105330252D01*
X133565348Y-105304165D01*
X133568342Y-105302318D01*
X133692315Y-105178345D01*
X133784356Y-105029124D01*
X133784358Y-105029119D01*
X133839505Y-104862697D01*
X133839506Y-104862690D01*
X133849999Y-104759986D01*
X133850000Y-104759973D01*
X133850000Y-104622500D01*
X131400001Y-104622500D01*
X131400001Y-104759986D01*
X131410494Y-104862697D01*
X131465641Y-105029119D01*
X131465643Y-105029124D01*
X131557684Y-105178345D01*
X131681655Y-105302316D01*
X131681659Y-105302319D01*
X131684656Y-105304168D01*
X131686279Y-105305972D01*
X131687323Y-105306798D01*
X131687181Y-105306976D01*
X131731381Y-105356116D01*
X131742602Y-105425079D01*
X131714759Y-105489161D01*
X131684661Y-105515241D01*
X131681349Y-105517283D01*
X131681343Y-105517288D01*
X131557289Y-105641342D01*
X131465187Y-105790663D01*
X131465186Y-105790666D01*
X131416629Y-105937203D01*
X131410001Y-105957204D01*
X131410000Y-105957205D01*
X131401838Y-106037103D01*
X131375442Y-106101795D01*
X131318261Y-106141946D01*
X131278480Y-106148500D01*
X131239155Y-106148500D01*
X131084510Y-106179261D01*
X131084498Y-106179264D01*
X130938827Y-106239602D01*
X130938814Y-106239609D01*
X130807711Y-106327210D01*
X130807707Y-106327213D01*
X130696213Y-106438707D01*
X130696210Y-106438711D01*
X130608609Y-106569814D01*
X130608602Y-106569827D01*
X130548264Y-106715498D01*
X130548261Y-106715510D01*
X130517500Y-106870153D01*
X130517500Y-107027846D01*
X130548261Y-107182489D01*
X130548263Y-107182497D01*
X130575415Y-107248048D01*
X130582884Y-107317516D01*
X130551609Y-107379996D01*
X130491520Y-107415648D01*
X130460854Y-107419500D01*
X129535090Y-107419500D01*
X129468051Y-107399815D01*
X129422296Y-107347011D01*
X129412352Y-107277853D01*
X129429551Y-107230403D01*
X129504356Y-107109124D01*
X129504358Y-107109119D01*
X129559505Y-106942697D01*
X129559506Y-106942690D01*
X129569999Y-106839986D01*
X129570000Y-106839973D01*
X129570000Y-106690000D01*
X128494000Y-106690000D01*
X128426961Y-106670315D01*
X128381206Y-106617511D01*
X128370000Y-106566000D01*
X128370000Y-106314000D01*
X128389685Y-106246961D01*
X128442489Y-106201206D01*
X128494000Y-106190000D01*
X129569999Y-106190000D01*
X129569999Y-106040028D01*
X129569998Y-106040013D01*
X129559505Y-105937302D01*
X129504358Y-105770880D01*
X129504356Y-105770875D01*
X129412315Y-105621654D01*
X129318695Y-105528034D01*
X129285210Y-105466711D01*
X129290194Y-105397019D01*
X129318691Y-105352676D01*
X129412712Y-105258656D01*
X129495519Y-105124402D01*
X129547467Y-105077679D01*
X129601058Y-105065500D01*
X129780108Y-105065500D01*
X129780108Y-105065499D01*
X129855262Y-105050551D01*
X129900952Y-105041463D01*
X129934292Y-105027652D01*
X130014786Y-104994312D01*
X130066009Y-104960084D01*
X130117233Y-104925858D01*
X130204358Y-104838733D01*
X130204358Y-104838731D01*
X130214566Y-104828524D01*
X130214567Y-104828521D01*
X131192446Y-103850643D01*
X131253766Y-103817160D01*
X131323458Y-103822144D01*
X131379391Y-103864016D01*
X131403808Y-103929480D01*
X131403482Y-103950926D01*
X131400001Y-103985006D01*
X131400000Y-103985026D01*
X131400000Y-104122500D01*
X132375000Y-104122500D01*
X132875000Y-104122500D01*
X133849999Y-104122500D01*
X133849999Y-103985028D01*
X133849998Y-103985013D01*
X133839505Y-103882302D01*
X133784358Y-103715880D01*
X133784356Y-103715875D01*
X133692315Y-103566654D01*
X133568345Y-103442684D01*
X133419124Y-103350643D01*
X133419119Y-103350641D01*
X133252697Y-103295494D01*
X133252690Y-103295493D01*
X133149986Y-103285000D01*
X132875000Y-103285000D01*
X132875000Y-104122500D01*
X132375000Y-104122500D01*
X132375000Y-103285000D01*
X132100029Y-103285000D01*
X132100005Y-103285002D01*
X132065925Y-103288483D01*
X131997233Y-103275712D01*
X131946349Y-103227831D01*
X131929430Y-103160040D01*
X131951847Y-103093864D01*
X131965639Y-103077450D01*
X133712939Y-101330152D01*
X133774262Y-101296667D01*
X133800620Y-101293833D01*
X143597548Y-101293833D01*
X143664587Y-101313518D01*
G37*
%TD.AperFunction*%
%TA.AperFunction,Conductor*%
G36*
X154093253Y-101764518D02*
G01*
X154139008Y-101817322D01*
X154148952Y-101886480D01*
X154119927Y-101950036D01*
X154113895Y-101956514D01*
X152413771Y-103656637D01*
X152352448Y-103690122D01*
X152282756Y-103685138D01*
X152226823Y-103643266D01*
X152220552Y-103634053D01*
X152212715Y-103621348D01*
X152212713Y-103621345D01*
X152088657Y-103497289D01*
X152088656Y-103497288D01*
X151939334Y-103405186D01*
X151772797Y-103350001D01*
X151772795Y-103350000D01*
X151670010Y-103339500D01*
X150669998Y-103339500D01*
X150669980Y-103339501D01*
X150567203Y-103350000D01*
X150567200Y-103350001D01*
X150400668Y-103405185D01*
X150400663Y-103405187D01*
X150251342Y-103497289D01*
X150127289Y-103621342D01*
X150044481Y-103755597D01*
X150036893Y-103762421D01*
X150032655Y-103771703D01*
X150011355Y-103785391D01*
X149992533Y-103802321D01*
X149980897Y-103804965D01*
X149973877Y-103809477D01*
X149938942Y-103814500D01*
X149801058Y-103814500D01*
X149734019Y-103794815D01*
X149695519Y-103755597D01*
X149687022Y-103741821D01*
X149612712Y-103621344D01*
X149488656Y-103497288D01*
X149339334Y-103405186D01*
X149172797Y-103350001D01*
X149172795Y-103350000D01*
X149070010Y-103339500D01*
X148069998Y-103339500D01*
X148069980Y-103339501D01*
X147967203Y-103350000D01*
X147967200Y-103350001D01*
X147800668Y-103405185D01*
X147800663Y-103405187D01*
X147651342Y-103497289D01*
X147527289Y-103621342D01*
X147435187Y-103770663D01*
X147435185Y-103770668D01*
X147418128Y-103822144D01*
X147380001Y-103937203D01*
X147380001Y-103937204D01*
X147380000Y-103937204D01*
X147369500Y-104039983D01*
X147369500Y-104840001D01*
X147369501Y-104840019D01*
X147380000Y-104942796D01*
X147380001Y-104942799D01*
X147435185Y-105109331D01*
X147435187Y-105109336D01*
X147458169Y-105146595D01*
X147519173Y-105245500D01*
X147527289Y-105258657D01*
X147620951Y-105352319D01*
X147654436Y-105413642D01*
X147649452Y-105483334D01*
X147620951Y-105527681D01*
X147527289Y-105621342D01*
X147435187Y-105770663D01*
X147435185Y-105770668D01*
X147428558Y-105790668D01*
X147380001Y-105937203D01*
X147380001Y-105937204D01*
X147380000Y-105937204D01*
X147369500Y-106039983D01*
X147369500Y-106090499D01*
X147349815Y-106157538D01*
X147297011Y-106203293D01*
X147245500Y-106214499D01*
X147091155Y-106214499D01*
X146936510Y-106245260D01*
X146936498Y-106245263D01*
X146790827Y-106305601D01*
X146790814Y-106305608D01*
X146659711Y-106393209D01*
X146659707Y-106393212D01*
X146548213Y-106504706D01*
X146548210Y-106504710D01*
X146460609Y-106635813D01*
X146460602Y-106635826D01*
X146400264Y-106781497D01*
X146400261Y-106781509D01*
X146369500Y-106936152D01*
X146369500Y-107093845D01*
X146400261Y-107248488D01*
X146402031Y-107254323D01*
X146400793Y-107254698D01*
X146407545Y-107317521D01*
X146376268Y-107379999D01*
X146316178Y-107415649D01*
X146285516Y-107419500D01*
X145212593Y-107419500D01*
X145145554Y-107399815D01*
X145099799Y-107347011D01*
X145089855Y-107277853D01*
X145107054Y-107230404D01*
X145181733Y-107109329D01*
X145184814Y-107104334D01*
X145239999Y-106937797D01*
X145250500Y-106835009D01*
X145250499Y-106059992D01*
X145250493Y-106059937D01*
X145239999Y-105957203D01*
X145239998Y-105957200D01*
X145225930Y-105914745D01*
X145184814Y-105790666D01*
X145092712Y-105641344D01*
X144968656Y-105517288D01*
X144965342Y-105515243D01*
X144963546Y-105513248D01*
X144962989Y-105512807D01*
X144963064Y-105512711D01*
X144918618Y-105463297D01*
X144907397Y-105394334D01*
X144935240Y-105330252D01*
X144965348Y-105304165D01*
X144968342Y-105302318D01*
X145092315Y-105178345D01*
X145184356Y-105029124D01*
X145184358Y-105029119D01*
X145239505Y-104862697D01*
X145239506Y-104862690D01*
X145249999Y-104759986D01*
X145250000Y-104759973D01*
X145250000Y-104622500D01*
X142800001Y-104622500D01*
X142800001Y-104759986D01*
X142810494Y-104862697D01*
X142865641Y-105029119D01*
X142865643Y-105029124D01*
X142957684Y-105178345D01*
X143081655Y-105302316D01*
X143081659Y-105302319D01*
X143084656Y-105304168D01*
X143086279Y-105305972D01*
X143087323Y-105306798D01*
X143087181Y-105306976D01*
X143131381Y-105356116D01*
X143142602Y-105425079D01*
X143114759Y-105489161D01*
X143084661Y-105515241D01*
X143081349Y-105517283D01*
X143081343Y-105517288D01*
X142957289Y-105641342D01*
X142865187Y-105790663D01*
X142865186Y-105790666D01*
X142816629Y-105937203D01*
X142810001Y-105957204D01*
X142810000Y-105957205D01*
X142801838Y-106037103D01*
X142775442Y-106101795D01*
X142718261Y-106141946D01*
X142678480Y-106148500D01*
X142669155Y-106148500D01*
X142514510Y-106179261D01*
X142514498Y-106179264D01*
X142368827Y-106239602D01*
X142368814Y-106239609D01*
X142237711Y-106327210D01*
X142237707Y-106327213D01*
X142126213Y-106438707D01*
X142126210Y-106438711D01*
X142038609Y-106569814D01*
X142038602Y-106569827D01*
X141978264Y-106715498D01*
X141978261Y-106715510D01*
X141947500Y-106870153D01*
X141947500Y-107027846D01*
X141978261Y-107182489D01*
X141978263Y-107182497D01*
X142005415Y-107248048D01*
X142012884Y-107317516D01*
X141981609Y-107379996D01*
X141921520Y-107415648D01*
X141890854Y-107419500D01*
X140935090Y-107419500D01*
X140868051Y-107399815D01*
X140822296Y-107347011D01*
X140812352Y-107277853D01*
X140829551Y-107230403D01*
X140904356Y-107109124D01*
X140904358Y-107109119D01*
X140959505Y-106942697D01*
X140959506Y-106942690D01*
X140969999Y-106839986D01*
X140970000Y-106839973D01*
X140970000Y-106690000D01*
X139894000Y-106690000D01*
X139826961Y-106670315D01*
X139781206Y-106617511D01*
X139770000Y-106566000D01*
X139770000Y-106314000D01*
X139789685Y-106246961D01*
X139842489Y-106201206D01*
X139894000Y-106190000D01*
X140969999Y-106190000D01*
X140969999Y-106040028D01*
X140969998Y-106040013D01*
X140959505Y-105937302D01*
X140904358Y-105770880D01*
X140904356Y-105770875D01*
X140812315Y-105621654D01*
X140718695Y-105528034D01*
X140685210Y-105466711D01*
X140690194Y-105397019D01*
X140718691Y-105352676D01*
X140812712Y-105258656D01*
X140895519Y-105124402D01*
X140947467Y-105077679D01*
X141001058Y-105065500D01*
X141696941Y-105065500D01*
X141696941Y-105065499D01*
X141772095Y-105050551D01*
X141817785Y-105041463D01*
X141851125Y-105027652D01*
X141931619Y-104994312D01*
X141982842Y-104960084D01*
X142034066Y-104925858D01*
X142121191Y-104838733D01*
X142121193Y-104838730D01*
X142128258Y-104831665D01*
X142128260Y-104831661D01*
X142801103Y-104158818D01*
X142862426Y-104125334D01*
X142888784Y-104122500D01*
X143775000Y-104122500D01*
X144275000Y-104122500D01*
X145249999Y-104122500D01*
X145249999Y-103985028D01*
X145249998Y-103985013D01*
X145239505Y-103882302D01*
X145184358Y-103715880D01*
X145184356Y-103715875D01*
X145092315Y-103566654D01*
X144968345Y-103442684D01*
X144819124Y-103350643D01*
X144819119Y-103350641D01*
X144652697Y-103295494D01*
X144652690Y-103295493D01*
X144549986Y-103285000D01*
X144275000Y-103285000D01*
X144275000Y-104122500D01*
X143775000Y-104122500D01*
X143775000Y-103236283D01*
X143779581Y-103220680D01*
X143778907Y-103215991D01*
X143784154Y-103204501D01*
X143790168Y-103176856D01*
X143793922Y-103171840D01*
X143794685Y-103169244D01*
X143807541Y-103153289D01*
X143807932Y-103152435D01*
X143810148Y-103150055D01*
X143811312Y-103148609D01*
X145178771Y-101781152D01*
X145240094Y-101747667D01*
X145266452Y-101744833D01*
X154026214Y-101744833D01*
X154093253Y-101764518D01*
G37*
%TD.AperFunction*%
%TA.AperFunction,Conductor*%
G36*
X160288024Y-102231097D02*
G01*
X160293812Y-102231667D01*
X160293813Y-102231667D01*
X160293814Y-102231667D01*
X165357381Y-102231667D01*
X165424420Y-102251352D01*
X165470175Y-102304156D01*
X165480119Y-102373314D01*
X165451094Y-102436870D01*
X165445062Y-102443348D01*
X164110229Y-103778181D01*
X164083301Y-103792884D01*
X164057483Y-103809477D01*
X164051282Y-103810368D01*
X164048906Y-103811666D01*
X164022548Y-103814500D01*
X163801058Y-103814500D01*
X163734019Y-103794815D01*
X163695519Y-103755597D01*
X163687022Y-103741821D01*
X163612712Y-103621344D01*
X163488656Y-103497288D01*
X163339334Y-103405186D01*
X163172797Y-103350001D01*
X163172795Y-103350000D01*
X163070010Y-103339500D01*
X162069998Y-103339500D01*
X162069980Y-103339501D01*
X161967203Y-103350000D01*
X161967200Y-103350001D01*
X161800668Y-103405185D01*
X161800663Y-103405187D01*
X161651342Y-103497289D01*
X161527289Y-103621342D01*
X161444481Y-103755597D01*
X161436893Y-103762421D01*
X161432655Y-103771703D01*
X161411355Y-103785391D01*
X161392533Y-103802321D01*
X161380897Y-103804965D01*
X161373877Y-103809477D01*
X161338942Y-103814500D01*
X161201058Y-103814500D01*
X161134019Y-103794815D01*
X161095519Y-103755597D01*
X161087022Y-103741821D01*
X161012712Y-103621344D01*
X160888656Y-103497288D01*
X160739334Y-103405186D01*
X160572797Y-103350001D01*
X160572795Y-103350000D01*
X160470010Y-103339500D01*
X159469998Y-103339500D01*
X159469980Y-103339501D01*
X159367203Y-103350000D01*
X159367200Y-103350001D01*
X159200668Y-103405185D01*
X159200663Y-103405187D01*
X159051342Y-103497289D01*
X158927289Y-103621342D01*
X158835187Y-103770663D01*
X158835185Y-103770668D01*
X158818128Y-103822144D01*
X158780001Y-103937203D01*
X158780001Y-103937204D01*
X158780000Y-103937204D01*
X158769500Y-104039983D01*
X158769500Y-104840001D01*
X158769501Y-104840019D01*
X158780000Y-104942796D01*
X158780001Y-104942799D01*
X158835185Y-105109331D01*
X158835187Y-105109336D01*
X158858169Y-105146595D01*
X158919173Y-105245500D01*
X158927289Y-105258657D01*
X159020951Y-105352319D01*
X159054436Y-105413642D01*
X159049452Y-105483334D01*
X159020951Y-105527681D01*
X158927289Y-105621342D01*
X158835187Y-105770663D01*
X158835185Y-105770668D01*
X158828558Y-105790668D01*
X158780001Y-105937203D01*
X158780001Y-105937204D01*
X158780000Y-105937204D01*
X158769500Y-106039983D01*
X158769500Y-106090499D01*
X158749815Y-106157538D01*
X158697011Y-106203293D01*
X158645500Y-106214499D01*
X158491155Y-106214499D01*
X158336510Y-106245260D01*
X158336498Y-106245263D01*
X158190827Y-106305601D01*
X158190814Y-106305608D01*
X158059711Y-106393209D01*
X158059707Y-106393212D01*
X157948213Y-106504706D01*
X157948210Y-106504710D01*
X157860609Y-106635813D01*
X157860602Y-106635826D01*
X157800264Y-106781497D01*
X157800261Y-106781509D01*
X157769500Y-106936152D01*
X157769500Y-107093845D01*
X157800261Y-107248488D01*
X157802031Y-107254323D01*
X157800793Y-107254698D01*
X157807545Y-107317521D01*
X157776268Y-107379999D01*
X157716178Y-107415649D01*
X157685516Y-107419500D01*
X156612593Y-107419500D01*
X156545554Y-107399815D01*
X156499799Y-107347011D01*
X156489855Y-107277853D01*
X156507054Y-107230404D01*
X156581733Y-107109329D01*
X156584814Y-107104334D01*
X156639999Y-106937797D01*
X156650500Y-106835009D01*
X156650499Y-106059992D01*
X156650493Y-106059937D01*
X156639999Y-105957203D01*
X156639998Y-105957200D01*
X156625930Y-105914745D01*
X156584814Y-105790666D01*
X156492712Y-105641344D01*
X156368656Y-105517288D01*
X156365342Y-105515243D01*
X156363546Y-105513248D01*
X156362989Y-105512807D01*
X156363064Y-105512711D01*
X156318618Y-105463297D01*
X156307397Y-105394334D01*
X156335240Y-105330252D01*
X156365348Y-105304165D01*
X156368342Y-105302318D01*
X156492315Y-105178345D01*
X156584356Y-105029124D01*
X156584358Y-105029119D01*
X156639505Y-104862697D01*
X156639506Y-104862690D01*
X156649999Y-104759986D01*
X156650000Y-104759973D01*
X156650000Y-104622500D01*
X154200001Y-104622500D01*
X154200001Y-104759986D01*
X154210494Y-104862697D01*
X154265641Y-105029119D01*
X154265643Y-105029124D01*
X154357684Y-105178345D01*
X154481655Y-105302316D01*
X154481659Y-105302319D01*
X154484656Y-105304168D01*
X154486279Y-105305972D01*
X154487323Y-105306798D01*
X154487181Y-105306976D01*
X154531381Y-105356116D01*
X154542602Y-105425079D01*
X154514759Y-105489161D01*
X154484661Y-105515241D01*
X154481349Y-105517283D01*
X154481343Y-105517288D01*
X154357289Y-105641342D01*
X154265187Y-105790663D01*
X154265186Y-105790666D01*
X154210001Y-105957203D01*
X154210001Y-105957204D01*
X154210000Y-105957204D01*
X154201662Y-106038822D01*
X154175265Y-106103513D01*
X154118084Y-106143664D01*
X154102496Y-106147835D01*
X153944508Y-106179261D01*
X153944498Y-106179264D01*
X153798827Y-106239602D01*
X153798814Y-106239609D01*
X153667711Y-106327210D01*
X153667707Y-106327213D01*
X153556213Y-106438707D01*
X153556210Y-106438711D01*
X153468609Y-106569814D01*
X153468602Y-106569827D01*
X153408264Y-106715498D01*
X153408261Y-106715510D01*
X153377500Y-106870153D01*
X153377500Y-107027846D01*
X153408261Y-107182489D01*
X153408263Y-107182497D01*
X153435415Y-107248048D01*
X153442884Y-107317516D01*
X153411609Y-107379996D01*
X153351520Y-107415648D01*
X153320854Y-107419500D01*
X152335090Y-107419500D01*
X152268051Y-107399815D01*
X152222296Y-107347011D01*
X152212352Y-107277853D01*
X152229551Y-107230403D01*
X152304356Y-107109124D01*
X152304358Y-107109119D01*
X152359505Y-106942697D01*
X152359506Y-106942690D01*
X152369999Y-106839986D01*
X152370000Y-106839973D01*
X152370000Y-106690000D01*
X151294000Y-106690000D01*
X151226961Y-106670315D01*
X151181206Y-106617511D01*
X151170000Y-106566000D01*
X151170000Y-106314000D01*
X151189685Y-106246961D01*
X151242489Y-106201206D01*
X151294000Y-106190000D01*
X152369999Y-106190000D01*
X152369999Y-106040028D01*
X152369998Y-106040013D01*
X152359505Y-105937302D01*
X152304358Y-105770880D01*
X152304356Y-105770875D01*
X152212315Y-105621654D01*
X152118695Y-105528034D01*
X152085210Y-105466711D01*
X152090194Y-105397019D01*
X152118691Y-105352676D01*
X152212712Y-105258656D01*
X152295519Y-105124402D01*
X152347467Y-105077679D01*
X152401058Y-105065500D01*
X152576608Y-105065500D01*
X152576608Y-105065499D01*
X152651762Y-105050551D01*
X152697452Y-105041463D01*
X152730792Y-105027652D01*
X152811286Y-104994312D01*
X152862509Y-104960084D01*
X152913733Y-104925858D01*
X153000858Y-104838733D01*
X153000858Y-104838731D01*
X153011066Y-104828524D01*
X153011067Y-104828521D01*
X153992843Y-103846746D01*
X154054165Y-103813262D01*
X154123857Y-103818246D01*
X154179790Y-103860118D01*
X154204207Y-103925582D01*
X154203881Y-103947030D01*
X154200000Y-103985011D01*
X154200000Y-104122500D01*
X155175000Y-104122500D01*
X155675000Y-104122500D01*
X156649999Y-104122500D01*
X156649999Y-103985028D01*
X156649998Y-103985013D01*
X156639505Y-103882302D01*
X156584358Y-103715880D01*
X156584356Y-103715875D01*
X156492315Y-103566654D01*
X156368345Y-103442684D01*
X156219124Y-103350643D01*
X156219119Y-103350641D01*
X156052697Y-103295494D01*
X156052690Y-103295493D01*
X155949986Y-103285000D01*
X155675000Y-103285000D01*
X155675000Y-104122500D01*
X155175000Y-104122500D01*
X155175000Y-103285000D01*
X154900029Y-103285000D01*
X154900005Y-103285002D01*
X154862027Y-103288881D01*
X154793334Y-103276110D01*
X154742451Y-103228228D01*
X154725532Y-103160438D01*
X154747950Y-103094262D01*
X154761739Y-103077850D01*
X155572772Y-102266819D01*
X155634095Y-102233334D01*
X155660453Y-102230500D01*
X160275871Y-102230500D01*
X160288024Y-102231097D01*
G37*
%TD.AperFunction*%
%TA.AperFunction,Conductor*%
G36*
X185636587Y-102738185D02*
G01*
X185657229Y-102754819D01*
X188426729Y-105524319D01*
X188460214Y-105585642D01*
X188455230Y-105655334D01*
X188413358Y-105711267D01*
X188347894Y-105735684D01*
X188339048Y-105736000D01*
X177486953Y-105736000D01*
X177419914Y-105716315D01*
X177399272Y-105699681D01*
X175750822Y-104051232D01*
X175740859Y-104041269D01*
X175740858Y-104041267D01*
X175653733Y-103954142D01*
X175602509Y-103919915D01*
X175551286Y-103885688D01*
X175551283Y-103885686D01*
X175551280Y-103885685D01*
X175477603Y-103855168D01*
X175477601Y-103855167D01*
X175470792Y-103852347D01*
X175437452Y-103838537D01*
X175377029Y-103826518D01*
X175372306Y-103825578D01*
X175372304Y-103825578D01*
X175316610Y-103814500D01*
X175316607Y-103814500D01*
X175316606Y-103814500D01*
X175201058Y-103814500D01*
X175134019Y-103794815D01*
X175095519Y-103755597D01*
X175087022Y-103741821D01*
X175012712Y-103621344D01*
X174888656Y-103497288D01*
X174739334Y-103405186D01*
X174572797Y-103350001D01*
X174572795Y-103350000D01*
X174470010Y-103339500D01*
X173469998Y-103339500D01*
X173469980Y-103339501D01*
X173367203Y-103350000D01*
X173367200Y-103350001D01*
X173200668Y-103405185D01*
X173200663Y-103405187D01*
X173051342Y-103497289D01*
X172927289Y-103621342D01*
X172844481Y-103755597D01*
X172836893Y-103762421D01*
X172832655Y-103771703D01*
X172811355Y-103785391D01*
X172792533Y-103802321D01*
X172780897Y-103804965D01*
X172773877Y-103809477D01*
X172738942Y-103814500D01*
X172601058Y-103814500D01*
X172534019Y-103794815D01*
X172495519Y-103755597D01*
X172487022Y-103741821D01*
X172412712Y-103621344D01*
X172288656Y-103497288D01*
X172139334Y-103405186D01*
X171972797Y-103350001D01*
X171972795Y-103350000D01*
X171870010Y-103339500D01*
X170869998Y-103339500D01*
X170869980Y-103339501D01*
X170767203Y-103350000D01*
X170767200Y-103350001D01*
X170600668Y-103405185D01*
X170600663Y-103405187D01*
X170451342Y-103497289D01*
X170327289Y-103621342D01*
X170235187Y-103770663D01*
X170235185Y-103770668D01*
X170218128Y-103822144D01*
X170180001Y-103937203D01*
X170180001Y-103937204D01*
X170180000Y-103937204D01*
X170169500Y-104039983D01*
X170169500Y-104840001D01*
X170169501Y-104840019D01*
X170180000Y-104942796D01*
X170180001Y-104942799D01*
X170235185Y-105109331D01*
X170235187Y-105109336D01*
X170258169Y-105146595D01*
X170319173Y-105245500D01*
X170327289Y-105258657D01*
X170420951Y-105352319D01*
X170454436Y-105413642D01*
X170449452Y-105483334D01*
X170420951Y-105527681D01*
X170327289Y-105621342D01*
X170235187Y-105770663D01*
X170235185Y-105770668D01*
X170228558Y-105790668D01*
X170180001Y-105937203D01*
X170180001Y-105937204D01*
X170180000Y-105937204D01*
X170169500Y-106039983D01*
X170169500Y-106090499D01*
X170149815Y-106157538D01*
X170097011Y-106203293D01*
X170045500Y-106214499D01*
X169891155Y-106214499D01*
X169736510Y-106245260D01*
X169736498Y-106245263D01*
X169590827Y-106305601D01*
X169590814Y-106305608D01*
X169459711Y-106393209D01*
X169459707Y-106393212D01*
X169348213Y-106504706D01*
X169348210Y-106504710D01*
X169260609Y-106635813D01*
X169260602Y-106635826D01*
X169200264Y-106781497D01*
X169200261Y-106781509D01*
X169169500Y-106936152D01*
X169169500Y-107093845D01*
X169200261Y-107248488D01*
X169202031Y-107254323D01*
X169200793Y-107254698D01*
X169207545Y-107317521D01*
X169176268Y-107379999D01*
X169116178Y-107415649D01*
X169085516Y-107419500D01*
X168012593Y-107419500D01*
X167945554Y-107399815D01*
X167899799Y-107347011D01*
X167889855Y-107277853D01*
X167907054Y-107230404D01*
X167981733Y-107109329D01*
X167984814Y-107104334D01*
X168039999Y-106937797D01*
X168050500Y-106835009D01*
X168050499Y-106059992D01*
X168050493Y-106059937D01*
X168039999Y-105957203D01*
X168039998Y-105957200D01*
X168025930Y-105914745D01*
X167984814Y-105790666D01*
X167892712Y-105641344D01*
X167768656Y-105517288D01*
X167765342Y-105515243D01*
X167763546Y-105513248D01*
X167762989Y-105512807D01*
X167763064Y-105512711D01*
X167718618Y-105463297D01*
X167707397Y-105394334D01*
X167735240Y-105330252D01*
X167765348Y-105304165D01*
X167768342Y-105302318D01*
X167892315Y-105178345D01*
X167984356Y-105029124D01*
X167984358Y-105029119D01*
X168039505Y-104862697D01*
X168039506Y-104862690D01*
X168049999Y-104759986D01*
X168050000Y-104759973D01*
X168050000Y-104622500D01*
X165600001Y-104622500D01*
X165600001Y-104759986D01*
X165610494Y-104862697D01*
X165665641Y-105029119D01*
X165665643Y-105029124D01*
X165757684Y-105178345D01*
X165881655Y-105302316D01*
X165881659Y-105302319D01*
X165884656Y-105304168D01*
X165886279Y-105305972D01*
X165887323Y-105306798D01*
X165887181Y-105306976D01*
X165931381Y-105356116D01*
X165942602Y-105425079D01*
X165914759Y-105489161D01*
X165884661Y-105515241D01*
X165881349Y-105517283D01*
X165881343Y-105517288D01*
X165757289Y-105641342D01*
X165665187Y-105790663D01*
X165665186Y-105790666D01*
X165616629Y-105937203D01*
X165610001Y-105957204D01*
X165610000Y-105957205D01*
X165601040Y-106044912D01*
X165574643Y-106109604D01*
X165517462Y-106149755D01*
X165501874Y-106153926D01*
X165374508Y-106179261D01*
X165374498Y-106179264D01*
X165228827Y-106239602D01*
X165228814Y-106239609D01*
X165097711Y-106327210D01*
X165097707Y-106327213D01*
X164986213Y-106438707D01*
X164986210Y-106438711D01*
X164898609Y-106569814D01*
X164898602Y-106569827D01*
X164838264Y-106715498D01*
X164838261Y-106715510D01*
X164807500Y-106870153D01*
X164807500Y-107027846D01*
X164838261Y-107182489D01*
X164838263Y-107182497D01*
X164865415Y-107248048D01*
X164872884Y-107317516D01*
X164841609Y-107379996D01*
X164781520Y-107415648D01*
X164750854Y-107419500D01*
X163735090Y-107419500D01*
X163668051Y-107399815D01*
X163622296Y-107347011D01*
X163612352Y-107277853D01*
X163629551Y-107230403D01*
X163704356Y-107109124D01*
X163704358Y-107109119D01*
X163759505Y-106942697D01*
X163759506Y-106942690D01*
X163769999Y-106839986D01*
X163770000Y-106839973D01*
X163770000Y-106690000D01*
X162694000Y-106690000D01*
X162626961Y-106670315D01*
X162581206Y-106617511D01*
X162570000Y-106566000D01*
X162570000Y-106314000D01*
X162589685Y-106246961D01*
X162642489Y-106201206D01*
X162694000Y-106190000D01*
X163769999Y-106190000D01*
X163769999Y-106040028D01*
X163769998Y-106040013D01*
X163759505Y-105937302D01*
X163704358Y-105770880D01*
X163704356Y-105770875D01*
X163612315Y-105621654D01*
X163518695Y-105528034D01*
X163485210Y-105466711D01*
X163490194Y-105397019D01*
X163518691Y-105352676D01*
X163612712Y-105258656D01*
X163695519Y-105124402D01*
X163747467Y-105077679D01*
X163801058Y-105065500D01*
X164394608Y-105065500D01*
X164394608Y-105065499D01*
X164469762Y-105050551D01*
X164515452Y-105041463D01*
X164548792Y-105027652D01*
X164629286Y-104994312D01*
X164680509Y-104960084D01*
X164731733Y-104925858D01*
X164818858Y-104838733D01*
X164818860Y-104838730D01*
X164825925Y-104831665D01*
X164825927Y-104831661D01*
X165498770Y-104158818D01*
X165560093Y-104125334D01*
X165586451Y-104122500D01*
X166575000Y-104122500D01*
X167075000Y-104122500D01*
X168049999Y-104122500D01*
X168049999Y-103985028D01*
X168049998Y-103985013D01*
X168039505Y-103882302D01*
X167984358Y-103715880D01*
X167984356Y-103715875D01*
X167892315Y-103566654D01*
X167768345Y-103442684D01*
X167619124Y-103350643D01*
X167619119Y-103350641D01*
X167452697Y-103295494D01*
X167452690Y-103295493D01*
X167349986Y-103285000D01*
X167075000Y-103285000D01*
X167075000Y-104122500D01*
X166575000Y-104122500D01*
X166575000Y-103285000D01*
X166561475Y-103271475D01*
X166527990Y-103210152D01*
X166532974Y-103140460D01*
X166561471Y-103096118D01*
X166902771Y-102754819D01*
X166964094Y-102721334D01*
X166990452Y-102718500D01*
X185569548Y-102718500D01*
X185636587Y-102738185D01*
G37*
%TD.AperFunction*%
%TA.AperFunction,Conductor*%
G36*
X204088397Y-102214351D02*
G01*
X204119686Y-102264272D01*
X204123186Y-102274834D01*
X204215288Y-102424156D01*
X204339344Y-102548212D01*
X204488666Y-102640314D01*
X204560770Y-102664207D01*
X204618214Y-102703978D01*
X204645038Y-102768494D01*
X204645197Y-102779143D01*
X205278591Y-103412537D01*
X205215007Y-103429575D01*
X205100993Y-103495401D01*
X205007901Y-103588493D01*
X204942075Y-103702507D01*
X204925037Y-103766091D01*
X204292728Y-103133782D01*
X204292727Y-103133782D01*
X204253380Y-103187940D01*
X204253376Y-103187946D01*
X204248760Y-103197005D01*
X204200781Y-103247797D01*
X204132959Y-103264587D01*
X204066826Y-103242043D01*
X204027794Y-103196993D01*
X204023051Y-103187684D01*
X204023049Y-103187681D01*
X204023048Y-103187679D01*
X203898109Y-103015713D01*
X203747786Y-102865390D01*
X203575820Y-102740451D01*
X203575115Y-102740091D01*
X203567054Y-102735985D01*
X203516259Y-102688012D01*
X203499463Y-102620192D01*
X203521999Y-102554056D01*
X203567054Y-102515015D01*
X203575816Y-102510551D01*
X203677230Y-102436870D01*
X203747786Y-102385609D01*
X203747788Y-102385606D01*
X203747792Y-102385604D01*
X203898104Y-102235292D01*
X203901660Y-102230396D01*
X203956987Y-102187730D01*
X204026600Y-102181748D01*
X204088397Y-102214351D01*
G37*
%TD.AperFunction*%
%TA.AperFunction,Conductor*%
G36*
X194042058Y-102000685D02*
G01*
X194085503Y-102048703D01*
X194092950Y-102063319D01*
X194217890Y-102235286D01*
X194368213Y-102385609D01*
X194540182Y-102510550D01*
X194548946Y-102515016D01*
X194599742Y-102562991D01*
X194616536Y-102630812D01*
X194593998Y-102696947D01*
X194548946Y-102735984D01*
X194540182Y-102740449D01*
X194368213Y-102865390D01*
X194217890Y-103015713D01*
X194092950Y-103187680D01*
X194085503Y-103202297D01*
X194037527Y-103253092D01*
X193975019Y-103270000D01*
X189268572Y-103270000D01*
X189201533Y-103250315D01*
X189180891Y-103233681D01*
X188139891Y-102192681D01*
X188106406Y-102131358D01*
X188111390Y-102061666D01*
X188153262Y-102005733D01*
X188218726Y-101981316D01*
X188227572Y-101981000D01*
X193975019Y-101981000D01*
X194042058Y-102000685D01*
G37*
%TD.AperFunction*%
%TA.AperFunction,Conductor*%
G36*
X84975483Y-97040185D02*
G01*
X85021238Y-97092989D01*
X85031182Y-97162147D01*
X85002157Y-97225703D01*
X84987108Y-97240354D01*
X84935917Y-97282364D01*
X84935917Y-97282365D01*
X86181301Y-98527748D01*
X86079670Y-98601588D01*
X85901588Y-98779670D01*
X85827748Y-98881301D01*
X84582365Y-97635917D01*
X84582364Y-97635917D01*
X84490354Y-97748033D01*
X84432608Y-97787368D01*
X84362763Y-97789239D01*
X84302995Y-97753052D01*
X84272279Y-97690296D01*
X84270500Y-97669369D01*
X84270500Y-97144500D01*
X84290185Y-97077461D01*
X84342989Y-97031706D01*
X84394500Y-97020500D01*
X84908444Y-97020500D01*
X84975483Y-97040185D01*
G37*
%TD.AperFunction*%
%TD*%
M02*
