%TF.GenerationSoftware,KiCad,Pcbnew,9.0.0*%
%TF.CreationDate,2026-06-09T17:22:35-04:00*%
%TF.ProjectId,MagnetronUI,4d61676e-6574-4726-9f6e-55492e6b6963,rev?*%
%TF.SameCoordinates,Original*%
%TF.FileFunction,Legend,Bot*%
%TF.FilePolarity,Positive*%
%FSLAX46Y46*%
G04 Gerber Fmt 4.6, Leading zero omitted, Abs format (unit mm)*
G04 Created by KiCad (PCBNEW 9.0.0) date 2026-06-09 17:22:35*
%MOMM*%
%LPD*%
G01*
G04 APERTURE LIST*
%ADD10C,0.150000*%
%ADD11C,0.120000*%
G04 APERTURE END LIST*
D10*
X112734819Y-88742666D02*
X113449104Y-88742666D01*
X113449104Y-88742666D02*
X113591961Y-88695047D01*
X113591961Y-88695047D02*
X113687200Y-88599809D01*
X113687200Y-88599809D02*
X113734819Y-88456952D01*
X113734819Y-88456952D02*
X113734819Y-88361714D01*
X112830057Y-89171238D02*
X112782438Y-89218857D01*
X112782438Y-89218857D02*
X112734819Y-89314095D01*
X112734819Y-89314095D02*
X112734819Y-89552190D01*
X112734819Y-89552190D02*
X112782438Y-89647428D01*
X112782438Y-89647428D02*
X112830057Y-89695047D01*
X112830057Y-89695047D02*
X112925295Y-89742666D01*
X112925295Y-89742666D02*
X113020533Y-89742666D01*
X113020533Y-89742666D02*
X113163390Y-89695047D01*
X113163390Y-89695047D02*
X113734819Y-89123619D01*
X113734819Y-89123619D02*
X113734819Y-89742666D01*
X155426200Y-109664667D02*
X155473819Y-109807524D01*
X155473819Y-109807524D02*
X155473819Y-110045619D01*
X155473819Y-110045619D02*
X155426200Y-110140857D01*
X155426200Y-110140857D02*
X155378580Y-110188476D01*
X155378580Y-110188476D02*
X155283342Y-110236095D01*
X155283342Y-110236095D02*
X155188104Y-110236095D01*
X155188104Y-110236095D02*
X155092866Y-110188476D01*
X155092866Y-110188476D02*
X155045247Y-110140857D01*
X155045247Y-110140857D02*
X154997628Y-110045619D01*
X154997628Y-110045619D02*
X154950009Y-109855143D01*
X154950009Y-109855143D02*
X154902390Y-109759905D01*
X154902390Y-109759905D02*
X154854771Y-109712286D01*
X154854771Y-109712286D02*
X154759533Y-109664667D01*
X154759533Y-109664667D02*
X154664295Y-109664667D01*
X154664295Y-109664667D02*
X154569057Y-109712286D01*
X154569057Y-109712286D02*
X154521438Y-109759905D01*
X154521438Y-109759905D02*
X154473819Y-109855143D01*
X154473819Y-109855143D02*
X154473819Y-110093238D01*
X154473819Y-110093238D02*
X154521438Y-110236095D01*
X154473819Y-110569429D02*
X155473819Y-110807524D01*
X155473819Y-110807524D02*
X154759533Y-110998000D01*
X154759533Y-110998000D02*
X155473819Y-111188476D01*
X155473819Y-111188476D02*
X154473819Y-111426572D01*
X155473819Y-112331333D02*
X155473819Y-111759905D01*
X155473819Y-112045619D02*
X154473819Y-112045619D01*
X154473819Y-112045619D02*
X154616676Y-111950381D01*
X154616676Y-111950381D02*
X154711914Y-111855143D01*
X154711914Y-111855143D02*
X154759533Y-111759905D01*
D11*
%TO.C,J2*%
X114170000Y-87131000D02*
X114170000Y-96251000D01*
X114170000Y-96251000D02*
X155070000Y-96251000D01*
X118880000Y-80511000D02*
X119880000Y-80511000D01*
X119380000Y-81511000D02*
X118880000Y-80511000D01*
X119880000Y-80511000D02*
X119380000Y-81511000D01*
X132570000Y-87131000D02*
X132570000Y-96251000D01*
X136670000Y-87131000D02*
X136670000Y-96251000D01*
X155070000Y-87131000D02*
X114170000Y-87131000D01*
X155070000Y-96251000D02*
X155070000Y-87131000D01*
%TO.C,SW1*%
X156019000Y-105878000D02*
X156019000Y-116118000D01*
X156019000Y-105878000D02*
X166059000Y-105878000D01*
X156019000Y-116118000D02*
X166059000Y-116118000D01*
X159039000Y-105878000D02*
X159039000Y-116118000D01*
X159928000Y-114682000D02*
X159972000Y-114638000D01*
X160155000Y-114909000D02*
X160199000Y-114865000D01*
X162479000Y-112131000D02*
X162522000Y-112087000D01*
X162706000Y-112358000D02*
X162749000Y-112314000D01*
X163939000Y-105878000D02*
X163939000Y-116118000D01*
X165439000Y-105878000D02*
X165439000Y-116118000D01*
X166059000Y-105878000D02*
X166059000Y-108198000D01*
X166059000Y-108798000D02*
X166059000Y-116118000D01*
X159558794Y-109037321D02*
G75*
G02*
X159559000Y-107958000I1780206J539321D01*
G01*
X160799679Y-106717794D02*
G75*
G02*
X161879000Y-106718000I539321J-1780196D01*
G01*
X161878321Y-110278206D02*
G75*
G02*
X160799000Y-110278000I-539321J1780219D01*
G01*
X163119206Y-107958679D02*
G75*
G02*
X163119000Y-109038000I-1780219J-539321D01*
G01*
X163199000Y-113498000D02*
G75*
G02*
X159479000Y-113498000I-1860000J0D01*
G01*
X159479000Y-113498000D02*
G75*
G02*
X163199000Y-113498000I1860000J0D01*
G01*
X166669000Y-108938000D02*
X166059000Y-108498000D01*
X166669000Y-108058000D01*
X166669000Y-108938000D01*
G36*
X166669000Y-108938000D02*
G01*
X166059000Y-108498000D01*
X166669000Y-108058000D01*
X166669000Y-108938000D01*
G37*
%TD*%
M02*
