%TF.GenerationSoftware,KiCad,Pcbnew,9.0.0*%
%TF.CreationDate,2026-06-23T13:12:26-04:00*%
%TF.ProjectId,MagnetroneUI,4d61676e-6574-4726-9f6e-6555492e6b69,rev?*%
%TF.SameCoordinates,Original*%
%TF.FileFunction,Soldermask,Bot*%
%TF.FilePolarity,Negative*%
%FSLAX46Y46*%
G04 Gerber Fmt 4.6, Leading zero omitted, Abs format (unit mm)*
G04 Created by KiCad (PCBNEW 9.0.0) date 2026-06-23 13:12:26*
%MOMM*%
%LPD*%
G01*
G04 APERTURE LIST*
G04 Aperture macros list*
%AMRoundRect*
0 Rectangle with rounded corners*
0 $1 Rounding radius*
0 $2 $3 $4 $5 $6 $7 $8 $9 X,Y pos of 4 corners*
0 Add a 4 corners polygon primitive as box body*
4,1,4,$2,$3,$4,$5,$6,$7,$8,$9,$2,$3,0*
0 Add four circle primitives for the rounded corners*
1,1,$1+$1,$2,$3*
1,1,$1+$1,$4,$5*
1,1,$1+$1,$6,$7*
1,1,$1+$1,$8,$9*
0 Add four rect primitives between the rounded corners*
20,1,$1+$1,$2,$3,$4,$5,0*
20,1,$1+$1,$4,$5,$6,$7,0*
20,1,$1+$1,$6,$7,$8,$9,0*
20,1,$1+$1,$8,$9,$2,$3,0*%
G04 Aperture macros list end*
%ADD10R,2.000000X2.000000*%
%ADD11C,2.000000*%
%ADD12R,2.000000X3.200000*%
%ADD13C,3.600000*%
%ADD14C,5.700000*%
%ADD15R,1.700000X1.700000*%
%ADD16O,1.700000X1.700000*%
%ADD17RoundRect,0.250000X-0.600000X0.600000X-0.600000X-0.600000X0.600000X-0.600000X0.600000X0.600000X0*%
%ADD18C,1.700000*%
%ADD19RoundRect,0.250000X-1.050000X1.050000X-1.050000X-1.050000X1.050000X-1.050000X1.050000X1.050000X0*%
%ADD20C,2.600000*%
G04 APERTURE END LIST*
D10*
%TO.C,SW4*%
X98755500Y-106338500D03*
D11*
X93755500Y-106338500D03*
X96255500Y-106338500D03*
D12*
X101855500Y-113838500D03*
X90655500Y-113838500D03*
D11*
X93755500Y-120838500D03*
X98755500Y-120838500D03*
%TD*%
D13*
%TO.C,H1*%
X51562000Y-82528500D03*
D14*
X51562000Y-82528500D03*
%TD*%
D10*
%TO.C,SW2*%
X64719500Y-106338500D03*
D11*
X59719500Y-106338500D03*
X62219500Y-106338500D03*
D12*
X67819500Y-113838500D03*
X56619500Y-113838500D03*
D11*
X59719500Y-120838500D03*
X64719500Y-120838500D03*
%TD*%
D13*
%TO.C,H2*%
X162052000Y-82296000D03*
D14*
X162052000Y-82296000D03*
%TD*%
D13*
%TO.C,H3*%
X161798000Y-121412000D03*
D14*
X161798000Y-121412000D03*
%TD*%
D10*
%TO.C,SW3*%
X81737500Y-106338500D03*
D11*
X76737500Y-106338500D03*
X79237500Y-106338500D03*
D12*
X84837500Y-113838500D03*
X73637500Y-113838500D03*
D11*
X76737500Y-120838500D03*
X81737500Y-120838500D03*
%TD*%
D10*
%TO.C,SW5*%
X115773500Y-106338500D03*
D11*
X110773500Y-106338500D03*
X113273500Y-106338500D03*
D12*
X118873500Y-113838500D03*
X107673500Y-113838500D03*
D11*
X110773500Y-120838500D03*
X115773500Y-120838500D03*
%TD*%
D15*
%TO.C,J1*%
X164904000Y-99822000D03*
D16*
X164904000Y-97282000D03*
X164904000Y-94742000D03*
X164904000Y-92202000D03*
%TD*%
D13*
%TO.C,H4*%
X51562000Y-123528500D03*
D14*
X51562000Y-123528500D03*
%TD*%
D17*
%TO.C,J2*%
X119380000Y-82861000D03*
D18*
X119380000Y-85401000D03*
X121920000Y-82861000D03*
X121920000Y-85401000D03*
X124460000Y-82861000D03*
X124460000Y-85401000D03*
X127000000Y-82861000D03*
X127000000Y-85401000D03*
X129540000Y-82861000D03*
X129540000Y-85401000D03*
X132080000Y-82861000D03*
X132080000Y-85401000D03*
X134620000Y-82861000D03*
X134620000Y-85401000D03*
X137160000Y-82861000D03*
X137160000Y-85401000D03*
X139700000Y-82861000D03*
X139700000Y-85401000D03*
X142240000Y-82861000D03*
X142240000Y-85401000D03*
X144780000Y-82861000D03*
X144780000Y-85401000D03*
X147320000Y-82861000D03*
X147320000Y-85401000D03*
X149860000Y-82861000D03*
X149860000Y-85401000D03*
%TD*%
D19*
%TO.C,SW1*%
X161339000Y-108498000D03*
D20*
X161339000Y-113498000D03*
%TD*%
M02*
