M48
; DRILL file {KiCad 9.0.0} date 2026-06-09T17:22:39-0400
; FORMAT={-:-/ absolute / inch / decimal}
; #@! TF.CreationDate,2026-06-09T17:22:39-04:00
; #@! TF.GenerationSoftware,Kicad,Pcbnew,9.0.0
; #@! TF.FileFunction,Plated,1,2,PTH
FMAT,2
INCH
; #@! TA.AperFunction,Plated,PTH,ViaDrill
T1C0.0118
; #@! TA.AperFunction,Plated,PTH,ComponentDrill
T2C0.0394
; #@! TA.AperFunction,Plated,PTH,ComponentDrill
T3C0.0512
; #@! TA.AperFunction,Plated,PTH,ComponentDrill
T4C0.0591
; #@! TA.AperFunction,Plated,PTH,ComponentDrill
T5C0.1260
%
G90
G05
T1
X2.6Y-3.9146
X3.11Y-3.4546
X3.26Y-3.6046
X3.27Y-3.9146
X3.4Y-3.7446
X3.94Y-3.9146
X4.12Y-3.7346
X4.2Y-3.5946
X4.61Y-3.9146
X4.72Y-3.5046
X4.8Y-3.7346
X5.08Y-3.9146
X5.145Y-3.4796
X5.15Y-3.7346
X5.25Y-3.9346
T2
X2.3512Y-4.1866
X2.3512Y-4.7574
X2.4496Y-4.1866
X2.548Y-4.1866
X2.548Y-4.7574
X3.0212Y-4.1866
X3.0212Y-4.7574
X3.1196Y-4.1866
X3.218Y-4.1866
X3.218Y-4.7574
X3.6912Y-4.1866
X3.6912Y-4.7574
X3.7896Y-4.1866
X3.888Y-4.1866
X3.888Y-4.7574
X4.3612Y-4.1866
X4.3612Y-4.7574
X4.4596Y-4.1866
X4.558Y-4.1866
X4.558Y-4.7574
X4.7Y-3.2622
X4.7Y-3.3622
X4.8Y-3.2622
X4.8Y-3.3622
X4.9Y-3.2622
X4.9Y-3.3622
X5.0Y-3.2622
X5.0Y-3.3622
X5.0312Y-4.1866
X5.0312Y-4.7574
X5.1Y-3.2622
X5.1Y-3.3622
X5.1296Y-4.1866
X5.2Y-3.2622
X5.2Y-3.3622
X5.228Y-4.1866
X5.228Y-4.7574
X5.3Y-3.2622
X5.3Y-3.3622
X5.4Y-3.2622
X5.4Y-3.3622
X5.5Y-3.2622
X5.5Y-3.3622
X5.6Y-3.2622
X5.6Y-3.3622
X5.7Y-3.2622
X5.7Y-3.3622
X5.8Y-3.2622
X5.8Y-3.3622
X5.9Y-3.2622
X5.9Y-3.3622
X6.4923Y-3.63
X6.4923Y-3.73
X6.4923Y-3.83
X6.4923Y-3.93
T3
X6.3519Y-4.2716
X6.3519Y-4.4684
T5
X2.03Y-3.2492
X2.03Y-4.8633
X6.37Y-4.78
X6.38Y-3.24
T4
G00X2.2291Y-4.4562
M15
G01X2.2291Y-4.5074
M16
G05
G00X2.6701Y-4.4562
M15
G01X2.6701Y-4.5074
M16
G05
G00X2.8991Y-4.4562
M15
G01X2.8991Y-4.5074
M16
G05
G00X3.3401Y-4.4562
M15
G01X3.3401Y-4.5074
M16
G05
G00X3.5691Y-4.4562
M15
G01X3.5691Y-4.5074
M16
G05
G00X4.0101Y-4.4562
M15
G01X4.0101Y-4.5074
M16
G05
G00X4.2391Y-4.4562
M15
G01X4.2391Y-4.5074
M16
G05
G00X4.6801Y-4.4562
M15
G01X4.6801Y-4.5074
M16
G05
G00X4.9091Y-4.4562
M15
G01X4.9091Y-4.5074
M16
G05
G00X5.3501Y-4.4562
M15
G01X5.3501Y-4.5074
M16
G05
M30
