M48
; DRILL file {KiCad 9.0.0} date 2026-06-09T21:50:56-0400
; FORMAT={-:-/ absolute / inch / decimal}
; #@! TF.CreationDate,2026-06-09T21:50:56-04:00
; #@! TF.GenerationSoftware,Kicad,Pcbnew,9.0.0
; #@! TF.FileFunction,Plated,1,4,PTH
FMAT,2
INCH
; #@! TA.AperFunction,Plated,PTH,ViaDrill
T1C0.0118
; #@! TA.AperFunction,Plated,PTH,ComponentDrill
T2C0.0315
; #@! TA.AperFunction,Plated,PTH,ComponentDrill
T3C0.0335
; #@! TA.AperFunction,Plated,PTH,ComponentDrill
T4C0.0394
; #@! TA.AperFunction,Plated,PTH,ComponentDrill
T5C0.0433
; #@! TA.AperFunction,Plated,PTH,ComponentDrill
T6C0.0630
; #@! TA.AperFunction,Plated,PTH,ComponentDrill
T7C0.1260
%
G90
G05
T1
X2.17Y-2.87
X2.17Y-3.03
X2.3066Y-3.72
X2.4166Y-3.72
X2.5166Y-3.49
X2.62Y-4.37
X2.6666Y-3.56
X2.72Y-4.01
X2.72Y-4.27
X2.77Y-4.73
X2.79Y-4.57
X2.83Y-4.4
X2.9Y-5.48
X3.04Y-4.08
X3.04Y-4.57
X3.11Y-4.87
X3.11Y-5.01
X3.17Y-2.64
X3.17Y-2.87
X3.17Y-4.3
X3.17Y-4.46
X3.24Y-5.48
X3.35Y-4.3
X3.35Y-4.44
X3.35Y-4.88
X3.35Y-5.01
X3.39Y-4.66
X3.3998Y-3.6691
X3.49Y-4.88
X3.52Y-4.02
X3.52Y-4.3
X3.53Y-4.98
X3.57Y-5.5
X3.6Y-4.62
X3.63Y-4.02
X3.6577Y-5.3399
X3.68Y-4.93
X3.6886Y-3.2675
X3.7Y-3.81
X3.73Y-4.02
X3.89Y-4.59
X3.9Y-4.46
X3.91Y-5.0
X3.93Y-5.5
X3.94Y-2.63
X3.94Y-2.84
X3.98Y-4.27
X4.03Y-3.59
X4.06Y-4.08
X4.1086Y-4.9375
X4.11Y-4.86
X4.16Y-4.08
X4.17Y-4.99
X4.19Y-4.87
X4.23Y-5.51
X4.26Y-4.09
X4.33Y-4.94
X4.35Y-4.29
X4.52Y-4.95
X4.53Y-5.18
X4.57Y-4.3
X4.57Y-4.69
X4.58Y-4.51
X5.0186Y-2.8212
X5.02Y-3.02
T2
X2.32Y-3.3698
X2.32Y-3.8698
X2.42Y-3.3698
X2.42Y-3.8698
X2.4471Y-4.4275
X2.4471Y-4.5275
X2.52Y-3.3698
X2.52Y-3.8698
X2.62Y-3.3698
X2.62Y-3.8698
X2.72Y-3.3698
X2.72Y-3.8698
X2.82Y-3.3698
X2.82Y-3.8698
X2.92Y-3.3698
X2.92Y-3.8698
X2.929Y-4.2735
X2.929Y-4.3522
X2.929Y-4.4309
X3.0077Y-4.2735
X3.0077Y-4.3522
X3.0077Y-4.4309
X3.02Y-3.3698
X3.02Y-3.8698
X3.23Y-3.9016
X3.23Y-4.0
X3.25Y-3.44
X3.25Y-3.54
X3.25Y-3.64
X3.25Y-3.74
X3.55Y-3.44
X3.55Y-3.54
X3.55Y-3.64
X3.55Y-3.74
X3.8061Y-3.8575
X3.8071Y-3.7575
X3.8111Y-3.3275
X3.8111Y-3.4275
X4.5511Y-3.3325
X4.5511Y-3.4325
X4.5511Y-3.8575
X4.5521Y-3.7575
T3
X2.6188Y-3.0788
X2.796Y-3.0788
X2.9731Y-3.0788
X3.374Y-3.0857
X3.5512Y-3.0857
X3.7283Y-3.0857
T4
X2.1164Y-3.5
X2.1164Y-3.6
X2.1164Y-3.7
X2.1164Y-3.8
X2.9669Y-5.1031
X2.9669Y-5.2031
X3.0669Y-5.1031
X3.0669Y-5.2031
X3.1669Y-5.1031
X3.1669Y-5.2031
X3.2669Y-5.1031
X3.2669Y-5.2031
X3.3669Y-5.1031
X3.3669Y-5.2031
X3.4669Y-5.1031
X3.4669Y-5.2031
X3.5669Y-5.1031
X3.5669Y-5.2031
X3.6669Y-5.1031
X3.6669Y-5.2031
X3.7669Y-5.1031
X3.7669Y-5.2031
X3.8669Y-5.1031
X3.8669Y-5.2031
X3.9669Y-5.1031
X3.9669Y-5.2031
X4.0669Y-5.1031
X4.0669Y-5.2031
X4.08Y-3.04
X4.08Y-3.14
X4.1669Y-5.1031
X4.1669Y-5.2031
X4.8482Y-3.39
X4.8482Y-3.49
X4.8482Y-3.59
X4.8482Y-3.69
X4.8482Y-3.79
X4.9482Y-3.39
X4.9482Y-3.49
X4.9482Y-3.59
X4.9482Y-3.69
X4.9482Y-3.79
T5
X2.4184Y-4.1775
X2.4184Y-4.7775
X2.5184Y-4.1775
X2.5184Y-4.2775
X2.5184Y-4.7775
X2.6184Y-4.1775
X2.6184Y-4.7775
X2.6664Y-4.6574
X2.7184Y-4.1775
X2.7184Y-4.7775
X2.7664Y-4.6574
X2.8184Y-4.1775
X2.8184Y-4.7775
X2.8664Y-4.6574
X2.9184Y-4.1775
X2.9184Y-4.7775
X2.9664Y-4.6574
X3.0184Y-4.1775
X3.0184Y-4.7775
X3.0664Y-4.6574
X3.1184Y-4.1775
X3.1184Y-4.7775
X3.2184Y-4.1775
X3.2184Y-4.7775
X3.3184Y-4.1775
X3.3184Y-4.7775
X3.4184Y-4.1775
X3.4184Y-4.7775
X3.5184Y-4.1775
X3.5184Y-4.7775
X3.6184Y-4.1775
X3.6184Y-4.7775
X3.7184Y-4.1775
X3.7184Y-4.7775
X3.8184Y-4.1775
X3.8184Y-4.7775
X3.9184Y-4.1775
X3.9184Y-4.7775
X4.0184Y-4.1775
X4.0184Y-4.7775
X4.1184Y-4.1775
X4.1184Y-4.7775
X4.2184Y-4.1775
X4.2184Y-4.2775
X4.2184Y-4.3775
X4.2184Y-4.4775
X4.2184Y-4.5775
X4.2184Y-4.6775
X4.2184Y-4.7775
X4.3184Y-4.1775
X4.3184Y-4.7775
X4.4184Y-4.1775
X4.4184Y-4.7775
X4.5184Y-4.1775
X4.5184Y-4.7775
X4.6184Y-4.1775
X4.6184Y-4.7775
X4.7184Y-4.1775
X4.7184Y-4.7775
T6
X4.355Y-2.9481
X4.54Y-2.83
X4.54Y-3.0662
T7
X2.18Y-2.68
X2.18Y-5.47
X4.97Y-2.68
X4.97Y-5.47
M30
