%TF.GenerationSoftware,KiCad,Pcbnew,9.0.0*%
%TF.CreationDate,2026-06-09T17:22:34-04:00*%
%TF.ProjectId,MagnetronUI,4d61676e-6574-4726-9f6e-55492e6b6963,rev?*%
%TF.SameCoordinates,Original*%
%TF.FileFunction,Copper,L1,Top*%
%TF.FilePolarity,Positive*%
%FSLAX46Y46*%
G04 Gerber Fmt 4.6, Leading zero omitted, Abs format (unit mm)*
G04 Created by KiCad (PCBNEW 9.0.0) date 2026-06-09 17:22:34*
%MOMM*%
%LPD*%
G01*
G04 APERTURE LIST*
G04 Aperture macros list*
%AMRoundRect*
0 Rectangle with rounded corners*
0 $1 Rounding radius*
0 $2 $3 $4 $5 $6 $7 $8 $9 X,Y pos of 4 corners*
0 Add a 4 corners polygon primitive as box body*
4,1,4,$2,$3,$4,$5,$6,$7,$8,$9,$2,$3,0*
0 Add four circle primitives for the rounded corners*
1,1,$1+$1,$2,$3*
1,1,$1+$1,$4,$5*
1,1,$1+$1,$6,$7*
1,1,$1+$1,$8,$9*
0 Add four rect primitives between the rounded corners*
20,1,$1+$1,$2,$3,$4,$5,0*
20,1,$1+$1,$4,$5,$6,$7,0*
20,1,$1+$1,$6,$7,$8,$9,0*
20,1,$1+$1,$8,$9,$2,$3,0*%
G04 Aperture macros list end*
%TA.AperFunction,ComponentPad*%
%ADD10O,1.700000X1.700000*%
%TD*%
%TA.AperFunction,ComponentPad*%
%ADD11R,1.700000X1.700000*%
%TD*%
%TA.AperFunction,ComponentPad*%
%ADD12C,2.000000*%
%TD*%
%TA.AperFunction,ComponentPad*%
%ADD13R,2.000000X3.200000*%
%TD*%
%TA.AperFunction,ComponentPad*%
%ADD14R,2.000000X2.000000*%
%TD*%
%TA.AperFunction,ComponentPad*%
%ADD15C,3.600000*%
%TD*%
%TA.AperFunction,ConnectorPad*%
%ADD16C,5.700000*%
%TD*%
%TA.AperFunction,SMDPad,CuDef*%
%ADD17RoundRect,0.250000X-0.350000X-0.450000X0.350000X-0.450000X0.350000X0.450000X-0.350000X0.450000X0*%
%TD*%
%TA.AperFunction,ComponentPad*%
%ADD18RoundRect,0.250000X-0.600000X0.600000X-0.600000X-0.600000X0.600000X-0.600000X0.600000X0.600000X0*%
%TD*%
%TA.AperFunction,ComponentPad*%
%ADD19C,1.700000*%
%TD*%
%TA.AperFunction,ComponentPad*%
%ADD20RoundRect,0.250000X-1.050000X1.050000X-1.050000X-1.050000X1.050000X-1.050000X1.050000X1.050000X0*%
%TD*%
%TA.AperFunction,ComponentPad*%
%ADD21C,2.600000*%
%TD*%
%TA.AperFunction,ViaPad*%
%ADD22C,0.600000*%
%TD*%
%TA.AperFunction,Conductor*%
%ADD23C,0.250000*%
%TD*%
%TA.AperFunction,Conductor*%
%ADD24C,0.400000*%
%TD*%
G04 APERTURE END LIST*
D10*
%TO.P,J1,4,Pin_4*%
%TO.N,/scl*%
X164904000Y-92202000D03*
%TO.P,J1,3,Pin_3*%
%TO.N,/sda*%
X164904000Y-94742000D03*
%TO.P,J1,2,Pin_2*%
%TO.N,+5V*%
X164904000Y-97282000D03*
D11*
%TO.P,J1,1,Pin_1*%
%TO.N,GND*%
X164904000Y-99822000D03*
%TD*%
D12*
%TO.P,SW2,S2,S2*%
%TO.N,/menu_encoder_btn*%
X64719500Y-120838500D03*
%TO.P,SW2,S1,S1*%
%TO.N,GND*%
X59719500Y-120838500D03*
D13*
%TO.P,SW2,MP,MP*%
X56619500Y-113838500D03*
X67819500Y-113838500D03*
D12*
%TO.P,SW2,C,C*%
X62219500Y-106338500D03*
%TO.P,SW2,B,B*%
%TO.N,/menu_encoder_b*%
X59719500Y-106338500D03*
D14*
%TO.P,SW2,A,A*%
%TO.N,/menu_encoder_a*%
X64719500Y-106338500D03*
%TD*%
%TO.P,SW4,A,A*%
%TO.N,/volume_encoder_a*%
X98755500Y-106338500D03*
D12*
%TO.P,SW4,B,B*%
%TO.N,/volume_encoder_b*%
X93755500Y-106338500D03*
%TO.P,SW4,C,C*%
%TO.N,GND*%
X96255500Y-106338500D03*
D13*
%TO.P,SW4,MP,MP*%
X101855500Y-113838500D03*
X90655500Y-113838500D03*
D12*
%TO.P,SW4,S1,S1*%
X93755500Y-120838500D03*
%TO.P,SW4,S2,S2*%
%TO.N,/volume_encoder_btn*%
X98755500Y-120838500D03*
%TD*%
D15*
%TO.P,H1,1,1*%
%TO.N,GND*%
X51562000Y-82528500D03*
D16*
X51562000Y-82528500D03*
%TD*%
D17*
%TO.P,R3,1*%
%TO.N,+3.3V*%
X80264000Y-103494000D03*
%TO.P,R3,2*%
%TO.N,/speed_encoder_a*%
X82264000Y-103494000D03*
%TD*%
D14*
%TO.P,SW6,A,A*%
%TO.N,/encoder_aux2_a*%
X132791500Y-106338500D03*
D12*
%TO.P,SW6,B,B*%
%TO.N,/encoder_aux2_b*%
X127791500Y-106338500D03*
%TO.P,SW6,C,C*%
%TO.N,GND*%
X130291500Y-106338500D03*
D13*
%TO.P,SW6,MP,MP*%
X135891500Y-113838500D03*
X124691500Y-113838500D03*
D12*
%TO.P,SW6,S1,S1*%
X127791500Y-120838500D03*
%TO.P,SW6,S2,S2*%
%TO.N,/encoder_aux2_btn*%
X132791500Y-120838500D03*
%TD*%
D17*
%TO.P,R2,1*%
%TO.N,/menu_encoder_b*%
X59214000Y-103494000D03*
%TO.P,R2,2*%
%TO.N,+3.3V*%
X61214000Y-103494000D03*
%TD*%
%TO.P,R8,1*%
%TO.N,/encoder_aux1_b*%
X110268000Y-103494000D03*
%TO.P,R8,2*%
%TO.N,+3.3V*%
X112268000Y-103494000D03*
%TD*%
D15*
%TO.P,H2,1,1*%
%TO.N,GND*%
X162052000Y-82296000D03*
D16*
X162052000Y-82296000D03*
%TD*%
D15*
%TO.P,H3,1,1*%
%TO.N,GND*%
X161798000Y-121412000D03*
D16*
X161798000Y-121412000D03*
%TD*%
D17*
%TO.P,R4,1*%
%TO.N,/speed_encoder_b*%
X76232000Y-103494000D03*
%TO.P,R4,2*%
%TO.N,+3.3V*%
X78232000Y-103494000D03*
%TD*%
%TO.P,R7,1*%
%TO.N,+3.3V*%
X114300000Y-103494000D03*
%TO.P,R7,2*%
%TO.N,/encoder_aux1_a*%
X116300000Y-103494000D03*
%TD*%
D14*
%TO.P,SW3,A,A*%
%TO.N,/speed_encoder_a*%
X81737500Y-106338500D03*
D12*
%TO.P,SW3,B,B*%
%TO.N,/speed_encoder_b*%
X76737500Y-106338500D03*
%TO.P,SW3,C,C*%
%TO.N,GND*%
X79237500Y-106338500D03*
D13*
%TO.P,SW3,MP,MP*%
X84837500Y-113838500D03*
X73637500Y-113838500D03*
D12*
%TO.P,SW3,S1,S1*%
X76737500Y-120838500D03*
%TO.P,SW3,S2,S2*%
%TO.N,/speed_encoder_btn*%
X81737500Y-120838500D03*
%TD*%
D14*
%TO.P,SW5,A,A*%
%TO.N,/encoder_aux1_a*%
X115773500Y-106338500D03*
D12*
%TO.P,SW5,B,B*%
%TO.N,/encoder_aux1_b*%
X110773500Y-106338500D03*
%TO.P,SW5,C,C*%
%TO.N,GND*%
X113273500Y-106338500D03*
D13*
%TO.P,SW5,MP,MP*%
X118873500Y-113838500D03*
X107673500Y-113838500D03*
D12*
%TO.P,SW5,S1,S1*%
X110773500Y-120838500D03*
%TO.P,SW5,S2,S2*%
%TO.N,/encoder_aux1_btn*%
X115773500Y-120838500D03*
%TD*%
D17*
%TO.P,R9,1*%
%TO.N,+3.3V*%
X131318000Y-103494000D03*
%TO.P,R9,2*%
%TO.N,/encoder_aux2_a*%
X133318000Y-103494000D03*
%TD*%
%TO.P,R5,1*%
%TO.N,+3.3V*%
X97282000Y-103494000D03*
%TO.P,R5,2*%
%TO.N,/volume_encoder_a*%
X99282000Y-103494000D03*
%TD*%
%TO.P,R1,1*%
%TO.N,+3.3V*%
X63246000Y-103494000D03*
%TO.P,R1,2*%
%TO.N,/menu_encoder_a*%
X65246000Y-103494000D03*
%TD*%
%TO.P,R6,1*%
%TO.N,/volume_encoder_b*%
X93250000Y-103494000D03*
%TO.P,R6,2*%
%TO.N,+3.3V*%
X95250000Y-103494000D03*
%TD*%
D15*
%TO.P,H4,1,1*%
%TO.N,GND*%
X51562000Y-123528500D03*
D16*
X51562000Y-123528500D03*
%TD*%
D17*
%TO.P,R10,1*%
%TO.N,/encoder_aux2_b*%
X127286000Y-103494000D03*
%TO.P,R10,2*%
%TO.N,+3.3V*%
X129286000Y-103494000D03*
%TD*%
D18*
%TO.P,J2,1,Pin_1*%
%TO.N,+3.3V*%
X119380000Y-82861000D03*
D19*
%TO.P,J2,2,Pin_2*%
%TO.N,/menu_encoder_a*%
X119380000Y-85401000D03*
%TO.P,J2,3,Pin_3*%
%TO.N,/menu_encoder_b*%
X121920000Y-82861000D03*
%TO.P,J2,4,Pin_4*%
%TO.N,/menu_encoder_btn*%
X121920000Y-85401000D03*
%TO.P,J2,5,Pin_5*%
%TO.N,/speed_encoder_a*%
X124460000Y-82861000D03*
%TO.P,J2,6,Pin_6*%
%TO.N,/speed_encoder_b*%
X124460000Y-85401000D03*
%TO.P,J2,7,Pin_7*%
%TO.N,/speed_encoder_btn*%
X127000000Y-82861000D03*
%TO.P,J2,8,Pin_8*%
%TO.N,/volume_encoder_a*%
X127000000Y-85401000D03*
%TO.P,J2,9,Pin_9*%
%TO.N,/volume_encoder_b*%
X129540000Y-82861000D03*
%TO.P,J2,10,Pin_10*%
%TO.N,/volume_encoder_btn*%
X129540000Y-85401000D03*
%TO.P,J2,11,Pin_11*%
%TO.N,/encoder_aux1_a*%
X132080000Y-82861000D03*
%TO.P,J2,12,Pin_12*%
%TO.N,/encoder_aux1_b*%
X132080000Y-85401000D03*
%TO.P,J2,13,Pin_13*%
%TO.N,/encoder_aux1_btn*%
X134620000Y-82861000D03*
%TO.P,J2,14,Pin_14*%
%TO.N,/encoder_aux2_a*%
X134620000Y-85401000D03*
%TO.P,J2,15,Pin_15*%
%TO.N,/encoder_aux2_b*%
X137160000Y-82861000D03*
%TO.P,J2,16,Pin_16*%
%TO.N,/encoder_aux2_btn*%
X137160000Y-85401000D03*
%TO.P,J2,17,Pin_17*%
%TO.N,unconnected-(J2-Pin_17-Pad17)*%
X139700000Y-82861000D03*
%TO.P,J2,18,Pin_18*%
%TO.N,/aux1_btn*%
X139700000Y-85401000D03*
%TO.P,J2,19,Pin_19*%
%TO.N,unconnected-(J2-Pin_19-Pad19)*%
X142240000Y-82861000D03*
%TO.P,J2,20,Pin_20*%
%TO.N,unconnected-(J2-Pin_20-Pad20)*%
X142240000Y-85401000D03*
%TO.P,J2,21,Pin_21*%
%TO.N,unconnected-(J2-Pin_21-Pad21)*%
X144780000Y-82861000D03*
%TO.P,J2,22,Pin_22*%
%TO.N,+5V*%
X144780000Y-85401000D03*
%TO.P,J2,23,Pin_23*%
%TO.N,unconnected-(J2-Pin_23-Pad23)*%
X147320000Y-82861000D03*
%TO.P,J2,24,Pin_24*%
%TO.N,/sda*%
X147320000Y-85401000D03*
%TO.P,J2,25,Pin_25*%
%TO.N,/scl*%
X149860000Y-82861000D03*
%TO.P,J2,26,Pin_26*%
%TO.N,GND*%
X149860000Y-85401000D03*
%TD*%
D20*
%TO.P,SW1,1,1*%
%TO.N,/aux1_btn*%
X161339000Y-108498000D03*
D21*
%TO.P,SW1,2,2*%
%TO.N,GND*%
X161339000Y-113498000D03*
%TD*%
D22*
%TO.N,GND*%
X78994000Y-87746000D03*
X104648000Y-94858000D03*
X121920000Y-94858000D03*
X82804000Y-91556000D03*
X86360000Y-95112000D03*
X130810000Y-94858000D03*
%TO.N,+3.3V*%
X66040000Y-99430000D03*
X83058000Y-99430000D03*
X100076000Y-99430000D03*
X117094000Y-99430000D03*
X129032000Y-99430000D03*
%TO.N,/speed_encoder_a*%
X119888000Y-89016000D03*
%TO.N,/volume_encoder_b*%
X106680000Y-91302000D03*
%TO.N,/encoder_aux1_a*%
X130683000Y-88381000D03*
%TO.N,/encoder_aux2_a*%
X133350000Y-99938000D03*
%TD*%
D23*
%TO.N,/aux1_btn*%
X161339000Y-108498000D02*
X153325000Y-108498000D01*
X139700000Y-85401000D02*
X139700000Y-94873000D01*
X139700000Y-94873000D02*
X153325000Y-108498000D01*
%TO.N,/menu_encoder_b*%
X78671000Y-84037000D02*
X59214000Y-103494000D01*
X121920000Y-82861000D02*
X120744000Y-84037000D01*
X59214000Y-103494000D02*
X59214000Y-105833000D01*
X120744000Y-84037000D02*
X78671000Y-84037000D01*
%TO.N,/menu_encoder_btn*%
X121920000Y-85401000D02*
X120744000Y-86577000D01*
X83973000Y-86577000D02*
X69145500Y-101404500D01*
X69145500Y-101404500D02*
X69145500Y-116412500D01*
X69145500Y-116412500D02*
X64719500Y-120838500D01*
X120744000Y-86577000D02*
X83973000Y-86577000D01*
%TO.N,/menu_encoder_a*%
X82473000Y-85401000D02*
X119380000Y-85401000D01*
X82473000Y-85401000D02*
X65246000Y-102628000D01*
X65246000Y-102628000D02*
X65246000Y-103494000D01*
X65246000Y-103494000D02*
X65246000Y-105812000D01*
%TO.N,+3.3V*%
X61214000Y-103494000D02*
X63246000Y-103494000D01*
X64443000Y-99525000D02*
X65945000Y-99525000D01*
X97282000Y-102224000D02*
X100076000Y-99430000D01*
X95250000Y-103494000D02*
X97282000Y-103494000D01*
X129286000Y-103494000D02*
X131318000Y-103494000D01*
X114300000Y-102224000D02*
X117094000Y-99430000D01*
X80264000Y-102224000D02*
X83058000Y-99430000D01*
X80264000Y-103494000D02*
X80264000Y-102224000D01*
X131318000Y-101716000D02*
X129032000Y-99430000D01*
X131318000Y-103494000D02*
X131318000Y-101716000D01*
X61214000Y-103494000D02*
X61214000Y-102754000D01*
X65945000Y-99525000D02*
X66040000Y-99430000D01*
X61214000Y-102754000D02*
X64443000Y-99525000D01*
X97282000Y-103494000D02*
X97282000Y-102224000D01*
X112268000Y-103494000D02*
X114300000Y-103494000D01*
X114300000Y-103494000D02*
X114300000Y-102224000D01*
X78232000Y-103494000D02*
X80264000Y-103494000D01*
%TO.N,/speed_encoder_btn*%
X86868000Y-115708000D02*
X81737500Y-120838500D01*
X127000000Y-82861000D02*
X125730000Y-84131000D01*
X125730000Y-84131000D02*
X125730000Y-85968000D01*
X100974000Y-89642000D02*
X86868000Y-103748000D01*
X86868000Y-103748000D02*
X86868000Y-115708000D01*
X122056000Y-89642000D02*
X100974000Y-89642000D01*
X125730000Y-85968000D02*
X122056000Y-89642000D01*
%TO.N,/speed_encoder_b*%
X121861000Y-88000000D02*
X91726000Y-88000000D01*
X76232000Y-103494000D02*
X76232000Y-105833000D01*
X91726000Y-88000000D02*
X76232000Y-103494000D01*
X124460000Y-85401000D02*
X121861000Y-88000000D01*
%TO.N,/speed_encoder_a*%
X82264000Y-102628000D02*
X82264000Y-103494000D01*
X95876000Y-89016000D02*
X82264000Y-102628000D01*
X119888000Y-89016000D02*
X95876000Y-89016000D01*
X82264000Y-103494000D02*
X82264000Y-105812000D01*
%TO.N,/volume_encoder_btn*%
X103181500Y-116412500D02*
X98755500Y-120838500D01*
X112833000Y-90737000D02*
X103181500Y-100388500D01*
X129540000Y-85401000D02*
X124204000Y-90737000D01*
X103181500Y-100388500D02*
X103181500Y-116412500D01*
X124204000Y-90737000D02*
X112833000Y-90737000D01*
%TO.N,/volume_encoder_b*%
X105442000Y-91302000D02*
X93250000Y-103494000D01*
X93250000Y-103494000D02*
X93250000Y-105833000D01*
X106680000Y-91302000D02*
X105442000Y-91302000D01*
%TO.N,/volume_encoder_a*%
X122115000Y-90286000D02*
X111760000Y-90286000D01*
X99282000Y-103494000D02*
X99282000Y-105812000D01*
X111760000Y-90286000D02*
X99282000Y-102764000D01*
X127000000Y-85401000D02*
X122115000Y-90286000D01*
X99282000Y-102764000D02*
X99282000Y-103494000D01*
%TO.N,/encoder_aux1_btn*%
X134620000Y-82861000D02*
X133256000Y-84225000D01*
X133256000Y-88348000D02*
X120650000Y-100954000D01*
X120650000Y-115962000D02*
X115773500Y-120838500D01*
X133256000Y-84225000D02*
X133256000Y-88348000D01*
X120650000Y-100954000D02*
X120650000Y-115962000D01*
%TO.N,/encoder_aux1_b*%
X124655000Y-92826000D02*
X120936000Y-92826000D01*
X132080000Y-85401000D02*
X124655000Y-92826000D01*
X110268000Y-103494000D02*
X110268000Y-105833000D01*
X120936000Y-92826000D02*
X110268000Y-103494000D01*
%TO.N,/encoder_aux1_a*%
X130683000Y-89111000D02*
X116300000Y-103494000D01*
X116300000Y-103494000D02*
X116300000Y-105812000D01*
X130683000Y-88381000D02*
X130683000Y-89111000D01*
%TO.N,/encoder_aux2_btn*%
X137668000Y-85909000D02*
X137668000Y-115962000D01*
X137668000Y-115962000D02*
X132791500Y-120838500D01*
%TO.N,/encoder_aux2_b*%
X127286000Y-95080000D02*
X127286000Y-103494000D01*
X135984000Y-84037000D02*
X135984000Y-86382000D01*
X127286000Y-103494000D02*
X127286000Y-105833000D01*
X137160000Y-82861000D02*
X135984000Y-84037000D01*
X135984000Y-86382000D02*
X127286000Y-95080000D01*
%TO.N,/encoder_aux2_a*%
X133318000Y-99970000D02*
X133350000Y-99938000D01*
X133318000Y-103494000D02*
X133318000Y-105812000D01*
X133318000Y-103494000D02*
X133318000Y-99970000D01*
%TO.N,/sda*%
X147320000Y-85401000D02*
X156661000Y-94742000D01*
X156661000Y-94742000D02*
X164904000Y-94742000D01*
%TO.N,/scl*%
X149860000Y-82861000D02*
X159201000Y-92202000D01*
X159201000Y-92202000D02*
X164904000Y-92202000D01*
D24*
%TO.N,+5V*%
X156661000Y-97282000D02*
X164904000Y-97282000D01*
X144780000Y-85401000D02*
X156661000Y-97282000D01*
%TD*%
%TA.AperFunction,Conductor*%
%TO.N,GND*%
G36*
X62273334Y-104398548D02*
G01*
X62317681Y-104427049D01*
X62427344Y-104536712D01*
X62576666Y-104628814D01*
X62743203Y-104683999D01*
X62845991Y-104694500D01*
X63372052Y-104694499D01*
X63439090Y-104714183D01*
X63484845Y-104766987D01*
X63494789Y-104836146D01*
X63465764Y-104899702D01*
X63446363Y-104917765D01*
X63361952Y-104980955D01*
X63275706Y-105096164D01*
X63275702Y-105096171D01*
X63225408Y-105231017D01*
X63219001Y-105290616D01*
X63219001Y-105290623D01*
X63219000Y-105290635D01*
X63219000Y-105641190D01*
X63199315Y-105708229D01*
X63182681Y-105728871D01*
X62702462Y-106209089D01*
X62685425Y-106145507D01*
X62619599Y-106031493D01*
X62526507Y-105938401D01*
X62412493Y-105872575D01*
X62348909Y-105855537D01*
X62909625Y-105294820D01*
X62909625Y-105294819D01*
X62874645Y-105269405D01*
X62699335Y-105180081D01*
X62512205Y-105119278D01*
X62317882Y-105088500D01*
X62121118Y-105088500D01*
X61926794Y-105119278D01*
X61739661Y-105180082D01*
X61564363Y-105269399D01*
X61564359Y-105269402D01*
X61529373Y-105294820D01*
X61529372Y-105294820D01*
X62090090Y-105855537D01*
X62026507Y-105872575D01*
X61912493Y-105938401D01*
X61819401Y-106031493D01*
X61753575Y-106145507D01*
X61736537Y-106209090D01*
X61175820Y-105648372D01*
X61139290Y-105651248D01*
X61127204Y-105648709D01*
X61115032Y-105650776D01*
X61093654Y-105641661D01*
X61070913Y-105636884D01*
X61060552Y-105627547D01*
X61050761Y-105623373D01*
X61037243Y-105606543D01*
X61026979Y-105597294D01*
X61022607Y-105590856D01*
X61002843Y-105552067D01*
X60864017Y-105360990D01*
X60697010Y-105193983D01*
X60505933Y-105055157D01*
X60295496Y-104947933D01*
X60070868Y-104874946D01*
X59944102Y-104854869D01*
X59913310Y-104840272D01*
X59882297Y-104826109D01*
X59881799Y-104825334D01*
X59880967Y-104824940D01*
X59862948Y-104796001D01*
X59844523Y-104767331D01*
X59844350Y-104766133D01*
X59844036Y-104765628D01*
X59839500Y-104732396D01*
X59839500Y-104725057D01*
X59859185Y-104658018D01*
X59898401Y-104619520D01*
X60032656Y-104536712D01*
X60126319Y-104443049D01*
X60187642Y-104409564D01*
X60257334Y-104414548D01*
X60301681Y-104443049D01*
X60395344Y-104536712D01*
X60544666Y-104628814D01*
X60711203Y-104683999D01*
X60813991Y-104694500D01*
X61614008Y-104694499D01*
X61614016Y-104694498D01*
X61614019Y-104694498D01*
X61670302Y-104688748D01*
X61716797Y-104683999D01*
X61883334Y-104628814D01*
X62032656Y-104536712D01*
X62142319Y-104427049D01*
X62203642Y-104393564D01*
X62273334Y-104398548D01*
G37*
%TD.AperFunction*%
%TA.AperFunction,Conductor*%
G36*
X79291334Y-104398548D02*
G01*
X79335681Y-104427049D01*
X79445344Y-104536712D01*
X79594666Y-104628814D01*
X79761203Y-104683999D01*
X79863991Y-104694500D01*
X80390052Y-104694499D01*
X80457090Y-104714183D01*
X80502845Y-104766987D01*
X80512789Y-104836146D01*
X80483764Y-104899702D01*
X80464363Y-104917765D01*
X80379952Y-104980955D01*
X80293706Y-105096164D01*
X80293702Y-105096171D01*
X80243408Y-105231017D01*
X80237001Y-105290616D01*
X80237001Y-105290623D01*
X80237000Y-105290635D01*
X80237000Y-105641190D01*
X80217315Y-105708229D01*
X80200681Y-105728871D01*
X79720462Y-106209089D01*
X79703425Y-106145507D01*
X79637599Y-106031493D01*
X79544507Y-105938401D01*
X79430493Y-105872575D01*
X79366909Y-105855537D01*
X79927625Y-105294820D01*
X79927625Y-105294819D01*
X79892645Y-105269405D01*
X79717335Y-105180081D01*
X79530205Y-105119278D01*
X79335882Y-105088500D01*
X79139118Y-105088500D01*
X78944794Y-105119278D01*
X78757661Y-105180082D01*
X78582363Y-105269399D01*
X78582359Y-105269402D01*
X78547373Y-105294820D01*
X78547372Y-105294820D01*
X79108090Y-105855537D01*
X79044507Y-105872575D01*
X78930493Y-105938401D01*
X78837401Y-106031493D01*
X78771575Y-106145507D01*
X78754537Y-106209090D01*
X78193820Y-105648372D01*
X78157290Y-105651248D01*
X78145204Y-105648709D01*
X78133032Y-105650776D01*
X78111654Y-105641661D01*
X78088913Y-105636884D01*
X78078552Y-105627547D01*
X78068761Y-105623373D01*
X78055243Y-105606543D01*
X78044979Y-105597294D01*
X78040607Y-105590856D01*
X78020843Y-105552067D01*
X77882017Y-105360990D01*
X77715010Y-105193983D01*
X77523933Y-105055157D01*
X77313496Y-104947933D01*
X77088868Y-104874946D01*
X76962102Y-104854869D01*
X76931310Y-104840272D01*
X76900297Y-104826109D01*
X76899799Y-104825334D01*
X76898967Y-104824940D01*
X76880948Y-104796001D01*
X76862523Y-104767331D01*
X76862350Y-104766133D01*
X76862036Y-104765628D01*
X76857500Y-104732396D01*
X76857500Y-104725057D01*
X76877185Y-104658018D01*
X76916401Y-104619520D01*
X77050656Y-104536712D01*
X77144319Y-104443049D01*
X77205642Y-104409564D01*
X77275334Y-104414548D01*
X77319681Y-104443049D01*
X77413344Y-104536712D01*
X77562666Y-104628814D01*
X77729203Y-104683999D01*
X77831991Y-104694500D01*
X78632008Y-104694499D01*
X78632016Y-104694498D01*
X78632019Y-104694498D01*
X78688302Y-104688748D01*
X78734797Y-104683999D01*
X78901334Y-104628814D01*
X79050656Y-104536712D01*
X79160319Y-104427049D01*
X79221642Y-104393564D01*
X79291334Y-104398548D01*
G37*
%TD.AperFunction*%
%TA.AperFunction,Conductor*%
G36*
X96309334Y-104398548D02*
G01*
X96353681Y-104427049D01*
X96463344Y-104536712D01*
X96612666Y-104628814D01*
X96779203Y-104683999D01*
X96881991Y-104694500D01*
X97408052Y-104694499D01*
X97475090Y-104714183D01*
X97520845Y-104766987D01*
X97530789Y-104836146D01*
X97501764Y-104899702D01*
X97482363Y-104917765D01*
X97397952Y-104980955D01*
X97311706Y-105096164D01*
X97311702Y-105096171D01*
X97261408Y-105231017D01*
X97255001Y-105290616D01*
X97255001Y-105290623D01*
X97255000Y-105290635D01*
X97255000Y-105641190D01*
X97235315Y-105708229D01*
X97218681Y-105728871D01*
X96738462Y-106209089D01*
X96721425Y-106145507D01*
X96655599Y-106031493D01*
X96562507Y-105938401D01*
X96448493Y-105872575D01*
X96384909Y-105855537D01*
X96945625Y-105294820D01*
X96945625Y-105294819D01*
X96910645Y-105269405D01*
X96735335Y-105180081D01*
X96548205Y-105119278D01*
X96353882Y-105088500D01*
X96157118Y-105088500D01*
X95962794Y-105119278D01*
X95775661Y-105180082D01*
X95600363Y-105269399D01*
X95600359Y-105269402D01*
X95565373Y-105294820D01*
X95565372Y-105294820D01*
X96126090Y-105855537D01*
X96062507Y-105872575D01*
X95948493Y-105938401D01*
X95855401Y-106031493D01*
X95789575Y-106145507D01*
X95772537Y-106209090D01*
X95211820Y-105648372D01*
X95175290Y-105651248D01*
X95163204Y-105648709D01*
X95151032Y-105650776D01*
X95129654Y-105641661D01*
X95106913Y-105636884D01*
X95096552Y-105627547D01*
X95086761Y-105623373D01*
X95073243Y-105606543D01*
X95062979Y-105597294D01*
X95058607Y-105590856D01*
X95038843Y-105552067D01*
X94900017Y-105360990D01*
X94733010Y-105193983D01*
X94541933Y-105055157D01*
X94331496Y-104947933D01*
X94106868Y-104874946D01*
X93980102Y-104854869D01*
X93949310Y-104840272D01*
X93918297Y-104826109D01*
X93917799Y-104825334D01*
X93916967Y-104824940D01*
X93898948Y-104796001D01*
X93880523Y-104767331D01*
X93880350Y-104766133D01*
X93880036Y-104765628D01*
X93875500Y-104732396D01*
X93875500Y-104725057D01*
X93895185Y-104658018D01*
X93934401Y-104619520D01*
X94068656Y-104536712D01*
X94162319Y-104443049D01*
X94223642Y-104409564D01*
X94293334Y-104414548D01*
X94337681Y-104443049D01*
X94431344Y-104536712D01*
X94580666Y-104628814D01*
X94747203Y-104683999D01*
X94849991Y-104694500D01*
X95650008Y-104694499D01*
X95650016Y-104694498D01*
X95650019Y-104694498D01*
X95706302Y-104688748D01*
X95752797Y-104683999D01*
X95919334Y-104628814D01*
X96068656Y-104536712D01*
X96178319Y-104427049D01*
X96239642Y-104393564D01*
X96309334Y-104398548D01*
G37*
%TD.AperFunction*%
%TA.AperFunction,Conductor*%
G36*
X113327334Y-104398548D02*
G01*
X113371681Y-104427049D01*
X113481344Y-104536712D01*
X113630666Y-104628814D01*
X113797203Y-104683999D01*
X113899991Y-104694500D01*
X114426052Y-104694499D01*
X114493090Y-104714183D01*
X114538845Y-104766987D01*
X114548789Y-104836146D01*
X114519764Y-104899702D01*
X114500363Y-104917765D01*
X114415952Y-104980955D01*
X114329706Y-105096164D01*
X114329702Y-105096171D01*
X114279408Y-105231017D01*
X114273001Y-105290616D01*
X114273001Y-105290623D01*
X114273000Y-105290635D01*
X114273000Y-105641190D01*
X114253315Y-105708229D01*
X114236681Y-105728871D01*
X113756462Y-106209089D01*
X113739425Y-106145507D01*
X113673599Y-106031493D01*
X113580507Y-105938401D01*
X113466493Y-105872575D01*
X113402909Y-105855537D01*
X113963625Y-105294820D01*
X113963625Y-105294819D01*
X113928645Y-105269405D01*
X113753335Y-105180081D01*
X113566205Y-105119278D01*
X113371882Y-105088500D01*
X113175118Y-105088500D01*
X112980794Y-105119278D01*
X112793661Y-105180082D01*
X112618363Y-105269399D01*
X112618359Y-105269402D01*
X112583373Y-105294820D01*
X112583372Y-105294820D01*
X113144090Y-105855537D01*
X113080507Y-105872575D01*
X112966493Y-105938401D01*
X112873401Y-106031493D01*
X112807575Y-106145507D01*
X112790537Y-106209090D01*
X112229820Y-105648372D01*
X112193290Y-105651248D01*
X112181204Y-105648709D01*
X112169032Y-105650776D01*
X112147654Y-105641661D01*
X112124913Y-105636884D01*
X112114552Y-105627547D01*
X112104761Y-105623373D01*
X112091243Y-105606543D01*
X112080979Y-105597294D01*
X112076607Y-105590856D01*
X112056843Y-105552067D01*
X111918017Y-105360990D01*
X111751010Y-105193983D01*
X111559933Y-105055157D01*
X111349496Y-104947933D01*
X111124868Y-104874946D01*
X110998102Y-104854869D01*
X110967310Y-104840272D01*
X110936297Y-104826109D01*
X110935799Y-104825334D01*
X110934967Y-104824940D01*
X110916948Y-104796001D01*
X110898523Y-104767331D01*
X110898350Y-104766133D01*
X110898036Y-104765628D01*
X110893500Y-104732396D01*
X110893500Y-104725057D01*
X110913185Y-104658018D01*
X110952401Y-104619520D01*
X111086656Y-104536712D01*
X111180319Y-104443049D01*
X111241642Y-104409564D01*
X111311334Y-104414548D01*
X111355681Y-104443049D01*
X111449344Y-104536712D01*
X111598666Y-104628814D01*
X111765203Y-104683999D01*
X111867991Y-104694500D01*
X112668008Y-104694499D01*
X112668016Y-104694498D01*
X112668019Y-104694498D01*
X112724302Y-104688748D01*
X112770797Y-104683999D01*
X112937334Y-104628814D01*
X113086656Y-104536712D01*
X113196319Y-104427049D01*
X113257642Y-104393564D01*
X113327334Y-104398548D01*
G37*
%TD.AperFunction*%
%TA.AperFunction,Conductor*%
G36*
X130345334Y-104398548D02*
G01*
X130389681Y-104427049D01*
X130499344Y-104536712D01*
X130648666Y-104628814D01*
X130815203Y-104683999D01*
X130917991Y-104694500D01*
X131444052Y-104694499D01*
X131511090Y-104714183D01*
X131556845Y-104766987D01*
X131566789Y-104836146D01*
X131537764Y-104899702D01*
X131518363Y-104917765D01*
X131433952Y-104980955D01*
X131347706Y-105096164D01*
X131347702Y-105096171D01*
X131297408Y-105231017D01*
X131291001Y-105290616D01*
X131291001Y-105290623D01*
X131291000Y-105290635D01*
X131291000Y-105641190D01*
X131271315Y-105708229D01*
X131254681Y-105728871D01*
X130774462Y-106209089D01*
X130757425Y-106145507D01*
X130691599Y-106031493D01*
X130598507Y-105938401D01*
X130484493Y-105872575D01*
X130420909Y-105855537D01*
X130981625Y-105294820D01*
X130981625Y-105294819D01*
X130946645Y-105269405D01*
X130771335Y-105180081D01*
X130584205Y-105119278D01*
X130389882Y-105088500D01*
X130193118Y-105088500D01*
X129998794Y-105119278D01*
X129811661Y-105180082D01*
X129636363Y-105269399D01*
X129636359Y-105269402D01*
X129601373Y-105294820D01*
X129601372Y-105294820D01*
X130162090Y-105855537D01*
X130098507Y-105872575D01*
X129984493Y-105938401D01*
X129891401Y-106031493D01*
X129825575Y-106145507D01*
X129808537Y-106209090D01*
X129247820Y-105648372D01*
X129211290Y-105651248D01*
X129199204Y-105648709D01*
X129187032Y-105650776D01*
X129165654Y-105641661D01*
X129142913Y-105636884D01*
X129132552Y-105627547D01*
X129122761Y-105623373D01*
X129109243Y-105606543D01*
X129098979Y-105597294D01*
X129094607Y-105590856D01*
X129074843Y-105552067D01*
X128936017Y-105360990D01*
X128769010Y-105193983D01*
X128577933Y-105055157D01*
X128367496Y-104947933D01*
X128142868Y-104874946D01*
X128016102Y-104854869D01*
X127985310Y-104840272D01*
X127954297Y-104826109D01*
X127953799Y-104825334D01*
X127952967Y-104824940D01*
X127934948Y-104796001D01*
X127916523Y-104767331D01*
X127916350Y-104766133D01*
X127916036Y-104765628D01*
X127911500Y-104732396D01*
X127911500Y-104725057D01*
X127931185Y-104658018D01*
X127970401Y-104619520D01*
X128104656Y-104536712D01*
X128198319Y-104443049D01*
X128259642Y-104409564D01*
X128329334Y-104414548D01*
X128373681Y-104443049D01*
X128467344Y-104536712D01*
X128616666Y-104628814D01*
X128783203Y-104683999D01*
X128885991Y-104694500D01*
X129686008Y-104694499D01*
X129686016Y-104694498D01*
X129686019Y-104694498D01*
X129742302Y-104688748D01*
X129788797Y-104683999D01*
X129955334Y-104628814D01*
X130104656Y-104536712D01*
X130214319Y-104427049D01*
X130275642Y-104393564D01*
X130345334Y-104398548D01*
G37*
%TD.AperFunction*%
%TA.AperFunction,Conductor*%
G36*
X95149587Y-88645185D02*
G01*
X95195342Y-88697989D01*
X95205286Y-88767147D01*
X95176261Y-88830703D01*
X95170229Y-88837181D01*
X81867872Y-102139536D01*
X81867864Y-102139544D01*
X81865270Y-102142139D01*
X81865267Y-102142142D01*
X81778142Y-102229267D01*
X81752167Y-102268142D01*
X81747449Y-102275201D01*
X81747442Y-102275210D01*
X81742480Y-102282636D01*
X81688864Y-102327436D01*
X81678391Y-102331440D01*
X81594668Y-102359184D01*
X81445342Y-102451289D01*
X81351681Y-102544951D01*
X81343735Y-102549289D01*
X81338310Y-102556537D01*
X81313550Y-102565771D01*
X81290358Y-102578436D01*
X81281328Y-102577790D01*
X81272846Y-102580954D01*
X81247025Y-102575337D01*
X81220666Y-102573452D01*
X81211612Y-102567633D01*
X81204573Y-102566102D01*
X81176319Y-102544951D01*
X81089659Y-102458291D01*
X81056174Y-102396968D01*
X81061158Y-102327276D01*
X81089657Y-102282931D01*
X83116798Y-100255791D01*
X83178119Y-100222308D01*
X83180114Y-100221892D01*
X83291497Y-100199737D01*
X83437179Y-100139394D01*
X83568289Y-100051789D01*
X83679789Y-99940289D01*
X83767394Y-99809179D01*
X83827737Y-99663497D01*
X83858500Y-99508842D01*
X83858500Y-99351158D01*
X83858500Y-99351155D01*
X83858499Y-99351153D01*
X83857197Y-99344606D01*
X83827737Y-99196503D01*
X83816039Y-99168261D01*
X83767397Y-99050827D01*
X83767390Y-99050814D01*
X83679789Y-98919711D01*
X83679786Y-98919707D01*
X83568292Y-98808213D01*
X83568288Y-98808210D01*
X83437185Y-98720609D01*
X83437172Y-98720602D01*
X83291501Y-98660264D01*
X83291489Y-98660261D01*
X83136845Y-98629500D01*
X83136842Y-98629500D01*
X82979158Y-98629500D01*
X82979155Y-98629500D01*
X82824510Y-98660261D01*
X82824498Y-98660264D01*
X82678827Y-98720602D01*
X82678814Y-98720609D01*
X82547711Y-98808210D01*
X82547707Y-98808213D01*
X82436213Y-98919707D01*
X82436210Y-98919711D01*
X82348609Y-99050814D01*
X82348602Y-99050827D01*
X82288264Y-99196498D01*
X82288261Y-99196508D01*
X82266141Y-99307713D01*
X82233756Y-99369624D01*
X82232205Y-99371202D01*
X79865269Y-101738140D01*
X79778144Y-101825264D01*
X79778138Y-101825272D01*
X79709690Y-101927708D01*
X79709689Y-101927710D01*
X79678710Y-102002502D01*
X79667324Y-102029993D01*
X79667321Y-102030001D01*
X79662537Y-102041549D01*
X79662535Y-102041555D01*
X79640461Y-102152529D01*
X79640462Y-102152530D01*
X79638500Y-102162394D01*
X79638500Y-102262942D01*
X79618815Y-102329981D01*
X79579598Y-102368479D01*
X79493209Y-102421764D01*
X79445342Y-102451289D01*
X79335681Y-102560951D01*
X79274358Y-102594436D01*
X79204666Y-102589452D01*
X79160319Y-102560951D01*
X79050657Y-102451289D01*
X79050656Y-102451288D01*
X78901334Y-102359186D01*
X78734797Y-102304001D01*
X78734795Y-102304000D01*
X78632016Y-102293500D01*
X78632009Y-102293500D01*
X78616451Y-102293500D01*
X78549412Y-102273815D01*
X78503657Y-102221011D01*
X78493713Y-102151853D01*
X78522738Y-102088297D01*
X78528770Y-102081819D01*
X85160770Y-95449820D01*
X91948771Y-88661819D01*
X92010094Y-88628334D01*
X92036452Y-88625500D01*
X95082548Y-88625500D01*
X95149587Y-88645185D01*
G37*
%TD.AperFunction*%
%TA.AperFunction,Conductor*%
G36*
X110661587Y-90287185D02*
G01*
X110707342Y-90339989D01*
X110717286Y-90409147D01*
X110688261Y-90472703D01*
X110682229Y-90479181D01*
X98897499Y-102263909D01*
X98836176Y-102297394D01*
X98822420Y-102299586D01*
X98779201Y-102304001D01*
X98612668Y-102359185D01*
X98612663Y-102359187D01*
X98463342Y-102451289D01*
X98369681Y-102544951D01*
X98361735Y-102549289D01*
X98356310Y-102556537D01*
X98331550Y-102565771D01*
X98308358Y-102578436D01*
X98299328Y-102577790D01*
X98290846Y-102580954D01*
X98265025Y-102575337D01*
X98238666Y-102573452D01*
X98229612Y-102567633D01*
X98222573Y-102566102D01*
X98194319Y-102544951D01*
X98107659Y-102458291D01*
X98074174Y-102396968D01*
X98079158Y-102327276D01*
X98107657Y-102282931D01*
X100134798Y-100255791D01*
X100196119Y-100222308D01*
X100198114Y-100221892D01*
X100309497Y-100199737D01*
X100455179Y-100139394D01*
X100586289Y-100051789D01*
X100697789Y-99940289D01*
X100785394Y-99809179D01*
X100845737Y-99663497D01*
X100876500Y-99508842D01*
X100876500Y-99351158D01*
X100876500Y-99351155D01*
X100876499Y-99351153D01*
X100875197Y-99344606D01*
X100845737Y-99196503D01*
X100834039Y-99168261D01*
X100785397Y-99050827D01*
X100785390Y-99050814D01*
X100697789Y-98919711D01*
X100697786Y-98919707D01*
X100586292Y-98808213D01*
X100586288Y-98808210D01*
X100455185Y-98720609D01*
X100455172Y-98720602D01*
X100309501Y-98660264D01*
X100309489Y-98660261D01*
X100154845Y-98629500D01*
X100154842Y-98629500D01*
X99997158Y-98629500D01*
X99997155Y-98629500D01*
X99842510Y-98660261D01*
X99842498Y-98660264D01*
X99696827Y-98720602D01*
X99696814Y-98720609D01*
X99565711Y-98808210D01*
X99565707Y-98808213D01*
X99454213Y-98919707D01*
X99454210Y-98919711D01*
X99366609Y-99050814D01*
X99366602Y-99050827D01*
X99306264Y-99196498D01*
X99306261Y-99196508D01*
X99284141Y-99307713D01*
X99251756Y-99369624D01*
X99250205Y-99371202D01*
X96883269Y-101738140D01*
X96796144Y-101825264D01*
X96796138Y-101825272D01*
X96727690Y-101927708D01*
X96727689Y-101927710D01*
X96696710Y-102002502D01*
X96685324Y-102029993D01*
X96685321Y-102030001D01*
X96680537Y-102041549D01*
X96680535Y-102041555D01*
X96658461Y-102152529D01*
X96658462Y-102152530D01*
X96656500Y-102162394D01*
X96656500Y-102262942D01*
X96636815Y-102329981D01*
X96597598Y-102368479D01*
X96511209Y-102421764D01*
X96463342Y-102451289D01*
X96353681Y-102560951D01*
X96292358Y-102594436D01*
X96222666Y-102589452D01*
X96178319Y-102560951D01*
X96068657Y-102451289D01*
X96068656Y-102451288D01*
X95919334Y-102359186D01*
X95752797Y-102304001D01*
X95752795Y-102304000D01*
X95650016Y-102293500D01*
X95650009Y-102293500D01*
X95634451Y-102293500D01*
X95567412Y-102273815D01*
X95521657Y-102221011D01*
X95511713Y-102151853D01*
X95540738Y-102088297D01*
X95546770Y-102081819D01*
X105664771Y-91963819D01*
X105726094Y-91930334D01*
X105752452Y-91927500D01*
X106137650Y-91927500D01*
X106204689Y-91947185D01*
X106206541Y-91948398D01*
X106300821Y-92011394D01*
X106300823Y-92011395D01*
X106300827Y-92011397D01*
X106446498Y-92071735D01*
X106446503Y-92071737D01*
X106567038Y-92095713D01*
X106601153Y-92102499D01*
X106601156Y-92102500D01*
X106601158Y-92102500D01*
X106758844Y-92102500D01*
X106758845Y-92102499D01*
X106913497Y-92071737D01*
X107059179Y-92011394D01*
X107190289Y-91923789D01*
X107301789Y-91812289D01*
X107389394Y-91681179D01*
X107449737Y-91535497D01*
X107480500Y-91380842D01*
X107480500Y-91223158D01*
X107480500Y-91223155D01*
X107480499Y-91223153D01*
X107449738Y-91068510D01*
X107449737Y-91068503D01*
X107400836Y-90950444D01*
X107389397Y-90922827D01*
X107389390Y-90922814D01*
X107301789Y-90791711D01*
X107301786Y-90791707D01*
X107190292Y-90680213D01*
X107190288Y-90680210D01*
X107059185Y-90592609D01*
X107059172Y-90592602D01*
X106913501Y-90532264D01*
X106913489Y-90532261D01*
X106817247Y-90513117D01*
X106755336Y-90480732D01*
X106720762Y-90420016D01*
X106724501Y-90350247D01*
X106765368Y-90293575D01*
X106830386Y-90267994D01*
X106841438Y-90267500D01*
X110594548Y-90267500D01*
X110661587Y-90287185D01*
G37*
%TD.AperFunction*%
%TA.AperFunction,Conductor*%
G36*
X129865555Y-88602548D02*
G01*
X129921488Y-88644420D01*
X129936782Y-88671278D01*
X129971925Y-88756122D01*
X129971926Y-88756124D01*
X129973606Y-88760179D01*
X129988366Y-88782270D01*
X129989283Y-88783727D01*
X129998347Y-88815765D01*
X130008291Y-88847519D01*
X130007818Y-88849239D01*
X130008305Y-88850958D01*
X129998608Y-88882813D01*
X129989807Y-88914900D01*
X129988239Y-88916880D01*
X129987960Y-88917800D01*
X129986595Y-88918959D01*
X129971992Y-88937415D01*
X116652227Y-102257181D01*
X116590904Y-102290666D01*
X116564546Y-102293500D01*
X115899998Y-102293500D01*
X115899980Y-102293501D01*
X115797203Y-102304000D01*
X115797200Y-102304001D01*
X115630668Y-102359185D01*
X115630663Y-102359187D01*
X115481342Y-102451289D01*
X115387681Y-102544951D01*
X115379735Y-102549289D01*
X115374310Y-102556537D01*
X115349550Y-102565771D01*
X115326358Y-102578436D01*
X115317328Y-102577790D01*
X115308846Y-102580954D01*
X115283025Y-102575337D01*
X115256666Y-102573452D01*
X115247612Y-102567633D01*
X115240573Y-102566102D01*
X115212319Y-102544951D01*
X115125659Y-102458291D01*
X115092174Y-102396968D01*
X115097158Y-102327276D01*
X115125657Y-102282931D01*
X117152798Y-100255791D01*
X117214119Y-100222308D01*
X117216114Y-100221892D01*
X117327497Y-100199737D01*
X117473179Y-100139394D01*
X117604289Y-100051789D01*
X117715789Y-99940289D01*
X117803394Y-99809179D01*
X117863737Y-99663497D01*
X117894500Y-99508842D01*
X117894500Y-99351158D01*
X117894500Y-99351155D01*
X117894499Y-99351153D01*
X117893197Y-99344606D01*
X117863737Y-99196503D01*
X117852039Y-99168261D01*
X117803397Y-99050827D01*
X117803390Y-99050814D01*
X117715789Y-98919711D01*
X117715786Y-98919707D01*
X117604292Y-98808213D01*
X117604288Y-98808210D01*
X117473185Y-98720609D01*
X117473172Y-98720602D01*
X117327501Y-98660264D01*
X117327489Y-98660261D01*
X117172845Y-98629500D01*
X117172842Y-98629500D01*
X117015158Y-98629500D01*
X117015155Y-98629500D01*
X116860510Y-98660261D01*
X116860498Y-98660264D01*
X116714827Y-98720602D01*
X116714814Y-98720609D01*
X116583711Y-98808210D01*
X116583707Y-98808213D01*
X116472213Y-98919707D01*
X116472210Y-98919711D01*
X116384609Y-99050814D01*
X116384602Y-99050827D01*
X116324264Y-99196498D01*
X116324261Y-99196508D01*
X116302141Y-99307713D01*
X116269756Y-99369624D01*
X116268205Y-99371202D01*
X113901269Y-101738140D01*
X113814144Y-101825264D01*
X113814138Y-101825272D01*
X113745690Y-101927708D01*
X113745689Y-101927710D01*
X113714710Y-102002502D01*
X113703324Y-102029993D01*
X113703321Y-102030001D01*
X113698537Y-102041549D01*
X113698535Y-102041555D01*
X113676461Y-102152529D01*
X113676462Y-102152530D01*
X113674500Y-102162394D01*
X113674500Y-102262942D01*
X113654815Y-102329981D01*
X113615598Y-102368479D01*
X113529209Y-102421764D01*
X113481342Y-102451289D01*
X113371681Y-102560951D01*
X113310358Y-102594436D01*
X113240666Y-102589452D01*
X113196319Y-102560951D01*
X113086657Y-102451289D01*
X113086656Y-102451288D01*
X112937334Y-102359186D01*
X112770797Y-102304001D01*
X112770795Y-102304000D01*
X112668016Y-102293500D01*
X112668009Y-102293500D01*
X112652451Y-102293500D01*
X112585412Y-102273815D01*
X112539657Y-102221011D01*
X112529713Y-102151853D01*
X112558738Y-102088297D01*
X112564770Y-102081819D01*
X116820475Y-97826115D01*
X121158771Y-93487819D01*
X121220094Y-93454334D01*
X121246452Y-93451500D01*
X124716607Y-93451500D01*
X124777029Y-93439481D01*
X124837452Y-93427463D01*
X124870792Y-93413652D01*
X124951286Y-93380312D01*
X125002509Y-93346084D01*
X125053733Y-93311858D01*
X125140858Y-93224733D01*
X125140858Y-93224731D01*
X125151066Y-93214524D01*
X125151067Y-93214521D01*
X129734542Y-88631047D01*
X129795863Y-88597564D01*
X129865555Y-88602548D01*
G37*
%TD.AperFunction*%
%TA.AperFunction,Conductor*%
G36*
X82110637Y-84682185D02*
G01*
X82156392Y-84734989D01*
X82166336Y-84804147D01*
X82137311Y-84867703D01*
X82112490Y-84889601D01*
X82074272Y-84915138D01*
X82074264Y-84915144D01*
X64849872Y-102139536D01*
X64849864Y-102139544D01*
X64847270Y-102142139D01*
X64847267Y-102142142D01*
X64760142Y-102229267D01*
X64734167Y-102268142D01*
X64729449Y-102275201D01*
X64729442Y-102275210D01*
X64724480Y-102282636D01*
X64670864Y-102327436D01*
X64660391Y-102331440D01*
X64576668Y-102359184D01*
X64427342Y-102451289D01*
X64333681Y-102544951D01*
X64272358Y-102578436D01*
X64202666Y-102573452D01*
X64158319Y-102544951D01*
X64064657Y-102451289D01*
X64064656Y-102451288D01*
X63915334Y-102359186D01*
X63748797Y-102304001D01*
X63748795Y-102304000D01*
X63646016Y-102293500D01*
X62858451Y-102293500D01*
X62791412Y-102273815D01*
X62745657Y-102221011D01*
X62735713Y-102151853D01*
X62764738Y-102088297D01*
X62770753Y-102081836D01*
X64665772Y-100186819D01*
X64727095Y-100153334D01*
X64753453Y-100150500D01*
X65662969Y-100150500D01*
X65710421Y-100159939D01*
X65806503Y-100199737D01*
X65806506Y-100199737D01*
X65806511Y-100199739D01*
X65961153Y-100230499D01*
X65961156Y-100230500D01*
X65961158Y-100230500D01*
X66118844Y-100230500D01*
X66118845Y-100230499D01*
X66273497Y-100199737D01*
X66419179Y-100139394D01*
X66550289Y-100051789D01*
X66661789Y-99940289D01*
X66749394Y-99809179D01*
X66809737Y-99663497D01*
X66840500Y-99508842D01*
X66840500Y-99351158D01*
X66840500Y-99351155D01*
X66840499Y-99351153D01*
X66839197Y-99344606D01*
X66809737Y-99196503D01*
X66798039Y-99168261D01*
X66749397Y-99050827D01*
X66749390Y-99050814D01*
X66661789Y-98919711D01*
X66661786Y-98919707D01*
X66550292Y-98808213D01*
X66550288Y-98808210D01*
X66419185Y-98720609D01*
X66419172Y-98720602D01*
X66273501Y-98660264D01*
X66273489Y-98660261D01*
X66118845Y-98629500D01*
X66118842Y-98629500D01*
X65961158Y-98629500D01*
X65961155Y-98629500D01*
X65806510Y-98660261D01*
X65806498Y-98660264D01*
X65660827Y-98720602D01*
X65660814Y-98720609D01*
X65529712Y-98808209D01*
X65510911Y-98827011D01*
X65474739Y-98863182D01*
X65413419Y-98896666D01*
X65387060Y-98899500D01*
X64992452Y-98899500D01*
X64925413Y-98879815D01*
X64879658Y-98827011D01*
X64869714Y-98757853D01*
X64898739Y-98694297D01*
X64904771Y-98687819D01*
X78893771Y-84698819D01*
X78955094Y-84665334D01*
X78981452Y-84662500D01*
X82043598Y-84662500D01*
X82110637Y-84682185D01*
G37*
%TD.AperFunction*%
%TA.AperFunction,Conductor*%
G36*
X151110569Y-85004355D02*
G01*
X151141160Y-85026750D01*
X158715139Y-92600729D01*
X158715142Y-92600733D01*
X158802267Y-92687858D01*
X158879190Y-92739256D01*
X158884990Y-92743132D01*
X158884993Y-92743134D01*
X158904710Y-92756309D01*
X158904712Y-92756310D01*
X158904715Y-92756312D01*
X158971396Y-92783931D01*
X158971398Y-92783933D01*
X159011640Y-92800601D01*
X159018548Y-92803463D01*
X159078971Y-92815481D01*
X159139393Y-92827500D01*
X159139394Y-92827500D01*
X163631019Y-92827500D01*
X163698058Y-92847185D01*
X163741503Y-92895203D01*
X163748950Y-92909819D01*
X163873890Y-93081786D01*
X164024213Y-93232109D01*
X164196182Y-93357050D01*
X164204946Y-93361516D01*
X164255742Y-93409491D01*
X164272536Y-93477312D01*
X164249998Y-93543447D01*
X164204946Y-93582484D01*
X164196182Y-93586949D01*
X164024213Y-93711890D01*
X163873890Y-93862213D01*
X163748950Y-94034180D01*
X163741503Y-94048797D01*
X163693527Y-94099592D01*
X163631019Y-94116500D01*
X156971452Y-94116500D01*
X156904413Y-94096815D01*
X156883771Y-94080181D01*
X149485750Y-86682160D01*
X149452265Y-86620837D01*
X149457249Y-86551145D01*
X149499121Y-86495212D01*
X149564585Y-86470795D01*
X149597547Y-86473506D01*
X149597604Y-86473152D01*
X149602320Y-86473898D01*
X149602369Y-86473903D01*
X149602414Y-86473913D01*
X149773429Y-86501000D01*
X149946571Y-86501000D01*
X150117584Y-86473914D01*
X150282257Y-86420408D01*
X150436525Y-86341803D01*
X150442736Y-86337289D01*
X149989409Y-85883962D01*
X150052993Y-85866925D01*
X150167007Y-85801099D01*
X150260099Y-85708007D01*
X150325925Y-85593993D01*
X150342962Y-85530409D01*
X150796289Y-85983736D01*
X150800803Y-85977525D01*
X150879408Y-85823257D01*
X150932914Y-85658584D01*
X150960000Y-85487571D01*
X150960000Y-85314428D01*
X150932913Y-85143414D01*
X150932903Y-85143369D01*
X150932903Y-85143351D01*
X150932152Y-85138604D01*
X150933149Y-85138445D01*
X150936399Y-85073587D01*
X150977067Y-85016773D01*
X151041995Y-84990964D01*
X151110569Y-85004355D01*
G37*
%TD.AperFunction*%
%TA.AperFunction,Conductor*%
G36*
X148607226Y-83496524D02*
G01*
X148619810Y-83495985D01*
X148639674Y-83507581D01*
X148661444Y-83514999D01*
X148670719Y-83525703D01*
X148680151Y-83531209D01*
X148700486Y-83560056D01*
X148704951Y-83568820D01*
X148829890Y-83740786D01*
X148980213Y-83891109D01*
X149152179Y-84016048D01*
X149152181Y-84016049D01*
X149152184Y-84016051D01*
X149341588Y-84112557D01*
X149440715Y-84144765D01*
X149498388Y-84184201D01*
X149525587Y-84248560D01*
X149513673Y-84317406D01*
X149466429Y-84368882D01*
X149440722Y-84380623D01*
X149437744Y-84381590D01*
X149437743Y-84381590D01*
X149283480Y-84460193D01*
X149283463Y-84460203D01*
X149277261Y-84464708D01*
X149277261Y-84464709D01*
X149730590Y-84918037D01*
X149667007Y-84935075D01*
X149552993Y-85000901D01*
X149459901Y-85093993D01*
X149394075Y-85208007D01*
X149377037Y-85271590D01*
X148923709Y-84818261D01*
X148923708Y-84818261D01*
X148919203Y-84824463D01*
X148919193Y-84824480D01*
X148840590Y-84978743D01*
X148840590Y-84978744D01*
X148839623Y-84981722D01*
X148838950Y-84982705D01*
X148838729Y-84983240D01*
X148838616Y-84983193D01*
X148800182Y-85039394D01*
X148735821Y-85066588D01*
X148666976Y-85054668D01*
X148615503Y-85007421D01*
X148603766Y-84981719D01*
X148571557Y-84882588D01*
X148475051Y-84693184D01*
X148475049Y-84693181D01*
X148475048Y-84693179D01*
X148350109Y-84521213D01*
X148199786Y-84370890D01*
X148027820Y-84245951D01*
X148027115Y-84245591D01*
X148019054Y-84241485D01*
X147968259Y-84193512D01*
X147951463Y-84125692D01*
X147973999Y-84059556D01*
X148019054Y-84020515D01*
X148027816Y-84016051D01*
X148058501Y-83993757D01*
X148199786Y-83891109D01*
X148199788Y-83891106D01*
X148199792Y-83891104D01*
X148350104Y-83740792D01*
X148350106Y-83740788D01*
X148350109Y-83740786D01*
X148475048Y-83568820D01*
X148475047Y-83568820D01*
X148475051Y-83568816D01*
X148479514Y-83560054D01*
X148488160Y-83550900D01*
X148492897Y-83539232D01*
X148511696Y-83525979D01*
X148527488Y-83509259D01*
X148539710Y-83506231D01*
X148550004Y-83498976D01*
X148572985Y-83497991D01*
X148595308Y-83492463D01*
X148607226Y-83496524D01*
G37*
%TD.AperFunction*%
%TA.AperFunction,Conductor*%
G36*
X166890039Y-78548685D02*
G01*
X166935794Y-78601489D01*
X166947000Y-78653000D01*
X166947000Y-127404000D01*
X166927315Y-127471039D01*
X166874511Y-127516794D01*
X166823000Y-127528000D01*
X48072000Y-127528000D01*
X48004961Y-127508315D01*
X47959206Y-127455511D01*
X47948000Y-127404000D01*
X47948000Y-123354401D01*
X48462000Y-123354401D01*
X48462000Y-123702598D01*
X48500981Y-124048573D01*
X48500984Y-124048591D01*
X48578461Y-124388041D01*
X48578465Y-124388053D01*
X48693461Y-124716691D01*
X48844530Y-125030389D01*
X49029776Y-125325206D01*
X49199238Y-125537706D01*
X50267747Y-124469197D01*
X50341588Y-124570830D01*
X50519670Y-124748912D01*
X50621301Y-124822751D01*
X49552792Y-125891260D01*
X49765293Y-126060723D01*
X50060110Y-126245969D01*
X50373808Y-126397038D01*
X50702446Y-126512034D01*
X50702458Y-126512038D01*
X51041908Y-126589515D01*
X51041926Y-126589518D01*
X51387901Y-126628499D01*
X51387905Y-126628500D01*
X51736095Y-126628500D01*
X51736098Y-126628499D01*
X52082073Y-126589518D01*
X52082091Y-126589515D01*
X52421541Y-126512038D01*
X52421553Y-126512034D01*
X52750191Y-126397038D01*
X53063889Y-126245969D01*
X53358706Y-126060723D01*
X53571206Y-125891259D01*
X52502698Y-124822751D01*
X52604330Y-124748912D01*
X52782412Y-124570830D01*
X52856251Y-124469198D01*
X53924759Y-125537706D01*
X54094223Y-125325206D01*
X54279469Y-125030389D01*
X54430538Y-124716691D01*
X54545534Y-124388053D01*
X54545538Y-124388041D01*
X54623015Y-124048591D01*
X54623018Y-124048573D01*
X54660892Y-123712431D01*
X54661999Y-123702598D01*
X54662000Y-123702594D01*
X54662000Y-123354405D01*
X54661999Y-123354401D01*
X54623018Y-123008426D01*
X54623015Y-123008408D01*
X54545538Y-122668958D01*
X54545534Y-122668946D01*
X54430538Y-122340308D01*
X54279469Y-122026610D01*
X54200475Y-121900891D01*
X54094223Y-121731793D01*
X53924760Y-121519292D01*
X52856251Y-122587801D01*
X52782412Y-122486170D01*
X52604330Y-122308088D01*
X52502697Y-122234247D01*
X53571206Y-121165738D01*
X53358706Y-120996276D01*
X53110384Y-120840245D01*
X53063889Y-120811030D01*
X52916637Y-120740117D01*
X58469500Y-120740117D01*
X58469500Y-120936882D01*
X58500278Y-121131205D01*
X58561081Y-121318335D01*
X58650405Y-121493645D01*
X58675819Y-121528625D01*
X58675820Y-121528625D01*
X59236537Y-120967908D01*
X59253575Y-121031493D01*
X59319401Y-121145507D01*
X59412493Y-121238599D01*
X59526507Y-121304425D01*
X59590090Y-121321462D01*
X59029373Y-121882177D01*
X59029373Y-121882178D01*
X59064358Y-121907596D01*
X59239664Y-121996918D01*
X59426794Y-122057721D01*
X59621118Y-122088500D01*
X59817882Y-122088500D01*
X60012205Y-122057721D01*
X60199335Y-121996918D01*
X60374643Y-121907595D01*
X60409625Y-121882178D01*
X60409626Y-121882178D01*
X59848910Y-121321462D01*
X59912493Y-121304425D01*
X60026507Y-121238599D01*
X60119599Y-121145507D01*
X60185425Y-121031493D01*
X60202462Y-120967909D01*
X60763178Y-121528626D01*
X60763178Y-121528625D01*
X60788595Y-121493643D01*
X60877918Y-121318335D01*
X60938721Y-121131205D01*
X60969500Y-120936882D01*
X60969500Y-120740117D01*
X60938721Y-120545794D01*
X60877918Y-120358664D01*
X60788596Y-120183358D01*
X60763178Y-120148373D01*
X60763177Y-120148373D01*
X60202462Y-120709089D01*
X60185425Y-120645507D01*
X60119599Y-120531493D01*
X60026507Y-120438401D01*
X59912493Y-120372575D01*
X59848909Y-120355537D01*
X60409625Y-119794820D01*
X60409625Y-119794819D01*
X60374645Y-119769405D01*
X60199335Y-119680081D01*
X60012205Y-119619278D01*
X59817882Y-119588500D01*
X59621118Y-119588500D01*
X59426794Y-119619278D01*
X59239661Y-119680082D01*
X59064363Y-119769399D01*
X59064359Y-119769402D01*
X59029373Y-119794820D01*
X59029372Y-119794820D01*
X59590090Y-120355537D01*
X59526507Y-120372575D01*
X59412493Y-120438401D01*
X59319401Y-120531493D01*
X59253575Y-120645507D01*
X59236537Y-120709090D01*
X58675820Y-120148372D01*
X58675820Y-120148373D01*
X58650402Y-120183359D01*
X58650399Y-120183363D01*
X58561082Y-120358661D01*
X58500278Y-120545794D01*
X58469500Y-120740117D01*
X52916637Y-120740117D01*
X52750191Y-120659961D01*
X52421553Y-120544965D01*
X52421541Y-120544961D01*
X52082091Y-120467484D01*
X52082073Y-120467481D01*
X51736098Y-120428500D01*
X51387901Y-120428500D01*
X51041926Y-120467481D01*
X51041908Y-120467484D01*
X50702458Y-120544961D01*
X50702446Y-120544965D01*
X50373808Y-120659961D01*
X50060110Y-120811030D01*
X49765293Y-120996276D01*
X49552792Y-121165738D01*
X50621301Y-122234247D01*
X50519670Y-122308088D01*
X50341588Y-122486170D01*
X50267747Y-122587801D01*
X49199238Y-121519292D01*
X49029776Y-121731793D01*
X48844530Y-122026610D01*
X48693461Y-122340308D01*
X48578465Y-122668946D01*
X48578461Y-122668958D01*
X48500984Y-123008408D01*
X48500981Y-123008426D01*
X48462000Y-123354401D01*
X47948000Y-123354401D01*
X47948000Y-112213871D01*
X55369500Y-112213871D01*
X55369500Y-113588500D01*
X55869500Y-113588500D01*
X55869500Y-114088500D01*
X55369500Y-114088500D01*
X55369500Y-115463128D01*
X55384003Y-115536040D01*
X55384005Y-115536044D01*
X55439260Y-115618739D01*
X55521955Y-115673994D01*
X55521959Y-115673996D01*
X55594871Y-115688499D01*
X55594874Y-115688500D01*
X56369500Y-115688500D01*
X56369500Y-115196740D01*
X56400733Y-115209678D01*
X56545631Y-115238500D01*
X56693369Y-115238500D01*
X56838267Y-115209678D01*
X56869500Y-115196740D01*
X56869500Y-115688500D01*
X57644126Y-115688500D01*
X57644128Y-115688499D01*
X57717040Y-115673996D01*
X57717044Y-115673994D01*
X57799739Y-115618739D01*
X57854994Y-115536044D01*
X57854996Y-115536040D01*
X57869499Y-115463128D01*
X57869500Y-115463126D01*
X57869500Y-114088500D01*
X57369500Y-114088500D01*
X57369500Y-113588500D01*
X57869500Y-113588500D01*
X57869500Y-112213873D01*
X57869499Y-112213871D01*
X57854996Y-112140959D01*
X57854994Y-112140955D01*
X57799739Y-112058260D01*
X57717044Y-112003005D01*
X57717040Y-112003003D01*
X57644127Y-111988500D01*
X56869500Y-111988500D01*
X56869500Y-112480259D01*
X56838267Y-112467322D01*
X56693369Y-112438500D01*
X56545631Y-112438500D01*
X56400733Y-112467322D01*
X56369500Y-112480259D01*
X56369500Y-111988500D01*
X55594873Y-111988500D01*
X55521959Y-112003003D01*
X55521955Y-112003005D01*
X55439260Y-112058260D01*
X55384005Y-112140955D01*
X55384003Y-112140959D01*
X55369500Y-112213871D01*
X47948000Y-112213871D01*
X47948000Y-102993983D01*
X58113500Y-102993983D01*
X58113500Y-103994001D01*
X58113501Y-103994019D01*
X58124000Y-104096796D01*
X58124001Y-104096799D01*
X58179185Y-104263331D01*
X58179186Y-104263334D01*
X58271288Y-104412656D01*
X58395344Y-104536712D01*
X58529597Y-104619519D01*
X58576321Y-104671465D01*
X58588500Y-104725057D01*
X58588500Y-105302095D01*
X58568815Y-105369134D01*
X58564818Y-105374981D01*
X58436157Y-105552066D01*
X58328933Y-105762503D01*
X58255946Y-105987131D01*
X58219000Y-106220402D01*
X58219000Y-106456597D01*
X58255946Y-106689868D01*
X58328933Y-106914496D01*
X58436157Y-107124933D01*
X58574983Y-107316010D01*
X58741990Y-107483017D01*
X58933067Y-107621843D01*
X59032491Y-107672502D01*
X59143503Y-107729066D01*
X59143505Y-107729066D01*
X59143508Y-107729068D01*
X59263912Y-107768189D01*
X59368131Y-107802053D01*
X59601403Y-107839000D01*
X59601408Y-107839000D01*
X59837597Y-107839000D01*
X60070868Y-107802053D01*
X60295492Y-107729068D01*
X60505933Y-107621843D01*
X60697010Y-107483017D01*
X60864017Y-107316010D01*
X61002843Y-107124933D01*
X61022608Y-107086141D01*
X61026980Y-107079704D01*
X61048191Y-107062246D01*
X61067050Y-107042278D01*
X61074777Y-107040364D01*
X61080927Y-107035303D01*
X61108212Y-107032084D01*
X61134871Y-107025482D01*
X61139291Y-107025750D01*
X61175820Y-107028625D01*
X61736537Y-106467908D01*
X61753575Y-106531493D01*
X61819401Y-106645507D01*
X61912493Y-106738599D01*
X62026507Y-106804425D01*
X62090090Y-106821462D01*
X61529373Y-107382177D01*
X61529373Y-107382178D01*
X61564358Y-107407596D01*
X61739664Y-107496918D01*
X61926794Y-107557721D01*
X62121118Y-107588500D01*
X62317882Y-107588500D01*
X62512205Y-107557721D01*
X62699335Y-107496918D01*
X62874643Y-107407595D01*
X62909625Y-107382178D01*
X62909626Y-107382178D01*
X62348910Y-106821462D01*
X62412493Y-106804425D01*
X62526507Y-106738599D01*
X62619599Y-106645507D01*
X62685425Y-106531493D01*
X62702462Y-106467909D01*
X63182681Y-106948128D01*
X63216166Y-107009451D01*
X63219000Y-107035809D01*
X63219000Y-107386369D01*
X63219001Y-107386376D01*
X63225408Y-107445983D01*
X63275702Y-107580828D01*
X63275706Y-107580835D01*
X63361952Y-107696044D01*
X63361955Y-107696047D01*
X63477164Y-107782293D01*
X63477171Y-107782297D01*
X63612017Y-107832591D01*
X63612016Y-107832591D01*
X63618944Y-107833335D01*
X63671627Y-107839000D01*
X65767372Y-107838999D01*
X65826983Y-107832591D01*
X65961831Y-107782296D01*
X66077046Y-107696046D01*
X66163296Y-107580831D01*
X66213591Y-107445983D01*
X66220000Y-107386373D01*
X66219999Y-105290628D01*
X66213591Y-105231017D01*
X66199778Y-105193983D01*
X66163297Y-105096171D01*
X66163293Y-105096164D01*
X66077047Y-104980955D01*
X66077044Y-104980952D01*
X65961834Y-104894705D01*
X65952161Y-104891097D01*
X65934437Y-104877827D01*
X65914297Y-104868630D01*
X65907012Y-104857295D01*
X65896229Y-104849222D01*
X65888492Y-104828477D01*
X65876523Y-104809852D01*
X65873370Y-104787929D01*
X65871815Y-104783757D01*
X65871500Y-104774917D01*
X65871500Y-104725057D01*
X65891185Y-104658018D01*
X65930401Y-104619520D01*
X66064656Y-104536712D01*
X66188712Y-104412656D01*
X66280814Y-104263334D01*
X66335999Y-104096797D01*
X66346500Y-103994009D01*
X66346499Y-102993992D01*
X66335999Y-102891203D01*
X66280814Y-102724666D01*
X66280810Y-102724660D01*
X66280809Y-102724657D01*
X66238098Y-102655412D01*
X66219657Y-102588020D01*
X66240579Y-102521356D01*
X66255950Y-102502639D01*
X82695771Y-86062819D01*
X82757094Y-86029334D01*
X82783452Y-86026500D01*
X83339546Y-86026500D01*
X83406585Y-86046185D01*
X83452340Y-86098989D01*
X83462284Y-86168147D01*
X83433259Y-86231703D01*
X83427227Y-86238181D01*
X68742469Y-100922937D01*
X68742429Y-100922980D01*
X68659639Y-101005770D01*
X68659638Y-101005772D01*
X68591192Y-101108205D01*
X68591184Y-101108219D01*
X68562791Y-101176771D01*
X68557847Y-101188707D01*
X68554241Y-101197413D01*
X68544037Y-101222045D01*
X68544035Y-101222053D01*
X68520000Y-101342889D01*
X68520000Y-111864500D01*
X68500315Y-111931539D01*
X68447511Y-111977294D01*
X68396000Y-111988500D01*
X68069500Y-111988500D01*
X68069500Y-112480259D01*
X68038267Y-112467322D01*
X67893369Y-112438500D01*
X67745631Y-112438500D01*
X67600733Y-112467322D01*
X67569500Y-112480259D01*
X67569500Y-111988500D01*
X66794873Y-111988500D01*
X66721959Y-112003003D01*
X66721955Y-112003005D01*
X66639260Y-112058260D01*
X66584005Y-112140955D01*
X66584003Y-112140959D01*
X66569500Y-112213871D01*
X66569500Y-113588500D01*
X67069500Y-113588500D01*
X67069500Y-114088500D01*
X66569500Y-114088500D01*
X66569500Y-115463128D01*
X66584003Y-115536040D01*
X66584005Y-115536044D01*
X66639260Y-115618739D01*
X66721955Y-115673994D01*
X66721959Y-115673996D01*
X66794871Y-115688499D01*
X66794874Y-115688500D01*
X67569500Y-115688500D01*
X67569500Y-115196740D01*
X67600733Y-115209678D01*
X67745631Y-115238500D01*
X67893369Y-115238500D01*
X68038267Y-115209678D01*
X68069500Y-115196740D01*
X68069500Y-115688500D01*
X68396000Y-115688500D01*
X68463039Y-115708185D01*
X68508794Y-115760989D01*
X68520000Y-115812500D01*
X68520000Y-116102047D01*
X68500315Y-116169086D01*
X68483681Y-116189728D01*
X65296379Y-119377029D01*
X65235056Y-119410514D01*
X65170381Y-119407279D01*
X65070871Y-119374947D01*
X64837597Y-119338000D01*
X64837592Y-119338000D01*
X64601408Y-119338000D01*
X64601403Y-119338000D01*
X64368131Y-119374946D01*
X64143503Y-119447933D01*
X63933066Y-119555157D01*
X63887174Y-119588500D01*
X63741990Y-119693983D01*
X63741988Y-119693985D01*
X63741987Y-119693985D01*
X63574985Y-119860987D01*
X63574985Y-119860988D01*
X63574983Y-119860990D01*
X63539295Y-119910110D01*
X63436157Y-120052066D01*
X63328933Y-120262503D01*
X63255946Y-120487131D01*
X63219000Y-120720402D01*
X63219000Y-120956597D01*
X63255946Y-121189868D01*
X63328933Y-121414496D01*
X63436157Y-121624933D01*
X63574983Y-121816010D01*
X63741990Y-121983017D01*
X63933067Y-122121843D01*
X64008066Y-122160057D01*
X64143503Y-122229066D01*
X64143505Y-122229066D01*
X64143508Y-122229068D01*
X64263912Y-122268189D01*
X64368131Y-122302053D01*
X64601403Y-122339000D01*
X64601408Y-122339000D01*
X64837597Y-122339000D01*
X65070868Y-122302053D01*
X65295492Y-122229068D01*
X65505933Y-122121843D01*
X65697010Y-121983017D01*
X65864017Y-121816010D01*
X66002843Y-121624933D01*
X66110068Y-121414492D01*
X66183053Y-121189868D01*
X66203868Y-121058446D01*
X66220000Y-120956597D01*
X66220000Y-120740117D01*
X75487500Y-120740117D01*
X75487500Y-120936882D01*
X75518278Y-121131205D01*
X75579081Y-121318335D01*
X75668405Y-121493645D01*
X75693819Y-121528625D01*
X75693820Y-121528625D01*
X76254537Y-120967908D01*
X76271575Y-121031493D01*
X76337401Y-121145507D01*
X76430493Y-121238599D01*
X76544507Y-121304425D01*
X76608090Y-121321462D01*
X76047373Y-121882177D01*
X76047373Y-121882178D01*
X76082358Y-121907596D01*
X76257664Y-121996918D01*
X76444794Y-122057721D01*
X76639118Y-122088500D01*
X76835882Y-122088500D01*
X77030205Y-122057721D01*
X77217335Y-121996918D01*
X77392643Y-121907595D01*
X77427625Y-121882178D01*
X77427626Y-121882178D01*
X76866910Y-121321462D01*
X76930493Y-121304425D01*
X77044507Y-121238599D01*
X77137599Y-121145507D01*
X77203425Y-121031493D01*
X77220462Y-120967910D01*
X77781178Y-121528626D01*
X77781178Y-121528625D01*
X77806595Y-121493643D01*
X77895918Y-121318335D01*
X77956721Y-121131205D01*
X77987500Y-120936882D01*
X77987500Y-120740117D01*
X77956721Y-120545794D01*
X77895918Y-120358664D01*
X77806596Y-120183358D01*
X77781178Y-120148373D01*
X77781177Y-120148373D01*
X77220462Y-120709089D01*
X77203425Y-120645507D01*
X77137599Y-120531493D01*
X77044507Y-120438401D01*
X76930493Y-120372575D01*
X76866909Y-120355537D01*
X77427625Y-119794820D01*
X77427625Y-119794819D01*
X77392645Y-119769405D01*
X77217335Y-119680081D01*
X77030205Y-119619278D01*
X76835882Y-119588500D01*
X76639118Y-119588500D01*
X76444794Y-119619278D01*
X76257661Y-119680082D01*
X76082363Y-119769399D01*
X76082359Y-119769402D01*
X76047373Y-119794820D01*
X76047372Y-119794820D01*
X76608090Y-120355537D01*
X76544507Y-120372575D01*
X76430493Y-120438401D01*
X76337401Y-120531493D01*
X76271575Y-120645507D01*
X76254537Y-120709090D01*
X75693820Y-120148372D01*
X75693820Y-120148373D01*
X75668402Y-120183359D01*
X75668399Y-120183363D01*
X75579082Y-120358661D01*
X75518278Y-120545794D01*
X75487500Y-120740117D01*
X66220000Y-120740117D01*
X66220000Y-120720402D01*
X66183053Y-120487131D01*
X66164002Y-120428500D01*
X66150718Y-120387618D01*
X66148724Y-120317778D01*
X66180967Y-120261621D01*
X69544229Y-116898360D01*
X69544233Y-116898358D01*
X69631358Y-116811233D01*
X69699811Y-116708786D01*
X69746963Y-116594952D01*
X69771000Y-116474106D01*
X69771000Y-112213871D01*
X72387500Y-112213871D01*
X72387500Y-113588500D01*
X72887500Y-113588500D01*
X72887500Y-114088500D01*
X72387500Y-114088500D01*
X72387500Y-115463128D01*
X72402003Y-115536040D01*
X72402005Y-115536044D01*
X72457260Y-115618739D01*
X72539955Y-115673994D01*
X72539959Y-115673996D01*
X72612871Y-115688499D01*
X72612874Y-115688500D01*
X73387500Y-115688500D01*
X73387500Y-115196740D01*
X73418733Y-115209678D01*
X73563631Y-115238500D01*
X73711369Y-115238500D01*
X73856267Y-115209678D01*
X73887500Y-115196740D01*
X73887500Y-115688500D01*
X74662126Y-115688500D01*
X74662128Y-115688499D01*
X74735040Y-115673996D01*
X74735044Y-115673994D01*
X74817739Y-115618739D01*
X74872994Y-115536044D01*
X74872996Y-115536040D01*
X74887499Y-115463128D01*
X74887500Y-115463126D01*
X74887500Y-114088500D01*
X74387500Y-114088500D01*
X74387500Y-113588500D01*
X74887500Y-113588500D01*
X74887500Y-112213873D01*
X74887499Y-112213871D01*
X74872996Y-112140959D01*
X74872994Y-112140955D01*
X74817739Y-112058260D01*
X74735044Y-112003005D01*
X74735040Y-112003003D01*
X74662127Y-111988500D01*
X73887500Y-111988500D01*
X73887500Y-112480259D01*
X73856267Y-112467322D01*
X73711369Y-112438500D01*
X73563631Y-112438500D01*
X73418733Y-112467322D01*
X73387500Y-112480259D01*
X73387500Y-111988500D01*
X72612873Y-111988500D01*
X72539959Y-112003003D01*
X72539955Y-112003005D01*
X72457260Y-112058260D01*
X72402005Y-112140955D01*
X72402003Y-112140959D01*
X72387500Y-112213871D01*
X69771000Y-112213871D01*
X69771000Y-101714952D01*
X69790685Y-101647913D01*
X69807319Y-101627271D01*
X84195772Y-87238819D01*
X84257095Y-87205334D01*
X84283453Y-87202500D01*
X91393433Y-87202500D01*
X91398342Y-87203941D01*
X91403353Y-87202897D01*
X91431533Y-87213687D01*
X91460472Y-87222185D01*
X91463822Y-87226051D01*
X91468603Y-87227882D01*
X91486477Y-87252197D01*
X91506227Y-87274989D01*
X91506955Y-87280052D01*
X91509987Y-87284177D01*
X91511878Y-87314290D01*
X91516171Y-87344147D01*
X91514045Y-87348801D01*
X91514366Y-87353909D01*
X91499680Y-87380256D01*
X91487146Y-87407703D01*
X91482164Y-87411681D01*
X91480349Y-87414939D01*
X91467131Y-87423688D01*
X91451912Y-87435844D01*
X91446525Y-87438724D01*
X91429715Y-87445688D01*
X91429714Y-87445689D01*
X91414517Y-87455842D01*
X91414510Y-87455847D01*
X91327268Y-87514140D01*
X91283705Y-87557703D01*
X91240142Y-87601267D01*
X91240139Y-87601270D01*
X76584227Y-102257181D01*
X76522904Y-102290666D01*
X76496546Y-102293500D01*
X75831998Y-102293500D01*
X75831980Y-102293501D01*
X75729203Y-102304000D01*
X75729200Y-102304001D01*
X75562668Y-102359185D01*
X75562663Y-102359187D01*
X75413342Y-102451289D01*
X75289289Y-102575342D01*
X75197187Y-102724663D01*
X75197186Y-102724666D01*
X75142001Y-102891203D01*
X75142001Y-102891204D01*
X75142000Y-102891204D01*
X75131500Y-102993983D01*
X75131500Y-103994001D01*
X75131501Y-103994019D01*
X75142000Y-104096796D01*
X75142001Y-104096799D01*
X75197185Y-104263331D01*
X75197186Y-104263334D01*
X75289288Y-104412656D01*
X75413344Y-104536712D01*
X75547597Y-104619519D01*
X75594321Y-104671465D01*
X75606500Y-104725057D01*
X75606500Y-105302095D01*
X75586815Y-105369134D01*
X75582818Y-105374981D01*
X75454157Y-105552066D01*
X75346933Y-105762503D01*
X75273946Y-105987131D01*
X75237000Y-106220402D01*
X75237000Y-106456597D01*
X75273946Y-106689868D01*
X75346933Y-106914496D01*
X75454157Y-107124933D01*
X75592983Y-107316010D01*
X75759990Y-107483017D01*
X75951067Y-107621843D01*
X76050491Y-107672502D01*
X76161503Y-107729066D01*
X76161505Y-107729066D01*
X76161508Y-107729068D01*
X76281912Y-107768189D01*
X76386131Y-107802053D01*
X76619403Y-107839000D01*
X76619408Y-107839000D01*
X76855597Y-107839000D01*
X77088868Y-107802053D01*
X77313492Y-107729068D01*
X77523933Y-107621843D01*
X77715010Y-107483017D01*
X77882017Y-107316010D01*
X78020843Y-107124933D01*
X78040608Y-107086141D01*
X78044980Y-107079704D01*
X78066191Y-107062246D01*
X78085050Y-107042278D01*
X78092777Y-107040364D01*
X78098927Y-107035303D01*
X78126212Y-107032084D01*
X78152871Y-107025482D01*
X78157291Y-107025750D01*
X78193820Y-107028625D01*
X78754537Y-106467908D01*
X78771575Y-106531493D01*
X78837401Y-106645507D01*
X78930493Y-106738599D01*
X79044507Y-106804425D01*
X79108090Y-106821462D01*
X78547373Y-107382177D01*
X78547373Y-107382178D01*
X78582358Y-107407596D01*
X78757664Y-107496918D01*
X78944794Y-107557721D01*
X79139118Y-107588500D01*
X79335882Y-107588500D01*
X79530205Y-107557721D01*
X79717335Y-107496918D01*
X79892643Y-107407595D01*
X79927625Y-107382178D01*
X79927626Y-107382178D01*
X79366910Y-106821462D01*
X79430493Y-106804425D01*
X79544507Y-106738599D01*
X79637599Y-106645507D01*
X79703425Y-106531493D01*
X79720462Y-106467909D01*
X80200681Y-106948128D01*
X80234166Y-107009451D01*
X80237000Y-107035809D01*
X80237000Y-107386369D01*
X80237001Y-107386376D01*
X80243408Y-107445983D01*
X80293702Y-107580828D01*
X80293706Y-107580835D01*
X80379952Y-107696044D01*
X80379955Y-107696047D01*
X80495164Y-107782293D01*
X80495171Y-107782297D01*
X80630017Y-107832591D01*
X80630016Y-107832591D01*
X80636944Y-107833335D01*
X80689627Y-107839000D01*
X82785372Y-107838999D01*
X82844983Y-107832591D01*
X82979831Y-107782296D01*
X83095046Y-107696046D01*
X83181296Y-107580831D01*
X83231591Y-107445983D01*
X83238000Y-107386373D01*
X83237999Y-105290628D01*
X83231591Y-105231017D01*
X83217778Y-105193983D01*
X83181297Y-105096171D01*
X83181293Y-105096164D01*
X83095047Y-104980955D01*
X83095044Y-104980952D01*
X82979834Y-104894705D01*
X82970161Y-104891097D01*
X82952437Y-104877827D01*
X82932297Y-104868630D01*
X82925012Y-104857295D01*
X82914229Y-104849222D01*
X82906492Y-104828477D01*
X82894523Y-104809852D01*
X82891370Y-104787929D01*
X82889815Y-104783757D01*
X82889500Y-104774917D01*
X82889500Y-104725057D01*
X82909185Y-104658018D01*
X82948401Y-104619520D01*
X83082656Y-104536712D01*
X83206712Y-104412656D01*
X83298814Y-104263334D01*
X83353999Y-104096797D01*
X83364500Y-103994009D01*
X83364499Y-102993992D01*
X83353999Y-102891203D01*
X83298814Y-102724666D01*
X83298810Y-102724660D01*
X83298809Y-102724657D01*
X83256098Y-102655412D01*
X83237657Y-102588020D01*
X83258579Y-102521356D01*
X83273950Y-102502639D01*
X96098771Y-89677819D01*
X96160094Y-89644334D01*
X96186452Y-89641500D01*
X99790547Y-89641500D01*
X99857586Y-89661185D01*
X99903341Y-89713989D01*
X99913285Y-89783147D01*
X99884260Y-89846703D01*
X99878228Y-89853181D01*
X86467284Y-103264122D01*
X86467257Y-103264151D01*
X86382142Y-103349267D01*
X86361941Y-103379500D01*
X86313688Y-103451714D01*
X86313686Y-103451717D01*
X86313685Y-103451719D01*
X86266540Y-103565538D01*
X86266535Y-103565554D01*
X86244477Y-103676452D01*
X86242500Y-103686394D01*
X86242500Y-103686397D01*
X86242500Y-111985864D01*
X86222815Y-112052903D01*
X86170011Y-112098658D01*
X86100853Y-112108602D01*
X86037297Y-112079577D01*
X86024107Y-112064627D01*
X86017740Y-112058260D01*
X85935044Y-112003005D01*
X85935040Y-112003003D01*
X85862127Y-111988500D01*
X85087500Y-111988500D01*
X85087500Y-112480259D01*
X85056267Y-112467322D01*
X84911369Y-112438500D01*
X84763631Y-112438500D01*
X84618733Y-112467322D01*
X84587500Y-112480259D01*
X84587500Y-111988500D01*
X83812873Y-111988500D01*
X83739959Y-112003003D01*
X83739955Y-112003005D01*
X83657260Y-112058260D01*
X83602005Y-112140955D01*
X83602003Y-112140959D01*
X83587500Y-112213871D01*
X83587500Y-113588500D01*
X84087500Y-113588500D01*
X84087500Y-114088500D01*
X83587500Y-114088500D01*
X83587500Y-115463128D01*
X83602003Y-115536040D01*
X83602005Y-115536044D01*
X83657260Y-115618739D01*
X83739955Y-115673994D01*
X83739959Y-115673996D01*
X83812871Y-115688499D01*
X83812874Y-115688500D01*
X84587500Y-115688500D01*
X84587500Y-115196740D01*
X84618733Y-115209678D01*
X84763631Y-115238500D01*
X84911369Y-115238500D01*
X85056267Y-115209678D01*
X85087500Y-115196740D01*
X85087500Y-115688500D01*
X85703547Y-115688500D01*
X85770586Y-115708185D01*
X85816341Y-115760989D01*
X85826285Y-115830147D01*
X85797260Y-115893703D01*
X85791228Y-115900181D01*
X82314378Y-119377029D01*
X82253055Y-119410514D01*
X82188380Y-119407279D01*
X82088870Y-119374947D01*
X82088871Y-119374947D01*
X81855597Y-119338000D01*
X81855592Y-119338000D01*
X81619408Y-119338000D01*
X81619403Y-119338000D01*
X81386131Y-119374946D01*
X81161503Y-119447933D01*
X80951066Y-119555157D01*
X80905174Y-119588500D01*
X80759990Y-119693983D01*
X80759988Y-119693985D01*
X80759987Y-119693985D01*
X80592985Y-119860987D01*
X80592985Y-119860988D01*
X80592983Y-119860990D01*
X80557295Y-119910110D01*
X80454157Y-120052066D01*
X80346933Y-120262503D01*
X80273946Y-120487131D01*
X80237000Y-120720402D01*
X80237000Y-120956597D01*
X80273946Y-121189868D01*
X80346933Y-121414496D01*
X80454157Y-121624933D01*
X80592983Y-121816010D01*
X80759990Y-121983017D01*
X80951067Y-122121843D01*
X81026066Y-122160057D01*
X81161503Y-122229066D01*
X81161505Y-122229066D01*
X81161508Y-122229068D01*
X81281912Y-122268189D01*
X81386131Y-122302053D01*
X81619403Y-122339000D01*
X81619408Y-122339000D01*
X81855597Y-122339000D01*
X82088868Y-122302053D01*
X82313492Y-122229068D01*
X82523933Y-122121843D01*
X82715010Y-121983017D01*
X82882017Y-121816010D01*
X83020843Y-121624933D01*
X83128068Y-121414492D01*
X83201053Y-121189868D01*
X83221868Y-121058446D01*
X83238000Y-120956597D01*
X83238000Y-120740117D01*
X92505500Y-120740117D01*
X92505500Y-120936882D01*
X92536278Y-121131205D01*
X92597081Y-121318335D01*
X92686405Y-121493645D01*
X92711819Y-121528625D01*
X92711820Y-121528625D01*
X93272537Y-120967908D01*
X93289575Y-121031493D01*
X93355401Y-121145507D01*
X93448493Y-121238599D01*
X93562507Y-121304425D01*
X93626090Y-121321462D01*
X93065373Y-121882177D01*
X93065373Y-121882178D01*
X93100358Y-121907596D01*
X93275664Y-121996918D01*
X93462794Y-122057721D01*
X93657118Y-122088500D01*
X93853882Y-122088500D01*
X94048205Y-122057721D01*
X94235335Y-121996918D01*
X94410643Y-121907595D01*
X94445625Y-121882178D01*
X94445626Y-121882178D01*
X93884910Y-121321462D01*
X93948493Y-121304425D01*
X94062507Y-121238599D01*
X94155599Y-121145507D01*
X94221425Y-121031493D01*
X94238462Y-120967910D01*
X94799178Y-121528626D01*
X94799178Y-121528625D01*
X94824595Y-121493643D01*
X94913918Y-121318335D01*
X94974721Y-121131205D01*
X95005500Y-120936882D01*
X95005500Y-120740117D01*
X94974721Y-120545794D01*
X94913918Y-120358664D01*
X94824596Y-120183358D01*
X94799178Y-120148373D01*
X94799177Y-120148373D01*
X94238462Y-120709089D01*
X94221425Y-120645507D01*
X94155599Y-120531493D01*
X94062507Y-120438401D01*
X93948493Y-120372575D01*
X93884909Y-120355537D01*
X94445625Y-119794820D01*
X94445625Y-119794819D01*
X94410645Y-119769405D01*
X94235335Y-119680081D01*
X94048205Y-119619278D01*
X93853882Y-119588500D01*
X93657118Y-119588500D01*
X93462794Y-119619278D01*
X93275661Y-119680082D01*
X93100363Y-119769399D01*
X93100359Y-119769402D01*
X93065373Y-119794820D01*
X93065372Y-119794820D01*
X93626090Y-120355537D01*
X93562507Y-120372575D01*
X93448493Y-120438401D01*
X93355401Y-120531493D01*
X93289575Y-120645507D01*
X93272537Y-120709090D01*
X92711820Y-120148372D01*
X92711820Y-120148373D01*
X92686402Y-120183359D01*
X92686399Y-120183363D01*
X92597082Y-120358661D01*
X92536278Y-120545794D01*
X92505500Y-120740117D01*
X83238000Y-120740117D01*
X83238000Y-120720402D01*
X83201053Y-120487131D01*
X83168719Y-120387620D01*
X83166724Y-120317779D01*
X83198967Y-120261622D01*
X87353858Y-116106733D01*
X87422312Y-116004285D01*
X87469463Y-115890451D01*
X87493501Y-115769606D01*
X87493501Y-115646393D01*
X87493501Y-115641283D01*
X87493500Y-115641257D01*
X87493500Y-112213871D01*
X89405500Y-112213871D01*
X89405500Y-113588500D01*
X89905500Y-113588500D01*
X89905500Y-114088500D01*
X89405500Y-114088500D01*
X89405500Y-115463128D01*
X89420003Y-115536040D01*
X89420005Y-115536044D01*
X89475260Y-115618739D01*
X89557955Y-115673994D01*
X89557959Y-115673996D01*
X89630871Y-115688499D01*
X89630874Y-115688500D01*
X90405500Y-115688500D01*
X90405500Y-115196740D01*
X90436733Y-115209678D01*
X90581631Y-115238500D01*
X90729369Y-115238500D01*
X90874267Y-115209678D01*
X90905500Y-115196740D01*
X90905500Y-115688500D01*
X91680126Y-115688500D01*
X91680128Y-115688499D01*
X91753040Y-115673996D01*
X91753044Y-115673994D01*
X91835739Y-115618739D01*
X91890994Y-115536044D01*
X91890996Y-115536040D01*
X91905499Y-115463128D01*
X91905500Y-115463126D01*
X91905500Y-114088500D01*
X91405500Y-114088500D01*
X91405500Y-113588500D01*
X91905500Y-113588500D01*
X91905500Y-112213873D01*
X91905499Y-112213871D01*
X91890996Y-112140959D01*
X91890994Y-112140955D01*
X91835739Y-112058260D01*
X91753044Y-112003005D01*
X91753040Y-112003003D01*
X91680127Y-111988500D01*
X90905500Y-111988500D01*
X90905500Y-112480259D01*
X90874267Y-112467322D01*
X90729369Y-112438500D01*
X90581631Y-112438500D01*
X90436733Y-112467322D01*
X90405500Y-112480259D01*
X90405500Y-111988500D01*
X89630873Y-111988500D01*
X89557959Y-112003003D01*
X89557955Y-112003005D01*
X89475260Y-112058260D01*
X89420005Y-112140955D01*
X89420003Y-112140959D01*
X89405500Y-112213871D01*
X87493500Y-112213871D01*
X87493500Y-104058452D01*
X87513185Y-103991413D01*
X87529819Y-103970771D01*
X101196772Y-90303819D01*
X101258095Y-90270334D01*
X101284453Y-90267500D01*
X106518562Y-90267500D01*
X106585601Y-90287185D01*
X106631356Y-90339989D01*
X106641300Y-90409147D01*
X106612275Y-90472703D01*
X106553497Y-90510477D01*
X106542753Y-90513117D01*
X106446510Y-90532261D01*
X106446498Y-90532264D01*
X106300827Y-90592602D01*
X106300815Y-90592609D01*
X106206541Y-90655602D01*
X106139864Y-90676480D01*
X106137650Y-90676500D01*
X105380389Y-90676500D01*
X105329535Y-90686615D01*
X105329530Y-90686616D01*
X105319971Y-90688518D01*
X105259548Y-90700537D01*
X105212397Y-90720067D01*
X105145715Y-90747688D01*
X105145714Y-90747689D01*
X105123347Y-90762633D01*
X105123344Y-90762635D01*
X105043268Y-90816140D01*
X105007909Y-90851500D01*
X104956142Y-90903267D01*
X104956139Y-90903270D01*
X93602227Y-102257181D01*
X93540904Y-102290666D01*
X93514546Y-102293500D01*
X92849998Y-102293500D01*
X92849980Y-102293501D01*
X92747203Y-102304000D01*
X92747200Y-102304001D01*
X92580668Y-102359185D01*
X92580663Y-102359187D01*
X92431342Y-102451289D01*
X92307289Y-102575342D01*
X92215187Y-102724663D01*
X92215186Y-102724666D01*
X92160001Y-102891203D01*
X92160001Y-102891204D01*
X92160000Y-102891204D01*
X92149500Y-102993983D01*
X92149500Y-103994001D01*
X92149501Y-103994019D01*
X92160000Y-104096796D01*
X92160001Y-104096799D01*
X92215185Y-104263331D01*
X92215186Y-104263334D01*
X92307288Y-104412656D01*
X92431344Y-104536712D01*
X92565597Y-104619519D01*
X92612321Y-104671465D01*
X92624500Y-104725057D01*
X92624500Y-105302095D01*
X92604815Y-105369134D01*
X92600818Y-105374981D01*
X92472157Y-105552066D01*
X92364933Y-105762503D01*
X92291946Y-105987131D01*
X92255000Y-106220402D01*
X92255000Y-106456597D01*
X92291946Y-106689868D01*
X92364933Y-106914496D01*
X92472157Y-107124933D01*
X92610983Y-107316010D01*
X92777990Y-107483017D01*
X92969067Y-107621843D01*
X93068491Y-107672502D01*
X93179503Y-107729066D01*
X93179505Y-107729066D01*
X93179508Y-107729068D01*
X93299912Y-107768189D01*
X93404131Y-107802053D01*
X93637403Y-107839000D01*
X93637408Y-107839000D01*
X93873597Y-107839000D01*
X94106868Y-107802053D01*
X94331492Y-107729068D01*
X94541933Y-107621843D01*
X94733010Y-107483017D01*
X94900017Y-107316010D01*
X95038843Y-107124933D01*
X95058608Y-107086141D01*
X95062980Y-107079704D01*
X95084191Y-107062246D01*
X95103050Y-107042278D01*
X95110777Y-107040364D01*
X95116927Y-107035303D01*
X95144212Y-107032084D01*
X95170871Y-107025482D01*
X95175291Y-107025750D01*
X95211820Y-107028625D01*
X95772537Y-106467908D01*
X95789575Y-106531493D01*
X95855401Y-106645507D01*
X95948493Y-106738599D01*
X96062507Y-106804425D01*
X96126090Y-106821462D01*
X95565373Y-107382177D01*
X95565373Y-107382178D01*
X95600358Y-107407596D01*
X95775664Y-107496918D01*
X95962794Y-107557721D01*
X96157118Y-107588500D01*
X96353882Y-107588500D01*
X96548205Y-107557721D01*
X96735335Y-107496918D01*
X96910643Y-107407595D01*
X96945625Y-107382178D01*
X96945626Y-107382178D01*
X96384910Y-106821462D01*
X96448493Y-106804425D01*
X96562507Y-106738599D01*
X96655599Y-106645507D01*
X96721425Y-106531493D01*
X96738462Y-106467909D01*
X97218681Y-106948128D01*
X97252166Y-107009451D01*
X97255000Y-107035809D01*
X97255000Y-107386369D01*
X97255001Y-107386376D01*
X97261408Y-107445983D01*
X97311702Y-107580828D01*
X97311706Y-107580835D01*
X97397952Y-107696044D01*
X97397955Y-107696047D01*
X97513164Y-107782293D01*
X97513171Y-107782297D01*
X97648017Y-107832591D01*
X97648016Y-107832591D01*
X97654944Y-107833335D01*
X97707627Y-107839000D01*
X99803372Y-107838999D01*
X99862983Y-107832591D01*
X99997831Y-107782296D01*
X100113046Y-107696046D01*
X100199296Y-107580831D01*
X100249591Y-107445983D01*
X100256000Y-107386373D01*
X100255999Y-105290628D01*
X100249591Y-105231017D01*
X100235778Y-105193983D01*
X100199297Y-105096171D01*
X100199293Y-105096164D01*
X100113047Y-104980955D01*
X100113044Y-104980952D01*
X99997834Y-104894705D01*
X99988161Y-104891097D01*
X99970437Y-104877827D01*
X99950297Y-104868630D01*
X99943012Y-104857295D01*
X99932229Y-104849222D01*
X99924492Y-104828477D01*
X99912523Y-104809852D01*
X99909370Y-104787929D01*
X99907815Y-104783757D01*
X99907500Y-104774917D01*
X99907500Y-104725057D01*
X99927185Y-104658018D01*
X99966401Y-104619520D01*
X100100656Y-104536712D01*
X100224712Y-104412656D01*
X100316814Y-104263334D01*
X100371999Y-104096797D01*
X100382500Y-103994009D01*
X100382499Y-102993992D01*
X100371999Y-102891203D01*
X100316814Y-102724666D01*
X100316813Y-102724664D01*
X100314542Y-102717811D01*
X100316634Y-102717117D01*
X100307747Y-102658676D01*
X100336255Y-102594887D01*
X100342930Y-102587658D01*
X102344320Y-100586268D01*
X102405642Y-100552785D01*
X102475334Y-100557769D01*
X102531267Y-100599641D01*
X102555684Y-100665105D01*
X102556000Y-100673951D01*
X102556000Y-111864500D01*
X102536315Y-111931539D01*
X102483511Y-111977294D01*
X102432000Y-111988500D01*
X102105500Y-111988500D01*
X102105500Y-112480259D01*
X102074267Y-112467322D01*
X101929369Y-112438500D01*
X101781631Y-112438500D01*
X101636733Y-112467322D01*
X101605500Y-112480259D01*
X101605500Y-111988500D01*
X100830873Y-111988500D01*
X100757959Y-112003003D01*
X100757955Y-112003005D01*
X100675260Y-112058260D01*
X100620005Y-112140955D01*
X100620003Y-112140959D01*
X100605500Y-112213871D01*
X100605500Y-113588500D01*
X101105500Y-113588500D01*
X101105500Y-114088500D01*
X100605500Y-114088500D01*
X100605500Y-115463128D01*
X100620003Y-115536040D01*
X100620005Y-115536044D01*
X100675260Y-115618739D01*
X100757955Y-115673994D01*
X100757959Y-115673996D01*
X100830871Y-115688499D01*
X100830874Y-115688500D01*
X101605500Y-115688500D01*
X101605500Y-115196740D01*
X101636733Y-115209678D01*
X101781631Y-115238500D01*
X101929369Y-115238500D01*
X102074267Y-115209678D01*
X102105500Y-115196740D01*
X102105500Y-115688500D01*
X102432000Y-115688500D01*
X102499039Y-115708185D01*
X102544794Y-115760989D01*
X102556000Y-115812500D01*
X102556000Y-116102047D01*
X102536315Y-116169086D01*
X102519681Y-116189728D01*
X99332379Y-119377029D01*
X99271056Y-119410514D01*
X99206381Y-119407279D01*
X99106871Y-119374947D01*
X98873597Y-119338000D01*
X98873592Y-119338000D01*
X98637408Y-119338000D01*
X98637403Y-119338000D01*
X98404131Y-119374946D01*
X98179503Y-119447933D01*
X97969066Y-119555157D01*
X97923174Y-119588500D01*
X97777990Y-119693983D01*
X97777988Y-119693985D01*
X97777987Y-119693985D01*
X97610985Y-119860987D01*
X97610985Y-119860988D01*
X97610983Y-119860990D01*
X97575295Y-119910110D01*
X97472157Y-120052066D01*
X97364933Y-120262503D01*
X97291946Y-120487131D01*
X97255000Y-120720402D01*
X97255000Y-120956597D01*
X97291946Y-121189868D01*
X97364933Y-121414496D01*
X97472157Y-121624933D01*
X97610983Y-121816010D01*
X97777990Y-121983017D01*
X97969067Y-122121843D01*
X98044066Y-122160057D01*
X98179503Y-122229066D01*
X98179505Y-122229066D01*
X98179508Y-122229068D01*
X98299912Y-122268189D01*
X98404131Y-122302053D01*
X98637403Y-122339000D01*
X98637408Y-122339000D01*
X98873597Y-122339000D01*
X99106868Y-122302053D01*
X99331492Y-122229068D01*
X99541933Y-122121843D01*
X99733010Y-121983017D01*
X99900017Y-121816010D01*
X100038843Y-121624933D01*
X100146068Y-121414492D01*
X100219053Y-121189868D01*
X100239868Y-121058446D01*
X100256000Y-120956597D01*
X100256000Y-120740117D01*
X109523500Y-120740117D01*
X109523500Y-120936882D01*
X109554278Y-121131205D01*
X109615081Y-121318335D01*
X109704405Y-121493645D01*
X109729819Y-121528625D01*
X109729820Y-121528625D01*
X110290537Y-120967908D01*
X110307575Y-121031493D01*
X110373401Y-121145507D01*
X110466493Y-121238599D01*
X110580507Y-121304425D01*
X110644090Y-121321462D01*
X110083373Y-121882177D01*
X110083373Y-121882178D01*
X110118358Y-121907596D01*
X110293664Y-121996918D01*
X110480794Y-122057721D01*
X110675118Y-122088500D01*
X110871882Y-122088500D01*
X111066205Y-122057721D01*
X111253335Y-121996918D01*
X111428643Y-121907595D01*
X111463625Y-121882178D01*
X111463626Y-121882178D01*
X110902910Y-121321462D01*
X110966493Y-121304425D01*
X111080507Y-121238599D01*
X111173599Y-121145507D01*
X111239425Y-121031493D01*
X111256462Y-120967910D01*
X111817178Y-121528626D01*
X111817178Y-121528625D01*
X111842595Y-121493643D01*
X111931918Y-121318335D01*
X111992721Y-121131205D01*
X112023500Y-120936882D01*
X112023500Y-120740117D01*
X111992721Y-120545794D01*
X111931918Y-120358664D01*
X111842596Y-120183358D01*
X111817178Y-120148373D01*
X111817177Y-120148373D01*
X111256462Y-120709089D01*
X111239425Y-120645507D01*
X111173599Y-120531493D01*
X111080507Y-120438401D01*
X110966493Y-120372575D01*
X110902909Y-120355537D01*
X111463625Y-119794820D01*
X111463625Y-119794819D01*
X111428645Y-119769405D01*
X111253335Y-119680081D01*
X111066205Y-119619278D01*
X110871882Y-119588500D01*
X110675118Y-119588500D01*
X110480794Y-119619278D01*
X110293661Y-119680082D01*
X110118363Y-119769399D01*
X110118359Y-119769402D01*
X110083373Y-119794820D01*
X110083372Y-119794820D01*
X110644090Y-120355537D01*
X110580507Y-120372575D01*
X110466493Y-120438401D01*
X110373401Y-120531493D01*
X110307575Y-120645507D01*
X110290537Y-120709090D01*
X109729820Y-120148372D01*
X109729820Y-120148373D01*
X109704402Y-120183359D01*
X109704399Y-120183363D01*
X109615082Y-120358661D01*
X109554278Y-120545794D01*
X109523500Y-120740117D01*
X100256000Y-120740117D01*
X100256000Y-120720402D01*
X100219053Y-120487131D01*
X100200002Y-120428500D01*
X100186718Y-120387618D01*
X100184724Y-120317778D01*
X100216967Y-120261621D01*
X103580229Y-116898360D01*
X103580233Y-116898358D01*
X103667358Y-116811233D01*
X103735811Y-116708786D01*
X103782963Y-116594952D01*
X103807000Y-116474106D01*
X103807000Y-112213871D01*
X106423500Y-112213871D01*
X106423500Y-113588500D01*
X106923500Y-113588500D01*
X106923500Y-114088500D01*
X106423500Y-114088500D01*
X106423500Y-115463128D01*
X106438003Y-115536040D01*
X106438005Y-115536044D01*
X106493260Y-115618739D01*
X106575955Y-115673994D01*
X106575959Y-115673996D01*
X106648871Y-115688499D01*
X106648874Y-115688500D01*
X107423500Y-115688500D01*
X107423500Y-115196740D01*
X107454733Y-115209678D01*
X107599631Y-115238500D01*
X107747369Y-115238500D01*
X107892267Y-115209678D01*
X107923500Y-115196740D01*
X107923500Y-115688500D01*
X108698126Y-115688500D01*
X108698128Y-115688499D01*
X108771040Y-115673996D01*
X108771044Y-115673994D01*
X108853739Y-115618739D01*
X108908994Y-115536044D01*
X108908996Y-115536040D01*
X108923499Y-115463128D01*
X108923500Y-115463126D01*
X108923500Y-114088500D01*
X108423500Y-114088500D01*
X108423500Y-113588500D01*
X108923500Y-113588500D01*
X108923500Y-112213873D01*
X108923499Y-112213871D01*
X108908996Y-112140959D01*
X108908994Y-112140955D01*
X108853739Y-112058260D01*
X108771044Y-112003005D01*
X108771040Y-112003003D01*
X108698127Y-111988500D01*
X107923500Y-111988500D01*
X107923500Y-112480259D01*
X107892267Y-112467322D01*
X107747369Y-112438500D01*
X107599631Y-112438500D01*
X107454733Y-112467322D01*
X107423500Y-112480259D01*
X107423500Y-111988500D01*
X106648873Y-111988500D01*
X106575959Y-112003003D01*
X106575955Y-112003005D01*
X106493260Y-112058260D01*
X106438005Y-112140955D01*
X106438003Y-112140959D01*
X106423500Y-112213871D01*
X103807000Y-112213871D01*
X103807000Y-100698952D01*
X103826685Y-100631913D01*
X103843319Y-100611271D01*
X113055771Y-91398819D01*
X113117094Y-91365334D01*
X113143452Y-91362500D01*
X124265607Y-91362500D01*
X124326029Y-91350481D01*
X124386452Y-91338463D01*
X124442208Y-91315368D01*
X124447893Y-91313013D01*
X124447897Y-91313012D01*
X124500281Y-91291314D01*
X124500280Y-91291314D01*
X124500286Y-91291312D01*
X124551509Y-91257084D01*
X124602733Y-91222858D01*
X124689858Y-91135733D01*
X124689858Y-91135731D01*
X124700066Y-91125524D01*
X124700067Y-91125521D01*
X129082163Y-86743426D01*
X129143484Y-86709943D01*
X129208159Y-86713178D01*
X129212677Y-86714646D01*
X129223757Y-86718246D01*
X129433713Y-86751500D01*
X129433714Y-86751500D01*
X129545546Y-86751500D01*
X129612585Y-86771185D01*
X129658340Y-86823989D01*
X129668284Y-86893147D01*
X129639259Y-86956703D01*
X129633227Y-86963181D01*
X124432229Y-92164181D01*
X124370906Y-92197666D01*
X124344548Y-92200500D01*
X120874389Y-92200500D01*
X120813971Y-92212518D01*
X120770743Y-92221116D01*
X120753546Y-92224537D01*
X120639716Y-92271687D01*
X120639707Y-92271692D01*
X120537268Y-92340140D01*
X120493705Y-92383703D01*
X120450142Y-92427267D01*
X120450139Y-92427270D01*
X110620227Y-102257181D01*
X110558904Y-102290666D01*
X110532546Y-102293500D01*
X109867998Y-102293500D01*
X109867980Y-102293501D01*
X109765203Y-102304000D01*
X109765200Y-102304001D01*
X109598668Y-102359185D01*
X109598663Y-102359187D01*
X109449342Y-102451289D01*
X109325289Y-102575342D01*
X109233187Y-102724663D01*
X109233186Y-102724666D01*
X109178001Y-102891203D01*
X109178001Y-102891204D01*
X109178000Y-102891204D01*
X109167500Y-102993983D01*
X109167500Y-103994001D01*
X109167501Y-103994019D01*
X109178000Y-104096796D01*
X109178001Y-104096799D01*
X109233185Y-104263331D01*
X109233186Y-104263334D01*
X109325288Y-104412656D01*
X109449344Y-104536712D01*
X109583597Y-104619519D01*
X109630321Y-104671465D01*
X109642500Y-104725057D01*
X109642500Y-105302095D01*
X109622815Y-105369134D01*
X109618818Y-105374981D01*
X109490157Y-105552066D01*
X109382933Y-105762503D01*
X109309946Y-105987131D01*
X109273000Y-106220402D01*
X109273000Y-106456597D01*
X109309946Y-106689868D01*
X109382933Y-106914496D01*
X109490157Y-107124933D01*
X109628983Y-107316010D01*
X109795990Y-107483017D01*
X109987067Y-107621843D01*
X110086491Y-107672502D01*
X110197503Y-107729066D01*
X110197505Y-107729066D01*
X110197508Y-107729068D01*
X110317912Y-107768189D01*
X110422131Y-107802053D01*
X110655403Y-107839000D01*
X110655408Y-107839000D01*
X110891597Y-107839000D01*
X111124868Y-107802053D01*
X111349492Y-107729068D01*
X111559933Y-107621843D01*
X111751010Y-107483017D01*
X111918017Y-107316010D01*
X112056843Y-107124933D01*
X112076608Y-107086141D01*
X112080980Y-107079704D01*
X112102191Y-107062246D01*
X112121050Y-107042278D01*
X112128777Y-107040364D01*
X112134927Y-107035303D01*
X112162212Y-107032084D01*
X112188871Y-107025482D01*
X112193291Y-107025750D01*
X112229820Y-107028625D01*
X112790537Y-106467908D01*
X112807575Y-106531493D01*
X112873401Y-106645507D01*
X112966493Y-106738599D01*
X113080507Y-106804425D01*
X113144090Y-106821462D01*
X112583373Y-107382177D01*
X112583373Y-107382178D01*
X112618358Y-107407596D01*
X112793664Y-107496918D01*
X112980794Y-107557721D01*
X113175118Y-107588500D01*
X113371882Y-107588500D01*
X113566205Y-107557721D01*
X113753335Y-107496918D01*
X113928643Y-107407595D01*
X113963625Y-107382178D01*
X113963626Y-107382178D01*
X113402910Y-106821462D01*
X113466493Y-106804425D01*
X113580507Y-106738599D01*
X113673599Y-106645507D01*
X113739425Y-106531493D01*
X113756462Y-106467909D01*
X114236681Y-106948128D01*
X114270166Y-107009451D01*
X114273000Y-107035809D01*
X114273000Y-107386369D01*
X114273001Y-107386376D01*
X114279408Y-107445983D01*
X114329702Y-107580828D01*
X114329706Y-107580835D01*
X114415952Y-107696044D01*
X114415955Y-107696047D01*
X114531164Y-107782293D01*
X114531171Y-107782297D01*
X114666017Y-107832591D01*
X114666016Y-107832591D01*
X114672944Y-107833335D01*
X114725627Y-107839000D01*
X116821372Y-107838999D01*
X116880983Y-107832591D01*
X117015831Y-107782296D01*
X117131046Y-107696046D01*
X117217296Y-107580831D01*
X117267591Y-107445983D01*
X117274000Y-107386373D01*
X117273999Y-105290628D01*
X117267591Y-105231017D01*
X117253778Y-105193983D01*
X117217297Y-105096171D01*
X117217293Y-105096164D01*
X117131047Y-104980955D01*
X117131044Y-104980952D01*
X117015834Y-104894705D01*
X117006161Y-104891097D01*
X116988437Y-104877827D01*
X116968297Y-104868630D01*
X116961012Y-104857295D01*
X116950229Y-104849222D01*
X116942492Y-104828477D01*
X116930523Y-104809852D01*
X116927370Y-104787929D01*
X116925815Y-104783757D01*
X116925500Y-104774917D01*
X116925500Y-104725057D01*
X116945185Y-104658018D01*
X116984401Y-104619520D01*
X117118656Y-104536712D01*
X117242712Y-104412656D01*
X117334814Y-104263334D01*
X117389999Y-104096797D01*
X117400500Y-103994009D01*
X117400499Y-103329450D01*
X117420183Y-103262412D01*
X117436813Y-103241775D01*
X119812819Y-100865769D01*
X119874142Y-100832285D01*
X119943834Y-100837269D01*
X119999767Y-100879141D01*
X120024184Y-100944605D01*
X120024500Y-100953451D01*
X120024500Y-111864500D01*
X120004815Y-111931539D01*
X119952011Y-111977294D01*
X119900500Y-111988500D01*
X119123500Y-111988500D01*
X119123500Y-112480259D01*
X119092267Y-112467322D01*
X118947369Y-112438500D01*
X118799631Y-112438500D01*
X118654733Y-112467322D01*
X118623500Y-112480259D01*
X118623500Y-111988500D01*
X117848873Y-111988500D01*
X117775959Y-112003003D01*
X117775955Y-112003005D01*
X117693260Y-112058260D01*
X117638005Y-112140955D01*
X117638003Y-112140959D01*
X117623500Y-112213871D01*
X117623500Y-113588500D01*
X118123500Y-113588500D01*
X118123500Y-114088500D01*
X117623500Y-114088500D01*
X117623500Y-115463128D01*
X117638003Y-115536040D01*
X117638005Y-115536044D01*
X117693260Y-115618739D01*
X117775955Y-115673994D01*
X117775959Y-115673996D01*
X117848871Y-115688499D01*
X117848874Y-115688500D01*
X118623500Y-115688500D01*
X118623500Y-115196740D01*
X118654733Y-115209678D01*
X118799631Y-115238500D01*
X118947369Y-115238500D01*
X119092267Y-115209678D01*
X119123500Y-115196740D01*
X119123500Y-115688500D01*
X119739547Y-115688500D01*
X119806586Y-115708185D01*
X119852341Y-115760989D01*
X119862285Y-115830147D01*
X119833260Y-115893703D01*
X119827228Y-115900181D01*
X116350378Y-119377029D01*
X116289055Y-119410514D01*
X116224380Y-119407279D01*
X116124870Y-119374947D01*
X116124871Y-119374947D01*
X115891597Y-119338000D01*
X115891592Y-119338000D01*
X115655408Y-119338000D01*
X115655403Y-119338000D01*
X115422131Y-119374946D01*
X115197503Y-119447933D01*
X114987066Y-119555157D01*
X114941174Y-119588500D01*
X114795990Y-119693983D01*
X114795988Y-119693985D01*
X114795987Y-119693985D01*
X114628985Y-119860987D01*
X114628985Y-119860988D01*
X114628983Y-119860990D01*
X114593295Y-119910110D01*
X114490157Y-120052066D01*
X114382933Y-120262503D01*
X114309946Y-120487131D01*
X114273000Y-120720402D01*
X114273000Y-120956597D01*
X114309946Y-121189868D01*
X114382933Y-121414496D01*
X114490157Y-121624933D01*
X114628983Y-121816010D01*
X114795990Y-121983017D01*
X114987067Y-122121843D01*
X115062066Y-122160057D01*
X115197503Y-122229066D01*
X115197505Y-122229066D01*
X115197508Y-122229068D01*
X115317912Y-122268189D01*
X115422131Y-122302053D01*
X115655403Y-122339000D01*
X115655408Y-122339000D01*
X115891597Y-122339000D01*
X116124868Y-122302053D01*
X116349492Y-122229068D01*
X116559933Y-122121843D01*
X116751010Y-121983017D01*
X116918017Y-121816010D01*
X117056843Y-121624933D01*
X117164068Y-121414492D01*
X117237053Y-121189868D01*
X117257868Y-121058446D01*
X117274000Y-120956597D01*
X117274000Y-120740117D01*
X126541500Y-120740117D01*
X126541500Y-120936882D01*
X126572278Y-121131205D01*
X126633081Y-121318335D01*
X126722405Y-121493645D01*
X126747819Y-121528625D01*
X126747820Y-121528625D01*
X127308537Y-120967908D01*
X127325575Y-121031493D01*
X127391401Y-121145507D01*
X127484493Y-121238599D01*
X127598507Y-121304425D01*
X127662090Y-121321462D01*
X127101373Y-121882177D01*
X127101373Y-121882178D01*
X127136358Y-121907596D01*
X127311664Y-121996918D01*
X127498794Y-122057721D01*
X127693118Y-122088500D01*
X127889882Y-122088500D01*
X128084205Y-122057721D01*
X128271335Y-121996918D01*
X128446643Y-121907595D01*
X128481625Y-121882178D01*
X128481626Y-121882178D01*
X127920910Y-121321462D01*
X127984493Y-121304425D01*
X128098507Y-121238599D01*
X128191599Y-121145507D01*
X128257425Y-121031493D01*
X128274462Y-120967910D01*
X128835178Y-121528626D01*
X128835178Y-121528625D01*
X128860595Y-121493643D01*
X128949918Y-121318335D01*
X129010721Y-121131205D01*
X129041500Y-120936882D01*
X129041500Y-120740117D01*
X129010721Y-120545794D01*
X128949918Y-120358664D01*
X128860596Y-120183358D01*
X128835178Y-120148373D01*
X128835177Y-120148373D01*
X128274462Y-120709089D01*
X128257425Y-120645507D01*
X128191599Y-120531493D01*
X128098507Y-120438401D01*
X127984493Y-120372575D01*
X127920909Y-120355537D01*
X128481625Y-119794820D01*
X128481625Y-119794819D01*
X128446645Y-119769405D01*
X128271335Y-119680081D01*
X128084205Y-119619278D01*
X127889882Y-119588500D01*
X127693118Y-119588500D01*
X127498794Y-119619278D01*
X127311661Y-119680082D01*
X127136363Y-119769399D01*
X127136359Y-119769402D01*
X127101373Y-119794820D01*
X127101372Y-119794820D01*
X127662090Y-120355537D01*
X127598507Y-120372575D01*
X127484493Y-120438401D01*
X127391401Y-120531493D01*
X127325575Y-120645507D01*
X127308537Y-120709090D01*
X126747820Y-120148372D01*
X126747820Y-120148373D01*
X126722402Y-120183359D01*
X126722399Y-120183363D01*
X126633082Y-120358661D01*
X126572278Y-120545794D01*
X126541500Y-120740117D01*
X117274000Y-120740117D01*
X117274000Y-120720402D01*
X117237053Y-120487131D01*
X117204719Y-120387620D01*
X117202724Y-120317779D01*
X117234967Y-120261622D01*
X121135857Y-116360734D01*
X121145021Y-116347019D01*
X121154057Y-116333498D01*
X121170732Y-116308540D01*
X121204311Y-116258286D01*
X121251463Y-116144452D01*
X121275500Y-116023606D01*
X121275500Y-112213871D01*
X123441500Y-112213871D01*
X123441500Y-113588500D01*
X123941500Y-113588500D01*
X123941500Y-114088500D01*
X123441500Y-114088500D01*
X123441500Y-115463128D01*
X123456003Y-115536040D01*
X123456005Y-115536044D01*
X123511260Y-115618739D01*
X123593955Y-115673994D01*
X123593959Y-115673996D01*
X123666871Y-115688499D01*
X123666874Y-115688500D01*
X124441500Y-115688500D01*
X124441500Y-115196740D01*
X124472733Y-115209678D01*
X124617631Y-115238500D01*
X124765369Y-115238500D01*
X124910267Y-115209678D01*
X124941500Y-115196740D01*
X124941500Y-115688500D01*
X125716126Y-115688500D01*
X125716128Y-115688499D01*
X125789040Y-115673996D01*
X125789044Y-115673994D01*
X125871739Y-115618739D01*
X125926994Y-115536044D01*
X125926996Y-115536040D01*
X125941499Y-115463128D01*
X125941500Y-115463126D01*
X125941500Y-114088500D01*
X125441500Y-114088500D01*
X125441500Y-113588500D01*
X125941500Y-113588500D01*
X125941500Y-112213873D01*
X125941499Y-112213871D01*
X125926996Y-112140959D01*
X125926994Y-112140955D01*
X125871739Y-112058260D01*
X125789044Y-112003005D01*
X125789040Y-112003003D01*
X125716127Y-111988500D01*
X124941500Y-111988500D01*
X124941500Y-112480259D01*
X124910267Y-112467322D01*
X124765369Y-112438500D01*
X124617631Y-112438500D01*
X124472733Y-112467322D01*
X124441500Y-112480259D01*
X124441500Y-111988500D01*
X123666873Y-111988500D01*
X123593959Y-112003003D01*
X123593955Y-112003005D01*
X123511260Y-112058260D01*
X123456005Y-112140955D01*
X123456003Y-112140959D01*
X123441500Y-112213871D01*
X121275500Y-112213871D01*
X121275500Y-101264452D01*
X121295185Y-101197413D01*
X121311819Y-101176771D01*
X126448819Y-96039771D01*
X126510142Y-96006286D01*
X126579834Y-96011270D01*
X126635767Y-96053142D01*
X126660184Y-96118606D01*
X126660500Y-96127452D01*
X126660500Y-102262942D01*
X126640815Y-102329981D01*
X126601598Y-102368479D01*
X126515209Y-102421764D01*
X126467342Y-102451289D01*
X126343289Y-102575342D01*
X126251187Y-102724663D01*
X126251186Y-102724666D01*
X126196001Y-102891203D01*
X126196001Y-102891204D01*
X126196000Y-102891204D01*
X126185500Y-102993983D01*
X126185500Y-103994001D01*
X126185501Y-103994019D01*
X126196000Y-104096796D01*
X126196001Y-104096799D01*
X126251185Y-104263331D01*
X126251186Y-104263334D01*
X126343288Y-104412656D01*
X126467344Y-104536712D01*
X126601597Y-104619519D01*
X126648321Y-104671465D01*
X126660500Y-104725057D01*
X126660500Y-105302095D01*
X126640815Y-105369134D01*
X126636818Y-105374981D01*
X126508157Y-105552066D01*
X126400933Y-105762503D01*
X126327946Y-105987131D01*
X126291000Y-106220402D01*
X126291000Y-106456597D01*
X126327946Y-106689868D01*
X126400933Y-106914496D01*
X126508157Y-107124933D01*
X126646983Y-107316010D01*
X126813990Y-107483017D01*
X127005067Y-107621843D01*
X127104491Y-107672502D01*
X127215503Y-107729066D01*
X127215505Y-107729066D01*
X127215508Y-107729068D01*
X127335912Y-107768189D01*
X127440131Y-107802053D01*
X127673403Y-107839000D01*
X127673408Y-107839000D01*
X127909597Y-107839000D01*
X128142868Y-107802053D01*
X128367492Y-107729068D01*
X128577933Y-107621843D01*
X128769010Y-107483017D01*
X128936017Y-107316010D01*
X129074843Y-107124933D01*
X129094608Y-107086141D01*
X129098980Y-107079704D01*
X129120191Y-107062246D01*
X129139050Y-107042278D01*
X129146777Y-107040364D01*
X129152927Y-107035303D01*
X129180212Y-107032084D01*
X129206871Y-107025482D01*
X129211291Y-107025750D01*
X129247820Y-107028625D01*
X129808537Y-106467908D01*
X129825575Y-106531493D01*
X129891401Y-106645507D01*
X129984493Y-106738599D01*
X130098507Y-106804425D01*
X130162090Y-106821462D01*
X129601373Y-107382177D01*
X129601373Y-107382178D01*
X129636358Y-107407596D01*
X129811664Y-107496918D01*
X129998794Y-107557721D01*
X130193118Y-107588500D01*
X130389882Y-107588500D01*
X130584205Y-107557721D01*
X130771335Y-107496918D01*
X130946643Y-107407595D01*
X130981625Y-107382178D01*
X130981626Y-107382178D01*
X130420910Y-106821462D01*
X130484493Y-106804425D01*
X130598507Y-106738599D01*
X130691599Y-106645507D01*
X130757425Y-106531493D01*
X130774462Y-106467909D01*
X131254681Y-106948128D01*
X131288166Y-107009451D01*
X131291000Y-107035809D01*
X131291000Y-107386369D01*
X131291001Y-107386376D01*
X131297408Y-107445983D01*
X131347702Y-107580828D01*
X131347706Y-107580835D01*
X131433952Y-107696044D01*
X131433955Y-107696047D01*
X131549164Y-107782293D01*
X131549171Y-107782297D01*
X131684017Y-107832591D01*
X131684016Y-107832591D01*
X131690944Y-107833335D01*
X131743627Y-107839000D01*
X133839372Y-107838999D01*
X133898983Y-107832591D01*
X134033831Y-107782296D01*
X134149046Y-107696046D01*
X134235296Y-107580831D01*
X134285591Y-107445983D01*
X134292000Y-107386373D01*
X134291999Y-105290628D01*
X134285591Y-105231017D01*
X134271778Y-105193983D01*
X134235297Y-105096171D01*
X134235293Y-105096164D01*
X134149047Y-104980955D01*
X134149044Y-104980952D01*
X134033834Y-104894705D01*
X134024161Y-104891097D01*
X134006437Y-104877827D01*
X133986297Y-104868630D01*
X133979012Y-104857295D01*
X133968229Y-104849222D01*
X133960492Y-104828477D01*
X133948523Y-104809852D01*
X133945370Y-104787929D01*
X133943815Y-104783757D01*
X133943500Y-104774917D01*
X133943500Y-104725057D01*
X133963185Y-104658018D01*
X134002401Y-104619520D01*
X134136656Y-104536712D01*
X134260712Y-104412656D01*
X134352814Y-104263334D01*
X134407999Y-104096797D01*
X134418500Y-103994009D01*
X134418499Y-102993992D01*
X134407999Y-102891203D01*
X134352814Y-102724666D01*
X134260712Y-102575344D01*
X134136656Y-102451288D01*
X134002402Y-102368480D01*
X133955679Y-102316533D01*
X133943500Y-102262942D01*
X133943500Y-100527127D01*
X133963185Y-100460088D01*
X133971651Y-100448457D01*
X133971791Y-100448286D01*
X134059390Y-100317185D01*
X134059390Y-100317184D01*
X134059394Y-100317179D01*
X134119737Y-100171497D01*
X134150500Y-100016842D01*
X134150500Y-99859158D01*
X134150500Y-99859155D01*
X134150499Y-99859153D01*
X134119738Y-99704510D01*
X134119737Y-99704503D01*
X134064853Y-99572000D01*
X134059397Y-99558827D01*
X134059390Y-99558814D01*
X133971789Y-99427711D01*
X133971786Y-99427707D01*
X133860292Y-99316213D01*
X133860288Y-99316210D01*
X133729185Y-99228609D01*
X133729172Y-99228602D01*
X133583501Y-99168264D01*
X133583489Y-99168261D01*
X133428845Y-99137500D01*
X133428842Y-99137500D01*
X133271158Y-99137500D01*
X133271155Y-99137500D01*
X133116510Y-99168261D01*
X133116498Y-99168264D01*
X132970827Y-99228602D01*
X132970814Y-99228609D01*
X132839711Y-99316210D01*
X132839707Y-99316213D01*
X132728213Y-99427707D01*
X132728210Y-99427711D01*
X132640609Y-99558814D01*
X132640602Y-99558827D01*
X132580264Y-99704498D01*
X132580261Y-99704510D01*
X132549500Y-99859153D01*
X132549500Y-100016846D01*
X132580261Y-100171489D01*
X132580264Y-100171501D01*
X132640603Y-100317174D01*
X132640604Y-100317175D01*
X132640606Y-100317179D01*
X132671602Y-100363567D01*
X132692480Y-100430244D01*
X132692500Y-100432458D01*
X132692500Y-102262942D01*
X132672815Y-102329981D01*
X132633598Y-102368479D01*
X132547209Y-102421764D01*
X132499342Y-102451289D01*
X132405681Y-102544951D01*
X132344358Y-102578436D01*
X132274666Y-102573452D01*
X132230319Y-102544951D01*
X132136657Y-102451289D01*
X132136656Y-102451288D01*
X132002402Y-102368480D01*
X131955679Y-102316533D01*
X131943500Y-102262942D01*
X131943500Y-101654395D01*
X131943500Y-101654394D01*
X131937163Y-101622537D01*
X131919463Y-101533549D01*
X131909009Y-101508312D01*
X131872311Y-101419714D01*
X131872309Y-101419712D01*
X131872309Y-101419710D01*
X131803858Y-101317267D01*
X131803855Y-101317263D01*
X131713637Y-101227045D01*
X131713606Y-101227016D01*
X129857793Y-99371203D01*
X129824308Y-99309880D01*
X129823887Y-99307864D01*
X129801737Y-99196503D01*
X129777297Y-99137500D01*
X129741397Y-99050827D01*
X129741390Y-99050814D01*
X129653789Y-98919711D01*
X129653786Y-98919707D01*
X129542292Y-98808213D01*
X129542288Y-98808210D01*
X129411185Y-98720609D01*
X129411172Y-98720602D01*
X129265501Y-98660264D01*
X129265489Y-98660261D01*
X129110845Y-98629500D01*
X129110842Y-98629500D01*
X128953158Y-98629500D01*
X128953155Y-98629500D01*
X128798510Y-98660261D01*
X128798498Y-98660264D01*
X128652827Y-98720602D01*
X128652814Y-98720609D01*
X128521711Y-98808210D01*
X128521707Y-98808213D01*
X128410213Y-98919707D01*
X128410210Y-98919711D01*
X128322609Y-99050814D01*
X128322602Y-99050827D01*
X128262264Y-99196498D01*
X128262261Y-99196510D01*
X128231500Y-99351153D01*
X128231500Y-99508846D01*
X128262261Y-99663489D01*
X128262264Y-99663501D01*
X128322602Y-99809172D01*
X128322609Y-99809185D01*
X128410210Y-99940288D01*
X128410213Y-99940292D01*
X128521707Y-100051786D01*
X128521711Y-100051789D01*
X128652814Y-100139390D01*
X128652827Y-100139397D01*
X128679633Y-100150500D01*
X128798503Y-100199737D01*
X128909716Y-100221858D01*
X128971623Y-100254241D01*
X128973203Y-100255793D01*
X130656181Y-101938771D01*
X130670884Y-101965698D01*
X130687477Y-101991517D01*
X130688368Y-101997717D01*
X130689666Y-102000094D01*
X130692500Y-102026452D01*
X130692500Y-102262942D01*
X130672815Y-102329981D01*
X130633598Y-102368479D01*
X130547209Y-102421764D01*
X130499342Y-102451289D01*
X130389681Y-102560951D01*
X130328358Y-102594436D01*
X130258666Y-102589452D01*
X130214319Y-102560951D01*
X130104657Y-102451289D01*
X130104656Y-102451288D01*
X129955334Y-102359186D01*
X129788797Y-102304001D01*
X129788795Y-102304000D01*
X129686010Y-102293500D01*
X128885998Y-102293500D01*
X128885980Y-102293501D01*
X128783203Y-102304000D01*
X128783200Y-102304001D01*
X128616668Y-102359185D01*
X128616663Y-102359187D01*
X128467342Y-102451289D01*
X128373681Y-102544951D01*
X128312358Y-102578436D01*
X128242666Y-102573452D01*
X128198319Y-102544951D01*
X128104657Y-102451289D01*
X128104656Y-102451288D01*
X127970402Y-102368480D01*
X127923679Y-102316533D01*
X127911500Y-102262942D01*
X127911500Y-95390452D01*
X127931185Y-95323413D01*
X127947819Y-95302771D01*
X132203640Y-91046951D01*
X136469858Y-86780733D01*
X136518710Y-86707620D01*
X136572322Y-86662816D01*
X136641647Y-86654109D01*
X136660121Y-86658578D01*
X136843757Y-86718246D01*
X136843760Y-86718246D01*
X136843761Y-86718247D01*
X136888390Y-86725315D01*
X136937898Y-86733156D01*
X137001032Y-86763085D01*
X137037964Y-86822396D01*
X137042500Y-86855629D01*
X137042500Y-111864500D01*
X137022815Y-111931539D01*
X136970011Y-111977294D01*
X136918500Y-111988500D01*
X136141500Y-111988500D01*
X136141500Y-112480259D01*
X136110267Y-112467322D01*
X135965369Y-112438500D01*
X135817631Y-112438500D01*
X135672733Y-112467322D01*
X135641500Y-112480259D01*
X135641500Y-111988500D01*
X134866873Y-111988500D01*
X134793959Y-112003003D01*
X134793955Y-112003005D01*
X134711260Y-112058260D01*
X134656005Y-112140955D01*
X134656003Y-112140959D01*
X134641500Y-112213871D01*
X134641500Y-113588500D01*
X135141500Y-113588500D01*
X135141500Y-114088500D01*
X134641500Y-114088500D01*
X134641500Y-115463128D01*
X134656003Y-115536040D01*
X134656005Y-115536044D01*
X134711260Y-115618739D01*
X134793955Y-115673994D01*
X134793959Y-115673996D01*
X134866871Y-115688499D01*
X134866874Y-115688500D01*
X135641500Y-115688500D01*
X135641500Y-115196740D01*
X135672733Y-115209678D01*
X135817631Y-115238500D01*
X135965369Y-115238500D01*
X136110267Y-115209678D01*
X136141500Y-115196740D01*
X136141500Y-115688500D01*
X136757547Y-115688500D01*
X136824586Y-115708185D01*
X136870341Y-115760989D01*
X136880285Y-115830147D01*
X136851260Y-115893703D01*
X136845228Y-115900181D01*
X133368378Y-119377029D01*
X133307055Y-119410514D01*
X133242380Y-119407279D01*
X133142870Y-119374947D01*
X133142871Y-119374947D01*
X132909597Y-119338000D01*
X132909592Y-119338000D01*
X132673408Y-119338000D01*
X132673403Y-119338000D01*
X132440131Y-119374946D01*
X132215503Y-119447933D01*
X132005066Y-119555157D01*
X131959174Y-119588500D01*
X131813990Y-119693983D01*
X131813988Y-119693985D01*
X131813987Y-119693985D01*
X131646985Y-119860987D01*
X131646985Y-119860988D01*
X131646983Y-119860990D01*
X131611295Y-119910110D01*
X131508157Y-120052066D01*
X131400933Y-120262503D01*
X131327946Y-120487131D01*
X131291000Y-120720402D01*
X131291000Y-120956597D01*
X131327946Y-121189868D01*
X131400933Y-121414496D01*
X131508157Y-121624933D01*
X131646983Y-121816010D01*
X131813990Y-121983017D01*
X132005067Y-122121843D01*
X132080066Y-122160057D01*
X132215503Y-122229066D01*
X132215505Y-122229066D01*
X132215508Y-122229068D01*
X132335912Y-122268189D01*
X132440131Y-122302053D01*
X132673403Y-122339000D01*
X132673408Y-122339000D01*
X132909597Y-122339000D01*
X133142868Y-122302053D01*
X133367492Y-122229068D01*
X133577933Y-122121843D01*
X133769010Y-121983017D01*
X133936017Y-121816010D01*
X134074843Y-121624933D01*
X134182068Y-121414492D01*
X134239446Y-121237901D01*
X158698000Y-121237901D01*
X158698000Y-121586098D01*
X158736981Y-121932073D01*
X158736984Y-121932091D01*
X158814461Y-122271541D01*
X158814465Y-122271553D01*
X158929461Y-122600191D01*
X159080530Y-122913889D01*
X159265776Y-123208706D01*
X159435238Y-123421206D01*
X160503747Y-122352696D01*
X160577588Y-122454330D01*
X160755670Y-122632412D01*
X160857301Y-122706251D01*
X159788792Y-123774760D01*
X160001293Y-123944223D01*
X160296110Y-124129469D01*
X160609808Y-124280538D01*
X160938446Y-124395534D01*
X160938458Y-124395538D01*
X161277908Y-124473015D01*
X161277926Y-124473018D01*
X161623901Y-124511999D01*
X161623905Y-124512000D01*
X161972095Y-124512000D01*
X161972098Y-124511999D01*
X162318073Y-124473018D01*
X162318091Y-124473015D01*
X162657541Y-124395538D01*
X162657553Y-124395534D01*
X162986191Y-124280538D01*
X163299889Y-124129469D01*
X163594706Y-123944223D01*
X163807206Y-123774759D01*
X162738698Y-122706251D01*
X162840330Y-122632412D01*
X163018412Y-122454330D01*
X163092251Y-122352698D01*
X164160759Y-123421206D01*
X164330223Y-123208706D01*
X164515469Y-122913889D01*
X164666538Y-122600191D01*
X164781534Y-122271553D01*
X164781538Y-122271541D01*
X164859015Y-121932091D01*
X164859018Y-121932073D01*
X164897999Y-121586098D01*
X164898000Y-121586094D01*
X164898000Y-121237905D01*
X164897999Y-121237901D01*
X164859018Y-120891926D01*
X164859015Y-120891908D01*
X164781538Y-120552458D01*
X164781534Y-120552446D01*
X164666538Y-120223808D01*
X164515469Y-119910110D01*
X164330223Y-119615293D01*
X164160760Y-119402792D01*
X163092251Y-120471301D01*
X163018412Y-120369670D01*
X162840330Y-120191588D01*
X162738697Y-120117747D01*
X163807206Y-119049238D01*
X163594706Y-118879776D01*
X163299889Y-118694530D01*
X162986191Y-118543461D01*
X162657553Y-118428465D01*
X162657541Y-118428461D01*
X162318091Y-118350984D01*
X162318073Y-118350981D01*
X161972098Y-118312000D01*
X161623901Y-118312000D01*
X161277926Y-118350981D01*
X161277908Y-118350984D01*
X160938458Y-118428461D01*
X160938446Y-118428465D01*
X160609808Y-118543461D01*
X160296110Y-118694530D01*
X160001293Y-118879776D01*
X159788792Y-119049238D01*
X160857301Y-120117747D01*
X160755670Y-120191588D01*
X160577588Y-120369670D01*
X160503747Y-120471301D01*
X159435238Y-119402792D01*
X159265776Y-119615293D01*
X159080530Y-119910110D01*
X158929461Y-120223808D01*
X158814465Y-120552446D01*
X158814461Y-120552458D01*
X158736984Y-120891908D01*
X158736981Y-120891926D01*
X158698000Y-121237901D01*
X134239446Y-121237901D01*
X134253025Y-121196110D01*
X134253026Y-121196108D01*
X134255051Y-121189875D01*
X134255051Y-121189873D01*
X134255053Y-121189868D01*
X134285715Y-120996276D01*
X134292000Y-120956597D01*
X134292000Y-120720402D01*
X134255053Y-120487131D01*
X134222719Y-120387620D01*
X134220724Y-120317779D01*
X134252967Y-120261622D01*
X138153857Y-116360734D01*
X138163021Y-116347019D01*
X138172057Y-116333498D01*
X138188732Y-116308540D01*
X138222311Y-116258286D01*
X138269463Y-116144452D01*
X138293500Y-116023606D01*
X138293500Y-113376006D01*
X159789000Y-113376006D01*
X159789000Y-113619993D01*
X159827165Y-113860959D01*
X159902560Y-114092998D01*
X160013323Y-114310380D01*
X160080543Y-114402901D01*
X160080544Y-114402902D01*
X160737958Y-113745488D01*
X160762978Y-113805890D01*
X160834112Y-113912351D01*
X160924649Y-114002888D01*
X161031110Y-114074022D01*
X161091510Y-114099041D01*
X160434096Y-114756454D01*
X160434097Y-114756456D01*
X160526619Y-114823676D01*
X160744001Y-114934439D01*
X160976040Y-115009834D01*
X161217007Y-115048000D01*
X161460993Y-115048000D01*
X161701959Y-115009834D01*
X161933998Y-114934439D01*
X162151377Y-114823678D01*
X162243901Y-114756454D01*
X162243902Y-114756454D01*
X161586488Y-114099041D01*
X161646890Y-114074022D01*
X161753351Y-114002888D01*
X161843888Y-113912351D01*
X161915022Y-113805890D01*
X161940041Y-113745488D01*
X162597454Y-114402902D01*
X162597454Y-114402901D01*
X162664678Y-114310377D01*
X162775439Y-114092998D01*
X162850834Y-113860959D01*
X162889000Y-113619993D01*
X162889000Y-113376006D01*
X162850834Y-113135040D01*
X162775439Y-112903001D01*
X162664676Y-112685619D01*
X162597456Y-112593097D01*
X162597454Y-112593096D01*
X161940041Y-113250510D01*
X161915022Y-113190110D01*
X161843888Y-113083649D01*
X161753351Y-112993112D01*
X161646890Y-112921978D01*
X161586487Y-112896958D01*
X162243902Y-112239544D01*
X162243901Y-112239543D01*
X162151380Y-112172323D01*
X161933998Y-112061560D01*
X161701959Y-111986165D01*
X161460993Y-111948000D01*
X161217007Y-111948000D01*
X160976040Y-111986165D01*
X160744001Y-112061560D01*
X160526626Y-112172319D01*
X160434097Y-112239544D01*
X161091511Y-112896958D01*
X161031110Y-112921978D01*
X160924649Y-112993112D01*
X160834112Y-113083649D01*
X160762978Y-113190110D01*
X160737958Y-113250511D01*
X160080544Y-112593097D01*
X160013319Y-112685626D01*
X159902560Y-112903001D01*
X159827165Y-113135040D01*
X159789000Y-113376006D01*
X138293500Y-113376006D01*
X138293500Y-86178767D01*
X138297359Y-86163918D01*
X138296572Y-86151337D01*
X138306080Y-86130372D01*
X138309198Y-86118379D01*
X138312811Y-86111898D01*
X138315051Y-86108816D01*
X138320571Y-86097980D01*
X138321698Y-86095961D01*
X138345028Y-86073039D01*
X138367488Y-86049259D01*
X138369823Y-86048680D01*
X138371539Y-86046995D01*
X138403562Y-86040324D01*
X138435308Y-86032463D01*
X138437584Y-86033238D01*
X138439940Y-86032748D01*
X138470489Y-86044451D01*
X138501444Y-86054999D01*
X138503143Y-86056960D01*
X138505186Y-86057743D01*
X138512803Y-86068108D01*
X138540486Y-86100056D01*
X138544951Y-86108820D01*
X138669890Y-86280786D01*
X138820213Y-86431109D01*
X138992181Y-86556050D01*
X139006792Y-86563494D01*
X139057589Y-86611467D01*
X139074500Y-86673980D01*
X139074500Y-94934611D01*
X139098535Y-95055444D01*
X139098540Y-95055461D01*
X139145685Y-95169281D01*
X139145688Y-95169286D01*
X139176845Y-95215914D01*
X139214142Y-95271733D01*
X139301267Y-95358858D01*
X139301270Y-95358860D01*
X139308703Y-95366293D01*
X152836016Y-108893606D01*
X152836045Y-108893637D01*
X152926264Y-108983856D01*
X152926267Y-108983858D01*
X153003190Y-109035256D01*
X153028715Y-109052312D01*
X153095397Y-109079932D01*
X153099185Y-109081501D01*
X153099193Y-109081505D01*
X153136427Y-109096927D01*
X153142548Y-109099463D01*
X153202971Y-109111481D01*
X153263393Y-109123500D01*
X153263394Y-109123500D01*
X159414501Y-109123500D01*
X159481540Y-109143185D01*
X159527295Y-109195989D01*
X159538501Y-109247500D01*
X159538501Y-109598018D01*
X159549000Y-109700796D01*
X159549001Y-109700799D01*
X159604185Y-109867331D01*
X159604186Y-109867334D01*
X159696288Y-110016656D01*
X159820344Y-110140712D01*
X159969666Y-110232814D01*
X160136203Y-110287999D01*
X160238991Y-110298500D01*
X162439008Y-110298499D01*
X162541797Y-110287999D01*
X162708334Y-110232814D01*
X162857656Y-110140712D01*
X162981712Y-110016656D01*
X163073814Y-109867334D01*
X163128999Y-109700797D01*
X163139500Y-109598009D01*
X163139499Y-107397992D01*
X163138312Y-107386376D01*
X163128999Y-107295203D01*
X163128998Y-107295200D01*
X163118536Y-107263627D01*
X163073814Y-107128666D01*
X162981712Y-106979344D01*
X162857656Y-106855288D01*
X162708334Y-106763186D01*
X162541797Y-106708001D01*
X162541795Y-106708000D01*
X162439010Y-106697500D01*
X160238998Y-106697500D01*
X160238981Y-106697501D01*
X160136203Y-106708000D01*
X160136200Y-106708001D01*
X159969668Y-106763185D01*
X159969663Y-106763187D01*
X159820342Y-106855289D01*
X159696289Y-106979342D01*
X159604187Y-107128663D01*
X159604186Y-107128666D01*
X159549001Y-107295203D01*
X159549001Y-107295204D01*
X159549000Y-107295204D01*
X159538500Y-107397983D01*
X159538500Y-107748500D01*
X159518815Y-107815539D01*
X159466011Y-107861294D01*
X159414500Y-107872500D01*
X153635452Y-107872500D01*
X153568413Y-107852815D01*
X153547771Y-107836181D01*
X140361819Y-94650229D01*
X140328334Y-94588906D01*
X140325500Y-94562548D01*
X140325500Y-86673980D01*
X140345185Y-86606941D01*
X140393208Y-86563494D01*
X140407818Y-86556050D01*
X140579786Y-86431109D01*
X140579788Y-86431106D01*
X140579792Y-86431104D01*
X140730104Y-86280792D01*
X140730106Y-86280788D01*
X140730109Y-86280786D01*
X140855048Y-86108820D01*
X140855047Y-86108820D01*
X140855051Y-86108816D01*
X140859514Y-86100054D01*
X140907488Y-86049259D01*
X140975308Y-86032463D01*
X141041444Y-86054999D01*
X141080486Y-86100056D01*
X141084951Y-86108820D01*
X141209890Y-86280786D01*
X141360213Y-86431109D01*
X141532179Y-86556048D01*
X141532181Y-86556049D01*
X141532184Y-86556051D01*
X141721588Y-86652557D01*
X141923757Y-86718246D01*
X142133713Y-86751500D01*
X142133714Y-86751500D01*
X142346286Y-86751500D01*
X142346287Y-86751500D01*
X142556243Y-86718246D01*
X142758412Y-86652557D01*
X142947816Y-86556051D01*
X143023588Y-86501000D01*
X143119786Y-86431109D01*
X143119788Y-86431106D01*
X143119792Y-86431104D01*
X143270104Y-86280792D01*
X143270106Y-86280788D01*
X143270109Y-86280786D01*
X143395048Y-86108820D01*
X143395047Y-86108820D01*
X143395051Y-86108816D01*
X143399514Y-86100054D01*
X143447488Y-86049259D01*
X143515308Y-86032463D01*
X143581444Y-86054999D01*
X143620486Y-86100056D01*
X143624951Y-86108820D01*
X143749890Y-86280786D01*
X143900213Y-86431109D01*
X144072179Y-86556048D01*
X144072181Y-86556049D01*
X144072184Y-86556051D01*
X144261588Y-86652557D01*
X144463757Y-86718246D01*
X144673713Y-86751500D01*
X144673714Y-86751500D01*
X144886286Y-86751500D01*
X144886287Y-86751500D01*
X145042771Y-86726715D01*
X145112064Y-86735670D01*
X145149850Y-86761507D01*
X150660031Y-92271687D01*
X156116886Y-97728542D01*
X156188756Y-97800412D01*
X156214459Y-97826115D01*
X156329184Y-97902772D01*
X156329185Y-97902772D01*
X156329189Y-97902775D01*
X156370248Y-97919782D01*
X156456671Y-97955580D01*
X156483591Y-97960934D01*
X156582026Y-97980514D01*
X156592006Y-97982500D01*
X156592007Y-97982500D01*
X163680453Y-97982500D01*
X163747492Y-98002185D01*
X163780769Y-98033614D01*
X163815842Y-98081887D01*
X163873892Y-98161788D01*
X164024213Y-98312109D01*
X164185134Y-98429023D01*
X164196184Y-98437051D01*
X164280149Y-98479833D01*
X164295225Y-98487515D01*
X164346021Y-98535490D01*
X164362816Y-98603311D01*
X164340279Y-98669446D01*
X164285563Y-98712897D01*
X164238930Y-98722000D01*
X164029373Y-98722000D01*
X163956459Y-98736503D01*
X163956455Y-98736505D01*
X163873760Y-98791760D01*
X163818505Y-98874455D01*
X163818503Y-98874459D01*
X163804000Y-98947371D01*
X163804000Y-99572000D01*
X164470988Y-99572000D01*
X164438075Y-99629007D01*
X164404000Y-99756174D01*
X164404000Y-99887826D01*
X164438075Y-100014993D01*
X164470988Y-100072000D01*
X163804000Y-100072000D01*
X163804000Y-100696628D01*
X163818503Y-100769540D01*
X163818505Y-100769544D01*
X163873760Y-100852239D01*
X163956455Y-100907494D01*
X163956459Y-100907496D01*
X164029371Y-100921999D01*
X164029374Y-100922000D01*
X164654000Y-100922000D01*
X164654000Y-100255012D01*
X164711007Y-100287925D01*
X164838174Y-100322000D01*
X164969826Y-100322000D01*
X165096993Y-100287925D01*
X165154000Y-100255012D01*
X165154000Y-100922000D01*
X165778626Y-100922000D01*
X165778628Y-100921999D01*
X165851540Y-100907496D01*
X165851544Y-100907494D01*
X165934239Y-100852239D01*
X165989494Y-100769544D01*
X165989496Y-100769540D01*
X166003999Y-100696628D01*
X166004000Y-100696626D01*
X166004000Y-100072000D01*
X165337012Y-100072000D01*
X165369925Y-100014993D01*
X165404000Y-99887826D01*
X165404000Y-99756174D01*
X165369925Y-99629007D01*
X165337012Y-99572000D01*
X166004000Y-99572000D01*
X166004000Y-98947373D01*
X166003999Y-98947371D01*
X165989496Y-98874459D01*
X165989494Y-98874455D01*
X165934239Y-98791760D01*
X165851544Y-98736505D01*
X165851540Y-98736503D01*
X165778627Y-98722000D01*
X165569070Y-98722000D01*
X165502031Y-98702315D01*
X165456276Y-98649511D01*
X165446332Y-98580353D01*
X165475357Y-98516797D01*
X165512775Y-98487515D01*
X165523178Y-98482213D01*
X165611816Y-98437051D01*
X165708371Y-98366899D01*
X165783786Y-98312109D01*
X165783788Y-98312106D01*
X165783792Y-98312104D01*
X165934104Y-98161792D01*
X165934106Y-98161788D01*
X165934109Y-98161786D01*
X166059048Y-97989820D01*
X166059047Y-97989820D01*
X166059051Y-97989816D01*
X166155557Y-97800412D01*
X166221246Y-97598243D01*
X166254500Y-97388287D01*
X166254500Y-97175713D01*
X166221246Y-96965757D01*
X166155557Y-96763588D01*
X166059051Y-96574184D01*
X166059049Y-96574181D01*
X166059048Y-96574179D01*
X165934109Y-96402213D01*
X165783786Y-96251890D01*
X165611820Y-96126951D01*
X165611115Y-96126591D01*
X165603054Y-96122485D01*
X165552259Y-96074512D01*
X165535463Y-96006692D01*
X165557999Y-95940556D01*
X165603054Y-95901515D01*
X165611816Y-95897051D01*
X165633789Y-95881086D01*
X165783786Y-95772109D01*
X165783788Y-95772106D01*
X165783792Y-95772104D01*
X165934104Y-95621792D01*
X165934106Y-95621788D01*
X165934109Y-95621786D01*
X166059048Y-95449820D01*
X166059049Y-95449819D01*
X166059051Y-95449816D01*
X166155557Y-95260412D01*
X166221246Y-95058243D01*
X166254500Y-94848287D01*
X166254500Y-94635713D01*
X166221246Y-94425757D01*
X166155557Y-94223588D01*
X166059051Y-94034184D01*
X166059049Y-94034181D01*
X166059048Y-94034179D01*
X165934109Y-93862213D01*
X165783786Y-93711890D01*
X165611820Y-93586951D01*
X165611115Y-93586591D01*
X165603054Y-93582485D01*
X165552259Y-93534512D01*
X165535463Y-93466692D01*
X165557999Y-93400556D01*
X165603054Y-93361515D01*
X165611816Y-93357051D01*
X165633789Y-93341086D01*
X165783786Y-93232109D01*
X165783788Y-93232106D01*
X165783792Y-93232104D01*
X165934104Y-93081792D01*
X165934106Y-93081788D01*
X165934109Y-93081786D01*
X166059048Y-92909820D01*
X166059049Y-92909819D01*
X166059051Y-92909816D01*
X166155557Y-92720412D01*
X166221246Y-92518243D01*
X166254500Y-92308287D01*
X166254500Y-92095713D01*
X166221246Y-91885757D01*
X166155557Y-91683588D01*
X166059051Y-91494184D01*
X166059049Y-91494181D01*
X166059048Y-91494179D01*
X165934109Y-91322213D01*
X165783786Y-91171890D01*
X165611820Y-91046951D01*
X165422414Y-90950444D01*
X165422413Y-90950443D01*
X165422412Y-90950443D01*
X165220243Y-90884754D01*
X165220241Y-90884753D01*
X165220240Y-90884753D01*
X165058957Y-90859208D01*
X165010287Y-90851500D01*
X164797713Y-90851500D01*
X164749042Y-90859208D01*
X164587760Y-90884753D01*
X164385585Y-90950444D01*
X164196179Y-91046951D01*
X164024213Y-91171890D01*
X163873890Y-91322213D01*
X163748950Y-91494180D01*
X163741503Y-91508797D01*
X163693527Y-91559592D01*
X163631019Y-91576500D01*
X159511452Y-91576500D01*
X159444413Y-91556815D01*
X159423771Y-91540181D01*
X151202428Y-83318838D01*
X151168943Y-83257515D01*
X151172177Y-83192841D01*
X151177246Y-83177243D01*
X151210500Y-82967287D01*
X151210500Y-82754713D01*
X151177246Y-82544757D01*
X151111557Y-82342588D01*
X151015051Y-82153184D01*
X151015049Y-82153181D01*
X151015048Y-82153179D01*
X150992323Y-82121901D01*
X158952000Y-82121901D01*
X158952000Y-82470098D01*
X158990981Y-82816073D01*
X158990984Y-82816091D01*
X159068461Y-83155541D01*
X159068465Y-83155553D01*
X159183461Y-83484191D01*
X159334530Y-83797889D01*
X159519776Y-84092706D01*
X159689238Y-84305206D01*
X160757747Y-83236697D01*
X160831588Y-83338330D01*
X161009670Y-83516412D01*
X161111301Y-83590251D01*
X160042792Y-84658760D01*
X160255293Y-84828223D01*
X160550110Y-85013469D01*
X160863808Y-85164538D01*
X161192446Y-85279534D01*
X161192458Y-85279538D01*
X161531908Y-85357015D01*
X161531926Y-85357018D01*
X161877901Y-85395999D01*
X161877905Y-85396000D01*
X162226095Y-85396000D01*
X162226098Y-85395999D01*
X162572073Y-85357018D01*
X162572091Y-85357015D01*
X162911541Y-85279538D01*
X162911553Y-85279534D01*
X163240191Y-85164538D01*
X163553889Y-85013469D01*
X163848706Y-84828223D01*
X164061206Y-84658759D01*
X162992698Y-83590251D01*
X163094330Y-83516412D01*
X163272412Y-83338330D01*
X163346251Y-83236698D01*
X164414759Y-84305206D01*
X164584223Y-84092706D01*
X164769469Y-83797889D01*
X164920538Y-83484191D01*
X165035534Y-83155553D01*
X165035538Y-83155541D01*
X165113015Y-82816091D01*
X165113018Y-82816073D01*
X165151999Y-82470098D01*
X165152000Y-82470094D01*
X165152000Y-82121905D01*
X165151999Y-82121901D01*
X165113018Y-81775926D01*
X165113015Y-81775908D01*
X165035538Y-81436458D01*
X165035534Y-81436446D01*
X164920538Y-81107808D01*
X164769469Y-80794110D01*
X164584223Y-80499293D01*
X164414760Y-80286792D01*
X163346251Y-81355301D01*
X163272412Y-81253670D01*
X163094330Y-81075588D01*
X162992697Y-81001747D01*
X164061206Y-79933238D01*
X163848706Y-79763776D01*
X163553889Y-79578530D01*
X163240191Y-79427461D01*
X162911553Y-79312465D01*
X162911541Y-79312461D01*
X162572091Y-79234984D01*
X162572073Y-79234981D01*
X162226098Y-79196000D01*
X161877901Y-79196000D01*
X161531926Y-79234981D01*
X161531908Y-79234984D01*
X161192458Y-79312461D01*
X161192446Y-79312465D01*
X160863808Y-79427461D01*
X160550110Y-79578530D01*
X160255293Y-79763776D01*
X160042792Y-79933238D01*
X161111301Y-81001747D01*
X161009670Y-81075588D01*
X160831588Y-81253670D01*
X160757747Y-81355301D01*
X159689238Y-80286792D01*
X159519776Y-80499293D01*
X159334530Y-80794110D01*
X159183461Y-81107808D01*
X159068465Y-81436446D01*
X159068461Y-81436458D01*
X158990984Y-81775908D01*
X158990981Y-81775926D01*
X158952000Y-82121901D01*
X150992323Y-82121901D01*
X150890109Y-81981213D01*
X150739786Y-81830890D01*
X150567820Y-81705951D01*
X150378414Y-81609444D01*
X150378413Y-81609443D01*
X150378412Y-81609443D01*
X150176243Y-81543754D01*
X150176241Y-81543753D01*
X150176240Y-81543753D01*
X150014957Y-81518208D01*
X149966287Y-81510500D01*
X149753713Y-81510500D01*
X149705042Y-81518208D01*
X149543760Y-81543753D01*
X149341585Y-81609444D01*
X149152179Y-81705951D01*
X148980213Y-81830890D01*
X148829890Y-81981213D01*
X148704949Y-82153182D01*
X148700484Y-82161946D01*
X148652509Y-82212742D01*
X148584688Y-82229536D01*
X148518553Y-82206998D01*
X148479516Y-82161946D01*
X148475050Y-82153182D01*
X148350109Y-81981213D01*
X148199786Y-81830890D01*
X148027820Y-81705951D01*
X147838414Y-81609444D01*
X147838413Y-81609443D01*
X147838412Y-81609443D01*
X147636243Y-81543754D01*
X147636241Y-81543753D01*
X147636240Y-81543753D01*
X147474957Y-81518208D01*
X147426287Y-81510500D01*
X147213713Y-81510500D01*
X147165042Y-81518208D01*
X147003760Y-81543753D01*
X146801585Y-81609444D01*
X146612179Y-81705951D01*
X146440213Y-81830890D01*
X146289890Y-81981213D01*
X146164949Y-82153182D01*
X146160484Y-82161946D01*
X146112509Y-82212742D01*
X146044688Y-82229536D01*
X145978553Y-82206998D01*
X145939516Y-82161946D01*
X145935050Y-82153182D01*
X145810109Y-81981213D01*
X145659786Y-81830890D01*
X145487820Y-81705951D01*
X145298414Y-81609444D01*
X145298413Y-81609443D01*
X145298412Y-81609443D01*
X145096243Y-81543754D01*
X145096241Y-81543753D01*
X145096240Y-81543753D01*
X144934957Y-81518208D01*
X144886287Y-81510500D01*
X144673713Y-81510500D01*
X144625042Y-81518208D01*
X144463760Y-81543753D01*
X144261585Y-81609444D01*
X144072179Y-81705951D01*
X143900213Y-81830890D01*
X143749890Y-81981213D01*
X143624949Y-82153182D01*
X143620484Y-82161946D01*
X143572509Y-82212742D01*
X143504688Y-82229536D01*
X143438553Y-82206998D01*
X143399516Y-82161946D01*
X143395050Y-82153182D01*
X143270109Y-81981213D01*
X143119786Y-81830890D01*
X142947820Y-81705951D01*
X142758414Y-81609444D01*
X142758413Y-81609443D01*
X142758412Y-81609443D01*
X142556243Y-81543754D01*
X142556241Y-81543753D01*
X142556240Y-81543753D01*
X142394957Y-81518208D01*
X142346287Y-81510500D01*
X142133713Y-81510500D01*
X142085042Y-81518208D01*
X141923760Y-81543753D01*
X141721585Y-81609444D01*
X141532179Y-81705951D01*
X141360213Y-81830890D01*
X141209890Y-81981213D01*
X141084949Y-82153182D01*
X141080484Y-82161946D01*
X141032509Y-82212742D01*
X140964688Y-82229536D01*
X140898553Y-82206998D01*
X140859516Y-82161946D01*
X140855050Y-82153182D01*
X140730109Y-81981213D01*
X140579786Y-81830890D01*
X140407820Y-81705951D01*
X140218414Y-81609444D01*
X140218413Y-81609443D01*
X140218412Y-81609443D01*
X140016243Y-81543754D01*
X140016241Y-81543753D01*
X140016240Y-81543753D01*
X139854957Y-81518208D01*
X139806287Y-81510500D01*
X139593713Y-81510500D01*
X139545042Y-81518208D01*
X139383760Y-81543753D01*
X139181585Y-81609444D01*
X138992179Y-81705951D01*
X138820213Y-81830890D01*
X138669890Y-81981213D01*
X138544949Y-82153182D01*
X138540484Y-82161946D01*
X138492509Y-82212742D01*
X138424688Y-82229536D01*
X138358553Y-82206998D01*
X138319516Y-82161946D01*
X138315050Y-82153182D01*
X138190109Y-81981213D01*
X138039786Y-81830890D01*
X137867820Y-81705951D01*
X137678414Y-81609444D01*
X137678413Y-81609443D01*
X137678412Y-81609443D01*
X137476243Y-81543754D01*
X137476241Y-81543753D01*
X137476240Y-81543753D01*
X137314957Y-81518208D01*
X137266287Y-81510500D01*
X137053713Y-81510500D01*
X137005042Y-81518208D01*
X136843760Y-81543753D01*
X136641585Y-81609444D01*
X136452179Y-81705951D01*
X136280213Y-81830890D01*
X136129890Y-81981213D01*
X136004949Y-82153182D01*
X136000484Y-82161946D01*
X135952509Y-82212742D01*
X135884688Y-82229536D01*
X135818553Y-82206998D01*
X135779516Y-82161946D01*
X135775050Y-82153182D01*
X135650109Y-81981213D01*
X135499786Y-81830890D01*
X135327820Y-81705951D01*
X135138414Y-81609444D01*
X135138413Y-81609443D01*
X135138412Y-81609443D01*
X134936243Y-81543754D01*
X134936241Y-81543753D01*
X134936240Y-81543753D01*
X134774957Y-81518208D01*
X134726287Y-81510500D01*
X134513713Y-81510500D01*
X134465042Y-81518208D01*
X134303760Y-81543753D01*
X134101585Y-81609444D01*
X133912179Y-81705951D01*
X133740213Y-81830890D01*
X133589890Y-81981213D01*
X133464949Y-82153182D01*
X133460484Y-82161946D01*
X133412509Y-82212742D01*
X133344688Y-82229536D01*
X133278553Y-82206998D01*
X133239516Y-82161946D01*
X133235050Y-82153182D01*
X133110109Y-81981213D01*
X132959786Y-81830890D01*
X132787820Y-81705951D01*
X132598414Y-81609444D01*
X132598413Y-81609443D01*
X132598412Y-81609443D01*
X132396243Y-81543754D01*
X132396241Y-81543753D01*
X132396240Y-81543753D01*
X132234957Y-81518208D01*
X132186287Y-81510500D01*
X131973713Y-81510500D01*
X131925042Y-81518208D01*
X131763760Y-81543753D01*
X131561585Y-81609444D01*
X131372179Y-81705951D01*
X131200213Y-81830890D01*
X131049890Y-81981213D01*
X130924949Y-82153182D01*
X130920484Y-82161946D01*
X130872509Y-82212742D01*
X130804688Y-82229536D01*
X130738553Y-82206998D01*
X130699516Y-82161946D01*
X130695050Y-82153182D01*
X130570109Y-81981213D01*
X130419786Y-81830890D01*
X130247820Y-81705951D01*
X130058414Y-81609444D01*
X130058413Y-81609443D01*
X130058412Y-81609443D01*
X129856243Y-81543754D01*
X129856241Y-81543753D01*
X129856240Y-81543753D01*
X129694957Y-81518208D01*
X129646287Y-81510500D01*
X129433713Y-81510500D01*
X129385042Y-81518208D01*
X129223760Y-81543753D01*
X129021585Y-81609444D01*
X128832179Y-81705951D01*
X128660213Y-81830890D01*
X128509890Y-81981213D01*
X128384949Y-82153182D01*
X128380484Y-82161946D01*
X128332509Y-82212742D01*
X128264688Y-82229536D01*
X128198553Y-82206998D01*
X128159516Y-82161946D01*
X128155050Y-82153182D01*
X128030109Y-81981213D01*
X127879786Y-81830890D01*
X127707820Y-81705951D01*
X127518414Y-81609444D01*
X127518413Y-81609443D01*
X127518412Y-81609443D01*
X127316243Y-81543754D01*
X127316241Y-81543753D01*
X127316240Y-81543753D01*
X127154957Y-81518208D01*
X127106287Y-81510500D01*
X126893713Y-81510500D01*
X126845042Y-81518208D01*
X126683760Y-81543753D01*
X126481585Y-81609444D01*
X126292179Y-81705951D01*
X126120213Y-81830890D01*
X125969890Y-81981213D01*
X125844949Y-82153182D01*
X125840484Y-82161946D01*
X125792509Y-82212742D01*
X125724688Y-82229536D01*
X125658553Y-82206998D01*
X125619516Y-82161946D01*
X125615050Y-82153182D01*
X125490109Y-81981213D01*
X125339786Y-81830890D01*
X125167820Y-81705951D01*
X124978414Y-81609444D01*
X124978413Y-81609443D01*
X124978412Y-81609443D01*
X124776243Y-81543754D01*
X124776241Y-81543753D01*
X124776240Y-81543753D01*
X124614957Y-81518208D01*
X124566287Y-81510500D01*
X124353713Y-81510500D01*
X124305042Y-81518208D01*
X124143760Y-81543753D01*
X123941585Y-81609444D01*
X123752179Y-81705951D01*
X123580213Y-81830890D01*
X123429890Y-81981213D01*
X123304949Y-82153182D01*
X123300484Y-82161946D01*
X123252509Y-82212742D01*
X123184688Y-82229536D01*
X123118553Y-82206998D01*
X123079516Y-82161946D01*
X123075050Y-82153182D01*
X122950109Y-81981213D01*
X122799786Y-81830890D01*
X122627820Y-81705951D01*
X122438414Y-81609444D01*
X122438413Y-81609443D01*
X122438412Y-81609443D01*
X122236243Y-81543754D01*
X122236241Y-81543753D01*
X122236240Y-81543753D01*
X122074957Y-81518208D01*
X122026287Y-81510500D01*
X121813713Y-81510500D01*
X121765042Y-81518208D01*
X121603760Y-81543753D01*
X121401585Y-81609444D01*
X121212179Y-81705951D01*
X121040213Y-81830890D01*
X120889894Y-81981209D01*
X120889885Y-81981219D01*
X120886330Y-81986113D01*
X120830997Y-82028775D01*
X120761383Y-82034748D01*
X120699591Y-82002137D01*
X120668312Y-81952223D01*
X120664815Y-81941670D01*
X120664814Y-81941666D01*
X120572712Y-81792344D01*
X120448656Y-81668288D01*
X120299334Y-81576186D01*
X120132797Y-81521001D01*
X120132795Y-81521000D01*
X120030010Y-81510500D01*
X118729998Y-81510500D01*
X118729981Y-81510501D01*
X118627203Y-81521000D01*
X118627200Y-81521001D01*
X118460668Y-81576185D01*
X118460663Y-81576187D01*
X118311342Y-81668289D01*
X118187289Y-81792342D01*
X118095187Y-81941663D01*
X118095185Y-81941668D01*
X118082083Y-81981208D01*
X118040001Y-82108203D01*
X118040001Y-82108204D01*
X118040000Y-82108204D01*
X118029500Y-82210983D01*
X118029500Y-82210991D01*
X118029500Y-82754713D01*
X118029501Y-83287500D01*
X118009817Y-83354539D01*
X117957013Y-83400294D01*
X117905501Y-83411500D01*
X78609389Y-83411500D01*
X78548971Y-83423518D01*
X78505743Y-83432116D01*
X78488546Y-83435537D01*
X78374716Y-83482687D01*
X78374707Y-83482692D01*
X78272268Y-83551140D01*
X78228705Y-83594703D01*
X78185142Y-83638267D01*
X78185139Y-83638270D01*
X59566227Y-102257181D01*
X59504904Y-102290666D01*
X59478546Y-102293500D01*
X58813998Y-102293500D01*
X58813980Y-102293501D01*
X58711203Y-102304000D01*
X58711200Y-102304001D01*
X58544668Y-102359185D01*
X58544663Y-102359187D01*
X58395342Y-102451289D01*
X58271289Y-102575342D01*
X58179187Y-102724663D01*
X58179186Y-102724666D01*
X58124001Y-102891203D01*
X58124001Y-102891204D01*
X58124000Y-102891204D01*
X58113500Y-102993983D01*
X47948000Y-102993983D01*
X47948000Y-82354401D01*
X48462000Y-82354401D01*
X48462000Y-82702598D01*
X48500981Y-83048573D01*
X48500984Y-83048591D01*
X48578461Y-83388041D01*
X48578465Y-83388053D01*
X48693461Y-83716691D01*
X48844530Y-84030389D01*
X49029776Y-84325206D01*
X49199238Y-84537706D01*
X50267747Y-83469197D01*
X50341588Y-83570830D01*
X50519670Y-83748912D01*
X50621301Y-83822751D01*
X49552792Y-84891260D01*
X49765293Y-85060723D01*
X50060110Y-85245969D01*
X50373808Y-85397038D01*
X50702446Y-85512034D01*
X50702458Y-85512038D01*
X51041908Y-85589515D01*
X51041926Y-85589518D01*
X51387901Y-85628499D01*
X51387905Y-85628500D01*
X51736095Y-85628500D01*
X51736098Y-85628499D01*
X52082073Y-85589518D01*
X52082091Y-85589515D01*
X52421541Y-85512038D01*
X52421553Y-85512034D01*
X52750191Y-85397038D01*
X53063889Y-85245969D01*
X53358706Y-85060723D01*
X53571206Y-84891259D01*
X52502698Y-83822751D01*
X52604330Y-83748912D01*
X52782412Y-83570830D01*
X52856251Y-83469198D01*
X53924759Y-84537706D01*
X54094223Y-84325206D01*
X54279469Y-84030389D01*
X54430538Y-83716691D01*
X54545534Y-83388053D01*
X54545538Y-83388041D01*
X54623015Y-83048591D01*
X54623018Y-83048573D01*
X54661999Y-82702598D01*
X54662000Y-82702594D01*
X54662000Y-82354405D01*
X54661999Y-82354401D01*
X54623018Y-82008426D01*
X54623015Y-82008408D01*
X54545538Y-81668958D01*
X54545534Y-81668946D01*
X54430538Y-81340308D01*
X54279469Y-81026610D01*
X54094223Y-80731793D01*
X53924760Y-80519292D01*
X52856251Y-81587801D01*
X52782412Y-81486170D01*
X52604330Y-81308088D01*
X52502697Y-81234247D01*
X53571206Y-80165738D01*
X53461978Y-80078632D01*
X53358706Y-79996276D01*
X53063889Y-79811030D01*
X52750191Y-79659961D01*
X52421553Y-79544965D01*
X52421541Y-79544961D01*
X52082091Y-79467484D01*
X52082073Y-79467481D01*
X51736098Y-79428500D01*
X51387901Y-79428500D01*
X51041926Y-79467481D01*
X51041908Y-79467484D01*
X50702458Y-79544961D01*
X50702446Y-79544965D01*
X50373808Y-79659961D01*
X50060110Y-79811030D01*
X49765293Y-79996276D01*
X49552792Y-80165738D01*
X50621301Y-81234247D01*
X50519670Y-81308088D01*
X50341588Y-81486170D01*
X50267747Y-81587801D01*
X49199238Y-80519292D01*
X49029776Y-80731793D01*
X48844530Y-81026610D01*
X48693461Y-81340308D01*
X48578465Y-81668946D01*
X48578461Y-81668958D01*
X48500984Y-82008408D01*
X48500981Y-82008426D01*
X48462000Y-82354401D01*
X47948000Y-82354401D01*
X47948000Y-78653000D01*
X47967685Y-78585961D01*
X48020489Y-78540206D01*
X48072000Y-78529000D01*
X166823000Y-78529000D01*
X166890039Y-78548685D01*
G37*
%TD.AperFunction*%
%TD*%
M02*
