%TF.GenerationSoftware,KiCad,Pcbnew,9.0.0*%
%TF.CreationDate,2026-06-23T13:20:12-04:00*%
%TF.ProjectId,MagnetroneSensorArm,4d61676e-6574-4726-9f6e-6553656e736f,rev?*%
%TF.SameCoordinates,Original*%
%TF.FileFunction,Copper,L3,Inr*%
%TF.FilePolarity,Positive*%
%FSLAX46Y46*%
G04 Gerber Fmt 4.6, Leading zero omitted, Abs format (unit mm)*
G04 Created by KiCad (PCBNEW 9.0.0) date 2026-06-23 13:20:12*
%MOMM*%
%LPD*%
G01*
G04 APERTURE LIST*
G04 Aperture macros list*
%AMRoundRect*
0 Rectangle with rounded corners*
0 $1 Rounding radius*
0 $2 $3 $4 $5 $6 $7 $8 $9 X,Y pos of 4 corners*
0 Add a 4 corners polygon primitive as box body*
4,1,4,$2,$3,$4,$5,$6,$7,$8,$9,$2,$3,0*
0 Add four circle primitives for the rounded corners*
1,1,$1+$1,$2,$3*
1,1,$1+$1,$4,$5*
1,1,$1+$1,$6,$7*
1,1,$1+$1,$8,$9*
0 Add four rect primitives between the rounded corners*
20,1,$1+$1,$2,$3,$4,$5,0*
20,1,$1+$1,$4,$5,$6,$7,0*
20,1,$1+$1,$6,$7,$8,$9,0*
20,1,$1+$1,$8,$9,$2,$3,0*%
G04 Aperture macros list end*
%TA.AperFunction,ComponentPad*%
%ADD10C,3.600000*%
%TD*%
%TA.AperFunction,ComponentPad*%
%ADD11RoundRect,0.250000X-0.600000X0.600000X-0.600000X-0.600000X0.600000X-0.600000X0.600000X0.600000X0*%
%TD*%
%TA.AperFunction,ComponentPad*%
%ADD12C,1.700000*%
%TD*%
%TA.AperFunction,ViaPad*%
%ADD13C,0.600000*%
%TD*%
G04 APERTURE END LIST*
D10*
%TO.N,GND*%
%TO.C,H1*%
X87122000Y-99822000D03*
%TD*%
D11*
%TO.N,+5V*%
%TO.C,J1*%
X205408000Y-101355500D03*
D12*
%TO.N,GND*%
X205408000Y-103895500D03*
%TO.N,/hall1*%
X202868000Y-101355500D03*
%TO.N,/hall8*%
X202868000Y-103895500D03*
%TO.N,/hall2*%
X200328000Y-101355500D03*
%TO.N,/hall7*%
X200328000Y-103895500D03*
%TO.N,/hall3*%
X197788000Y-101355500D03*
%TO.N,/hall6*%
X197788000Y-103895500D03*
%TO.N,/hall4*%
X195248000Y-101355500D03*
%TO.N,/hall5*%
X195248000Y-103895500D03*
%TD*%
D13*
%TO.N,GND*%
X141210000Y-106920000D03*
X107174000Y-106920000D03*
X132666000Y-103378000D03*
X98376000Y-103378000D03*
X155526000Y-103378000D03*
X192786000Y-102616000D03*
X164070000Y-106920000D03*
X129780000Y-106920000D03*
X175500000Y-106920000D03*
X109806000Y-103378000D03*
X166956000Y-103378000D03*
X152640000Y-106920000D03*
X87122000Y-103378000D03*
X118350000Y-106920000D03*
X121236000Y-103378000D03*
X95758000Y-106934000D03*
X144096000Y-103378000D03*
%TO.N,+5V*%
X85852000Y-106949000D03*
X108712000Y-106949000D03*
X142748000Y-106949000D03*
X120142000Y-106949000D03*
X154178000Y-106949000D03*
X97282000Y-106949000D03*
X165608000Y-106949000D03*
X131318000Y-106949000D03*
%TO.N,Net-(U1-VOUT)*%
X90136000Y-107014999D03*
%TO.N,Net-(U2-VOUT)*%
X101570000Y-107014999D03*
%TO.N,Net-(U3-VOUT)*%
X112970000Y-107014999D03*
%TO.N,Net-(U4-VOUT)*%
X124370000Y-107014999D03*
%TO.N,Net-(U5-VOUT)*%
X135770000Y-107014999D03*
%TO.N,Net-(U6-VOUT)*%
X147170000Y-107014999D03*
%TO.N,Net-(U7-VOUT)*%
X158570000Y-107014999D03*
%TO.N,Net-(U8-VOUT)*%
X169970000Y-107014999D03*
%TD*%
%TA.AperFunction,Conductor*%
%TO.N,+5V*%
G36*
X213212539Y-97040185D02*
G01*
X213258294Y-97092989D01*
X213269500Y-97144500D01*
X213269500Y-107295500D01*
X213249815Y-107362539D01*
X213197011Y-107408294D01*
X213145500Y-107419500D01*
X176345134Y-107419500D01*
X176278095Y-107399815D01*
X176232340Y-107347011D01*
X176222396Y-107277853D01*
X176230573Y-107248047D01*
X176269737Y-107153497D01*
X176300500Y-106998842D01*
X176300500Y-106841158D01*
X176300500Y-106841155D01*
X176300499Y-106841153D01*
X176288635Y-106781509D01*
X176269737Y-106686503D01*
X176248741Y-106635813D01*
X176209397Y-106540827D01*
X176209390Y-106540814D01*
X176121789Y-106409711D01*
X176121786Y-106409707D01*
X176010292Y-106298213D01*
X176010288Y-106298210D01*
X175879185Y-106210609D01*
X175879172Y-106210602D01*
X175733501Y-106150264D01*
X175733489Y-106150261D01*
X175578845Y-106119500D01*
X175578842Y-106119500D01*
X175421158Y-106119500D01*
X175421155Y-106119500D01*
X175266510Y-106150261D01*
X175266498Y-106150264D01*
X175120827Y-106210602D01*
X175120814Y-106210609D01*
X174989711Y-106298210D01*
X174989707Y-106298213D01*
X174878213Y-106409707D01*
X174878210Y-106409711D01*
X174790609Y-106540814D01*
X174790602Y-106540827D01*
X174730264Y-106686498D01*
X174730261Y-106686510D01*
X174699500Y-106841153D01*
X174699500Y-106998846D01*
X174730261Y-107153489D01*
X174730263Y-107153497D01*
X174769427Y-107248047D01*
X174776896Y-107317517D01*
X174745621Y-107379996D01*
X174685532Y-107415648D01*
X174654866Y-107419500D01*
X170854484Y-107419500D01*
X170787445Y-107399815D01*
X170741690Y-107347011D01*
X170731746Y-107277853D01*
X170738182Y-107254387D01*
X170737969Y-107254323D01*
X170739731Y-107248508D01*
X170739737Y-107248496D01*
X170770500Y-107093841D01*
X170770500Y-106936157D01*
X170770500Y-106936154D01*
X170770499Y-106936152D01*
X170754388Y-106855158D01*
X170739737Y-106781502D01*
X170739735Y-106781497D01*
X170679397Y-106635826D01*
X170679390Y-106635813D01*
X170591789Y-106504710D01*
X170591786Y-106504706D01*
X170480292Y-106393212D01*
X170480288Y-106393209D01*
X170349185Y-106305608D01*
X170349172Y-106305601D01*
X170203501Y-106245263D01*
X170203489Y-106245260D01*
X170048845Y-106214499D01*
X170048842Y-106214499D01*
X169891158Y-106214499D01*
X169891155Y-106214499D01*
X169736510Y-106245260D01*
X169736498Y-106245263D01*
X169590827Y-106305601D01*
X169590814Y-106305608D01*
X169459711Y-106393209D01*
X169459707Y-106393212D01*
X169348213Y-106504706D01*
X169348210Y-106504710D01*
X169260609Y-106635813D01*
X169260602Y-106635826D01*
X169200264Y-106781497D01*
X169200261Y-106781509D01*
X169169500Y-106936152D01*
X169169500Y-107093845D01*
X169200261Y-107248488D01*
X169202031Y-107254323D01*
X169200793Y-107254698D01*
X169207545Y-107317521D01*
X169176268Y-107379999D01*
X169116178Y-107415649D01*
X169085516Y-107419500D01*
X164915134Y-107419500D01*
X164848095Y-107399815D01*
X164802340Y-107347011D01*
X164792396Y-107277853D01*
X164800573Y-107248047D01*
X164839737Y-107153497D01*
X164870500Y-106998842D01*
X164870500Y-106841158D01*
X164870500Y-106841155D01*
X164870499Y-106841153D01*
X164858635Y-106781509D01*
X164839737Y-106686503D01*
X164818741Y-106635813D01*
X164779397Y-106540827D01*
X164779390Y-106540814D01*
X164691789Y-106409711D01*
X164691786Y-106409707D01*
X164580292Y-106298213D01*
X164580288Y-106298210D01*
X164449185Y-106210609D01*
X164449172Y-106210602D01*
X164303501Y-106150264D01*
X164303489Y-106150261D01*
X164148845Y-106119500D01*
X164148842Y-106119500D01*
X163991158Y-106119500D01*
X163991155Y-106119500D01*
X163836510Y-106150261D01*
X163836498Y-106150264D01*
X163690827Y-106210602D01*
X163690814Y-106210609D01*
X163559711Y-106298210D01*
X163559707Y-106298213D01*
X163448213Y-106409707D01*
X163448210Y-106409711D01*
X163360609Y-106540814D01*
X163360602Y-106540827D01*
X163300264Y-106686498D01*
X163300261Y-106686510D01*
X163269500Y-106841153D01*
X163269500Y-106998846D01*
X163300261Y-107153489D01*
X163300263Y-107153497D01*
X163339427Y-107248047D01*
X163346896Y-107317517D01*
X163315621Y-107379996D01*
X163255532Y-107415648D01*
X163224866Y-107419500D01*
X159454484Y-107419500D01*
X159387445Y-107399815D01*
X159341690Y-107347011D01*
X159331746Y-107277853D01*
X159338182Y-107254387D01*
X159337969Y-107254323D01*
X159339731Y-107248508D01*
X159339737Y-107248496D01*
X159370500Y-107093841D01*
X159370500Y-106936157D01*
X159370500Y-106936154D01*
X159370499Y-106936152D01*
X159354388Y-106855158D01*
X159339737Y-106781502D01*
X159339735Y-106781497D01*
X159279397Y-106635826D01*
X159279390Y-106635813D01*
X159191789Y-106504710D01*
X159191786Y-106504706D01*
X159080292Y-106393212D01*
X159080288Y-106393209D01*
X158949185Y-106305608D01*
X158949172Y-106305601D01*
X158803501Y-106245263D01*
X158803489Y-106245260D01*
X158648845Y-106214499D01*
X158648842Y-106214499D01*
X158491158Y-106214499D01*
X158491155Y-106214499D01*
X158336510Y-106245260D01*
X158336498Y-106245263D01*
X158190827Y-106305601D01*
X158190814Y-106305608D01*
X158059711Y-106393209D01*
X158059707Y-106393212D01*
X157948213Y-106504706D01*
X157948210Y-106504710D01*
X157860609Y-106635813D01*
X157860602Y-106635826D01*
X157800264Y-106781497D01*
X157800261Y-106781509D01*
X157769500Y-106936152D01*
X157769500Y-107093845D01*
X157800261Y-107248488D01*
X157802031Y-107254323D01*
X157800793Y-107254698D01*
X157807545Y-107317521D01*
X157776268Y-107379999D01*
X157716178Y-107415649D01*
X157685516Y-107419500D01*
X153485134Y-107419500D01*
X153418095Y-107399815D01*
X153372340Y-107347011D01*
X153362396Y-107277853D01*
X153370573Y-107248047D01*
X153409737Y-107153497D01*
X153440500Y-106998842D01*
X153440500Y-106841158D01*
X153440500Y-106841155D01*
X153440499Y-106841153D01*
X153428635Y-106781509D01*
X153409737Y-106686503D01*
X153388741Y-106635813D01*
X153349397Y-106540827D01*
X153349390Y-106540814D01*
X153261789Y-106409711D01*
X153261786Y-106409707D01*
X153150292Y-106298213D01*
X153150288Y-106298210D01*
X153019185Y-106210609D01*
X153019172Y-106210602D01*
X152873501Y-106150264D01*
X152873489Y-106150261D01*
X152718845Y-106119500D01*
X152718842Y-106119500D01*
X152561158Y-106119500D01*
X152561155Y-106119500D01*
X152406510Y-106150261D01*
X152406498Y-106150264D01*
X152260827Y-106210602D01*
X152260814Y-106210609D01*
X152129711Y-106298210D01*
X152129707Y-106298213D01*
X152018213Y-106409707D01*
X152018210Y-106409711D01*
X151930609Y-106540814D01*
X151930602Y-106540827D01*
X151870264Y-106686498D01*
X151870261Y-106686510D01*
X151839500Y-106841153D01*
X151839500Y-106998846D01*
X151870261Y-107153489D01*
X151870263Y-107153497D01*
X151909427Y-107248047D01*
X151916896Y-107317517D01*
X151885621Y-107379996D01*
X151825532Y-107415648D01*
X151794866Y-107419500D01*
X148054484Y-107419500D01*
X147987445Y-107399815D01*
X147941690Y-107347011D01*
X147931746Y-107277853D01*
X147938182Y-107254387D01*
X147937969Y-107254323D01*
X147939731Y-107248508D01*
X147939737Y-107248496D01*
X147970500Y-107093841D01*
X147970500Y-106936157D01*
X147970500Y-106936154D01*
X147970499Y-106936152D01*
X147954388Y-106855158D01*
X147939737Y-106781502D01*
X147939735Y-106781497D01*
X147879397Y-106635826D01*
X147879390Y-106635813D01*
X147791789Y-106504710D01*
X147791786Y-106504706D01*
X147680292Y-106393212D01*
X147680288Y-106393209D01*
X147549185Y-106305608D01*
X147549172Y-106305601D01*
X147403501Y-106245263D01*
X147403489Y-106245260D01*
X147248845Y-106214499D01*
X147248842Y-106214499D01*
X147091158Y-106214499D01*
X147091155Y-106214499D01*
X146936510Y-106245260D01*
X146936498Y-106245263D01*
X146790827Y-106305601D01*
X146790814Y-106305608D01*
X146659711Y-106393209D01*
X146659707Y-106393212D01*
X146548213Y-106504706D01*
X146548210Y-106504710D01*
X146460609Y-106635813D01*
X146460602Y-106635826D01*
X146400264Y-106781497D01*
X146400261Y-106781509D01*
X146369500Y-106936152D01*
X146369500Y-107093845D01*
X146400261Y-107248488D01*
X146402031Y-107254323D01*
X146400793Y-107254698D01*
X146407545Y-107317521D01*
X146376268Y-107379999D01*
X146316178Y-107415649D01*
X146285516Y-107419500D01*
X142055134Y-107419500D01*
X141988095Y-107399815D01*
X141942340Y-107347011D01*
X141932396Y-107277853D01*
X141940573Y-107248047D01*
X141979737Y-107153497D01*
X142010500Y-106998842D01*
X142010500Y-106841158D01*
X142010500Y-106841155D01*
X142010499Y-106841153D01*
X141998635Y-106781509D01*
X141979737Y-106686503D01*
X141958741Y-106635813D01*
X141919397Y-106540827D01*
X141919390Y-106540814D01*
X141831789Y-106409711D01*
X141831786Y-106409707D01*
X141720292Y-106298213D01*
X141720288Y-106298210D01*
X141589185Y-106210609D01*
X141589172Y-106210602D01*
X141443501Y-106150264D01*
X141443489Y-106150261D01*
X141288845Y-106119500D01*
X141288842Y-106119500D01*
X141131158Y-106119500D01*
X141131155Y-106119500D01*
X140976510Y-106150261D01*
X140976498Y-106150264D01*
X140830827Y-106210602D01*
X140830814Y-106210609D01*
X140699711Y-106298210D01*
X140699707Y-106298213D01*
X140588213Y-106409707D01*
X140588210Y-106409711D01*
X140500609Y-106540814D01*
X140500602Y-106540827D01*
X140440264Y-106686498D01*
X140440261Y-106686510D01*
X140409500Y-106841153D01*
X140409500Y-106998846D01*
X140440261Y-107153489D01*
X140440263Y-107153497D01*
X140479427Y-107248047D01*
X140486896Y-107317517D01*
X140455621Y-107379996D01*
X140395532Y-107415648D01*
X140364866Y-107419500D01*
X136654484Y-107419500D01*
X136587445Y-107399815D01*
X136541690Y-107347011D01*
X136531746Y-107277853D01*
X136538182Y-107254387D01*
X136537969Y-107254323D01*
X136539731Y-107248508D01*
X136539737Y-107248496D01*
X136570500Y-107093841D01*
X136570500Y-106936157D01*
X136570500Y-106936154D01*
X136570499Y-106936152D01*
X136554388Y-106855158D01*
X136539737Y-106781502D01*
X136539735Y-106781497D01*
X136479397Y-106635826D01*
X136479390Y-106635813D01*
X136391789Y-106504710D01*
X136391786Y-106504706D01*
X136280292Y-106393212D01*
X136280288Y-106393209D01*
X136149185Y-106305608D01*
X136149172Y-106305601D01*
X136003501Y-106245263D01*
X136003489Y-106245260D01*
X135848845Y-106214499D01*
X135848842Y-106214499D01*
X135691158Y-106214499D01*
X135691155Y-106214499D01*
X135536510Y-106245260D01*
X135536498Y-106245263D01*
X135390827Y-106305601D01*
X135390814Y-106305608D01*
X135259711Y-106393209D01*
X135259707Y-106393212D01*
X135148213Y-106504706D01*
X135148210Y-106504710D01*
X135060609Y-106635813D01*
X135060602Y-106635826D01*
X135000264Y-106781497D01*
X135000261Y-106781509D01*
X134969500Y-106936152D01*
X134969500Y-107093845D01*
X135000261Y-107248488D01*
X135002031Y-107254323D01*
X135000793Y-107254698D01*
X135007545Y-107317521D01*
X134976268Y-107379999D01*
X134916178Y-107415649D01*
X134885516Y-107419500D01*
X130625134Y-107419500D01*
X130558095Y-107399815D01*
X130512340Y-107347011D01*
X130502396Y-107277853D01*
X130510573Y-107248047D01*
X130549737Y-107153497D01*
X130580500Y-106998842D01*
X130580500Y-106841158D01*
X130580500Y-106841155D01*
X130580499Y-106841153D01*
X130568635Y-106781509D01*
X130549737Y-106686503D01*
X130528741Y-106635813D01*
X130489397Y-106540827D01*
X130489390Y-106540814D01*
X130401789Y-106409711D01*
X130401786Y-106409707D01*
X130290292Y-106298213D01*
X130290288Y-106298210D01*
X130159185Y-106210609D01*
X130159172Y-106210602D01*
X130013501Y-106150264D01*
X130013489Y-106150261D01*
X129858845Y-106119500D01*
X129858842Y-106119500D01*
X129701158Y-106119500D01*
X129701155Y-106119500D01*
X129546510Y-106150261D01*
X129546498Y-106150264D01*
X129400827Y-106210602D01*
X129400814Y-106210609D01*
X129269711Y-106298210D01*
X129269707Y-106298213D01*
X129158213Y-106409707D01*
X129158210Y-106409711D01*
X129070609Y-106540814D01*
X129070602Y-106540827D01*
X129010264Y-106686498D01*
X129010261Y-106686510D01*
X128979500Y-106841153D01*
X128979500Y-106998846D01*
X129010261Y-107153489D01*
X129010263Y-107153497D01*
X129049427Y-107248047D01*
X129056896Y-107317517D01*
X129025621Y-107379996D01*
X128965532Y-107415648D01*
X128934866Y-107419500D01*
X125254484Y-107419500D01*
X125187445Y-107399815D01*
X125141690Y-107347011D01*
X125131746Y-107277853D01*
X125138182Y-107254387D01*
X125137969Y-107254323D01*
X125139731Y-107248508D01*
X125139737Y-107248496D01*
X125170500Y-107093841D01*
X125170500Y-106936157D01*
X125170500Y-106936154D01*
X125170499Y-106936152D01*
X125154388Y-106855158D01*
X125139737Y-106781502D01*
X125139735Y-106781497D01*
X125079397Y-106635826D01*
X125079390Y-106635813D01*
X124991789Y-106504710D01*
X124991786Y-106504706D01*
X124880292Y-106393212D01*
X124880288Y-106393209D01*
X124749185Y-106305608D01*
X124749172Y-106305601D01*
X124603501Y-106245263D01*
X124603489Y-106245260D01*
X124448845Y-106214499D01*
X124448842Y-106214499D01*
X124291158Y-106214499D01*
X124291155Y-106214499D01*
X124136510Y-106245260D01*
X124136498Y-106245263D01*
X123990827Y-106305601D01*
X123990814Y-106305608D01*
X123859711Y-106393209D01*
X123859707Y-106393212D01*
X123748213Y-106504706D01*
X123748210Y-106504710D01*
X123660609Y-106635813D01*
X123660602Y-106635826D01*
X123600264Y-106781497D01*
X123600261Y-106781509D01*
X123569500Y-106936152D01*
X123569500Y-107093845D01*
X123600261Y-107248488D01*
X123602031Y-107254323D01*
X123600793Y-107254698D01*
X123607545Y-107317521D01*
X123576268Y-107379999D01*
X123516178Y-107415649D01*
X123485516Y-107419500D01*
X119195134Y-107419500D01*
X119128095Y-107399815D01*
X119082340Y-107347011D01*
X119072396Y-107277853D01*
X119080573Y-107248047D01*
X119119737Y-107153497D01*
X119150500Y-106998842D01*
X119150500Y-106841158D01*
X119150500Y-106841155D01*
X119150499Y-106841153D01*
X119138635Y-106781509D01*
X119119737Y-106686503D01*
X119098741Y-106635813D01*
X119059397Y-106540827D01*
X119059390Y-106540814D01*
X118971789Y-106409711D01*
X118971786Y-106409707D01*
X118860292Y-106298213D01*
X118860288Y-106298210D01*
X118729185Y-106210609D01*
X118729172Y-106210602D01*
X118583501Y-106150264D01*
X118583489Y-106150261D01*
X118428845Y-106119500D01*
X118428842Y-106119500D01*
X118271158Y-106119500D01*
X118271155Y-106119500D01*
X118116510Y-106150261D01*
X118116498Y-106150264D01*
X117970827Y-106210602D01*
X117970814Y-106210609D01*
X117839711Y-106298210D01*
X117839707Y-106298213D01*
X117728213Y-106409707D01*
X117728210Y-106409711D01*
X117640609Y-106540814D01*
X117640602Y-106540827D01*
X117580264Y-106686498D01*
X117580261Y-106686510D01*
X117549500Y-106841153D01*
X117549500Y-106998846D01*
X117580261Y-107153489D01*
X117580263Y-107153497D01*
X117619427Y-107248047D01*
X117626896Y-107317517D01*
X117595621Y-107379996D01*
X117535532Y-107415648D01*
X117504866Y-107419500D01*
X113854484Y-107419500D01*
X113787445Y-107399815D01*
X113741690Y-107347011D01*
X113731746Y-107277853D01*
X113738182Y-107254387D01*
X113737969Y-107254323D01*
X113739731Y-107248508D01*
X113739737Y-107248496D01*
X113770500Y-107093841D01*
X113770500Y-106936157D01*
X113770500Y-106936154D01*
X113770499Y-106936152D01*
X113754388Y-106855158D01*
X113739737Y-106781502D01*
X113739735Y-106781497D01*
X113679397Y-106635826D01*
X113679390Y-106635813D01*
X113591789Y-106504710D01*
X113591786Y-106504706D01*
X113480292Y-106393212D01*
X113480288Y-106393209D01*
X113349185Y-106305608D01*
X113349172Y-106305601D01*
X113203501Y-106245263D01*
X113203489Y-106245260D01*
X113048845Y-106214499D01*
X113048842Y-106214499D01*
X112891158Y-106214499D01*
X112891155Y-106214499D01*
X112736510Y-106245260D01*
X112736498Y-106245263D01*
X112590827Y-106305601D01*
X112590814Y-106305608D01*
X112459711Y-106393209D01*
X112459707Y-106393212D01*
X112348213Y-106504706D01*
X112348210Y-106504710D01*
X112260609Y-106635813D01*
X112260602Y-106635826D01*
X112200264Y-106781497D01*
X112200261Y-106781509D01*
X112169500Y-106936152D01*
X112169500Y-107093845D01*
X112200261Y-107248488D01*
X112202031Y-107254323D01*
X112200793Y-107254698D01*
X112207545Y-107317521D01*
X112176268Y-107379999D01*
X112116178Y-107415649D01*
X112085516Y-107419500D01*
X108019134Y-107419500D01*
X107952095Y-107399815D01*
X107906340Y-107347011D01*
X107896396Y-107277853D01*
X107904573Y-107248047D01*
X107943737Y-107153497D01*
X107974500Y-106998842D01*
X107974500Y-106841158D01*
X107974500Y-106841155D01*
X107974499Y-106841153D01*
X107962635Y-106781509D01*
X107943737Y-106686503D01*
X107922741Y-106635813D01*
X107883397Y-106540827D01*
X107883390Y-106540814D01*
X107795789Y-106409711D01*
X107795786Y-106409707D01*
X107684292Y-106298213D01*
X107684288Y-106298210D01*
X107553185Y-106210609D01*
X107553172Y-106210602D01*
X107407501Y-106150264D01*
X107407489Y-106150261D01*
X107252845Y-106119500D01*
X107252842Y-106119500D01*
X107095158Y-106119500D01*
X107095155Y-106119500D01*
X106940510Y-106150261D01*
X106940498Y-106150264D01*
X106794827Y-106210602D01*
X106794814Y-106210609D01*
X106663711Y-106298210D01*
X106663707Y-106298213D01*
X106552213Y-106409707D01*
X106552210Y-106409711D01*
X106464609Y-106540814D01*
X106464602Y-106540827D01*
X106404264Y-106686498D01*
X106404261Y-106686510D01*
X106373500Y-106841153D01*
X106373500Y-106998846D01*
X106404261Y-107153489D01*
X106404263Y-107153497D01*
X106443427Y-107248047D01*
X106450896Y-107317517D01*
X106419621Y-107379996D01*
X106359532Y-107415648D01*
X106328866Y-107419500D01*
X102454484Y-107419500D01*
X102387445Y-107399815D01*
X102341690Y-107347011D01*
X102331746Y-107277853D01*
X102338182Y-107254387D01*
X102337969Y-107254323D01*
X102339731Y-107248508D01*
X102339737Y-107248496D01*
X102370500Y-107093841D01*
X102370500Y-106936157D01*
X102370500Y-106936154D01*
X102370499Y-106936152D01*
X102354388Y-106855158D01*
X102339737Y-106781502D01*
X102339735Y-106781497D01*
X102279397Y-106635826D01*
X102279390Y-106635813D01*
X102191789Y-106504710D01*
X102191786Y-106504706D01*
X102080292Y-106393212D01*
X102080288Y-106393209D01*
X101949185Y-106305608D01*
X101949172Y-106305601D01*
X101803501Y-106245263D01*
X101803489Y-106245260D01*
X101648845Y-106214499D01*
X101648842Y-106214499D01*
X101491158Y-106214499D01*
X101491155Y-106214499D01*
X101336510Y-106245260D01*
X101336498Y-106245263D01*
X101190827Y-106305601D01*
X101190814Y-106305608D01*
X101059711Y-106393209D01*
X101059707Y-106393212D01*
X100948213Y-106504706D01*
X100948210Y-106504710D01*
X100860609Y-106635813D01*
X100860602Y-106635826D01*
X100800264Y-106781497D01*
X100800261Y-106781509D01*
X100769500Y-106936152D01*
X100769500Y-107093845D01*
X100800261Y-107248488D01*
X100802031Y-107254323D01*
X100800793Y-107254698D01*
X100807545Y-107317521D01*
X100776268Y-107379999D01*
X100716178Y-107415649D01*
X100685516Y-107419500D01*
X96608933Y-107419500D01*
X96541894Y-107399815D01*
X96496139Y-107347011D01*
X96486195Y-107277853D01*
X96494372Y-107248047D01*
X96527737Y-107167497D01*
X96558500Y-107012842D01*
X96558500Y-106855158D01*
X96558500Y-106855155D01*
X96558499Y-106855153D01*
X96527738Y-106700510D01*
X96527737Y-106700503D01*
X96500942Y-106635813D01*
X96467397Y-106554827D01*
X96467390Y-106554814D01*
X96379789Y-106423711D01*
X96379786Y-106423707D01*
X96268292Y-106312213D01*
X96268288Y-106312210D01*
X96137185Y-106224609D01*
X96137172Y-106224602D01*
X95991501Y-106164264D01*
X95991489Y-106164261D01*
X95836845Y-106133500D01*
X95836842Y-106133500D01*
X95679158Y-106133500D01*
X95679155Y-106133500D01*
X95524510Y-106164261D01*
X95524498Y-106164264D01*
X95378827Y-106224602D01*
X95378814Y-106224609D01*
X95247711Y-106312210D01*
X95247707Y-106312213D01*
X95136213Y-106423707D01*
X95136210Y-106423711D01*
X95048609Y-106554814D01*
X95048602Y-106554827D01*
X94988264Y-106700498D01*
X94988261Y-106700510D01*
X94957500Y-106855153D01*
X94957500Y-107012846D01*
X94988261Y-107167489D01*
X94988263Y-107167497D01*
X95021628Y-107248047D01*
X95029097Y-107317517D01*
X94997822Y-107379996D01*
X94937733Y-107415648D01*
X94907067Y-107419500D01*
X91020484Y-107419500D01*
X90953445Y-107399815D01*
X90907690Y-107347011D01*
X90897746Y-107277853D01*
X90904182Y-107254387D01*
X90903969Y-107254323D01*
X90905731Y-107248508D01*
X90905737Y-107248496D01*
X90936500Y-107093841D01*
X90936500Y-106936157D01*
X90936500Y-106936154D01*
X90936499Y-106936152D01*
X90920388Y-106855158D01*
X90905737Y-106781502D01*
X90905735Y-106781497D01*
X90845397Y-106635826D01*
X90845390Y-106635813D01*
X90757789Y-106504710D01*
X90757786Y-106504706D01*
X90646292Y-106393212D01*
X90646288Y-106393209D01*
X90515185Y-106305608D01*
X90515172Y-106305601D01*
X90369501Y-106245263D01*
X90369489Y-106245260D01*
X90214845Y-106214499D01*
X90214842Y-106214499D01*
X90057158Y-106214499D01*
X90057155Y-106214499D01*
X89902510Y-106245260D01*
X89902498Y-106245263D01*
X89756827Y-106305601D01*
X89756814Y-106305608D01*
X89625711Y-106393209D01*
X89625707Y-106393212D01*
X89514213Y-106504706D01*
X89514210Y-106504710D01*
X89426609Y-106635813D01*
X89426602Y-106635826D01*
X89366264Y-106781497D01*
X89366261Y-106781509D01*
X89335500Y-106936152D01*
X89335500Y-107093845D01*
X89366261Y-107248488D01*
X89368031Y-107254323D01*
X89366793Y-107254698D01*
X89373545Y-107317521D01*
X89342268Y-107379999D01*
X89282178Y-107415649D01*
X89251516Y-107419500D01*
X84394500Y-107419500D01*
X84327461Y-107399815D01*
X84281706Y-107347011D01*
X84270500Y-107295500D01*
X84270500Y-103299153D01*
X86321500Y-103299153D01*
X86321500Y-103456846D01*
X86352261Y-103611489D01*
X86352264Y-103611501D01*
X86412602Y-103757172D01*
X86412609Y-103757185D01*
X86500210Y-103888288D01*
X86500213Y-103888292D01*
X86611707Y-103999786D01*
X86611711Y-103999789D01*
X86742814Y-104087390D01*
X86742827Y-104087397D01*
X86888498Y-104147735D01*
X86888503Y-104147737D01*
X87043153Y-104178499D01*
X87043156Y-104178500D01*
X87043158Y-104178500D01*
X87200844Y-104178500D01*
X87200845Y-104178499D01*
X87355497Y-104147737D01*
X87501179Y-104087394D01*
X87632289Y-103999789D01*
X87743789Y-103888289D01*
X87831394Y-103757179D01*
X87891737Y-103611497D01*
X87922500Y-103456842D01*
X87922500Y-103299158D01*
X87922500Y-103299155D01*
X87922499Y-103299153D01*
X97575500Y-103299153D01*
X97575500Y-103456846D01*
X97606261Y-103611489D01*
X97606264Y-103611501D01*
X97666602Y-103757172D01*
X97666609Y-103757185D01*
X97754210Y-103888288D01*
X97754213Y-103888292D01*
X97865707Y-103999786D01*
X97865711Y-103999789D01*
X97996814Y-104087390D01*
X97996827Y-104087397D01*
X98142498Y-104147735D01*
X98142503Y-104147737D01*
X98297153Y-104178499D01*
X98297156Y-104178500D01*
X98297158Y-104178500D01*
X98454844Y-104178500D01*
X98454845Y-104178499D01*
X98609497Y-104147737D01*
X98755179Y-104087394D01*
X98886289Y-103999789D01*
X98997789Y-103888289D01*
X99085394Y-103757179D01*
X99145737Y-103611497D01*
X99176500Y-103456842D01*
X99176500Y-103299158D01*
X99176500Y-103299155D01*
X99176499Y-103299153D01*
X109005500Y-103299153D01*
X109005500Y-103456846D01*
X109036261Y-103611489D01*
X109036264Y-103611501D01*
X109096602Y-103757172D01*
X109096609Y-103757185D01*
X109184210Y-103888288D01*
X109184213Y-103888292D01*
X109295707Y-103999786D01*
X109295711Y-103999789D01*
X109426814Y-104087390D01*
X109426827Y-104087397D01*
X109572498Y-104147735D01*
X109572503Y-104147737D01*
X109727153Y-104178499D01*
X109727156Y-104178500D01*
X109727158Y-104178500D01*
X109884844Y-104178500D01*
X109884845Y-104178499D01*
X110039497Y-104147737D01*
X110185179Y-104087394D01*
X110316289Y-103999789D01*
X110427789Y-103888289D01*
X110515394Y-103757179D01*
X110575737Y-103611497D01*
X110606500Y-103456842D01*
X110606500Y-103299158D01*
X110606500Y-103299155D01*
X110606499Y-103299153D01*
X120435500Y-103299153D01*
X120435500Y-103456846D01*
X120466261Y-103611489D01*
X120466264Y-103611501D01*
X120526602Y-103757172D01*
X120526609Y-103757185D01*
X120614210Y-103888288D01*
X120614213Y-103888292D01*
X120725707Y-103999786D01*
X120725711Y-103999789D01*
X120856814Y-104087390D01*
X120856827Y-104087397D01*
X121002498Y-104147735D01*
X121002503Y-104147737D01*
X121157153Y-104178499D01*
X121157156Y-104178500D01*
X121157158Y-104178500D01*
X121314844Y-104178500D01*
X121314845Y-104178499D01*
X121469497Y-104147737D01*
X121615179Y-104087394D01*
X121746289Y-103999789D01*
X121857789Y-103888289D01*
X121945394Y-103757179D01*
X122005737Y-103611497D01*
X122036500Y-103456842D01*
X122036500Y-103299158D01*
X122036500Y-103299155D01*
X122036499Y-103299153D01*
X131865500Y-103299153D01*
X131865500Y-103456846D01*
X131896261Y-103611489D01*
X131896264Y-103611501D01*
X131956602Y-103757172D01*
X131956609Y-103757185D01*
X132044210Y-103888288D01*
X132044213Y-103888292D01*
X132155707Y-103999786D01*
X132155711Y-103999789D01*
X132286814Y-104087390D01*
X132286827Y-104087397D01*
X132432498Y-104147735D01*
X132432503Y-104147737D01*
X132587153Y-104178499D01*
X132587156Y-104178500D01*
X132587158Y-104178500D01*
X132744844Y-104178500D01*
X132744845Y-104178499D01*
X132899497Y-104147737D01*
X133045179Y-104087394D01*
X133176289Y-103999789D01*
X133287789Y-103888289D01*
X133375394Y-103757179D01*
X133435737Y-103611497D01*
X133466500Y-103456842D01*
X133466500Y-103299158D01*
X133466500Y-103299155D01*
X133466499Y-103299153D01*
X143295500Y-103299153D01*
X143295500Y-103456846D01*
X143326261Y-103611489D01*
X143326264Y-103611501D01*
X143386602Y-103757172D01*
X143386609Y-103757185D01*
X143474210Y-103888288D01*
X143474213Y-103888292D01*
X143585707Y-103999786D01*
X143585711Y-103999789D01*
X143716814Y-104087390D01*
X143716827Y-104087397D01*
X143862498Y-104147735D01*
X143862503Y-104147737D01*
X144017153Y-104178499D01*
X144017156Y-104178500D01*
X144017158Y-104178500D01*
X144174844Y-104178500D01*
X144174845Y-104178499D01*
X144329497Y-104147737D01*
X144475179Y-104087394D01*
X144606289Y-103999789D01*
X144717789Y-103888289D01*
X144805394Y-103757179D01*
X144865737Y-103611497D01*
X144896500Y-103456842D01*
X144896500Y-103299158D01*
X144896500Y-103299155D01*
X144896499Y-103299153D01*
X154725500Y-103299153D01*
X154725500Y-103456846D01*
X154756261Y-103611489D01*
X154756264Y-103611501D01*
X154816602Y-103757172D01*
X154816609Y-103757185D01*
X154904210Y-103888288D01*
X154904213Y-103888292D01*
X155015707Y-103999786D01*
X155015711Y-103999789D01*
X155146814Y-104087390D01*
X155146827Y-104087397D01*
X155292498Y-104147735D01*
X155292503Y-104147737D01*
X155447153Y-104178499D01*
X155447156Y-104178500D01*
X155447158Y-104178500D01*
X155604844Y-104178500D01*
X155604845Y-104178499D01*
X155759497Y-104147737D01*
X155905179Y-104087394D01*
X156036289Y-103999789D01*
X156147789Y-103888289D01*
X156235394Y-103757179D01*
X156295737Y-103611497D01*
X156326500Y-103456842D01*
X156326500Y-103299158D01*
X156326500Y-103299155D01*
X156326499Y-103299153D01*
X166155500Y-103299153D01*
X166155500Y-103456846D01*
X166186261Y-103611489D01*
X166186264Y-103611501D01*
X166246602Y-103757172D01*
X166246609Y-103757185D01*
X166334210Y-103888288D01*
X166334213Y-103888292D01*
X166445707Y-103999786D01*
X166445711Y-103999789D01*
X166576814Y-104087390D01*
X166576827Y-104087397D01*
X166722498Y-104147735D01*
X166722503Y-104147737D01*
X166877153Y-104178499D01*
X166877156Y-104178500D01*
X166877158Y-104178500D01*
X167034844Y-104178500D01*
X167034845Y-104178499D01*
X167189497Y-104147737D01*
X167335179Y-104087394D01*
X167466289Y-103999789D01*
X167577789Y-103888289D01*
X167665394Y-103757179D01*
X167725737Y-103611497D01*
X167756500Y-103456842D01*
X167756500Y-103299158D01*
X167756500Y-103299155D01*
X167756499Y-103299153D01*
X167746173Y-103247242D01*
X167725737Y-103144503D01*
X167672389Y-103015708D01*
X167665397Y-102998827D01*
X167665390Y-102998814D01*
X167577789Y-102867711D01*
X167577786Y-102867707D01*
X167466292Y-102756213D01*
X167466288Y-102756210D01*
X167335185Y-102668609D01*
X167335172Y-102668602D01*
X167279703Y-102645627D01*
X167189501Y-102608264D01*
X167189489Y-102608261D01*
X167034845Y-102577500D01*
X167034842Y-102577500D01*
X166877158Y-102577500D01*
X166877155Y-102577500D01*
X166722510Y-102608261D01*
X166722498Y-102608264D01*
X166576827Y-102668602D01*
X166576814Y-102668609D01*
X166445711Y-102756210D01*
X166445707Y-102756213D01*
X166334213Y-102867707D01*
X166334210Y-102867711D01*
X166246609Y-102998814D01*
X166246602Y-102998827D01*
X166186264Y-103144498D01*
X166186261Y-103144510D01*
X166155500Y-103299153D01*
X156326499Y-103299153D01*
X156316173Y-103247242D01*
X156295737Y-103144503D01*
X156242389Y-103015708D01*
X156235397Y-102998827D01*
X156235390Y-102998814D01*
X156147789Y-102867711D01*
X156147786Y-102867707D01*
X156036292Y-102756213D01*
X156036288Y-102756210D01*
X155905185Y-102668609D01*
X155905172Y-102668602D01*
X155759501Y-102608264D01*
X155759489Y-102608261D01*
X155604845Y-102577500D01*
X155604842Y-102577500D01*
X155447158Y-102577500D01*
X155447155Y-102577500D01*
X155292510Y-102608261D01*
X155292498Y-102608264D01*
X155146827Y-102668602D01*
X155146814Y-102668609D01*
X155015711Y-102756210D01*
X155015707Y-102756213D01*
X154904213Y-102867707D01*
X154904210Y-102867711D01*
X154816609Y-102998814D01*
X154816602Y-102998827D01*
X154756264Y-103144498D01*
X154756261Y-103144510D01*
X154725500Y-103299153D01*
X144896499Y-103299153D01*
X144886173Y-103247242D01*
X144865737Y-103144503D01*
X144812389Y-103015708D01*
X144805397Y-102998827D01*
X144805390Y-102998814D01*
X144717789Y-102867711D01*
X144717786Y-102867707D01*
X144606292Y-102756213D01*
X144606288Y-102756210D01*
X144475185Y-102668609D01*
X144475172Y-102668602D01*
X144329501Y-102608264D01*
X144329489Y-102608261D01*
X144174845Y-102577500D01*
X144174842Y-102577500D01*
X144017158Y-102577500D01*
X144017155Y-102577500D01*
X143862510Y-102608261D01*
X143862498Y-102608264D01*
X143716827Y-102668602D01*
X143716814Y-102668609D01*
X143585711Y-102756210D01*
X143585707Y-102756213D01*
X143474213Y-102867707D01*
X143474210Y-102867711D01*
X143386609Y-102998814D01*
X143386602Y-102998827D01*
X143326264Y-103144498D01*
X143326261Y-103144510D01*
X143295500Y-103299153D01*
X133466499Y-103299153D01*
X133456173Y-103247242D01*
X133435737Y-103144503D01*
X133382389Y-103015708D01*
X133375397Y-102998827D01*
X133375390Y-102998814D01*
X133287789Y-102867711D01*
X133287786Y-102867707D01*
X133176292Y-102756213D01*
X133176288Y-102756210D01*
X133045185Y-102668609D01*
X133045172Y-102668602D01*
X132899501Y-102608264D01*
X132899489Y-102608261D01*
X132744845Y-102577500D01*
X132744842Y-102577500D01*
X132587158Y-102577500D01*
X132587155Y-102577500D01*
X132432510Y-102608261D01*
X132432498Y-102608264D01*
X132286827Y-102668602D01*
X132286814Y-102668609D01*
X132155711Y-102756210D01*
X132155707Y-102756213D01*
X132044213Y-102867707D01*
X132044210Y-102867711D01*
X131956609Y-102998814D01*
X131956602Y-102998827D01*
X131896264Y-103144498D01*
X131896261Y-103144510D01*
X131865500Y-103299153D01*
X122036499Y-103299153D01*
X122026173Y-103247242D01*
X122005737Y-103144503D01*
X121952389Y-103015708D01*
X121945397Y-102998827D01*
X121945390Y-102998814D01*
X121857789Y-102867711D01*
X121857786Y-102867707D01*
X121746292Y-102756213D01*
X121746288Y-102756210D01*
X121615185Y-102668609D01*
X121615172Y-102668602D01*
X121469501Y-102608264D01*
X121469489Y-102608261D01*
X121314845Y-102577500D01*
X121314842Y-102577500D01*
X121157158Y-102577500D01*
X121157155Y-102577500D01*
X121002510Y-102608261D01*
X121002498Y-102608264D01*
X120856827Y-102668602D01*
X120856814Y-102668609D01*
X120725711Y-102756210D01*
X120725707Y-102756213D01*
X120614213Y-102867707D01*
X120614210Y-102867711D01*
X120526609Y-102998814D01*
X120526602Y-102998827D01*
X120466264Y-103144498D01*
X120466261Y-103144510D01*
X120435500Y-103299153D01*
X110606499Y-103299153D01*
X110596173Y-103247242D01*
X110575737Y-103144503D01*
X110522389Y-103015708D01*
X110515397Y-102998827D01*
X110515390Y-102998814D01*
X110427789Y-102867711D01*
X110427786Y-102867707D01*
X110316292Y-102756213D01*
X110316288Y-102756210D01*
X110185185Y-102668609D01*
X110185172Y-102668602D01*
X110039501Y-102608264D01*
X110039489Y-102608261D01*
X109884845Y-102577500D01*
X109884842Y-102577500D01*
X109727158Y-102577500D01*
X109727155Y-102577500D01*
X109572510Y-102608261D01*
X109572498Y-102608264D01*
X109426827Y-102668602D01*
X109426814Y-102668609D01*
X109295711Y-102756210D01*
X109295707Y-102756213D01*
X109184213Y-102867707D01*
X109184210Y-102867711D01*
X109096609Y-102998814D01*
X109096602Y-102998827D01*
X109036264Y-103144498D01*
X109036261Y-103144510D01*
X109005500Y-103299153D01*
X99176499Y-103299153D01*
X99166173Y-103247242D01*
X99145737Y-103144503D01*
X99092389Y-103015708D01*
X99085397Y-102998827D01*
X99085390Y-102998814D01*
X98997789Y-102867711D01*
X98997786Y-102867707D01*
X98886292Y-102756213D01*
X98886288Y-102756210D01*
X98755185Y-102668609D01*
X98755172Y-102668602D01*
X98609501Y-102608264D01*
X98609489Y-102608261D01*
X98454845Y-102577500D01*
X98454842Y-102577500D01*
X98297158Y-102577500D01*
X98297155Y-102577500D01*
X98142510Y-102608261D01*
X98142498Y-102608264D01*
X97996827Y-102668602D01*
X97996814Y-102668609D01*
X97865711Y-102756210D01*
X97865707Y-102756213D01*
X97754213Y-102867707D01*
X97754210Y-102867711D01*
X97666609Y-102998814D01*
X97666602Y-102998827D01*
X97606264Y-103144498D01*
X97606261Y-103144510D01*
X97575500Y-103299153D01*
X87922499Y-103299153D01*
X87912173Y-103247242D01*
X87891737Y-103144503D01*
X87838389Y-103015708D01*
X87831397Y-102998827D01*
X87831390Y-102998814D01*
X87743789Y-102867711D01*
X87743786Y-102867707D01*
X87632292Y-102756213D01*
X87632288Y-102756210D01*
X87501185Y-102668609D01*
X87501172Y-102668602D01*
X87355501Y-102608264D01*
X87355489Y-102608261D01*
X87200845Y-102577500D01*
X87200842Y-102577500D01*
X87043158Y-102577500D01*
X87043155Y-102577500D01*
X86888510Y-102608261D01*
X86888498Y-102608264D01*
X86742827Y-102668602D01*
X86742814Y-102668609D01*
X86611711Y-102756210D01*
X86611707Y-102756213D01*
X86500213Y-102867707D01*
X86500210Y-102867711D01*
X86412609Y-102998814D01*
X86412602Y-102998827D01*
X86352264Y-103144498D01*
X86352261Y-103144510D01*
X86321500Y-103299153D01*
X84270500Y-103299153D01*
X84270500Y-102537153D01*
X191985500Y-102537153D01*
X191985500Y-102694846D01*
X192016261Y-102849489D01*
X192016264Y-102849501D01*
X192076602Y-102995172D01*
X192076609Y-102995185D01*
X192164210Y-103126288D01*
X192164213Y-103126292D01*
X192275707Y-103237786D01*
X192275711Y-103237789D01*
X192406814Y-103325390D01*
X192406827Y-103325397D01*
X192531615Y-103377085D01*
X192552503Y-103385737D01*
X192707153Y-103416499D01*
X192707156Y-103416500D01*
X192707158Y-103416500D01*
X192864844Y-103416500D01*
X192864845Y-103416499D01*
X193019497Y-103385737D01*
X193165179Y-103325394D01*
X193296289Y-103237789D01*
X193407789Y-103126289D01*
X193495394Y-102995179D01*
X193555737Y-102849497D01*
X193586500Y-102694842D01*
X193586500Y-102537158D01*
X193586500Y-102537155D01*
X193586499Y-102537153D01*
X193582095Y-102515014D01*
X193555737Y-102382503D01*
X193555735Y-102382498D01*
X193495397Y-102236827D01*
X193495390Y-102236814D01*
X193407789Y-102105711D01*
X193407786Y-102105707D01*
X193296292Y-101994213D01*
X193296288Y-101994210D01*
X193165185Y-101906609D01*
X193165172Y-101906602D01*
X193019501Y-101846264D01*
X193019489Y-101846261D01*
X192864845Y-101815500D01*
X192864842Y-101815500D01*
X192707158Y-101815500D01*
X192707155Y-101815500D01*
X192552510Y-101846261D01*
X192552498Y-101846264D01*
X192406827Y-101906602D01*
X192406814Y-101906609D01*
X192275711Y-101994210D01*
X192275707Y-101994213D01*
X192164213Y-102105707D01*
X192164210Y-102105711D01*
X192076609Y-102236814D01*
X192076602Y-102236827D01*
X192016264Y-102382498D01*
X192016261Y-102382510D01*
X191985500Y-102537153D01*
X84270500Y-102537153D01*
X84270500Y-99671223D01*
X84821500Y-99671223D01*
X84821500Y-99972776D01*
X84821501Y-99972793D01*
X84860861Y-100271766D01*
X84938913Y-100563060D01*
X85054314Y-100841661D01*
X85054318Y-100841671D01*
X85205099Y-101102831D01*
X85388679Y-101342078D01*
X85388685Y-101342085D01*
X85601914Y-101555314D01*
X85601921Y-101555320D01*
X85841168Y-101738900D01*
X86102328Y-101889681D01*
X86102329Y-101889681D01*
X86102332Y-101889683D01*
X86288072Y-101966619D01*
X86380939Y-102005086D01*
X86380940Y-102005086D01*
X86380942Y-102005087D01*
X86672232Y-102083138D01*
X86971217Y-102122500D01*
X86971224Y-102122500D01*
X87272776Y-102122500D01*
X87272783Y-102122500D01*
X87571768Y-102083138D01*
X87863058Y-102005087D01*
X88141668Y-101889683D01*
X88402832Y-101738900D01*
X88642080Y-101555319D01*
X88855319Y-101342080D01*
X88926578Y-101249213D01*
X193897500Y-101249213D01*
X193897500Y-101461787D01*
X193930754Y-101671743D01*
X193987459Y-101846263D01*
X193996444Y-101873914D01*
X194092951Y-102063320D01*
X194217890Y-102235286D01*
X194368213Y-102385609D01*
X194540182Y-102510550D01*
X194548946Y-102515016D01*
X194599742Y-102562991D01*
X194616536Y-102630812D01*
X194593998Y-102696947D01*
X194548946Y-102735984D01*
X194540182Y-102740449D01*
X194368213Y-102865390D01*
X194217890Y-103015713D01*
X194092951Y-103187679D01*
X193996444Y-103377085D01*
X193930753Y-103579260D01*
X193897500Y-103789213D01*
X193897500Y-104001786D01*
X193930753Y-104211739D01*
X193996444Y-104413914D01*
X194092951Y-104603320D01*
X194217890Y-104775286D01*
X194368213Y-104925609D01*
X194540179Y-105050548D01*
X194540181Y-105050549D01*
X194540184Y-105050551D01*
X194729588Y-105147057D01*
X194931757Y-105212746D01*
X195141713Y-105246000D01*
X195141714Y-105246000D01*
X195354286Y-105246000D01*
X195354287Y-105246000D01*
X195564243Y-105212746D01*
X195766412Y-105147057D01*
X195955816Y-105050551D01*
X195977789Y-105034586D01*
X196127786Y-104925609D01*
X196127788Y-104925606D01*
X196127792Y-104925604D01*
X196278104Y-104775292D01*
X196278106Y-104775288D01*
X196278109Y-104775286D01*
X196403048Y-104603320D01*
X196403047Y-104603320D01*
X196403051Y-104603316D01*
X196407514Y-104594554D01*
X196455488Y-104543759D01*
X196523308Y-104526963D01*
X196589444Y-104549499D01*
X196628486Y-104594556D01*
X196632951Y-104603320D01*
X196757890Y-104775286D01*
X196908213Y-104925609D01*
X197080179Y-105050548D01*
X197080181Y-105050549D01*
X197080184Y-105050551D01*
X197269588Y-105147057D01*
X197471757Y-105212746D01*
X197681713Y-105246000D01*
X197681714Y-105246000D01*
X197894286Y-105246000D01*
X197894287Y-105246000D01*
X198104243Y-105212746D01*
X198306412Y-105147057D01*
X198495816Y-105050551D01*
X198517789Y-105034586D01*
X198667786Y-104925609D01*
X198667788Y-104925606D01*
X198667792Y-104925604D01*
X198818104Y-104775292D01*
X198818106Y-104775288D01*
X198818109Y-104775286D01*
X198943048Y-104603320D01*
X198943047Y-104603320D01*
X198943051Y-104603316D01*
X198947514Y-104594554D01*
X198995488Y-104543759D01*
X199063308Y-104526963D01*
X199129444Y-104549499D01*
X199168486Y-104594556D01*
X199172951Y-104603320D01*
X199297890Y-104775286D01*
X199448213Y-104925609D01*
X199620179Y-105050548D01*
X199620181Y-105050549D01*
X199620184Y-105050551D01*
X199809588Y-105147057D01*
X200011757Y-105212746D01*
X200221713Y-105246000D01*
X200221714Y-105246000D01*
X200434286Y-105246000D01*
X200434287Y-105246000D01*
X200644243Y-105212746D01*
X200846412Y-105147057D01*
X201035816Y-105050551D01*
X201057789Y-105034586D01*
X201207786Y-104925609D01*
X201207788Y-104925606D01*
X201207792Y-104925604D01*
X201358104Y-104775292D01*
X201358106Y-104775288D01*
X201358109Y-104775286D01*
X201483048Y-104603320D01*
X201483047Y-104603320D01*
X201483051Y-104603316D01*
X201487514Y-104594554D01*
X201535488Y-104543759D01*
X201603308Y-104526963D01*
X201669444Y-104549499D01*
X201708486Y-104594556D01*
X201712951Y-104603320D01*
X201837890Y-104775286D01*
X201988213Y-104925609D01*
X202160179Y-105050548D01*
X202160181Y-105050549D01*
X202160184Y-105050551D01*
X202349588Y-105147057D01*
X202551757Y-105212746D01*
X202761713Y-105246000D01*
X202761714Y-105246000D01*
X202974286Y-105246000D01*
X202974287Y-105246000D01*
X203184243Y-105212746D01*
X203386412Y-105147057D01*
X203575816Y-105050551D01*
X203597789Y-105034586D01*
X203747786Y-104925609D01*
X203747788Y-104925606D01*
X203747792Y-104925604D01*
X203898104Y-104775292D01*
X203898106Y-104775288D01*
X203898109Y-104775286D01*
X204023048Y-104603320D01*
X204023047Y-104603320D01*
X204023051Y-104603316D01*
X204027514Y-104594554D01*
X204075488Y-104543759D01*
X204143308Y-104526963D01*
X204209444Y-104549499D01*
X204248486Y-104594556D01*
X204252951Y-104603320D01*
X204377890Y-104775286D01*
X204528213Y-104925609D01*
X204700179Y-105050548D01*
X204700181Y-105050549D01*
X204700184Y-105050551D01*
X204889588Y-105147057D01*
X205091757Y-105212746D01*
X205301713Y-105246000D01*
X205301714Y-105246000D01*
X205514286Y-105246000D01*
X205514287Y-105246000D01*
X205724243Y-105212746D01*
X205926412Y-105147057D01*
X206115816Y-105050551D01*
X206137789Y-105034586D01*
X206287786Y-104925609D01*
X206287788Y-104925606D01*
X206287792Y-104925604D01*
X206438104Y-104775292D01*
X206438106Y-104775288D01*
X206438109Y-104775286D01*
X206563048Y-104603320D01*
X206563047Y-104603320D01*
X206563051Y-104603316D01*
X206659557Y-104413912D01*
X206725246Y-104211743D01*
X206758500Y-104001787D01*
X206758500Y-103789213D01*
X206725246Y-103579257D01*
X206659557Y-103377088D01*
X206563051Y-103187684D01*
X206563049Y-103187681D01*
X206563048Y-103187679D01*
X206438109Y-103015713D01*
X206287790Y-102865394D01*
X206287785Y-102865390D01*
X206282399Y-102861477D01*
X206239731Y-102806149D01*
X206233750Y-102736536D01*
X206266354Y-102674740D01*
X206316278Y-102643451D01*
X206327117Y-102639859D01*
X206327124Y-102639856D01*
X206476345Y-102547815D01*
X206600315Y-102423845D01*
X206692356Y-102274624D01*
X206692358Y-102274619D01*
X206747505Y-102108197D01*
X206747506Y-102108190D01*
X206757999Y-102005486D01*
X206758000Y-102005473D01*
X206758000Y-101605500D01*
X205841012Y-101605500D01*
X205873925Y-101548493D01*
X205908000Y-101421326D01*
X205908000Y-101289674D01*
X205873925Y-101162507D01*
X205841012Y-101105500D01*
X206757999Y-101105500D01*
X206757999Y-100705528D01*
X206757998Y-100705513D01*
X206747505Y-100602802D01*
X206692358Y-100436380D01*
X206692356Y-100436375D01*
X206600315Y-100287154D01*
X206476345Y-100163184D01*
X206327124Y-100071143D01*
X206327119Y-100071141D01*
X206160697Y-100015994D01*
X206160690Y-100015993D01*
X206057986Y-100005500D01*
X205658000Y-100005500D01*
X205658000Y-100922488D01*
X205600993Y-100889575D01*
X205473826Y-100855500D01*
X205342174Y-100855500D01*
X205215007Y-100889575D01*
X205158000Y-100922488D01*
X205158000Y-100005500D01*
X204758028Y-100005500D01*
X204758012Y-100005501D01*
X204655302Y-100015994D01*
X204488880Y-100071141D01*
X204488875Y-100071143D01*
X204339654Y-100163184D01*
X204215684Y-100287154D01*
X204123643Y-100436375D01*
X204123641Y-100436381D01*
X204120046Y-100447229D01*
X204080270Y-100504671D01*
X204015753Y-100531491D01*
X203946977Y-100519172D01*
X203902020Y-100481098D01*
X203898105Y-100475709D01*
X203747786Y-100325390D01*
X203575820Y-100200451D01*
X203386414Y-100103944D01*
X203386413Y-100103943D01*
X203386412Y-100103943D01*
X203184243Y-100038254D01*
X203184241Y-100038253D01*
X203184240Y-100038253D01*
X203022957Y-100012708D01*
X202974287Y-100005000D01*
X202761713Y-100005000D01*
X202713042Y-100012708D01*
X202551760Y-100038253D01*
X202349585Y-100103944D01*
X202160179Y-100200451D01*
X201988213Y-100325390D01*
X201837890Y-100475713D01*
X201712949Y-100647682D01*
X201708484Y-100656446D01*
X201660509Y-100707242D01*
X201592688Y-100724036D01*
X201526553Y-100701498D01*
X201487516Y-100656446D01*
X201483050Y-100647682D01*
X201358109Y-100475713D01*
X201207786Y-100325390D01*
X201035820Y-100200451D01*
X200846414Y-100103944D01*
X200846413Y-100103943D01*
X200846412Y-100103943D01*
X200644243Y-100038254D01*
X200644241Y-100038253D01*
X200644240Y-100038253D01*
X200482957Y-100012708D01*
X200434287Y-100005000D01*
X200221713Y-100005000D01*
X200173042Y-100012708D01*
X200011760Y-100038253D01*
X199809585Y-100103944D01*
X199620179Y-100200451D01*
X199448213Y-100325390D01*
X199297890Y-100475713D01*
X199172949Y-100647682D01*
X199168484Y-100656446D01*
X199120509Y-100707242D01*
X199052688Y-100724036D01*
X198986553Y-100701498D01*
X198947516Y-100656446D01*
X198943050Y-100647682D01*
X198818109Y-100475713D01*
X198667786Y-100325390D01*
X198495820Y-100200451D01*
X198306414Y-100103944D01*
X198306413Y-100103943D01*
X198306412Y-100103943D01*
X198104243Y-100038254D01*
X198104241Y-100038253D01*
X198104240Y-100038253D01*
X197942957Y-100012708D01*
X197894287Y-100005000D01*
X197681713Y-100005000D01*
X197633042Y-100012708D01*
X197471760Y-100038253D01*
X197269585Y-100103944D01*
X197080179Y-100200451D01*
X196908213Y-100325390D01*
X196757890Y-100475713D01*
X196632949Y-100647682D01*
X196628484Y-100656446D01*
X196580509Y-100707242D01*
X196512688Y-100724036D01*
X196446553Y-100701498D01*
X196407516Y-100656446D01*
X196403050Y-100647682D01*
X196278109Y-100475713D01*
X196127786Y-100325390D01*
X195955820Y-100200451D01*
X195766414Y-100103944D01*
X195766413Y-100103943D01*
X195766412Y-100103943D01*
X195564243Y-100038254D01*
X195564241Y-100038253D01*
X195564240Y-100038253D01*
X195402957Y-100012708D01*
X195354287Y-100005000D01*
X195141713Y-100005000D01*
X195093042Y-100012708D01*
X194931760Y-100038253D01*
X194729585Y-100103944D01*
X194540179Y-100200451D01*
X194368213Y-100325390D01*
X194217890Y-100475713D01*
X194092951Y-100647679D01*
X193996444Y-100837085D01*
X193930753Y-101039260D01*
X193900305Y-101231500D01*
X193897500Y-101249213D01*
X88926578Y-101249213D01*
X89038900Y-101102832D01*
X89189683Y-100841668D01*
X89305087Y-100563058D01*
X89383138Y-100271768D01*
X89422500Y-99972783D01*
X89422500Y-99671217D01*
X89383138Y-99372232D01*
X89305087Y-99080942D01*
X89189683Y-98802332D01*
X89038900Y-98541168D01*
X88855319Y-98301920D01*
X88855314Y-98301914D01*
X88642085Y-98088685D01*
X88642078Y-98088679D01*
X88402831Y-97905099D01*
X88141671Y-97754318D01*
X88141661Y-97754314D01*
X87863060Y-97638913D01*
X87571766Y-97560861D01*
X87272793Y-97521501D01*
X87272788Y-97521500D01*
X87272783Y-97521500D01*
X86971217Y-97521500D01*
X86971211Y-97521500D01*
X86971206Y-97521501D01*
X86672233Y-97560861D01*
X86380939Y-97638913D01*
X86102338Y-97754314D01*
X86102328Y-97754318D01*
X85841168Y-97905099D01*
X85601921Y-98088679D01*
X85601914Y-98088685D01*
X85388685Y-98301914D01*
X85388679Y-98301921D01*
X85205099Y-98541168D01*
X85054318Y-98802328D01*
X85054314Y-98802338D01*
X84938913Y-99080939D01*
X84860861Y-99372233D01*
X84821501Y-99671206D01*
X84821500Y-99671223D01*
X84270500Y-99671223D01*
X84270500Y-97144500D01*
X84290185Y-97077461D01*
X84342989Y-97031706D01*
X84394500Y-97020500D01*
X213145500Y-97020500D01*
X213212539Y-97040185D01*
G37*
%TD.AperFunction*%
%TD*%
M02*
