%TF.GenerationSoftware,KiCad,Pcbnew,9.0.0*%
%TF.CreationDate,2026-06-23T13:20:12-04:00*%
%TF.ProjectId,MagnetroneSensorArm,4d61676e-6574-4726-9f6e-6553656e736f,rev?*%
%TF.SameCoordinates,Original*%
%TF.FileFunction,Copper,L2,Inr*%
%TF.FilePolarity,Positive*%
%FSLAX46Y46*%
G04 Gerber Fmt 4.6, Leading zero omitted, Abs format (unit mm)*
G04 Created by KiCad (PCBNEW 9.0.0) date 2026-06-23 13:20:12*
%MOMM*%
%LPD*%
G01*
G04 APERTURE LIST*
G04 Aperture macros list*
%AMRoundRect*
0 Rectangle with rounded corners*
0 $1 Rounding radius*
0 $2 $3 $4 $5 $6 $7 $8 $9 X,Y pos of 4 corners*
0 Add a 4 corners polygon primitive as box body*
4,1,4,$2,$3,$4,$5,$6,$7,$8,$9,$2,$3,0*
0 Add four circle primitives for the rounded corners*
1,1,$1+$1,$2,$3*
1,1,$1+$1,$4,$5*
1,1,$1+$1,$6,$7*
1,1,$1+$1,$8,$9*
0 Add four rect primitives between the rounded corners*
20,1,$1+$1,$2,$3,$4,$5,0*
20,1,$1+$1,$4,$5,$6,$7,0*
20,1,$1+$1,$6,$7,$8,$9,0*
20,1,$1+$1,$8,$9,$2,$3,0*%
G04 Aperture macros list end*
%TA.AperFunction,ComponentPad*%
%ADD10C,3.600000*%
%TD*%
%TA.AperFunction,ComponentPad*%
%ADD11RoundRect,0.250000X-0.600000X0.600000X-0.600000X-0.600000X0.600000X-0.600000X0.600000X0.600000X0*%
%TD*%
%TA.AperFunction,ComponentPad*%
%ADD12C,1.700000*%
%TD*%
%TA.AperFunction,ViaPad*%
%ADD13C,0.600000*%
%TD*%
G04 APERTURE END LIST*
D10*
%TO.N,GND*%
%TO.C,H1*%
X87122000Y-99822000D03*
%TD*%
D11*
%TO.N,+5V*%
%TO.C,J1*%
X205408000Y-101355500D03*
D12*
%TO.N,GND*%
X205408000Y-103895500D03*
%TO.N,/hall1*%
X202868000Y-101355500D03*
%TO.N,/hall8*%
X202868000Y-103895500D03*
%TO.N,/hall2*%
X200328000Y-101355500D03*
%TO.N,/hall7*%
X200328000Y-103895500D03*
%TO.N,/hall3*%
X197788000Y-101355500D03*
%TO.N,/hall6*%
X197788000Y-103895500D03*
%TO.N,/hall4*%
X195248000Y-101355500D03*
%TO.N,/hall5*%
X195248000Y-103895500D03*
%TD*%
D13*
%TO.N,GND*%
X141210000Y-106920000D03*
X107174000Y-106920000D03*
X132666000Y-103378000D03*
X98376000Y-103378000D03*
X155526000Y-103378000D03*
X192786000Y-102616000D03*
X164070000Y-106920000D03*
X129780000Y-106920000D03*
X175500000Y-106920000D03*
X109806000Y-103378000D03*
X166956000Y-103378000D03*
X152640000Y-106920000D03*
X87122000Y-103378000D03*
X118350000Y-106920000D03*
X121236000Y-103378000D03*
X95758000Y-106934000D03*
X144096000Y-103378000D03*
%TO.N,+5V*%
X85852000Y-106949000D03*
X108712000Y-106949000D03*
X142748000Y-106949000D03*
X120142000Y-106949000D03*
X154178000Y-106949000D03*
X97282000Y-106949000D03*
X165608000Y-106949000D03*
X131318000Y-106949000D03*
%TO.N,Net-(U1-VOUT)*%
X90136000Y-107014999D03*
%TO.N,Net-(U2-VOUT)*%
X101570000Y-107014999D03*
%TO.N,Net-(U3-VOUT)*%
X112970000Y-107014999D03*
%TO.N,Net-(U4-VOUT)*%
X124370000Y-107014999D03*
%TO.N,Net-(U5-VOUT)*%
X135770000Y-107014999D03*
%TO.N,Net-(U6-VOUT)*%
X147170000Y-107014999D03*
%TO.N,Net-(U7-VOUT)*%
X158570000Y-107014999D03*
%TO.N,Net-(U8-VOUT)*%
X169970000Y-107014999D03*
%TD*%
%TA.AperFunction,Conductor*%
%TO.N,GND*%
G36*
X204088397Y-102214351D02*
G01*
X204119686Y-102264272D01*
X204123186Y-102274834D01*
X204215288Y-102424156D01*
X204339344Y-102548212D01*
X204488666Y-102640314D01*
X204560770Y-102664207D01*
X204618214Y-102703978D01*
X204645038Y-102768494D01*
X204645197Y-102779143D01*
X205278591Y-103412537D01*
X205215007Y-103429575D01*
X205100993Y-103495401D01*
X205007901Y-103588493D01*
X204942075Y-103702507D01*
X204925037Y-103766091D01*
X204292728Y-103133782D01*
X204292727Y-103133782D01*
X204253380Y-103187940D01*
X204253376Y-103187946D01*
X204248760Y-103197005D01*
X204200781Y-103247797D01*
X204132959Y-103264587D01*
X204066826Y-103242043D01*
X204027794Y-103196993D01*
X204023051Y-103187684D01*
X204023049Y-103187681D01*
X204023048Y-103187679D01*
X203898109Y-103015713D01*
X203747786Y-102865390D01*
X203575820Y-102740451D01*
X203575115Y-102740091D01*
X203567054Y-102735985D01*
X203516259Y-102688012D01*
X203499463Y-102620192D01*
X203521999Y-102554056D01*
X203567054Y-102515015D01*
X203575816Y-102510551D01*
X203597789Y-102494586D01*
X203747786Y-102385609D01*
X203747788Y-102385606D01*
X203747792Y-102385604D01*
X203898104Y-102235292D01*
X203901660Y-102230396D01*
X203956987Y-102187730D01*
X204026600Y-102181748D01*
X204088397Y-102214351D01*
G37*
%TD.AperFunction*%
%TA.AperFunction,Conductor*%
G36*
X213212539Y-97040185D02*
G01*
X213258294Y-97092989D01*
X213269500Y-97144500D01*
X213269500Y-107295500D01*
X213249815Y-107362539D01*
X213197011Y-107408294D01*
X213145500Y-107419500D01*
X170854484Y-107419500D01*
X170787445Y-107399815D01*
X170741690Y-107347011D01*
X170731746Y-107277853D01*
X170738182Y-107254387D01*
X170737969Y-107254323D01*
X170739731Y-107248508D01*
X170739737Y-107248496D01*
X170770500Y-107093841D01*
X170770500Y-106936157D01*
X170770500Y-106936154D01*
X170770499Y-106936152D01*
X170739738Y-106781509D01*
X170739737Y-106781502D01*
X170739735Y-106781497D01*
X170679397Y-106635826D01*
X170679390Y-106635813D01*
X170591789Y-106504710D01*
X170591786Y-106504706D01*
X170480292Y-106393212D01*
X170480288Y-106393209D01*
X170349185Y-106305608D01*
X170349172Y-106305601D01*
X170203501Y-106245263D01*
X170203489Y-106245260D01*
X170048845Y-106214499D01*
X170048842Y-106214499D01*
X169891158Y-106214499D01*
X169891155Y-106214499D01*
X169736510Y-106245260D01*
X169736498Y-106245263D01*
X169590827Y-106305601D01*
X169590814Y-106305608D01*
X169459711Y-106393209D01*
X169459707Y-106393212D01*
X169348213Y-106504706D01*
X169348210Y-106504710D01*
X169260609Y-106635813D01*
X169260602Y-106635826D01*
X169200264Y-106781497D01*
X169200261Y-106781509D01*
X169169500Y-106936152D01*
X169169500Y-107093845D01*
X169200261Y-107248488D01*
X169202031Y-107254323D01*
X169200793Y-107254698D01*
X169207545Y-107317521D01*
X169176268Y-107379999D01*
X169116178Y-107415649D01*
X169085516Y-107419500D01*
X166465146Y-107419500D01*
X166398107Y-107399815D01*
X166352352Y-107347011D01*
X166342408Y-107277853D01*
X166350584Y-107248050D01*
X166377737Y-107182497D01*
X166408500Y-107027842D01*
X166408500Y-106870158D01*
X166408500Y-106870155D01*
X166408499Y-106870153D01*
X166377738Y-106715510D01*
X166377737Y-106715503D01*
X166344734Y-106635826D01*
X166317397Y-106569827D01*
X166317390Y-106569814D01*
X166229789Y-106438711D01*
X166229786Y-106438707D01*
X166118292Y-106327213D01*
X166118288Y-106327210D01*
X165987185Y-106239609D01*
X165987172Y-106239602D01*
X165841501Y-106179264D01*
X165841489Y-106179261D01*
X165686845Y-106148500D01*
X165686842Y-106148500D01*
X165529158Y-106148500D01*
X165529155Y-106148500D01*
X165374510Y-106179261D01*
X165374498Y-106179264D01*
X165228827Y-106239602D01*
X165228814Y-106239609D01*
X165097711Y-106327210D01*
X165097707Y-106327213D01*
X164986213Y-106438707D01*
X164986210Y-106438711D01*
X164898609Y-106569814D01*
X164898602Y-106569827D01*
X164838264Y-106715498D01*
X164838261Y-106715510D01*
X164807500Y-106870153D01*
X164807500Y-107027846D01*
X164838261Y-107182489D01*
X164838263Y-107182497D01*
X164865415Y-107248048D01*
X164872884Y-107317516D01*
X164841609Y-107379996D01*
X164781520Y-107415648D01*
X164750854Y-107419500D01*
X159454484Y-107419500D01*
X159387445Y-107399815D01*
X159341690Y-107347011D01*
X159331746Y-107277853D01*
X159338182Y-107254387D01*
X159337969Y-107254323D01*
X159339731Y-107248508D01*
X159339737Y-107248496D01*
X159370500Y-107093841D01*
X159370500Y-106936157D01*
X159370500Y-106936154D01*
X159370499Y-106936152D01*
X159339738Y-106781509D01*
X159339737Y-106781502D01*
X159339735Y-106781497D01*
X159279397Y-106635826D01*
X159279390Y-106635813D01*
X159191789Y-106504710D01*
X159191786Y-106504706D01*
X159080292Y-106393212D01*
X159080288Y-106393209D01*
X158949185Y-106305608D01*
X158949172Y-106305601D01*
X158803501Y-106245263D01*
X158803489Y-106245260D01*
X158648845Y-106214499D01*
X158648842Y-106214499D01*
X158491158Y-106214499D01*
X158491155Y-106214499D01*
X158336510Y-106245260D01*
X158336498Y-106245263D01*
X158190827Y-106305601D01*
X158190814Y-106305608D01*
X158059711Y-106393209D01*
X158059707Y-106393212D01*
X157948213Y-106504706D01*
X157948210Y-106504710D01*
X157860609Y-106635813D01*
X157860602Y-106635826D01*
X157800264Y-106781497D01*
X157800261Y-106781509D01*
X157769500Y-106936152D01*
X157769500Y-107093845D01*
X157800261Y-107248488D01*
X157802031Y-107254323D01*
X157800793Y-107254698D01*
X157807545Y-107317521D01*
X157776268Y-107379999D01*
X157716178Y-107415649D01*
X157685516Y-107419500D01*
X155035146Y-107419500D01*
X154968107Y-107399815D01*
X154922352Y-107347011D01*
X154912408Y-107277853D01*
X154920584Y-107248050D01*
X154947737Y-107182497D01*
X154978500Y-107027842D01*
X154978500Y-106870158D01*
X154978500Y-106870155D01*
X154978499Y-106870153D01*
X154947738Y-106715510D01*
X154947737Y-106715503D01*
X154914734Y-106635826D01*
X154887397Y-106569827D01*
X154887390Y-106569814D01*
X154799789Y-106438711D01*
X154799786Y-106438707D01*
X154688292Y-106327213D01*
X154688288Y-106327210D01*
X154557185Y-106239609D01*
X154557172Y-106239602D01*
X154411501Y-106179264D01*
X154411489Y-106179261D01*
X154256845Y-106148500D01*
X154256842Y-106148500D01*
X154099158Y-106148500D01*
X154099155Y-106148500D01*
X153944510Y-106179261D01*
X153944498Y-106179264D01*
X153798827Y-106239602D01*
X153798814Y-106239609D01*
X153667711Y-106327210D01*
X153667707Y-106327213D01*
X153556213Y-106438707D01*
X153556210Y-106438711D01*
X153468609Y-106569814D01*
X153468602Y-106569827D01*
X153408264Y-106715498D01*
X153408261Y-106715510D01*
X153377500Y-106870153D01*
X153377500Y-107027846D01*
X153408261Y-107182489D01*
X153408263Y-107182497D01*
X153435415Y-107248048D01*
X153442884Y-107317516D01*
X153411609Y-107379996D01*
X153351520Y-107415648D01*
X153320854Y-107419500D01*
X148054484Y-107419500D01*
X147987445Y-107399815D01*
X147941690Y-107347011D01*
X147931746Y-107277853D01*
X147938182Y-107254387D01*
X147937969Y-107254323D01*
X147939731Y-107248508D01*
X147939737Y-107248496D01*
X147970500Y-107093841D01*
X147970500Y-106936157D01*
X147970500Y-106936154D01*
X147970499Y-106936152D01*
X147939738Y-106781509D01*
X147939737Y-106781502D01*
X147939735Y-106781497D01*
X147879397Y-106635826D01*
X147879390Y-106635813D01*
X147791789Y-106504710D01*
X147791786Y-106504706D01*
X147680292Y-106393212D01*
X147680288Y-106393209D01*
X147549185Y-106305608D01*
X147549172Y-106305601D01*
X147403501Y-106245263D01*
X147403489Y-106245260D01*
X147248845Y-106214499D01*
X147248842Y-106214499D01*
X147091158Y-106214499D01*
X147091155Y-106214499D01*
X146936510Y-106245260D01*
X146936498Y-106245263D01*
X146790827Y-106305601D01*
X146790814Y-106305608D01*
X146659711Y-106393209D01*
X146659707Y-106393212D01*
X146548213Y-106504706D01*
X146548210Y-106504710D01*
X146460609Y-106635813D01*
X146460602Y-106635826D01*
X146400264Y-106781497D01*
X146400261Y-106781509D01*
X146369500Y-106936152D01*
X146369500Y-107093845D01*
X146400261Y-107248488D01*
X146402031Y-107254323D01*
X146400793Y-107254698D01*
X146407545Y-107317521D01*
X146376268Y-107379999D01*
X146316178Y-107415649D01*
X146285516Y-107419500D01*
X143605146Y-107419500D01*
X143538107Y-107399815D01*
X143492352Y-107347011D01*
X143482408Y-107277853D01*
X143490584Y-107248050D01*
X143517737Y-107182497D01*
X143548500Y-107027842D01*
X143548500Y-106870158D01*
X143548500Y-106870155D01*
X143548499Y-106870153D01*
X143517738Y-106715510D01*
X143517737Y-106715503D01*
X143484734Y-106635826D01*
X143457397Y-106569827D01*
X143457390Y-106569814D01*
X143369789Y-106438711D01*
X143369786Y-106438707D01*
X143258292Y-106327213D01*
X143258288Y-106327210D01*
X143127185Y-106239609D01*
X143127172Y-106239602D01*
X142981501Y-106179264D01*
X142981489Y-106179261D01*
X142826845Y-106148500D01*
X142826842Y-106148500D01*
X142669158Y-106148500D01*
X142669155Y-106148500D01*
X142514510Y-106179261D01*
X142514498Y-106179264D01*
X142368827Y-106239602D01*
X142368814Y-106239609D01*
X142237711Y-106327210D01*
X142237707Y-106327213D01*
X142126213Y-106438707D01*
X142126210Y-106438711D01*
X142038609Y-106569814D01*
X142038602Y-106569827D01*
X141978264Y-106715498D01*
X141978261Y-106715510D01*
X141947500Y-106870153D01*
X141947500Y-107027846D01*
X141978261Y-107182489D01*
X141978263Y-107182497D01*
X142005415Y-107248048D01*
X142012884Y-107317516D01*
X141981609Y-107379996D01*
X141921520Y-107415648D01*
X141890854Y-107419500D01*
X136654484Y-107419500D01*
X136587445Y-107399815D01*
X136541690Y-107347011D01*
X136531746Y-107277853D01*
X136538182Y-107254387D01*
X136537969Y-107254323D01*
X136539731Y-107248508D01*
X136539737Y-107248496D01*
X136570500Y-107093841D01*
X136570500Y-106936157D01*
X136570500Y-106936154D01*
X136570499Y-106936152D01*
X136539738Y-106781509D01*
X136539737Y-106781502D01*
X136539735Y-106781497D01*
X136479397Y-106635826D01*
X136479390Y-106635813D01*
X136391789Y-106504710D01*
X136391786Y-106504706D01*
X136280292Y-106393212D01*
X136280288Y-106393209D01*
X136149185Y-106305608D01*
X136149172Y-106305601D01*
X136003501Y-106245263D01*
X136003489Y-106245260D01*
X135848845Y-106214499D01*
X135848842Y-106214499D01*
X135691158Y-106214499D01*
X135691155Y-106214499D01*
X135536510Y-106245260D01*
X135536498Y-106245263D01*
X135390827Y-106305601D01*
X135390814Y-106305608D01*
X135259711Y-106393209D01*
X135259707Y-106393212D01*
X135148213Y-106504706D01*
X135148210Y-106504710D01*
X135060609Y-106635813D01*
X135060602Y-106635826D01*
X135000264Y-106781497D01*
X135000261Y-106781509D01*
X134969500Y-106936152D01*
X134969500Y-107093845D01*
X135000261Y-107248488D01*
X135002031Y-107254323D01*
X135000793Y-107254698D01*
X135007545Y-107317521D01*
X134976268Y-107379999D01*
X134916178Y-107415649D01*
X134885516Y-107419500D01*
X132175146Y-107419500D01*
X132108107Y-107399815D01*
X132062352Y-107347011D01*
X132052408Y-107277853D01*
X132060584Y-107248050D01*
X132087737Y-107182497D01*
X132118500Y-107027842D01*
X132118500Y-106870158D01*
X132118500Y-106870155D01*
X132118499Y-106870153D01*
X132087738Y-106715510D01*
X132087737Y-106715503D01*
X132054734Y-106635826D01*
X132027397Y-106569827D01*
X132027390Y-106569814D01*
X131939789Y-106438711D01*
X131939786Y-106438707D01*
X131828292Y-106327213D01*
X131828288Y-106327210D01*
X131697185Y-106239609D01*
X131697172Y-106239602D01*
X131551501Y-106179264D01*
X131551489Y-106179261D01*
X131396845Y-106148500D01*
X131396842Y-106148500D01*
X131239158Y-106148500D01*
X131239155Y-106148500D01*
X131084510Y-106179261D01*
X131084498Y-106179264D01*
X130938827Y-106239602D01*
X130938814Y-106239609D01*
X130807711Y-106327210D01*
X130807707Y-106327213D01*
X130696213Y-106438707D01*
X130696210Y-106438711D01*
X130608609Y-106569814D01*
X130608602Y-106569827D01*
X130548264Y-106715498D01*
X130548261Y-106715510D01*
X130517500Y-106870153D01*
X130517500Y-107027846D01*
X130548261Y-107182489D01*
X130548263Y-107182497D01*
X130575415Y-107248048D01*
X130582884Y-107317516D01*
X130551609Y-107379996D01*
X130491520Y-107415648D01*
X130460854Y-107419500D01*
X125254484Y-107419500D01*
X125187445Y-107399815D01*
X125141690Y-107347011D01*
X125131746Y-107277853D01*
X125138182Y-107254387D01*
X125137969Y-107254323D01*
X125139731Y-107248508D01*
X125139737Y-107248496D01*
X125170500Y-107093841D01*
X125170500Y-106936157D01*
X125170500Y-106936154D01*
X125170499Y-106936152D01*
X125139738Y-106781509D01*
X125139737Y-106781502D01*
X125139735Y-106781497D01*
X125079397Y-106635826D01*
X125079390Y-106635813D01*
X124991789Y-106504710D01*
X124991786Y-106504706D01*
X124880292Y-106393212D01*
X124880288Y-106393209D01*
X124749185Y-106305608D01*
X124749172Y-106305601D01*
X124603501Y-106245263D01*
X124603489Y-106245260D01*
X124448845Y-106214499D01*
X124448842Y-106214499D01*
X124291158Y-106214499D01*
X124291155Y-106214499D01*
X124136510Y-106245260D01*
X124136498Y-106245263D01*
X123990827Y-106305601D01*
X123990814Y-106305608D01*
X123859711Y-106393209D01*
X123859707Y-106393212D01*
X123748213Y-106504706D01*
X123748210Y-106504710D01*
X123660609Y-106635813D01*
X123660602Y-106635826D01*
X123600264Y-106781497D01*
X123600261Y-106781509D01*
X123569500Y-106936152D01*
X123569500Y-107093845D01*
X123600261Y-107248488D01*
X123602031Y-107254323D01*
X123600793Y-107254698D01*
X123607545Y-107317521D01*
X123576268Y-107379999D01*
X123516178Y-107415649D01*
X123485516Y-107419500D01*
X120999146Y-107419500D01*
X120932107Y-107399815D01*
X120886352Y-107347011D01*
X120876408Y-107277853D01*
X120884584Y-107248050D01*
X120911737Y-107182497D01*
X120942500Y-107027842D01*
X120942500Y-106870158D01*
X120942500Y-106870155D01*
X120942499Y-106870153D01*
X120911738Y-106715510D01*
X120911737Y-106715503D01*
X120878734Y-106635826D01*
X120851397Y-106569827D01*
X120851390Y-106569814D01*
X120763789Y-106438711D01*
X120763786Y-106438707D01*
X120652292Y-106327213D01*
X120652288Y-106327210D01*
X120521185Y-106239609D01*
X120521172Y-106239602D01*
X120375501Y-106179264D01*
X120375489Y-106179261D01*
X120220845Y-106148500D01*
X120220842Y-106148500D01*
X120063158Y-106148500D01*
X120063155Y-106148500D01*
X119908510Y-106179261D01*
X119908498Y-106179264D01*
X119762827Y-106239602D01*
X119762814Y-106239609D01*
X119631711Y-106327210D01*
X119631707Y-106327213D01*
X119520213Y-106438707D01*
X119520210Y-106438711D01*
X119432609Y-106569814D01*
X119432602Y-106569827D01*
X119372264Y-106715498D01*
X119372261Y-106715510D01*
X119341500Y-106870153D01*
X119341500Y-107027846D01*
X119372261Y-107182489D01*
X119372263Y-107182497D01*
X119399415Y-107248048D01*
X119406884Y-107317516D01*
X119375609Y-107379996D01*
X119315520Y-107415648D01*
X119284854Y-107419500D01*
X113854484Y-107419500D01*
X113787445Y-107399815D01*
X113741690Y-107347011D01*
X113731746Y-107277853D01*
X113738182Y-107254387D01*
X113737969Y-107254323D01*
X113739731Y-107248508D01*
X113739737Y-107248496D01*
X113770500Y-107093841D01*
X113770500Y-106936157D01*
X113770500Y-106936154D01*
X113770499Y-106936152D01*
X113739738Y-106781509D01*
X113739737Y-106781502D01*
X113739735Y-106781497D01*
X113679397Y-106635826D01*
X113679390Y-106635813D01*
X113591789Y-106504710D01*
X113591786Y-106504706D01*
X113480292Y-106393212D01*
X113480288Y-106393209D01*
X113349185Y-106305608D01*
X113349172Y-106305601D01*
X113203501Y-106245263D01*
X113203489Y-106245260D01*
X113048845Y-106214499D01*
X113048842Y-106214499D01*
X112891158Y-106214499D01*
X112891155Y-106214499D01*
X112736510Y-106245260D01*
X112736498Y-106245263D01*
X112590827Y-106305601D01*
X112590814Y-106305608D01*
X112459711Y-106393209D01*
X112459707Y-106393212D01*
X112348213Y-106504706D01*
X112348210Y-106504710D01*
X112260609Y-106635813D01*
X112260602Y-106635826D01*
X112200264Y-106781497D01*
X112200261Y-106781509D01*
X112169500Y-106936152D01*
X112169500Y-107093845D01*
X112200261Y-107248488D01*
X112202031Y-107254323D01*
X112200793Y-107254698D01*
X112207545Y-107317521D01*
X112176268Y-107379999D01*
X112116178Y-107415649D01*
X112085516Y-107419500D01*
X109569146Y-107419500D01*
X109502107Y-107399815D01*
X109456352Y-107347011D01*
X109446408Y-107277853D01*
X109454584Y-107248050D01*
X109481737Y-107182497D01*
X109512500Y-107027842D01*
X109512500Y-106870158D01*
X109512500Y-106870155D01*
X109512499Y-106870153D01*
X109481738Y-106715510D01*
X109481737Y-106715503D01*
X109448734Y-106635826D01*
X109421397Y-106569827D01*
X109421390Y-106569814D01*
X109333789Y-106438711D01*
X109333786Y-106438707D01*
X109222292Y-106327213D01*
X109222288Y-106327210D01*
X109091185Y-106239609D01*
X109091172Y-106239602D01*
X108945501Y-106179264D01*
X108945489Y-106179261D01*
X108790845Y-106148500D01*
X108790842Y-106148500D01*
X108633158Y-106148500D01*
X108633155Y-106148500D01*
X108478510Y-106179261D01*
X108478498Y-106179264D01*
X108332827Y-106239602D01*
X108332814Y-106239609D01*
X108201711Y-106327210D01*
X108201707Y-106327213D01*
X108090213Y-106438707D01*
X108090210Y-106438711D01*
X108002609Y-106569814D01*
X108002602Y-106569827D01*
X107942264Y-106715498D01*
X107942261Y-106715510D01*
X107911500Y-106870153D01*
X107911500Y-107027846D01*
X107942261Y-107182489D01*
X107942263Y-107182497D01*
X107969415Y-107248048D01*
X107976884Y-107317516D01*
X107945609Y-107379996D01*
X107885520Y-107415648D01*
X107854854Y-107419500D01*
X102454484Y-107419500D01*
X102387445Y-107399815D01*
X102341690Y-107347011D01*
X102331746Y-107277853D01*
X102338182Y-107254387D01*
X102337969Y-107254323D01*
X102339731Y-107248508D01*
X102339737Y-107248496D01*
X102370500Y-107093841D01*
X102370500Y-106936157D01*
X102370500Y-106936154D01*
X102370499Y-106936152D01*
X102339738Y-106781509D01*
X102339737Y-106781502D01*
X102339735Y-106781497D01*
X102279397Y-106635826D01*
X102279390Y-106635813D01*
X102191789Y-106504710D01*
X102191786Y-106504706D01*
X102080292Y-106393212D01*
X102080288Y-106393209D01*
X101949185Y-106305608D01*
X101949172Y-106305601D01*
X101803501Y-106245263D01*
X101803489Y-106245260D01*
X101648845Y-106214499D01*
X101648842Y-106214499D01*
X101491158Y-106214499D01*
X101491155Y-106214499D01*
X101336510Y-106245260D01*
X101336498Y-106245263D01*
X101190827Y-106305601D01*
X101190814Y-106305608D01*
X101059711Y-106393209D01*
X101059707Y-106393212D01*
X100948213Y-106504706D01*
X100948210Y-106504710D01*
X100860609Y-106635813D01*
X100860602Y-106635826D01*
X100800264Y-106781497D01*
X100800261Y-106781509D01*
X100769500Y-106936152D01*
X100769500Y-107093845D01*
X100800261Y-107248488D01*
X100802031Y-107254323D01*
X100800793Y-107254698D01*
X100807545Y-107317521D01*
X100776268Y-107379999D01*
X100716178Y-107415649D01*
X100685516Y-107419500D01*
X98139146Y-107419500D01*
X98072107Y-107399815D01*
X98026352Y-107347011D01*
X98016408Y-107277853D01*
X98024584Y-107248050D01*
X98051737Y-107182497D01*
X98082500Y-107027842D01*
X98082500Y-106870158D01*
X98082500Y-106870155D01*
X98082499Y-106870153D01*
X98051738Y-106715510D01*
X98051737Y-106715503D01*
X98018734Y-106635826D01*
X97991397Y-106569827D01*
X97991390Y-106569814D01*
X97903789Y-106438711D01*
X97903786Y-106438707D01*
X97792292Y-106327213D01*
X97792288Y-106327210D01*
X97661185Y-106239609D01*
X97661172Y-106239602D01*
X97515501Y-106179264D01*
X97515489Y-106179261D01*
X97360845Y-106148500D01*
X97360842Y-106148500D01*
X97203158Y-106148500D01*
X97203155Y-106148500D01*
X97048510Y-106179261D01*
X97048498Y-106179264D01*
X96902827Y-106239602D01*
X96902814Y-106239609D01*
X96771711Y-106327210D01*
X96771707Y-106327213D01*
X96660213Y-106438707D01*
X96660210Y-106438711D01*
X96572609Y-106569814D01*
X96572602Y-106569827D01*
X96512264Y-106715498D01*
X96512261Y-106715510D01*
X96481500Y-106870153D01*
X96481500Y-107027846D01*
X96512261Y-107182489D01*
X96512263Y-107182497D01*
X96539415Y-107248048D01*
X96546884Y-107317516D01*
X96515609Y-107379996D01*
X96455520Y-107415648D01*
X96424854Y-107419500D01*
X91020484Y-107419500D01*
X90953445Y-107399815D01*
X90907690Y-107347011D01*
X90897746Y-107277853D01*
X90904182Y-107254387D01*
X90903969Y-107254323D01*
X90905731Y-107248508D01*
X90905737Y-107248496D01*
X90936500Y-107093841D01*
X90936500Y-106936157D01*
X90936500Y-106936154D01*
X90936499Y-106936152D01*
X90905738Y-106781509D01*
X90905737Y-106781502D01*
X90905735Y-106781497D01*
X90845397Y-106635826D01*
X90845390Y-106635813D01*
X90757789Y-106504710D01*
X90757786Y-106504706D01*
X90646292Y-106393212D01*
X90646288Y-106393209D01*
X90515185Y-106305608D01*
X90515172Y-106305601D01*
X90369501Y-106245263D01*
X90369489Y-106245260D01*
X90214845Y-106214499D01*
X90214842Y-106214499D01*
X90057158Y-106214499D01*
X90057155Y-106214499D01*
X89902510Y-106245260D01*
X89902498Y-106245263D01*
X89756827Y-106305601D01*
X89756814Y-106305608D01*
X89625711Y-106393209D01*
X89625707Y-106393212D01*
X89514213Y-106504706D01*
X89514210Y-106504710D01*
X89426609Y-106635813D01*
X89426602Y-106635826D01*
X89366264Y-106781497D01*
X89366261Y-106781509D01*
X89335500Y-106936152D01*
X89335500Y-107093845D01*
X89366261Y-107248488D01*
X89368031Y-107254323D01*
X89366793Y-107254698D01*
X89373545Y-107317521D01*
X89342268Y-107379999D01*
X89282178Y-107415649D01*
X89251516Y-107419500D01*
X86709146Y-107419500D01*
X86642107Y-107399815D01*
X86596352Y-107347011D01*
X86586408Y-107277853D01*
X86594584Y-107248050D01*
X86621737Y-107182497D01*
X86652500Y-107027842D01*
X86652500Y-106870158D01*
X86652500Y-106870155D01*
X86652499Y-106870153D01*
X86621738Y-106715510D01*
X86621737Y-106715503D01*
X86588734Y-106635826D01*
X86561397Y-106569827D01*
X86561390Y-106569814D01*
X86473789Y-106438711D01*
X86473786Y-106438707D01*
X86362292Y-106327213D01*
X86362288Y-106327210D01*
X86231185Y-106239609D01*
X86231172Y-106239602D01*
X86085501Y-106179264D01*
X86085489Y-106179261D01*
X85930845Y-106148500D01*
X85930842Y-106148500D01*
X85773158Y-106148500D01*
X85773155Y-106148500D01*
X85618510Y-106179261D01*
X85618498Y-106179264D01*
X85472827Y-106239602D01*
X85472814Y-106239609D01*
X85341711Y-106327210D01*
X85341707Y-106327213D01*
X85230213Y-106438707D01*
X85230210Y-106438711D01*
X85142609Y-106569814D01*
X85142602Y-106569827D01*
X85082264Y-106715498D01*
X85082261Y-106715510D01*
X85051500Y-106870153D01*
X85051500Y-107027846D01*
X85082261Y-107182489D01*
X85082263Y-107182497D01*
X85109415Y-107248048D01*
X85116884Y-107317516D01*
X85085609Y-107379996D01*
X85025520Y-107415648D01*
X84994854Y-107419500D01*
X84394500Y-107419500D01*
X84327461Y-107399815D01*
X84281706Y-107347011D01*
X84270500Y-107295500D01*
X84270500Y-99671256D01*
X84822000Y-99671256D01*
X84822000Y-99972743D01*
X84822001Y-99972759D01*
X84861353Y-100271667D01*
X84939389Y-100562901D01*
X85054765Y-100841443D01*
X85054770Y-100841454D01*
X85205512Y-101102545D01*
X85205523Y-101102561D01*
X85328115Y-101262328D01*
X85328117Y-101262328D01*
X85827747Y-100762697D01*
X85901588Y-100864330D01*
X86079670Y-101042412D01*
X86181300Y-101116251D01*
X85681670Y-101615881D01*
X85681670Y-101615882D01*
X85841438Y-101738476D01*
X85841454Y-101738487D01*
X86102545Y-101889229D01*
X86102556Y-101889234D01*
X86381098Y-102004610D01*
X86672332Y-102082646D01*
X86971240Y-102121998D01*
X86971257Y-102122000D01*
X87272743Y-102122000D01*
X87272759Y-102121998D01*
X87571667Y-102082646D01*
X87862901Y-102004610D01*
X88141443Y-101889234D01*
X88141454Y-101889229D01*
X88402545Y-101738487D01*
X88402553Y-101738481D01*
X88562328Y-101615881D01*
X88062698Y-101116251D01*
X88164330Y-101042412D01*
X88342412Y-100864330D01*
X88416251Y-100762698D01*
X88915881Y-101262328D01*
X88915882Y-101262328D01*
X88925946Y-101249213D01*
X193897500Y-101249213D01*
X193897500Y-101461786D01*
X193930753Y-101671739D01*
X193996444Y-101873914D01*
X194092951Y-102063320D01*
X194217890Y-102235286D01*
X194368213Y-102385609D01*
X194540182Y-102510550D01*
X194548946Y-102515016D01*
X194599742Y-102562991D01*
X194616536Y-102630812D01*
X194593998Y-102696947D01*
X194548946Y-102735984D01*
X194540182Y-102740449D01*
X194368213Y-102865390D01*
X194217890Y-103015713D01*
X194092951Y-103187679D01*
X193996444Y-103377085D01*
X193930753Y-103579260D01*
X193897500Y-103789213D01*
X193897500Y-104001786D01*
X193930753Y-104211739D01*
X193996444Y-104413914D01*
X194092951Y-104603320D01*
X194217890Y-104775286D01*
X194368213Y-104925609D01*
X194540179Y-105050548D01*
X194540181Y-105050549D01*
X194540184Y-105050551D01*
X194729588Y-105147057D01*
X194931757Y-105212746D01*
X195141713Y-105246000D01*
X195141714Y-105246000D01*
X195354286Y-105246000D01*
X195354287Y-105246000D01*
X195564243Y-105212746D01*
X195766412Y-105147057D01*
X195955816Y-105050551D01*
X196010572Y-105010769D01*
X196127786Y-104925609D01*
X196127788Y-104925606D01*
X196127792Y-104925604D01*
X196278104Y-104775292D01*
X196278106Y-104775288D01*
X196278109Y-104775286D01*
X196403048Y-104603320D01*
X196403047Y-104603320D01*
X196403051Y-104603316D01*
X196407514Y-104594554D01*
X196455488Y-104543759D01*
X196523308Y-104526963D01*
X196589444Y-104549499D01*
X196628486Y-104594556D01*
X196632951Y-104603320D01*
X196757890Y-104775286D01*
X196908213Y-104925609D01*
X197080179Y-105050548D01*
X197080181Y-105050549D01*
X197080184Y-105050551D01*
X197269588Y-105147057D01*
X197471757Y-105212746D01*
X197681713Y-105246000D01*
X197681714Y-105246000D01*
X197894286Y-105246000D01*
X197894287Y-105246000D01*
X198104243Y-105212746D01*
X198306412Y-105147057D01*
X198495816Y-105050551D01*
X198550572Y-105010769D01*
X198667786Y-104925609D01*
X198667788Y-104925606D01*
X198667792Y-104925604D01*
X198818104Y-104775292D01*
X198818106Y-104775288D01*
X198818109Y-104775286D01*
X198943048Y-104603320D01*
X198943047Y-104603320D01*
X198943051Y-104603316D01*
X198947514Y-104594554D01*
X198995488Y-104543759D01*
X199063308Y-104526963D01*
X199129444Y-104549499D01*
X199168486Y-104594556D01*
X199172951Y-104603320D01*
X199297890Y-104775286D01*
X199448213Y-104925609D01*
X199620179Y-105050548D01*
X199620181Y-105050549D01*
X199620184Y-105050551D01*
X199809588Y-105147057D01*
X200011757Y-105212746D01*
X200221713Y-105246000D01*
X200221714Y-105246000D01*
X200434286Y-105246000D01*
X200434287Y-105246000D01*
X200644243Y-105212746D01*
X200846412Y-105147057D01*
X201035816Y-105050551D01*
X201090572Y-105010769D01*
X201207786Y-104925609D01*
X201207788Y-104925606D01*
X201207792Y-104925604D01*
X201358104Y-104775292D01*
X201358106Y-104775288D01*
X201358109Y-104775286D01*
X201483048Y-104603320D01*
X201483047Y-104603320D01*
X201483051Y-104603316D01*
X201487514Y-104594554D01*
X201535488Y-104543759D01*
X201603308Y-104526963D01*
X201669444Y-104549499D01*
X201708486Y-104594556D01*
X201712951Y-104603320D01*
X201837890Y-104775286D01*
X201988213Y-104925609D01*
X202160179Y-105050548D01*
X202160181Y-105050549D01*
X202160184Y-105050551D01*
X202349588Y-105147057D01*
X202551757Y-105212746D01*
X202761713Y-105246000D01*
X202761714Y-105246000D01*
X202974286Y-105246000D01*
X202974287Y-105246000D01*
X203184243Y-105212746D01*
X203386412Y-105147057D01*
X203575816Y-105050551D01*
X203630572Y-105010769D01*
X203747786Y-104925609D01*
X203747788Y-104925606D01*
X203747792Y-104925604D01*
X203898104Y-104775292D01*
X203898106Y-104775288D01*
X203898109Y-104775286D01*
X203983890Y-104657217D01*
X204023051Y-104603316D01*
X204027793Y-104594008D01*
X204075763Y-104543211D01*
X204143583Y-104526411D01*
X204209719Y-104548945D01*
X204248763Y-104594000D01*
X204253373Y-104603047D01*
X204292728Y-104657216D01*
X204925037Y-104024908D01*
X204942075Y-104088493D01*
X205007901Y-104202507D01*
X205100993Y-104295599D01*
X205215007Y-104361425D01*
X205278590Y-104378462D01*
X204646282Y-105010769D01*
X204646282Y-105010770D01*
X204700449Y-105050124D01*
X204889782Y-105146595D01*
X205091870Y-105212257D01*
X205301754Y-105245500D01*
X205514246Y-105245500D01*
X205724127Y-105212257D01*
X205724130Y-105212257D01*
X205926217Y-105146595D01*
X206115554Y-105050122D01*
X206169716Y-105010770D01*
X206169717Y-105010770D01*
X205537408Y-104378462D01*
X205600993Y-104361425D01*
X205715007Y-104295599D01*
X205808099Y-104202507D01*
X205873925Y-104088493D01*
X205890962Y-104024908D01*
X206523270Y-104657217D01*
X206523270Y-104657216D01*
X206562622Y-104603054D01*
X206659095Y-104413717D01*
X206724757Y-104211630D01*
X206724757Y-104211627D01*
X206758000Y-104001746D01*
X206758000Y-103789253D01*
X206724757Y-103579372D01*
X206724757Y-103579369D01*
X206659095Y-103377282D01*
X206562624Y-103187949D01*
X206523270Y-103133782D01*
X206523269Y-103133782D01*
X205890962Y-103766090D01*
X205873925Y-103702507D01*
X205808099Y-103588493D01*
X205715007Y-103495401D01*
X205600993Y-103429575D01*
X205537409Y-103412537D01*
X206173889Y-102776055D01*
X206184977Y-102723268D01*
X206234027Y-102673510D01*
X206255222Y-102664209D01*
X206327334Y-102640314D01*
X206476656Y-102548212D01*
X206600712Y-102424156D01*
X206692814Y-102274834D01*
X206747999Y-102108297D01*
X206758500Y-102005509D01*
X206758499Y-100705492D01*
X206747999Y-100602703D01*
X206692814Y-100436166D01*
X206600712Y-100286844D01*
X206476656Y-100162788D01*
X206327334Y-100070686D01*
X206160797Y-100015501D01*
X206160795Y-100015500D01*
X206058010Y-100005000D01*
X204757998Y-100005000D01*
X204757981Y-100005001D01*
X204655203Y-100015500D01*
X204655200Y-100015501D01*
X204488668Y-100070685D01*
X204488663Y-100070687D01*
X204339342Y-100162789D01*
X204215289Y-100286842D01*
X204123187Y-100436163D01*
X204123183Y-100436173D01*
X204119685Y-100446729D01*
X204079910Y-100504172D01*
X204015393Y-100530993D01*
X203946618Y-100518674D01*
X203901663Y-100480606D01*
X203898105Y-100475709D01*
X203747786Y-100325390D01*
X203575820Y-100200451D01*
X203386414Y-100103944D01*
X203386413Y-100103943D01*
X203386412Y-100103943D01*
X203184243Y-100038254D01*
X203184241Y-100038253D01*
X203184240Y-100038253D01*
X203022957Y-100012708D01*
X202974287Y-100005000D01*
X202761713Y-100005000D01*
X202713042Y-100012708D01*
X202551760Y-100038253D01*
X202349585Y-100103944D01*
X202160179Y-100200451D01*
X201988213Y-100325390D01*
X201837890Y-100475713D01*
X201712949Y-100647682D01*
X201708484Y-100656446D01*
X201660509Y-100707242D01*
X201592688Y-100724036D01*
X201526553Y-100701498D01*
X201487516Y-100656446D01*
X201483050Y-100647682D01*
X201358109Y-100475713D01*
X201207786Y-100325390D01*
X201035820Y-100200451D01*
X200846414Y-100103944D01*
X200846413Y-100103943D01*
X200846412Y-100103943D01*
X200644243Y-100038254D01*
X200644241Y-100038253D01*
X200644240Y-100038253D01*
X200482957Y-100012708D01*
X200434287Y-100005000D01*
X200221713Y-100005000D01*
X200173042Y-100012708D01*
X200011760Y-100038253D01*
X199809585Y-100103944D01*
X199620179Y-100200451D01*
X199448213Y-100325390D01*
X199297890Y-100475713D01*
X199172949Y-100647682D01*
X199168484Y-100656446D01*
X199120509Y-100707242D01*
X199052688Y-100724036D01*
X198986553Y-100701498D01*
X198947516Y-100656446D01*
X198943050Y-100647682D01*
X198818109Y-100475713D01*
X198667786Y-100325390D01*
X198495820Y-100200451D01*
X198306414Y-100103944D01*
X198306413Y-100103943D01*
X198306412Y-100103943D01*
X198104243Y-100038254D01*
X198104241Y-100038253D01*
X198104240Y-100038253D01*
X197942957Y-100012708D01*
X197894287Y-100005000D01*
X197681713Y-100005000D01*
X197633042Y-100012708D01*
X197471760Y-100038253D01*
X197269585Y-100103944D01*
X197080179Y-100200451D01*
X196908213Y-100325390D01*
X196757890Y-100475713D01*
X196632949Y-100647682D01*
X196628484Y-100656446D01*
X196580509Y-100707242D01*
X196512688Y-100724036D01*
X196446553Y-100701498D01*
X196407516Y-100656446D01*
X196403050Y-100647682D01*
X196278109Y-100475713D01*
X196127786Y-100325390D01*
X195955820Y-100200451D01*
X195766414Y-100103944D01*
X195766413Y-100103943D01*
X195766412Y-100103943D01*
X195564243Y-100038254D01*
X195564241Y-100038253D01*
X195564240Y-100038253D01*
X195402957Y-100012708D01*
X195354287Y-100005000D01*
X195141713Y-100005000D01*
X195093042Y-100012708D01*
X194931760Y-100038253D01*
X194729585Y-100103944D01*
X194540179Y-100200451D01*
X194368213Y-100325390D01*
X194217890Y-100475713D01*
X194092951Y-100647679D01*
X193996444Y-100837085D01*
X193996443Y-100837087D01*
X193996443Y-100837088D01*
X193978000Y-100893849D01*
X193930753Y-101039260D01*
X193897500Y-101249213D01*
X88925946Y-101249213D01*
X88987609Y-101168854D01*
X89038476Y-101102561D01*
X89038487Y-101102545D01*
X89189229Y-100841454D01*
X89189234Y-100841443D01*
X89304610Y-100562901D01*
X89382646Y-100271667D01*
X89421998Y-99972759D01*
X89422000Y-99972743D01*
X89422000Y-99671256D01*
X89421998Y-99671240D01*
X89382646Y-99372332D01*
X89304610Y-99081098D01*
X89189234Y-98802556D01*
X89189229Y-98802545D01*
X89038487Y-98541454D01*
X89038476Y-98541438D01*
X88915881Y-98381670D01*
X88416250Y-98881300D01*
X88342412Y-98779670D01*
X88164330Y-98601588D01*
X88062697Y-98527747D01*
X88562328Y-98028117D01*
X88562328Y-98028115D01*
X88402561Y-97905523D01*
X88402545Y-97905512D01*
X88141454Y-97754770D01*
X88141443Y-97754765D01*
X87862901Y-97639389D01*
X87571667Y-97561353D01*
X87272759Y-97522001D01*
X87272743Y-97522000D01*
X86971257Y-97522000D01*
X86971240Y-97522001D01*
X86672332Y-97561353D01*
X86381098Y-97639389D01*
X86102556Y-97754765D01*
X86102545Y-97754770D01*
X85841442Y-97905520D01*
X85681670Y-98028116D01*
X85681670Y-98028117D01*
X86181301Y-98527748D01*
X86079670Y-98601588D01*
X85901588Y-98779670D01*
X85827748Y-98881301D01*
X85328117Y-98381670D01*
X85328116Y-98381670D01*
X85205520Y-98541442D01*
X85054770Y-98802545D01*
X85054765Y-98802556D01*
X84939389Y-99081098D01*
X84861353Y-99372332D01*
X84822001Y-99671240D01*
X84822000Y-99671256D01*
X84270500Y-99671256D01*
X84270500Y-97144500D01*
X84290185Y-97077461D01*
X84342989Y-97031706D01*
X84394500Y-97020500D01*
X213145500Y-97020500D01*
X213212539Y-97040185D01*
G37*
%TD.AperFunction*%
%TD*%
M02*
