M48
; DRILL file {KiCad 9.0.0} date 2026-06-09T22:06:02-0400
; FORMAT={-:-/ absolute / inch / decimal}
; #@! TF.CreationDate,2026-06-09T22:06:02-04:00
; #@! TF.GenerationSoftware,Kicad,Pcbnew,9.0.0
; #@! TF.FileFunction,Plated,1,4,PTH
FMAT,2
INCH
; #@! TA.AperFunction,Plated,PTH,ViaDrill
T1C0.0118
; #@! TA.AperFunction,Plated,PTH,ComponentDrill
T2C0.0394
; #@! TA.AperFunction,Plated,PTH,ComponentDrill
T3C0.1260
%
G90
G05
T1
X3.38Y-4.2106
X3.43Y-4.07
X3.5487Y-4.2132
X3.77Y-4.21
X3.83Y-4.2106
X3.8731Y-4.07
X3.9988Y-4.2132
X4.2194Y-4.2094
X4.28Y-4.2106
X4.3231Y-4.07
X4.4476Y-4.2132
X4.6594Y-4.2094
X4.73Y-4.2106
X4.7731Y-4.07
X4.8965Y-4.2132
X5.1094Y-4.2094
X5.17Y-4.2106
X5.2231Y-4.07
X5.3453Y-4.2132
X5.5594Y-4.2094
X5.62Y-4.2106
X5.6731Y-4.07
X5.7941Y-4.2132
X6.0094Y-4.2094
X6.07Y-4.2106
X6.1231Y-4.07
X6.2429Y-4.2132
X6.4594Y-4.2094
X6.52Y-4.2106
X6.5731Y-4.07
X6.6917Y-4.2132
X6.9094Y-4.2094
X7.59Y-4.04
T2
X7.6869Y-3.9904
X7.6869Y-4.0904
X7.7869Y-3.9904
X7.7869Y-4.0904
X7.8869Y-3.9904
X7.8869Y-4.0904
X7.9869Y-3.9904
X7.9869Y-4.0904
X8.0869Y-3.9904
X8.0869Y-4.0904
T3
X3.43Y-3.93
M30
