%TF.GenerationSoftware,KiCad,Pcbnew,9.0.0*%
%TF.CreationDate,2026-06-23T13:20:12-04:00*%
%TF.ProjectId,MagnetroneSensorArm,4d61676e-6574-4726-9f6e-6553656e736f,rev?*%
%TF.SameCoordinates,Original*%
%TF.FileFunction,Copper,L1,Top*%
%TF.FilePolarity,Positive*%
%FSLAX46Y46*%
G04 Gerber Fmt 4.6, Leading zero omitted, Abs format (unit mm)*
G04 Created by KiCad (PCBNEW 9.0.0) date 2026-06-23 13:20:12*
%MOMM*%
%LPD*%
G01*
G04 APERTURE LIST*
G04 Aperture macros list*
%AMRoundRect*
0 Rectangle with rounded corners*
0 $1 Rounding radius*
0 $2 $3 $4 $5 $6 $7 $8 $9 X,Y pos of 4 corners*
0 Add a 4 corners polygon primitive as box body*
4,1,4,$2,$3,$4,$5,$6,$7,$8,$9,$2,$3,0*
0 Add four circle primitives for the rounded corners*
1,1,$1+$1,$2,$3*
1,1,$1+$1,$4,$5*
1,1,$1+$1,$6,$7*
1,1,$1+$1,$8,$9*
0 Add four rect primitives between the rounded corners*
20,1,$1+$1,$2,$3,$4,$5,0*
20,1,$1+$1,$4,$5,$6,$7,0*
20,1,$1+$1,$6,$7,$8,$9,0*
20,1,$1+$1,$8,$9,$2,$3,0*%
G04 Aperture macros list end*
%TA.AperFunction,SMDPad,CuDef*%
%ADD10RoundRect,0.175000X0.175000X-0.325000X0.175000X0.325000X-0.175000X0.325000X-0.175000X-0.325000X0*%
%TD*%
%TA.AperFunction,ComponentPad*%
%ADD11C,3.600000*%
%TD*%
%TA.AperFunction,ConnectorPad*%
%ADD12C,5.700000*%
%TD*%
%TA.AperFunction,ComponentPad*%
%ADD13RoundRect,0.250000X-0.600000X0.600000X-0.600000X-0.600000X0.600000X-0.600000X0.600000X0.600000X0*%
%TD*%
%TA.AperFunction,ComponentPad*%
%ADD14C,1.700000*%
%TD*%
%TA.AperFunction,ViaPad*%
%ADD15C,0.600000*%
%TD*%
%TA.AperFunction,Conductor*%
%ADD16C,0.250000*%
%TD*%
G04 APERTURE END LIST*
D10*
%TO.P,U4,1,VCC*%
%TO.N,+5V*%
X121220000Y-106540000D03*
%TO.P,U4,2,VOUT*%
%TO.N,Net-(U4-VOUT)*%
X123120000Y-106540000D03*
%TO.P,U4,3,GND*%
%TO.N,GND*%
X122170000Y-104140000D03*
%TD*%
D11*
%TO.P,H1,1,1*%
%TO.N,GND*%
X87122000Y-99822000D03*
D12*
X87122000Y-99822000D03*
%TD*%
D10*
%TO.P,U5,1,VCC*%
%TO.N,+5V*%
X132620000Y-106540000D03*
%TO.P,U5,2,VOUT*%
%TO.N,Net-(U5-VOUT)*%
X134520000Y-106540000D03*
%TO.P,U5,3,GND*%
%TO.N,GND*%
X133570000Y-104140000D03*
%TD*%
%TO.P,U2,1,VCC*%
%TO.N,+5V*%
X98420000Y-106540000D03*
%TO.P,U2,2,VOUT*%
%TO.N,Net-(U2-VOUT)*%
X100320000Y-106540000D03*
%TO.P,U2,3,GND*%
%TO.N,GND*%
X99370000Y-104140000D03*
%TD*%
%TO.P,U6,1,VCC*%
%TO.N,+5V*%
X144020000Y-106540000D03*
%TO.P,U6,2,VOUT*%
%TO.N,Net-(U6-VOUT)*%
X145920000Y-106540000D03*
%TO.P,U6,3,GND*%
%TO.N,GND*%
X144970000Y-104140000D03*
%TD*%
%TO.P,U7,1,VCC*%
%TO.N,+5V*%
X155420000Y-106540000D03*
%TO.P,U7,2,VOUT*%
%TO.N,Net-(U7-VOUT)*%
X157320000Y-106540000D03*
%TO.P,U7,3,GND*%
%TO.N,GND*%
X156370000Y-104140000D03*
%TD*%
%TO.P,U8,1,VCC*%
%TO.N,+5V*%
X166820000Y-106540000D03*
%TO.P,U8,2,VOUT*%
%TO.N,Net-(U8-VOUT)*%
X168720000Y-106540000D03*
%TO.P,U8,3,GND*%
%TO.N,GND*%
X167770000Y-104140000D03*
%TD*%
%TO.P,U3,1,VCC*%
%TO.N,+5V*%
X109820000Y-106540000D03*
%TO.P,U3,2,VOUT*%
%TO.N,Net-(U3-VOUT)*%
X111720000Y-106540000D03*
%TO.P,U3,3,GND*%
%TO.N,GND*%
X110770000Y-104140000D03*
%TD*%
%TO.P,U1,1,VCC*%
%TO.N,+5V*%
X87110000Y-106540000D03*
%TO.P,U1,2,VOUT*%
%TO.N,Net-(U1-VOUT)*%
X89010000Y-106540000D03*
%TO.P,U1,3,GND*%
%TO.N,GND*%
X88060000Y-104140000D03*
%TD*%
D13*
%TO.P,J1,1,Pin_1*%
%TO.N,+5V*%
X205408000Y-101355500D03*
D14*
%TO.P,J1,2,Pin_2*%
%TO.N,GND*%
X205408000Y-103895500D03*
%TO.P,J1,3,Pin_3*%
%TO.N,/hall1*%
X202868000Y-101355500D03*
%TO.P,J1,4,Pin_4*%
%TO.N,/hall8*%
X202868000Y-103895500D03*
%TO.P,J1,5,Pin_5*%
%TO.N,/hall2*%
X200328000Y-101355500D03*
%TO.P,J1,6,Pin_6*%
%TO.N,/hall7*%
X200328000Y-103895500D03*
%TO.P,J1,7,Pin_7*%
%TO.N,/hall3*%
X197788000Y-101355500D03*
%TO.P,J1,8,Pin_8*%
%TO.N,/hall6*%
X197788000Y-103895500D03*
%TO.P,J1,9,Pin_9*%
%TO.N,/hall4*%
X195248000Y-101355500D03*
%TO.P,J1,10,Pin_10*%
%TO.N,/hall5*%
X195248000Y-103895500D03*
%TD*%
D15*
%TO.N,GND*%
X141210000Y-106920000D03*
X107174000Y-106920000D03*
X132666000Y-103378000D03*
X98376000Y-103378000D03*
X155526000Y-103378000D03*
X192786000Y-102616000D03*
X164070000Y-106920000D03*
X129780000Y-106920000D03*
X175500000Y-106920000D03*
X109806000Y-103378000D03*
X166956000Y-103378000D03*
X152640000Y-106920000D03*
X87122000Y-103378000D03*
X118350000Y-106920000D03*
X121236000Y-103378000D03*
X95758000Y-106934000D03*
X144096000Y-103378000D03*
%TO.N,+5V*%
X85852000Y-106949000D03*
X108712000Y-106949000D03*
X142748000Y-106949000D03*
X120142000Y-106949000D03*
X154178000Y-106949000D03*
X97282000Y-106949000D03*
X165608000Y-106949000D03*
X131318000Y-106949000D03*
%TO.N,Net-(U1-VOUT)*%
X90136000Y-107014999D03*
%TO.N,Net-(U2-VOUT)*%
X101570000Y-107014999D03*
%TO.N,Net-(U3-VOUT)*%
X112970000Y-107014999D03*
%TO.N,Net-(U4-VOUT)*%
X124370000Y-107014999D03*
%TO.N,Net-(U5-VOUT)*%
X135770000Y-107014999D03*
%TO.N,Net-(U6-VOUT)*%
X147170000Y-107014999D03*
%TO.N,Net-(U7-VOUT)*%
X158570000Y-107014999D03*
%TO.N,Net-(U8-VOUT)*%
X169970000Y-107014999D03*
%TD*%
D16*
%TO.N,GND*%
X144272000Y-103378000D02*
X145034000Y-104140000D01*
X132842000Y-103378000D02*
X133604000Y-104140000D01*
X98552000Y-103378000D02*
X99314000Y-104140000D01*
X87122000Y-103378000D02*
X87298000Y-103378000D01*
X109806000Y-103378000D02*
X109982000Y-103378000D01*
X109982000Y-103378000D02*
X110744000Y-104140000D01*
X167132000Y-103378000D02*
X167894000Y-104140000D01*
X87298000Y-103378000D02*
X88060000Y-104140000D01*
X98376000Y-103378000D02*
X98552000Y-103378000D01*
X121236000Y-103378000D02*
X121412000Y-103378000D01*
X132666000Y-103378000D02*
X132842000Y-103378000D01*
X144096000Y-103378000D02*
X144272000Y-103378000D01*
X121412000Y-103378000D02*
X122174000Y-104140000D01*
X155526000Y-103378000D02*
X155702000Y-103378000D01*
X166956000Y-103378000D02*
X167132000Y-103378000D01*
X155702000Y-103378000D02*
X156464000Y-104140000D01*
%TO.N,+5V*%
X142748000Y-106949000D02*
X143611000Y-106949000D01*
X143611000Y-106949000D02*
X144020000Y-106540000D01*
X86701000Y-106949000D02*
X87110000Y-106540000D01*
X132211000Y-106949000D02*
X132620000Y-106540000D01*
X108712000Y-106949000D02*
X109411000Y-106949000D01*
X166411000Y-106949000D02*
X166820000Y-106540000D01*
X120811000Y-106949000D02*
X121220000Y-106540000D01*
X87936000Y-105714000D02*
X202896000Y-105714000D01*
X131318000Y-106949000D02*
X132211000Y-106949000D01*
X120142000Y-106949000D02*
X120811000Y-106949000D01*
X202896000Y-105714000D02*
X204232000Y-104378000D01*
X155011000Y-106949000D02*
X155420000Y-106540000D01*
X204232000Y-104378000D02*
X204232000Y-102531500D01*
X154178000Y-106949000D02*
X155011000Y-106949000D01*
X85852000Y-106949000D02*
X86701000Y-106949000D01*
X204232000Y-102531500D02*
X205408000Y-101355500D01*
X109411000Y-106949000D02*
X109820000Y-106540000D01*
X87110000Y-106540000D02*
X87936000Y-105714000D01*
X165608000Y-106949000D02*
X166411000Y-106949000D01*
X98011000Y-106949000D02*
X98420000Y-106540000D01*
X97282000Y-106949000D02*
X98011000Y-106949000D01*
%TO.N,Net-(U1-VOUT)*%
X89010000Y-106540000D02*
X89661001Y-106540000D01*
X89661001Y-106540000D02*
X90136000Y-107014999D01*
%TO.N,Net-(U2-VOUT)*%
X100320000Y-106540000D02*
X101095001Y-106540000D01*
X101095001Y-106540000D02*
X101570000Y-107014999D01*
%TO.N,Net-(U3-VOUT)*%
X111720000Y-106540000D02*
X112495001Y-106540000D01*
X112495001Y-106540000D02*
X112970000Y-107014999D01*
%TO.N,Net-(U4-VOUT)*%
X123120000Y-106540000D02*
X123895001Y-106540000D01*
X123895001Y-106540000D02*
X124370000Y-107014999D01*
%TO.N,Net-(U5-VOUT)*%
X134520000Y-106540000D02*
X135295001Y-106540000D01*
X135295001Y-106540000D02*
X135770000Y-107014999D01*
%TO.N,Net-(U6-VOUT)*%
X145920000Y-106540000D02*
X146695001Y-106540000D01*
X146695001Y-106540000D02*
X147170000Y-107014999D01*
%TO.N,Net-(U7-VOUT)*%
X157320000Y-106540000D02*
X158095001Y-106540000D01*
X158095001Y-106540000D02*
X158570000Y-107014999D01*
%TO.N,Net-(U8-VOUT)*%
X168720000Y-106540000D02*
X169495001Y-106540000D01*
X169495001Y-106540000D02*
X169970000Y-107014999D01*
%TD*%
%TA.AperFunction,Conductor*%
%TO.N,GND*%
G36*
X213212539Y-97040185D02*
G01*
X213258294Y-97092989D01*
X213269500Y-97144500D01*
X213269500Y-107295500D01*
X213249815Y-107362539D01*
X213197011Y-107408294D01*
X213145500Y-107419500D01*
X170854484Y-107419500D01*
X170787445Y-107399815D01*
X170741690Y-107347011D01*
X170731746Y-107277853D01*
X170738182Y-107254387D01*
X170737969Y-107254323D01*
X170739731Y-107248508D01*
X170739737Y-107248496D01*
X170770500Y-107093841D01*
X170770500Y-106936157D01*
X170770500Y-106936154D01*
X170770499Y-106936152D01*
X170739738Y-106781509D01*
X170739737Y-106781502D01*
X170739735Y-106781497D01*
X170679397Y-106635826D01*
X170679390Y-106635813D01*
X170610285Y-106532391D01*
X170589407Y-106465714D01*
X170607891Y-106398334D01*
X170659870Y-106351643D01*
X170713387Y-106339500D01*
X202957608Y-106339500D01*
X202957608Y-106339499D01*
X203038051Y-106323499D01*
X203078452Y-106315463D01*
X203119404Y-106298500D01*
X203192286Y-106268312D01*
X203243509Y-106234084D01*
X203294733Y-106199858D01*
X203381858Y-106112733D01*
X203381859Y-106112731D01*
X203388925Y-106105665D01*
X203388928Y-106105661D01*
X204477300Y-105017288D01*
X204538619Y-104983806D01*
X204608311Y-104988790D01*
X204637862Y-105004654D01*
X204700442Y-105050120D01*
X204889782Y-105146595D01*
X205091870Y-105212257D01*
X205301754Y-105245500D01*
X205514246Y-105245500D01*
X205724127Y-105212257D01*
X205724130Y-105212257D01*
X205926217Y-105146595D01*
X206115554Y-105050122D01*
X206169716Y-105010770D01*
X206169717Y-105010770D01*
X205537409Y-104378462D01*
X205600993Y-104361425D01*
X205715007Y-104295599D01*
X205808099Y-104202507D01*
X205873925Y-104088493D01*
X205890962Y-104024908D01*
X206523270Y-104657217D01*
X206523270Y-104657216D01*
X206562622Y-104603054D01*
X206659095Y-104413717D01*
X206724757Y-104211630D01*
X206724757Y-104211627D01*
X206758000Y-104001746D01*
X206758000Y-103789253D01*
X206724757Y-103579372D01*
X206724757Y-103579369D01*
X206659095Y-103377282D01*
X206562624Y-103187949D01*
X206523270Y-103133782D01*
X206523269Y-103133782D01*
X205890962Y-103766090D01*
X205873925Y-103702507D01*
X205808099Y-103588493D01*
X205715007Y-103495401D01*
X205600993Y-103429575D01*
X205537407Y-103412536D01*
X206173889Y-102776055D01*
X206184977Y-102723268D01*
X206234027Y-102673510D01*
X206255222Y-102664209D01*
X206327334Y-102640314D01*
X206476656Y-102548212D01*
X206600712Y-102424156D01*
X206692814Y-102274834D01*
X206747999Y-102108297D01*
X206758500Y-102005509D01*
X206758499Y-100705492D01*
X206751498Y-100636961D01*
X206747999Y-100602703D01*
X206747998Y-100602700D01*
X206692814Y-100436166D01*
X206600712Y-100286844D01*
X206476656Y-100162788D01*
X206327334Y-100070686D01*
X206160797Y-100015501D01*
X206160795Y-100015500D01*
X206058010Y-100005000D01*
X204757998Y-100005000D01*
X204757981Y-100005001D01*
X204655203Y-100015500D01*
X204655200Y-100015501D01*
X204488668Y-100070685D01*
X204488663Y-100070687D01*
X204339342Y-100162789D01*
X204215289Y-100286842D01*
X204123187Y-100436163D01*
X204123183Y-100436173D01*
X204119685Y-100446729D01*
X204079910Y-100504172D01*
X204015393Y-100530993D01*
X203946618Y-100518674D01*
X203901663Y-100480606D01*
X203898105Y-100475709D01*
X203747786Y-100325390D01*
X203575820Y-100200451D01*
X203386414Y-100103944D01*
X203386413Y-100103943D01*
X203386412Y-100103943D01*
X203184243Y-100038254D01*
X203184241Y-100038253D01*
X203184240Y-100038253D01*
X203022957Y-100012708D01*
X202974287Y-100005000D01*
X202761713Y-100005000D01*
X202713042Y-100012708D01*
X202551760Y-100038253D01*
X202349585Y-100103944D01*
X202160179Y-100200451D01*
X201988213Y-100325390D01*
X201837890Y-100475713D01*
X201712949Y-100647682D01*
X201708484Y-100656446D01*
X201660509Y-100707242D01*
X201592688Y-100724036D01*
X201526553Y-100701498D01*
X201487516Y-100656446D01*
X201483050Y-100647682D01*
X201358109Y-100475713D01*
X201207786Y-100325390D01*
X201035820Y-100200451D01*
X200846414Y-100103944D01*
X200846413Y-100103943D01*
X200846412Y-100103943D01*
X200644243Y-100038254D01*
X200644241Y-100038253D01*
X200644240Y-100038253D01*
X200482957Y-100012708D01*
X200434287Y-100005000D01*
X200221713Y-100005000D01*
X200173042Y-100012708D01*
X200011760Y-100038253D01*
X199809585Y-100103944D01*
X199620179Y-100200451D01*
X199448213Y-100325390D01*
X199297890Y-100475713D01*
X199172949Y-100647682D01*
X199168484Y-100656446D01*
X199120509Y-100707242D01*
X199052688Y-100724036D01*
X198986553Y-100701498D01*
X198947516Y-100656446D01*
X198943050Y-100647682D01*
X198818109Y-100475713D01*
X198667786Y-100325390D01*
X198495820Y-100200451D01*
X198306414Y-100103944D01*
X198306413Y-100103943D01*
X198306412Y-100103943D01*
X198104243Y-100038254D01*
X198104241Y-100038253D01*
X198104240Y-100038253D01*
X197942957Y-100012708D01*
X197894287Y-100005000D01*
X197681713Y-100005000D01*
X197633042Y-100012708D01*
X197471760Y-100038253D01*
X197269585Y-100103944D01*
X197080179Y-100200451D01*
X196908213Y-100325390D01*
X196757890Y-100475713D01*
X196632949Y-100647682D01*
X196628484Y-100656446D01*
X196580509Y-100707242D01*
X196512688Y-100724036D01*
X196446553Y-100701498D01*
X196407516Y-100656446D01*
X196403050Y-100647682D01*
X196278109Y-100475713D01*
X196127786Y-100325390D01*
X195955820Y-100200451D01*
X195766414Y-100103944D01*
X195766413Y-100103943D01*
X195766412Y-100103943D01*
X195564243Y-100038254D01*
X195564241Y-100038253D01*
X195564240Y-100038253D01*
X195402957Y-100012708D01*
X195354287Y-100005000D01*
X195141713Y-100005000D01*
X195093042Y-100012708D01*
X194931760Y-100038253D01*
X194729585Y-100103944D01*
X194540179Y-100200451D01*
X194368213Y-100325390D01*
X194217890Y-100475713D01*
X194092951Y-100647679D01*
X193996444Y-100837085D01*
X193996443Y-100837087D01*
X193996443Y-100837088D01*
X193978000Y-100893849D01*
X193930753Y-101039260D01*
X193897500Y-101249213D01*
X193897500Y-101461786D01*
X193930753Y-101671739D01*
X193996444Y-101873914D01*
X194092951Y-102063320D01*
X194217890Y-102235286D01*
X194368213Y-102385609D01*
X194540182Y-102510550D01*
X194548946Y-102515016D01*
X194599742Y-102562991D01*
X194616536Y-102630812D01*
X194593998Y-102696947D01*
X194548946Y-102735984D01*
X194540182Y-102740449D01*
X194368213Y-102865390D01*
X194217890Y-103015713D01*
X194092951Y-103187679D01*
X193996444Y-103377085D01*
X193930753Y-103579260D01*
X193897500Y-103789213D01*
X193897500Y-104001786D01*
X193930735Y-104211627D01*
X193930754Y-104211743D01*
X193988673Y-104390000D01*
X193996444Y-104413914D01*
X194092951Y-104603320D01*
X194217890Y-104775286D01*
X194319423Y-104876819D01*
X194352908Y-104938142D01*
X194347924Y-105007834D01*
X194306052Y-105063767D01*
X194240588Y-105088184D01*
X194231742Y-105088500D01*
X168574976Y-105088500D01*
X168507937Y-105068815D01*
X168462182Y-105016011D01*
X168452238Y-104946853D01*
X168477372Y-104888019D01*
X168480254Y-104884340D01*
X168565052Y-104744065D01*
X168613820Y-104587562D01*
X168620000Y-104519556D01*
X168620000Y-104390000D01*
X166920001Y-104390000D01*
X166920001Y-104519566D01*
X166926178Y-104587561D01*
X166926181Y-104587572D01*
X166974944Y-104744060D01*
X166974946Y-104744064D01*
X167059745Y-104884340D01*
X167062628Y-104888019D01*
X167088483Y-104952929D01*
X167075140Y-105021513D01*
X167026836Y-105071995D01*
X166965024Y-105088500D01*
X157174976Y-105088500D01*
X157107937Y-105068815D01*
X157062182Y-105016011D01*
X157052238Y-104946853D01*
X157077372Y-104888019D01*
X157080254Y-104884340D01*
X157165052Y-104744065D01*
X157213820Y-104587562D01*
X157220000Y-104519556D01*
X157220000Y-104390000D01*
X155520001Y-104390000D01*
X155520001Y-104519566D01*
X155526178Y-104587561D01*
X155526181Y-104587572D01*
X155574944Y-104744060D01*
X155574946Y-104744064D01*
X155659745Y-104884340D01*
X155662628Y-104888019D01*
X155688483Y-104952929D01*
X155675140Y-105021513D01*
X155626836Y-105071995D01*
X155565024Y-105088500D01*
X145774976Y-105088500D01*
X145707937Y-105068815D01*
X145662182Y-105016011D01*
X145652238Y-104946853D01*
X145677372Y-104888019D01*
X145680254Y-104884340D01*
X145765052Y-104744065D01*
X145813820Y-104587562D01*
X145820000Y-104519556D01*
X145820000Y-104390000D01*
X144120001Y-104390000D01*
X144120001Y-104519566D01*
X144126178Y-104587561D01*
X144126181Y-104587572D01*
X144174944Y-104744060D01*
X144174946Y-104744064D01*
X144259745Y-104884340D01*
X144262628Y-104888019D01*
X144288483Y-104952929D01*
X144275140Y-105021513D01*
X144226836Y-105071995D01*
X144165024Y-105088500D01*
X134374976Y-105088500D01*
X134307937Y-105068815D01*
X134262182Y-105016011D01*
X134252238Y-104946853D01*
X134277372Y-104888019D01*
X134280254Y-104884340D01*
X134365052Y-104744065D01*
X134413820Y-104587562D01*
X134420000Y-104519556D01*
X134420000Y-104390000D01*
X132720001Y-104390000D01*
X132720001Y-104519566D01*
X132726178Y-104587561D01*
X132726181Y-104587572D01*
X132774944Y-104744060D01*
X132774946Y-104744064D01*
X132859745Y-104884340D01*
X132862628Y-104888019D01*
X132888483Y-104952929D01*
X132875140Y-105021513D01*
X132826836Y-105071995D01*
X132765024Y-105088500D01*
X122974976Y-105088500D01*
X122907937Y-105068815D01*
X122862182Y-105016011D01*
X122852238Y-104946853D01*
X122877372Y-104888019D01*
X122880254Y-104884340D01*
X122965052Y-104744065D01*
X123013820Y-104587562D01*
X123020000Y-104519556D01*
X123020000Y-104390000D01*
X121320001Y-104390000D01*
X121320001Y-104519566D01*
X121326178Y-104587561D01*
X121326181Y-104587572D01*
X121374944Y-104744060D01*
X121374946Y-104744064D01*
X121459745Y-104884340D01*
X121462628Y-104888019D01*
X121488483Y-104952929D01*
X121475140Y-105021513D01*
X121426836Y-105071995D01*
X121365024Y-105088500D01*
X111574976Y-105088500D01*
X111507937Y-105068815D01*
X111462182Y-105016011D01*
X111452238Y-104946853D01*
X111477372Y-104888019D01*
X111480254Y-104884340D01*
X111565052Y-104744065D01*
X111613820Y-104587562D01*
X111620000Y-104519556D01*
X111620000Y-104390000D01*
X109920001Y-104390000D01*
X109920001Y-104519566D01*
X109926178Y-104587561D01*
X109926181Y-104587572D01*
X109974944Y-104744060D01*
X109974946Y-104744064D01*
X110059745Y-104884340D01*
X110062628Y-104888019D01*
X110088483Y-104952929D01*
X110075140Y-105021513D01*
X110026836Y-105071995D01*
X109965024Y-105088500D01*
X100174976Y-105088500D01*
X100107937Y-105068815D01*
X100062182Y-105016011D01*
X100052238Y-104946853D01*
X100077372Y-104888019D01*
X100080254Y-104884340D01*
X100165052Y-104744065D01*
X100213820Y-104587562D01*
X100220000Y-104519556D01*
X100220000Y-104390000D01*
X98520001Y-104390000D01*
X98520001Y-104519566D01*
X98526178Y-104587561D01*
X98526181Y-104587572D01*
X98574944Y-104744060D01*
X98574946Y-104744064D01*
X98659745Y-104884340D01*
X98662628Y-104888019D01*
X98688483Y-104952929D01*
X98675140Y-105021513D01*
X98626836Y-105071995D01*
X98565024Y-105088500D01*
X88864976Y-105088500D01*
X88797937Y-105068815D01*
X88752182Y-105016011D01*
X88742238Y-104946853D01*
X88767372Y-104888019D01*
X88770254Y-104884340D01*
X88855052Y-104744065D01*
X88903820Y-104587562D01*
X88910000Y-104519556D01*
X88910000Y-104390000D01*
X87210001Y-104390000D01*
X87210001Y-104519566D01*
X87216178Y-104587561D01*
X87216181Y-104587572D01*
X87264944Y-104744060D01*
X87264946Y-104744064D01*
X87349743Y-104884337D01*
X87349747Y-104884342D01*
X87465657Y-105000252D01*
X87465661Y-105000255D01*
X87516867Y-105031210D01*
X87564055Y-105082737D01*
X87575894Y-105151596D01*
X87548626Y-105215925D01*
X87540400Y-105225008D01*
X87401314Y-105364094D01*
X87262226Y-105503182D01*
X87200906Y-105536666D01*
X87174547Y-105539500D01*
X86880406Y-105539500D01*
X86812343Y-105545685D01*
X86812339Y-105545686D01*
X86812335Y-105545687D01*
X86655736Y-105594485D01*
X86655727Y-105594488D01*
X86515351Y-105679348D01*
X86515347Y-105679351D01*
X86399351Y-105795347D01*
X86399348Y-105795351D01*
X86314488Y-105935727D01*
X86314485Y-105935736D01*
X86265685Y-106092338D01*
X86265471Y-106093419D01*
X86265170Y-106093994D01*
X86263733Y-106098606D01*
X86262894Y-106098344D01*
X86233081Y-106155328D01*
X86172363Y-106189897D01*
X86102594Y-106186153D01*
X86096422Y-106183788D01*
X86085497Y-106179263D01*
X86085492Y-106179262D01*
X86085489Y-106179261D01*
X85930845Y-106148500D01*
X85930842Y-106148500D01*
X85773158Y-106148500D01*
X85773155Y-106148500D01*
X85618510Y-106179261D01*
X85618498Y-106179264D01*
X85472827Y-106239602D01*
X85472814Y-106239609D01*
X85341711Y-106327210D01*
X85341707Y-106327213D01*
X85230213Y-106438707D01*
X85230210Y-106438711D01*
X85142609Y-106569814D01*
X85142602Y-106569827D01*
X85082264Y-106715498D01*
X85082261Y-106715510D01*
X85051500Y-106870153D01*
X85051500Y-107027846D01*
X85074659Y-107144270D01*
X85082263Y-107182497D01*
X85109415Y-107248048D01*
X85116884Y-107317516D01*
X85085609Y-107379996D01*
X85025520Y-107415648D01*
X84994854Y-107419500D01*
X84394500Y-107419500D01*
X84327461Y-107399815D01*
X84281706Y-107347011D01*
X84270500Y-107295500D01*
X84270500Y-101974629D01*
X84290185Y-101907590D01*
X84342989Y-101861835D01*
X84412147Y-101851891D01*
X84475703Y-101880916D01*
X84490354Y-101895965D01*
X84582364Y-102008081D01*
X84582365Y-102008081D01*
X85827748Y-100762698D01*
X85901588Y-100864330D01*
X86079670Y-101042412D01*
X86181300Y-101116251D01*
X84935917Y-102361633D01*
X84935917Y-102361634D01*
X85124000Y-102515989D01*
X85124004Y-102515992D01*
X85397672Y-102698851D01*
X85397690Y-102698862D01*
X85687955Y-102854012D01*
X85687960Y-102854014D01*
X85992053Y-102979974D01*
X86307038Y-103075524D01*
X86307043Y-103075525D01*
X86629860Y-103139738D01*
X86957428Y-103172000D01*
X87274043Y-103172000D01*
X87341082Y-103191685D01*
X87386837Y-103244489D01*
X87396781Y-103313647D01*
X87367756Y-103377203D01*
X87361724Y-103383681D01*
X87349747Y-103395657D01*
X87349743Y-103395662D01*
X87264947Y-103535934D01*
X87216179Y-103692437D01*
X87210000Y-103760443D01*
X87210000Y-103890000D01*
X88909999Y-103890000D01*
X88909999Y-103760443D01*
X98520000Y-103760443D01*
X98520000Y-103890000D01*
X99120000Y-103890000D01*
X99620000Y-103890000D01*
X100219999Y-103890000D01*
X100219999Y-103760443D01*
X109920000Y-103760443D01*
X109920000Y-103890000D01*
X110520000Y-103890000D01*
X111020000Y-103890000D01*
X111619999Y-103890000D01*
X111619999Y-103760443D01*
X121320000Y-103760443D01*
X121320000Y-103890000D01*
X121920000Y-103890000D01*
X122420000Y-103890000D01*
X123019999Y-103890000D01*
X123019999Y-103760443D01*
X132720000Y-103760443D01*
X132720000Y-103890000D01*
X133320000Y-103890000D01*
X133820000Y-103890000D01*
X134419999Y-103890000D01*
X134419999Y-103760443D01*
X144120000Y-103760443D01*
X144120000Y-103890000D01*
X144720000Y-103890000D01*
X145220000Y-103890000D01*
X145819999Y-103890000D01*
X145819999Y-103760443D01*
X155520000Y-103760443D01*
X155520000Y-103890000D01*
X156120000Y-103890000D01*
X156620000Y-103890000D01*
X157219999Y-103890000D01*
X157219999Y-103760443D01*
X166920000Y-103760443D01*
X166920000Y-103890000D01*
X167520000Y-103890000D01*
X168020000Y-103890000D01*
X168619999Y-103890000D01*
X168619999Y-103760433D01*
X168613821Y-103692438D01*
X168613818Y-103692427D01*
X168565055Y-103535939D01*
X168565053Y-103535935D01*
X168480256Y-103395662D01*
X168480252Y-103395657D01*
X168364342Y-103279747D01*
X168364337Y-103279743D01*
X168224065Y-103194947D01*
X168067562Y-103146179D01*
X168020000Y-103141856D01*
X168020000Y-103890000D01*
X167520000Y-103890000D01*
X167520000Y-103141857D01*
X167472441Y-103146178D01*
X167315934Y-103194947D01*
X167175662Y-103279743D01*
X167175657Y-103279747D01*
X167059747Y-103395657D01*
X167059743Y-103395662D01*
X166974947Y-103535934D01*
X166926179Y-103692437D01*
X166920000Y-103760443D01*
X157219999Y-103760443D01*
X157219999Y-103760433D01*
X157213821Y-103692438D01*
X157213818Y-103692427D01*
X157165055Y-103535939D01*
X157165053Y-103535935D01*
X157080256Y-103395662D01*
X157080252Y-103395657D01*
X156964342Y-103279747D01*
X156964337Y-103279743D01*
X156824065Y-103194947D01*
X156667562Y-103146179D01*
X156620000Y-103141856D01*
X156620000Y-103890000D01*
X156120000Y-103890000D01*
X156120000Y-103141857D01*
X156072441Y-103146178D01*
X155915934Y-103194947D01*
X155775662Y-103279743D01*
X155775657Y-103279747D01*
X155659747Y-103395657D01*
X155659743Y-103395662D01*
X155574947Y-103535934D01*
X155526179Y-103692437D01*
X155520000Y-103760443D01*
X145819999Y-103760443D01*
X145819999Y-103760433D01*
X145813821Y-103692438D01*
X145813818Y-103692427D01*
X145765055Y-103535939D01*
X145765053Y-103535935D01*
X145680256Y-103395662D01*
X145680252Y-103395657D01*
X145564342Y-103279747D01*
X145564337Y-103279743D01*
X145424065Y-103194947D01*
X145267562Y-103146179D01*
X145220000Y-103141856D01*
X145220000Y-103890000D01*
X144720000Y-103890000D01*
X144720000Y-103141857D01*
X144719999Y-103141857D01*
X144672441Y-103146178D01*
X144515934Y-103194947D01*
X144375662Y-103279743D01*
X144375657Y-103279747D01*
X144259747Y-103395657D01*
X144259743Y-103395662D01*
X144174947Y-103535934D01*
X144126179Y-103692437D01*
X144120000Y-103760443D01*
X134419999Y-103760443D01*
X134419999Y-103760433D01*
X134413821Y-103692438D01*
X134413818Y-103692427D01*
X134365055Y-103535939D01*
X134365053Y-103535935D01*
X134280256Y-103395662D01*
X134280252Y-103395657D01*
X134164342Y-103279747D01*
X134164337Y-103279743D01*
X134024065Y-103194947D01*
X133867562Y-103146179D01*
X133820000Y-103141856D01*
X133820000Y-103890000D01*
X133320000Y-103890000D01*
X133320000Y-103141857D01*
X133319999Y-103141857D01*
X133272441Y-103146178D01*
X133115934Y-103194947D01*
X132975662Y-103279743D01*
X132975657Y-103279747D01*
X132859747Y-103395657D01*
X132859743Y-103395662D01*
X132774947Y-103535934D01*
X132726179Y-103692437D01*
X132720000Y-103760443D01*
X123019999Y-103760443D01*
X123019999Y-103760433D01*
X123013821Y-103692438D01*
X123013818Y-103692427D01*
X122965055Y-103535939D01*
X122965053Y-103535935D01*
X122880256Y-103395662D01*
X122880252Y-103395657D01*
X122764342Y-103279747D01*
X122764337Y-103279743D01*
X122624065Y-103194947D01*
X122467562Y-103146179D01*
X122420000Y-103141856D01*
X122420000Y-103890000D01*
X121920000Y-103890000D01*
X121920000Y-103141857D01*
X121919999Y-103141857D01*
X121872441Y-103146178D01*
X121715934Y-103194947D01*
X121575662Y-103279743D01*
X121575657Y-103279747D01*
X121459747Y-103395657D01*
X121459743Y-103395662D01*
X121374947Y-103535934D01*
X121326179Y-103692437D01*
X121320000Y-103760443D01*
X111619999Y-103760443D01*
X111619999Y-103760433D01*
X111613821Y-103692438D01*
X111613818Y-103692427D01*
X111565055Y-103535939D01*
X111565053Y-103535935D01*
X111480256Y-103395662D01*
X111480252Y-103395657D01*
X111364342Y-103279747D01*
X111364337Y-103279743D01*
X111224065Y-103194947D01*
X111067562Y-103146179D01*
X111020000Y-103141856D01*
X111020000Y-103890000D01*
X110520000Y-103890000D01*
X110520000Y-103141857D01*
X110519999Y-103141857D01*
X110472441Y-103146178D01*
X110315934Y-103194947D01*
X110175662Y-103279743D01*
X110175657Y-103279747D01*
X110059747Y-103395657D01*
X110059743Y-103395662D01*
X109974947Y-103535934D01*
X109926179Y-103692437D01*
X109920000Y-103760443D01*
X100219999Y-103760443D01*
X100219999Y-103760433D01*
X100213821Y-103692438D01*
X100213818Y-103692427D01*
X100165055Y-103535939D01*
X100165053Y-103535935D01*
X100080256Y-103395662D01*
X100080252Y-103395657D01*
X99964342Y-103279747D01*
X99964337Y-103279743D01*
X99824065Y-103194947D01*
X99667562Y-103146179D01*
X99620000Y-103141856D01*
X99620000Y-103890000D01*
X99120000Y-103890000D01*
X99120000Y-103141857D01*
X99119999Y-103141857D01*
X99072441Y-103146178D01*
X98915934Y-103194947D01*
X98775662Y-103279743D01*
X98775657Y-103279747D01*
X98659747Y-103395657D01*
X98659743Y-103395662D01*
X98574947Y-103535934D01*
X98526179Y-103692437D01*
X98520000Y-103760443D01*
X88909999Y-103760443D01*
X88909999Y-103760433D01*
X88903821Y-103692438D01*
X88903818Y-103692427D01*
X88855055Y-103535939D01*
X88855053Y-103535935D01*
X88770256Y-103395662D01*
X88770252Y-103395657D01*
X88654342Y-103279747D01*
X88654337Y-103279743D01*
X88514064Y-103194946D01*
X88514062Y-103194945D01*
X88395269Y-103157928D01*
X88337122Y-103119191D01*
X88309148Y-103055165D01*
X88320230Y-102986180D01*
X88366848Y-102934137D01*
X88384708Y-102924982D01*
X88556032Y-102854017D01*
X88556044Y-102854012D01*
X88846309Y-102698862D01*
X88846327Y-102698851D01*
X89120004Y-102515986D01*
X89308081Y-102361635D01*
X89308082Y-102361634D01*
X88062698Y-101116251D01*
X88164330Y-101042412D01*
X88342412Y-100864330D01*
X88416251Y-100762699D01*
X89661634Y-102008082D01*
X89661635Y-102008081D01*
X89815986Y-101820004D01*
X89998851Y-101546327D01*
X89998862Y-101546309D01*
X90154012Y-101256044D01*
X90154014Y-101256039D01*
X90279974Y-100951946D01*
X90375524Y-100636961D01*
X90375525Y-100636956D01*
X90439738Y-100314139D01*
X90472000Y-99986571D01*
X90472000Y-99657428D01*
X90439738Y-99329860D01*
X90375525Y-99007043D01*
X90375524Y-99007038D01*
X90279974Y-98692053D01*
X90154014Y-98387960D01*
X90154012Y-98387955D01*
X89998862Y-98097690D01*
X89998851Y-98097672D01*
X89815992Y-97824004D01*
X89815989Y-97824000D01*
X89661634Y-97635917D01*
X89661633Y-97635917D01*
X88416250Y-98881300D01*
X88342412Y-98779670D01*
X88164330Y-98601588D01*
X88062697Y-98527747D01*
X89308081Y-97282365D01*
X89308081Y-97282363D01*
X89256891Y-97240353D01*
X89217557Y-97182608D01*
X89215686Y-97112763D01*
X89251873Y-97052995D01*
X89314629Y-97022279D01*
X89335556Y-97020500D01*
X213145500Y-97020500D01*
X213212539Y-97040185D01*
G37*
%TD.AperFunction*%
%TA.AperFunction,Conductor*%
G36*
X96504264Y-106342363D02*
G01*
X96514347Y-106341097D01*
X96537221Y-106352040D01*
X96561552Y-106359185D01*
X96568206Y-106366864D01*
X96577375Y-106371251D01*
X96590703Y-106392827D01*
X96607307Y-106411989D01*
X96608753Y-106422046D01*
X96614095Y-106430694D01*
X96613642Y-106456049D01*
X96617251Y-106481147D01*
X96612996Y-106492251D01*
X96612848Y-106500552D01*
X96597616Y-106532390D01*
X96572608Y-106569816D01*
X96572602Y-106569827D01*
X96512264Y-106715498D01*
X96512261Y-106715510D01*
X96481500Y-106870153D01*
X96481500Y-107027846D01*
X96504659Y-107144270D01*
X96512263Y-107182497D01*
X96539415Y-107248048D01*
X96546884Y-107317516D01*
X96515609Y-107379996D01*
X96455520Y-107415648D01*
X96424854Y-107419500D01*
X91020484Y-107419500D01*
X90953445Y-107399815D01*
X90907690Y-107347011D01*
X90897746Y-107277853D01*
X90904182Y-107254387D01*
X90903969Y-107254323D01*
X90905731Y-107248508D01*
X90905737Y-107248496D01*
X90936500Y-107093841D01*
X90936500Y-106936157D01*
X90936500Y-106936154D01*
X90936499Y-106936152D01*
X90905738Y-106781509D01*
X90905737Y-106781502D01*
X90905735Y-106781497D01*
X90845397Y-106635826D01*
X90845390Y-106635813D01*
X90776285Y-106532391D01*
X90755407Y-106465714D01*
X90773891Y-106398334D01*
X90825870Y-106351643D01*
X90879387Y-106339500D01*
X96494513Y-106339500D01*
X96504264Y-106342363D01*
G37*
%TD.AperFunction*%
%TA.AperFunction,Conductor*%
G36*
X107991552Y-106359185D02*
G01*
X108037307Y-106411989D01*
X108047251Y-106481147D01*
X108027616Y-106532390D01*
X108002608Y-106569816D01*
X108002602Y-106569827D01*
X107942264Y-106715498D01*
X107942261Y-106715510D01*
X107911500Y-106870153D01*
X107911500Y-107027846D01*
X107934659Y-107144270D01*
X107942263Y-107182497D01*
X107969415Y-107248048D01*
X107976884Y-107317516D01*
X107945609Y-107379996D01*
X107885520Y-107415648D01*
X107854854Y-107419500D01*
X102454484Y-107419500D01*
X102387445Y-107399815D01*
X102341690Y-107347011D01*
X102331746Y-107277853D01*
X102338182Y-107254387D01*
X102337969Y-107254323D01*
X102339731Y-107248508D01*
X102339737Y-107248496D01*
X102370500Y-107093841D01*
X102370500Y-106936157D01*
X102370500Y-106936154D01*
X102370499Y-106936152D01*
X102339738Y-106781509D01*
X102339737Y-106781502D01*
X102339735Y-106781497D01*
X102279397Y-106635826D01*
X102279390Y-106635813D01*
X102210285Y-106532391D01*
X102189407Y-106465714D01*
X102207891Y-106398334D01*
X102259870Y-106351643D01*
X102313387Y-106339500D01*
X107924513Y-106339500D01*
X107991552Y-106359185D01*
G37*
%TD.AperFunction*%
%TA.AperFunction,Conductor*%
G36*
X119364264Y-106342363D02*
G01*
X119374347Y-106341097D01*
X119397221Y-106352040D01*
X119421552Y-106359185D01*
X119428206Y-106366864D01*
X119437375Y-106371251D01*
X119450703Y-106392827D01*
X119467307Y-106411989D01*
X119468753Y-106422046D01*
X119474095Y-106430694D01*
X119473642Y-106456049D01*
X119477251Y-106481147D01*
X119472996Y-106492251D01*
X119472848Y-106500552D01*
X119457616Y-106532390D01*
X119432608Y-106569816D01*
X119432602Y-106569827D01*
X119372264Y-106715498D01*
X119372261Y-106715510D01*
X119341500Y-106870153D01*
X119341500Y-107027846D01*
X119364659Y-107144270D01*
X119372263Y-107182497D01*
X119399415Y-107248048D01*
X119406884Y-107317516D01*
X119375609Y-107379996D01*
X119315520Y-107415648D01*
X119284854Y-107419500D01*
X113854484Y-107419500D01*
X113787445Y-107399815D01*
X113741690Y-107347011D01*
X113731746Y-107277853D01*
X113738182Y-107254387D01*
X113737969Y-107254323D01*
X113739731Y-107248508D01*
X113739737Y-107248496D01*
X113770500Y-107093841D01*
X113770500Y-106936157D01*
X113770500Y-106936154D01*
X113770499Y-106936152D01*
X113739738Y-106781509D01*
X113739737Y-106781502D01*
X113739735Y-106781497D01*
X113679397Y-106635826D01*
X113679390Y-106635813D01*
X113610285Y-106532391D01*
X113589407Y-106465714D01*
X113607891Y-106398334D01*
X113659870Y-106351643D01*
X113713387Y-106339500D01*
X119354513Y-106339500D01*
X119364264Y-106342363D01*
G37*
%TD.AperFunction*%
%TA.AperFunction,Conductor*%
G36*
X130597552Y-106359185D02*
G01*
X130643307Y-106411989D01*
X130653251Y-106481147D01*
X130633616Y-106532390D01*
X130608608Y-106569816D01*
X130608602Y-106569827D01*
X130548264Y-106715498D01*
X130548261Y-106715510D01*
X130517500Y-106870153D01*
X130517500Y-107027846D01*
X130540659Y-107144270D01*
X130548263Y-107182497D01*
X130575415Y-107248048D01*
X130582884Y-107317516D01*
X130551609Y-107379996D01*
X130491520Y-107415648D01*
X130460854Y-107419500D01*
X125254484Y-107419500D01*
X125187445Y-107399815D01*
X125141690Y-107347011D01*
X125131746Y-107277853D01*
X125138182Y-107254387D01*
X125137969Y-107254323D01*
X125139731Y-107248508D01*
X125139737Y-107248496D01*
X125170500Y-107093841D01*
X125170500Y-106936157D01*
X125170500Y-106936154D01*
X125170499Y-106936152D01*
X125139738Y-106781509D01*
X125139737Y-106781502D01*
X125139735Y-106781497D01*
X125079397Y-106635826D01*
X125079390Y-106635813D01*
X125010285Y-106532391D01*
X124989407Y-106465714D01*
X125007891Y-106398334D01*
X125059870Y-106351643D01*
X125113387Y-106339500D01*
X130530513Y-106339500D01*
X130597552Y-106359185D01*
G37*
%TD.AperFunction*%
%TA.AperFunction,Conductor*%
G36*
X141970264Y-106342363D02*
G01*
X141980347Y-106341097D01*
X142003221Y-106352040D01*
X142027552Y-106359185D01*
X142034206Y-106366864D01*
X142043375Y-106371251D01*
X142056703Y-106392827D01*
X142073307Y-106411989D01*
X142074753Y-106422046D01*
X142080095Y-106430694D01*
X142079642Y-106456049D01*
X142083251Y-106481147D01*
X142078996Y-106492251D01*
X142078848Y-106500552D01*
X142063616Y-106532390D01*
X142038608Y-106569816D01*
X142038602Y-106569827D01*
X141978264Y-106715498D01*
X141978261Y-106715510D01*
X141947500Y-106870153D01*
X141947500Y-107027846D01*
X141970659Y-107144270D01*
X141978263Y-107182497D01*
X142005415Y-107248048D01*
X142012884Y-107317516D01*
X141981609Y-107379996D01*
X141921520Y-107415648D01*
X141890854Y-107419500D01*
X136654484Y-107419500D01*
X136587445Y-107399815D01*
X136541690Y-107347011D01*
X136531746Y-107277853D01*
X136538182Y-107254387D01*
X136537969Y-107254323D01*
X136539731Y-107248508D01*
X136539737Y-107248496D01*
X136570500Y-107093841D01*
X136570500Y-106936157D01*
X136570500Y-106936154D01*
X136570499Y-106936152D01*
X136539738Y-106781509D01*
X136539737Y-106781502D01*
X136539735Y-106781497D01*
X136479397Y-106635826D01*
X136479390Y-106635813D01*
X136410285Y-106532391D01*
X136389407Y-106465714D01*
X136407891Y-106398334D01*
X136459870Y-106351643D01*
X136513387Y-106339500D01*
X141960513Y-106339500D01*
X141970264Y-106342363D01*
G37*
%TD.AperFunction*%
%TA.AperFunction,Conductor*%
G36*
X153457552Y-106359185D02*
G01*
X153503307Y-106411989D01*
X153513251Y-106481147D01*
X153493616Y-106532390D01*
X153468608Y-106569816D01*
X153468602Y-106569827D01*
X153408264Y-106715498D01*
X153408261Y-106715510D01*
X153377500Y-106870153D01*
X153377500Y-107027846D01*
X153400659Y-107144270D01*
X153408263Y-107182497D01*
X153435415Y-107248048D01*
X153442884Y-107317516D01*
X153411609Y-107379996D01*
X153351520Y-107415648D01*
X153320854Y-107419500D01*
X148054484Y-107419500D01*
X147987445Y-107399815D01*
X147941690Y-107347011D01*
X147931746Y-107277853D01*
X147938182Y-107254387D01*
X147937969Y-107254323D01*
X147939731Y-107248508D01*
X147939737Y-107248496D01*
X147970500Y-107093841D01*
X147970500Y-106936157D01*
X147970500Y-106936154D01*
X147970499Y-106936152D01*
X147939738Y-106781509D01*
X147939737Y-106781502D01*
X147939735Y-106781497D01*
X147879397Y-106635826D01*
X147879390Y-106635813D01*
X147810285Y-106532391D01*
X147789407Y-106465714D01*
X147807891Y-106398334D01*
X147859870Y-106351643D01*
X147913387Y-106339500D01*
X153390513Y-106339500D01*
X153457552Y-106359185D01*
G37*
%TD.AperFunction*%
%TA.AperFunction,Conductor*%
G36*
X164830264Y-106342363D02*
G01*
X164840347Y-106341097D01*
X164863221Y-106352040D01*
X164887552Y-106359185D01*
X164894206Y-106366864D01*
X164903375Y-106371251D01*
X164916703Y-106392827D01*
X164933307Y-106411989D01*
X164934753Y-106422046D01*
X164940095Y-106430694D01*
X164939642Y-106456049D01*
X164943251Y-106481147D01*
X164938996Y-106492251D01*
X164938848Y-106500552D01*
X164923616Y-106532390D01*
X164898608Y-106569816D01*
X164898602Y-106569827D01*
X164838264Y-106715498D01*
X164838261Y-106715510D01*
X164807500Y-106870153D01*
X164807500Y-107027846D01*
X164830659Y-107144270D01*
X164838263Y-107182497D01*
X164865415Y-107248048D01*
X164872884Y-107317516D01*
X164841609Y-107379996D01*
X164781520Y-107415648D01*
X164750854Y-107419500D01*
X159454484Y-107419500D01*
X159387445Y-107399815D01*
X159341690Y-107347011D01*
X159331746Y-107277853D01*
X159338182Y-107254387D01*
X159337969Y-107254323D01*
X159339731Y-107248508D01*
X159339737Y-107248496D01*
X159370500Y-107093841D01*
X159370500Y-106936157D01*
X159370500Y-106936154D01*
X159370499Y-106936152D01*
X159339738Y-106781509D01*
X159339737Y-106781502D01*
X159339735Y-106781497D01*
X159279397Y-106635826D01*
X159279390Y-106635813D01*
X159210285Y-106532391D01*
X159189407Y-106465714D01*
X159207891Y-106398334D01*
X159259870Y-106351643D01*
X159313387Y-106339500D01*
X164820513Y-106339500D01*
X164830264Y-106342363D01*
G37*
%TD.AperFunction*%
%TA.AperFunction,Conductor*%
G36*
X84975483Y-97040185D02*
G01*
X85021238Y-97092989D01*
X85031182Y-97162147D01*
X85002157Y-97225703D01*
X84987108Y-97240354D01*
X84935917Y-97282364D01*
X84935917Y-97282365D01*
X86181301Y-98527748D01*
X86079670Y-98601588D01*
X85901588Y-98779670D01*
X85827748Y-98881301D01*
X84582365Y-97635917D01*
X84582364Y-97635917D01*
X84490354Y-97748033D01*
X84432608Y-97787368D01*
X84362763Y-97789239D01*
X84302995Y-97753052D01*
X84272279Y-97690296D01*
X84270500Y-97669369D01*
X84270500Y-97144500D01*
X84290185Y-97077461D01*
X84342989Y-97031706D01*
X84394500Y-97020500D01*
X84908444Y-97020500D01*
X84975483Y-97040185D01*
G37*
%TD.AperFunction*%
%TD*%
M02*
