%TF.GenerationSoftware,KiCad,Pcbnew,9.0.0*%
%TF.CreationDate,2026-06-23T13:20:14-04:00*%
%TF.ProjectId,MagnetroneSensorArm,4d61676e-6574-4726-9f6e-6553656e736f,rev?*%
%TF.SameCoordinates,Original*%
%TF.FileFunction,Soldermask,Bot*%
%TF.FilePolarity,Negative*%
%FSLAX46Y46*%
G04 Gerber Fmt 4.6, Leading zero omitted, Abs format (unit mm)*
G04 Created by KiCad (PCBNEW 9.0.0) date 2026-06-23 13:20:14*
%MOMM*%
%LPD*%
G01*
G04 APERTURE LIST*
G04 Aperture macros list*
%AMRoundRect*
0 Rectangle with rounded corners*
0 $1 Rounding radius*
0 $2 $3 $4 $5 $6 $7 $8 $9 X,Y pos of 4 corners*
0 Add a 4 corners polygon primitive as box body*
4,1,4,$2,$3,$4,$5,$6,$7,$8,$9,$2,$3,0*
0 Add four circle primitives for the rounded corners*
1,1,$1+$1,$2,$3*
1,1,$1+$1,$4,$5*
1,1,$1+$1,$6,$7*
1,1,$1+$1,$8,$9*
0 Add four rect primitives between the rounded corners*
20,1,$1+$1,$2,$3,$4,$5,0*
20,1,$1+$1,$4,$5,$6,$7,0*
20,1,$1+$1,$6,$7,$8,$9,0*
20,1,$1+$1,$8,$9,$2,$3,0*%
G04 Aperture macros list end*
%ADD10C,3.600000*%
%ADD11C,5.700000*%
%ADD12RoundRect,0.250000X-0.600000X0.600000X-0.600000X-0.600000X0.600000X-0.600000X0.600000X0.600000X0*%
%ADD13C,1.700000*%
%ADD14RoundRect,0.250000X0.450000X-0.350000X0.450000X0.350000X-0.450000X0.350000X-0.450000X-0.350000X0*%
%ADD15RoundRect,0.250000X0.475000X-0.337500X0.475000X0.337500X-0.475000X0.337500X-0.475000X-0.337500X0*%
G04 APERTURE END LIST*
D10*
%TO.C,H1*%
X87122000Y-99822000D03*
D11*
X87122000Y-99822000D03*
%TD*%
D12*
%TO.C,J1*%
X205408000Y-101355500D03*
D13*
X205408000Y-103895500D03*
X202868000Y-101355500D03*
X202868000Y-103895500D03*
X200328000Y-101355500D03*
X200328000Y-103895500D03*
X197788000Y-101355500D03*
X197788000Y-103895500D03*
X195248000Y-101355500D03*
X195248000Y-103895500D03*
%TD*%
D14*
%TO.C,R10*%
X137170000Y-106440000D03*
X137170000Y-104440000D03*
%TD*%
%TO.C,R16*%
X171370000Y-106440000D03*
X171370000Y-104440000D03*
%TD*%
%TO.C,R5*%
X116970000Y-106440000D03*
X116970000Y-104440000D03*
%TD*%
%TO.C,R13*%
X162570000Y-106440000D03*
X162570000Y-104440000D03*
%TD*%
%TO.C,R9*%
X139770000Y-106440000D03*
X139770000Y-104440000D03*
%TD*%
%TO.C,R7*%
X128370000Y-106440000D03*
X128370000Y-104440000D03*
%TD*%
%TO.C,R3*%
X105570000Y-106440000D03*
X105570000Y-104440000D03*
%TD*%
D15*
%TO.C,C8*%
X166825000Y-106447500D03*
X166825000Y-104372500D03*
%TD*%
%TO.C,C3*%
X109825000Y-106447500D03*
X109825000Y-104372500D03*
%TD*%
D14*
%TO.C,R8*%
X125770000Y-106440000D03*
X125770000Y-104440000D03*
%TD*%
D15*
%TO.C,C2*%
X98425000Y-106447500D03*
X98425000Y-104372500D03*
%TD*%
%TO.C,C1*%
X87115000Y-106447500D03*
X87115000Y-104372500D03*
%TD*%
D14*
%TO.C,R2*%
X91660000Y-106440000D03*
X91660000Y-104440000D03*
%TD*%
%TO.C,R15*%
X173970000Y-106440000D03*
X173970000Y-104440000D03*
%TD*%
%TO.C,R6*%
X114370000Y-106440000D03*
X114370000Y-104440000D03*
%TD*%
D15*
%TO.C,C4*%
X121225000Y-106447500D03*
X121225000Y-104372500D03*
%TD*%
D14*
%TO.C,R11*%
X151170000Y-106440000D03*
X151170000Y-104440000D03*
%TD*%
D15*
%TO.C,C5*%
X132625000Y-106447500D03*
X132625000Y-104372500D03*
%TD*%
%TO.C,C6*%
X144025000Y-106447500D03*
X144025000Y-104372500D03*
%TD*%
D14*
%TO.C,R4*%
X102970000Y-106440000D03*
X102970000Y-104440000D03*
%TD*%
D15*
%TO.C,C7*%
X155425000Y-106447500D03*
X155425000Y-104372500D03*
%TD*%
D14*
%TO.C,R12*%
X148570000Y-106440000D03*
X148570000Y-104440000D03*
%TD*%
%TO.C,R14*%
X159970000Y-106440000D03*
X159970000Y-104440000D03*
%TD*%
%TO.C,R1*%
X94260000Y-106440000D03*
X94260000Y-104440000D03*
%TD*%
M02*
