M48
; DRILL file {KiCad 9.0.0} date 2026-06-23T12:39:44-0400
; FORMAT={-:-/ absolute / inch / decimal}
; #@! TF.CreationDate,2026-06-23T12:39:44-04:00
; #@! TF.GenerationSoftware,Kicad,Pcbnew,9.0.0
; #@! TF.FileFunction,Plated,1,4,PTH
FMAT,2
INCH
; #@! TA.AperFunction,Plated,PTH,ViaDrill
T1C0.0118
; #@! TA.AperFunction,Plated,PTH,ComponentDrill
T2C0.0315
; #@! TA.AperFunction,Plated,PTH,ComponentDrill
T3C0.0335
; #@! TA.AperFunction,Plated,PTH,ComponentDrill
T4C0.0394
; #@! TA.AperFunction,Plated,PTH,ComponentDrill
T5C0.0398
; #@! TA.AperFunction,Plated,PTH,ComponentDrill
T6C0.0433
; #@! TA.AperFunction,Plated,PTH,ComponentDrill
T7C0.0630
; #@! TA.AperFunction,Plated,PTH,ComponentDrill
T8C0.1260
%
G90
G05
T1
X2.27Y-3.26
X2.41Y-4.24
X2.61Y-3.44
X2.62Y-4.64
X2.82Y-4.45
X2.96Y-5.15
X2.97Y-4.45
X3.04Y-3.8
X3.15Y-5.15
X3.2Y-4.45
X3.2022Y-4.7678
X3.33Y-3.54
X3.37Y-5.15
X3.5Y-3.29
X3.54Y-2.93
X3.58Y-4.46
X3.64Y-5.15
X3.65Y-4.82
X3.75Y-4.6
X3.8Y-3.16
X3.94Y-5.15
X4.13Y-4.81
X4.225Y-5.215
X4.27Y-4.3
X4.27Y-4.41
X4.27Y-4.5
X4.27Y-4.6
X4.28Y-4.81
X4.38Y-4.81
X4.6Y-4.81
T2
X2.1537Y-4.355
X2.1537Y-4.455
X2.37Y-3.499
X2.37Y-3.6486
X2.6356Y-4.201
X2.6356Y-4.2797
X2.6356Y-4.3585
X2.7144Y-4.201
X2.7144Y-4.2797
X2.7144Y-4.3585
X3.0202Y-2.7
X3.0202Y-2.8
X3.0202Y-2.9
X3.0202Y-3.0
X3.3202Y-2.7
X3.3202Y-2.8
X3.3202Y-2.9
X3.3202Y-3.0
X3.61Y-3.4804
X3.61Y-3.63
X4.105Y-3.9075
X4.106Y-3.8075
X4.11Y-3.3775
X4.11Y-3.4775
X4.85Y-3.3825
X4.85Y-3.4825
X4.85Y-3.9075
X4.851Y-3.8075
T3
X2.4284Y-3.0537
X2.6056Y-3.0537
X2.7828Y-3.0537
X3.5428Y-3.0511
X3.72Y-3.0511
X3.8972Y-3.0511
T4
X2.12Y-3.1704
X2.12Y-3.2704
X2.12Y-3.3704
X2.12Y-3.4704
X2.61Y-3.19
X2.61Y-3.69
X2.71Y-3.19
X2.71Y-3.69
X2.81Y-3.19
X2.81Y-3.69
X2.91Y-3.19
X2.91Y-3.69
X2.9669Y-5.4026
X2.9669Y-5.5026
X3.01Y-3.19
X3.01Y-3.69
X3.0669Y-5.4026
X3.0669Y-5.5026
X3.11Y-3.19
X3.11Y-3.69
X3.1669Y-5.4026
X3.1669Y-5.5026
X3.21Y-3.19
X3.21Y-3.69
X3.2474Y-3.34
X3.2669Y-5.4026
X3.2669Y-5.5026
X3.31Y-3.19
X3.31Y-3.29
X3.31Y-3.39
X3.31Y-3.69
X3.3669Y-5.4026
X3.3669Y-5.5026
X3.4669Y-5.4026
X3.4669Y-5.5026
X3.5669Y-5.4026
X3.5669Y-5.5026
X3.6669Y-5.4026
X3.6669Y-5.5026
X3.7669Y-5.4026
X3.7669Y-5.5026
X3.8669Y-5.4026
X3.8669Y-5.5026
X3.9669Y-5.4026
X3.9669Y-5.5026
X4.0669Y-5.4026
X4.0669Y-5.5026
X4.1395Y-2.68
X4.1669Y-5.4026
X4.1669Y-5.5026
X4.238Y-2.68
X4.88Y-4.59
X4.88Y-4.69
X4.88Y-4.79
X4.88Y-4.89
X4.88Y-4.99
X4.98Y-4.59
X4.98Y-4.69
X4.98Y-4.79
X4.98Y-4.89
X4.98Y-4.99
T5
X4.9364Y-3.1804
X4.9836Y-2.9796
T6
X2.125Y-4.105
X2.125Y-4.705
X2.225Y-4.105
X2.225Y-4.205
X2.225Y-4.705
X2.325Y-4.105
X2.325Y-4.705
X2.373Y-4.5849
X2.425Y-4.105
X2.425Y-4.705
X2.473Y-4.5849
X2.525Y-4.105
X2.525Y-4.705
X2.573Y-4.5849
X2.625Y-4.105
X2.625Y-4.705
X2.673Y-4.5849
X2.725Y-4.105
X2.725Y-4.705
X2.773Y-4.5849
X2.825Y-4.105
X2.825Y-4.705
X2.925Y-4.105
X2.925Y-4.705
X3.025Y-4.105
X3.025Y-4.705
X3.125Y-4.105
X3.125Y-4.705
X3.225Y-4.105
X3.225Y-4.705
X3.325Y-4.105
X3.325Y-4.705
X3.425Y-4.105
X3.425Y-4.705
X3.525Y-4.105
X3.525Y-4.705
X3.625Y-4.105
X3.625Y-4.705
X3.725Y-4.105
X3.725Y-4.705
X3.825Y-4.105
X3.825Y-4.705
X3.925Y-4.105
X3.925Y-4.205
X3.925Y-4.305
X3.925Y-4.405
X3.925Y-4.505
X3.925Y-4.605
X3.925Y-4.705
X4.025Y-4.105
X4.025Y-4.705
X4.125Y-4.105
X4.125Y-4.705
X4.225Y-4.105
X4.225Y-4.705
X4.325Y-4.105
X4.325Y-4.705
X4.425Y-4.105
X4.425Y-4.705
T7
X4.445Y-2.936
X4.63Y-2.8179
X4.63Y-3.0541
T8
X2.2169Y-2.6969
X2.2169Y-5.4528
X4.9728Y-2.6969
X4.9728Y-5.4528
M30
