%TF.GenerationSoftware,KiCad,Pcbnew,9.0.0*%
%TF.CreationDate,2026-06-23T12:39:47-04:00*%
%TF.ProjectId,MagnetroneController,4d61676e-6574-4726-9f6e-65436f6e7472,rev?*%
%TF.SameCoordinates,Original*%
%TF.FileFunction,Soldermask,Top*%
%TF.FilePolarity,Negative*%
%FSLAX46Y46*%
G04 Gerber Fmt 4.6, Leading zero omitted, Abs format (unit mm)*
G04 Created by KiCad (PCBNEW 9.0.0) date 2026-06-23 12:39:47*
%MOMM*%
%LPD*%
G01*
G04 APERTURE LIST*
G04 Aperture macros list*
%AMRoundRect*
0 Rectangle with rounded corners*
0 $1 Rounding radius*
0 $2 $3 $4 $5 $6 $7 $8 $9 X,Y pos of 4 corners*
0 Add a 4 corners polygon primitive as box body*
4,1,4,$2,$3,$4,$5,$6,$7,$8,$9,$2,$3,0*
0 Add four circle primitives for the rounded corners*
1,1,$1+$1,$2,$3*
1,1,$1+$1,$4,$5*
1,1,$1+$1,$6,$7*
1,1,$1+$1,$8,$9*
0 Add four rect primitives between the rounded corners*
20,1,$1+$1,$2,$3,$4,$5,0*
20,1,$1+$1,$4,$5,$6,$7,0*
20,1,$1+$1,$6,$7,$8,$9,0*
20,1,$1+$1,$8,$9,$2,$3,0*%
G04 Aperture macros list end*
%ADD10R,1.700000X1.700000*%
%ADD11O,1.700000X1.700000*%
%ADD12C,1.200000*%
%ADD13RoundRect,0.250000X-0.600000X-0.750000X0.600000X-0.750000X0.600000X0.750000X-0.600000X0.750000X0*%
%ADD14O,1.700000X2.000000*%
%ADD15RoundRect,0.250000X-0.337500X-0.475000X0.337500X-0.475000X0.337500X0.475000X-0.337500X0.475000X0*%
%ADD16RoundRect,0.250000X-0.350000X-0.450000X0.350000X-0.450000X0.350000X0.450000X-0.350000X0.450000X0*%
%ADD17C,3.600000*%
%ADD18C,5.700000*%
%ADD19R,1.600000X1.600000*%
%ADD20C,1.600000*%
%ADD21RoundRect,0.250000X0.450000X-0.350000X0.450000X0.350000X-0.450000X0.350000X-0.450000X-0.350000X0*%
%ADD22C,2.500000*%
%ADD23C,2.000000*%
%ADD24RoundRect,0.250000X-0.600000X0.600000X-0.600000X-0.600000X0.600000X-0.600000X0.600000X0.600000X0*%
%ADD25C,1.700000*%
%ADD26C,2.010000*%
%ADD27R,1.300000X1.300000*%
%ADD28C,1.300000*%
%ADD29RoundRect,0.225000X-0.375000X0.225000X-0.375000X-0.225000X0.375000X-0.225000X0.375000X0.225000X0*%
%ADD30RoundRect,0.250000X0.350000X0.450000X-0.350000X0.450000X-0.350000X-0.450000X0.350000X-0.450000X0*%
%ADD31RoundRect,0.250000X0.600000X0.600000X-0.600000X0.600000X-0.600000X-0.600000X0.600000X-0.600000X0*%
%ADD32RoundRect,0.250000X-0.550000X-0.550000X0.550000X-0.550000X0.550000X0.550000X-0.550000X0.550000X0*%
%ADD33RoundRect,0.250000X-0.650000X1.000000X-0.650000X-1.000000X0.650000X-1.000000X0.650000X1.000000X0*%
%ADD34R,2.600000X2.600000*%
%ADD35C,2.600000*%
G04 APERTURE END LIST*
D10*
%TO.C,J1*%
X53848000Y-80528000D03*
D11*
X53848000Y-83068000D03*
X53848000Y-85608000D03*
X53848000Y-88148000D03*
%TD*%
D12*
%TO.C,SW9*%
X103544000Y-70072000D03*
D13*
X105144000Y-68072000D03*
D14*
X107644000Y-68072000D03*
%TD*%
D15*
%TO.C,C9*%
X82274500Y-65786000D03*
X84349500Y-65786000D03*
%TD*%
D16*
%TO.C,R5*%
X89932000Y-100838000D03*
X91932000Y-100838000D03*
%TD*%
D17*
%TO.C,H4*%
X126308000Y-138500000D03*
D18*
X126308000Y-138500000D03*
%TD*%
D17*
%TO.C,H3*%
X56308000Y-138500000D03*
D18*
X56308000Y-138500000D03*
%TD*%
D17*
%TO.C,H2*%
X126308000Y-68500000D03*
D18*
X126308000Y-68500000D03*
%TD*%
D19*
%TO.C,C1*%
X91694000Y-88402000D03*
D20*
X91694000Y-92202000D03*
%TD*%
D21*
%TO.C,R3*%
X73660000Y-75930000D03*
X73660000Y-73930000D03*
%TD*%
D22*
%TO.C,J2*%
X98988000Y-65499000D03*
X94488000Y-65499000D03*
X89988000Y-65499000D03*
D23*
X94488000Y-77499000D03*
X98988000Y-77499000D03*
X89988000Y-77499000D03*
%TD*%
D24*
%TO.C,J8*%
X105840000Y-137225884D03*
D25*
X105840000Y-139765884D03*
X103300000Y-137225884D03*
X103300000Y-139765884D03*
X100760000Y-137225884D03*
X100760000Y-139765884D03*
X98220000Y-137225884D03*
X98220000Y-139765884D03*
X95680000Y-137225884D03*
X95680000Y-139765884D03*
X93140000Y-137225884D03*
X93140000Y-139765884D03*
X90600000Y-137225884D03*
X90600000Y-139765884D03*
X88060000Y-137225884D03*
X88060000Y-139765884D03*
X85520000Y-137225884D03*
X85520000Y-139765884D03*
X82980000Y-137225884D03*
X82980000Y-139765884D03*
X80440000Y-137225884D03*
X80440000Y-139765884D03*
X77900000Y-137225884D03*
X77900000Y-139765884D03*
X75360000Y-137225884D03*
X75360000Y-139765884D03*
%TD*%
D22*
%TO.C,J3*%
X70682500Y-65563500D03*
X66182500Y-65563500D03*
X61682500Y-65563500D03*
D23*
X66182500Y-77563500D03*
X70682500Y-77563500D03*
X61682500Y-77563500D03*
%TD*%
D26*
%TO.C,F1*%
X126584000Y-75682000D03*
X125384000Y-80782000D03*
%TD*%
D21*
%TO.C,R4*%
X86868000Y-75676000D03*
X86868000Y-73676000D03*
%TD*%
D19*
%TO.C,U10*%
X53975000Y-119507000D03*
D20*
X56515000Y-119507000D03*
X59055000Y-119507000D03*
X61595000Y-119507000D03*
X64135000Y-119507000D03*
X66675000Y-119507000D03*
X69215000Y-119507000D03*
X71755000Y-119507000D03*
X74295000Y-119507000D03*
X76835000Y-119507000D03*
X79375000Y-119507000D03*
X81915000Y-119507000D03*
X84455000Y-119507000D03*
X86995000Y-119507000D03*
X89535000Y-119507000D03*
X92075000Y-119507000D03*
X94615000Y-119507000D03*
X97155000Y-119507000D03*
X99695000Y-119507000D03*
X102235000Y-119507000D03*
X104775000Y-119507000D03*
X107315000Y-119507000D03*
X109855000Y-119507000D03*
X112395000Y-119507000D03*
X112395000Y-104267000D03*
X109855000Y-104267000D03*
X107315000Y-104267000D03*
X104775000Y-104267000D03*
X102235000Y-104267000D03*
X99695000Y-104267000D03*
X97155000Y-104267000D03*
X94615000Y-104267000D03*
X92075000Y-104267000D03*
X89535000Y-104267000D03*
X86995000Y-104267000D03*
X84455000Y-104267000D03*
X81915000Y-104267000D03*
X79375000Y-104267000D03*
X76835000Y-104267000D03*
X74295000Y-104267000D03*
X71755000Y-104267000D03*
X69215000Y-104267000D03*
X66675000Y-104267000D03*
X64135000Y-104267000D03*
X61595000Y-104267000D03*
X59055000Y-104267000D03*
X56515000Y-104267000D03*
X53975000Y-104267000D03*
X56515000Y-106807000D03*
X99695000Y-116967000D03*
X99695000Y-114427000D03*
X99695000Y-111887000D03*
X99695000Y-109347000D03*
X99695000Y-106807000D03*
D19*
X60274200Y-116456200D03*
D20*
X62814200Y-116456200D03*
X65354200Y-116456200D03*
X67894200Y-116456200D03*
X70434200Y-116456200D03*
D27*
X66945000Y-106705400D03*
D28*
X66945000Y-108705400D03*
X66945000Y-110705400D03*
X68945000Y-110705400D03*
X68945000Y-108705400D03*
X68945000Y-106705400D03*
X54705000Y-110617000D03*
X54705000Y-113157000D03*
%TD*%
D29*
%TO.C,D1*%
X58420000Y-73914000D03*
X58420000Y-77214000D03*
%TD*%
D10*
%TO.C,U1*%
X84074000Y-81026000D03*
D25*
X81534000Y-81026000D03*
X78994000Y-81026000D03*
X76454000Y-81026000D03*
X73914000Y-81026000D03*
X71374000Y-81026000D03*
X68834000Y-81026000D03*
X66294000Y-81026000D03*
X84074000Y-93726000D03*
X81534000Y-93726000D03*
X78994000Y-93726000D03*
X76454000Y-93726000D03*
X73914000Y-93726000D03*
X71374000Y-93726000D03*
X68834000Y-93726000D03*
X66294000Y-93726000D03*
X84074000Y-83566000D03*
X84074000Y-86106000D03*
X82484000Y-84836000D03*
%TD*%
D30*
%TO.C,R1*%
X90932000Y-80264000D03*
X88932000Y-80264000D03*
%TD*%
D31*
%TO.C,J7*%
X126492000Y-126746000D03*
D25*
X123952000Y-126746000D03*
X126492000Y-124206000D03*
X123952000Y-124206000D03*
X126492000Y-121666000D03*
X123952000Y-121666000D03*
X126492000Y-119126000D03*
X123952000Y-119126000D03*
X126492000Y-116586000D03*
X123952000Y-116586000D03*
%TD*%
D32*
%TO.C,U12*%
X76713000Y-68580000D03*
D20*
X76713000Y-71120000D03*
X76713000Y-73660000D03*
X76713000Y-76200000D03*
X84333000Y-76200000D03*
X84333000Y-73660000D03*
X84333000Y-71120000D03*
X84333000Y-68580000D03*
%TD*%
D17*
%TO.C,H1*%
X56308000Y-68500000D03*
D18*
X56308000Y-68500000D03*
%TD*%
D33*
%TO.C,D2*%
X107696000Y-75978000D03*
X107696000Y-79978000D03*
%TD*%
D19*
%TO.C,C2*%
X60198000Y-88875349D03*
D20*
X60198000Y-92675349D03*
%TD*%
D30*
%TO.C,R2*%
X100060000Y-80264000D03*
X98060000Y-80264000D03*
%TD*%
D34*
%TO.C,J4*%
X117602000Y-77574000D03*
D35*
X117602000Y-71574000D03*
X112902000Y-74574000D03*
%TD*%
M02*
